<mxfile host="app.diagrams.net" modified="2022-03-31T06:58:14.985Z" agent="5.0 (Windows NT 10.0; Win64; x64) AppleWebKit/537.36 (KHTML, like Gecko) Chrome/96.0.4664.93 Safari/537.36" etag="CTvkvQRudOkbuQCBqOgx" version="17.2.4" type="github">
  <diagram name="Page-1" id="7a6c530e-6e37-e111-ec74-82921da8cc10">
    <mxGraphModel dx="1422" dy="786" grid="1" gridSize="10" guides="1" tooltips="1" connect="1" arrows="1" fold="1" page="1" pageScale="1.5" pageWidth="1169" pageHeight="826" background="#184380" math="0" shadow="0">
      <root>
        <mxCell id="0" style=";html=1;" />
        <mxCell id="1" style=";html=1;" parent="0" />
        <mxCell id="23046e2b9bb16c14-116" value="Remote Service Provider" style="whiteSpace=wrap;html=1;rounded=1;shadow=0;strokeColor=none;strokeWidth=2;fillColor=#009BFF;fontSize=20;fontColor=#FFFFFF;align=center;arcSize=3;verticalAlign=top;spacingTop=4;" parent="1" vertex="1">
          <mxGeometry x="250" y="194" width="1080" height="626" as="geometry" />
        </mxCell>
        <mxCell id="23046e2b9bb16c14-27" value="" style="rounded=1;whiteSpace=wrap;html=1;shadow=0;strokeWidth=2;fillColor=#8BC63E;fontSize=12;fontColor=#000000;align=center;strokeColor=none;arcSize=3;" parent="1" vertex="1">
          <mxGeometry x="730" y="268" width="570" height="382" as="geometry" />
        </mxCell>
        <mxCell id="23046e2b9bb16c14-110" value="+" style="text;html=1;strokeColor=none;fillColor=none;align=center;verticalAlign=middle;whiteSpace=wrap;rounded=1;shadow=0;fontSize=30;fontColor=#FFFFFF;fontStyle=1" parent="1" vertex="1">
          <mxGeometry x="1304" y="866" width="40" height="35" as="geometry" />
        </mxCell>
        <mxCell id="oMiTvaC7AODBL7d5hOzX-90" value="" style="shape=flexArrow;endArrow=classic;startArrow=classic;html=1;rounded=0;fontSize=7;fontColor=#FFFFFF;strokeColor=#FFFFFF;strokeWidth=2;entryX=0.001;entryY=0.259;entryDx=0;entryDy=0;entryPerimeter=0;startWidth=5.5;startSize=4.13;endWidth=5.5;endSize=4.13;width=4;" parent="1" edge="1">
          <mxGeometry width="100" height="100" relative="1" as="geometry">
            <mxPoint x="510" y="485" as="sourcePoint" />
            <mxPoint x="591.004" y="485.0010000000001" as="targetPoint" />
            <Array as="points">
              <mxPoint x="544.43" y="485.07000000000005" />
            </Array>
          </mxGeometry>
        </mxCell>
        <mxCell id="oMiTvaC7AODBL7d5hOzX-91" value="&lt;font style=&quot;font-size: 11px&quot;&gt;MQTT&lt;/font&gt;" style="edgeLabel;html=1;align=center;verticalAlign=bottom;resizable=0;points=[];fontSize=10;fontColor=#FFFFFF;labelPosition=center;verticalLabelPosition=top;labelBackgroundColor=none;" parent="oMiTvaC7AODBL7d5hOzX-90" vertex="1" connectable="0">
          <mxGeometry x="-0.181" y="-2" relative="1" as="geometry">
            <mxPoint x="5" y="-3" as="offset" />
          </mxGeometry>
        </mxCell>
        <mxCell id="oMiTvaC7AODBL7d5hOzX-94" value="" style="shape=flexArrow;endArrow=classic;startArrow=classic;html=1;rounded=0;fontSize=7;fontColor=#FFFFFF;strokeColor=#FFFFFF;strokeWidth=2;entryX=0.001;entryY=0.259;entryDx=0;entryDy=0;entryPerimeter=0;startWidth=5.5;startSize=4.13;endWidth=5.5;endSize=4.13;width=4;" parent="1" edge="1">
          <mxGeometry width="100" height="100" relative="1" as="geometry">
            <mxPoint x="510" y="357" as="sourcePoint" />
            <mxPoint x="584.9639999999999" y="356.9310000000001" as="targetPoint" />
            <Array as="points">
              <mxPoint x="538.3899999999999" y="357.00000000000006" />
            </Array>
          </mxGeometry>
        </mxCell>
        <mxCell id="oMiTvaC7AODBL7d5hOzX-95" value="&lt;font style=&quot;font-size: 11px&quot;&gt;HTTPS&lt;/font&gt;" style="edgeLabel;html=1;align=center;verticalAlign=bottom;resizable=0;points=[];fontSize=10;fontColor=#FFFFFF;labelPosition=center;verticalLabelPosition=top;labelBackgroundColor=none;" parent="oMiTvaC7AODBL7d5hOzX-94" vertex="1" connectable="0">
          <mxGeometry x="-0.181" y="-2" relative="1" as="geometry">
            <mxPoint x="5" y="-3" as="offset" />
          </mxGeometry>
        </mxCell>
        <mxCell id="oMiTvaC7AODBL7d5hOzX-96" value="" style="shape=flexArrow;endArrow=classic;startArrow=classic;html=1;rounded=0;fontSize=7;fontColor=#FFFFFF;strokeColor=#FFFFFF;strokeWidth=2;entryX=0.001;entryY=0.259;entryDx=0;entryDy=0;entryPerimeter=0;startWidth=5.5;startSize=4.13;endWidth=5.5;endSize=4.13;width=4;" parent="1" edge="1">
          <mxGeometry width="100" height="100" relative="1" as="geometry">
            <mxPoint x="510" y="278" as="sourcePoint" />
            <mxPoint x="584.9639999999999" y="277.7610000000001" as="targetPoint" />
            <Array as="points">
              <mxPoint x="538.39" y="277.83000000000004" />
            </Array>
          </mxGeometry>
        </mxCell>
        <mxCell id="oMiTvaC7AODBL7d5hOzX-97" value="&lt;font style=&quot;font-size: 11px&quot;&gt;MQTT&lt;/font&gt;" style="edgeLabel;html=1;align=center;verticalAlign=bottom;resizable=0;points=[];fontSize=10;fontColor=#FFFFFF;labelPosition=center;verticalLabelPosition=top;labelBackgroundColor=none;" parent="oMiTvaC7AODBL7d5hOzX-96" vertex="1" connectable="0">
          <mxGeometry x="-0.181" y="-2" relative="1" as="geometry">
            <mxPoint x="5" y="-3" as="offset" />
          </mxGeometry>
        </mxCell>
        <mxCell id="oMiTvaC7AODBL7d5hOzX-116" value="" style="rounded=1;whiteSpace=wrap;html=1;shadow=0;strokeWidth=2;fillColor=#60a917;fontSize=12;align=center;strokeColor=none;arcSize=3;fontColor=#ffffff;" parent="1" vertex="1">
          <mxGeometry x="725" y="700" width="574" height="90" as="geometry" />
        </mxCell>
        <mxCell id="oMiTvaC7AODBL7d5hOzX-121" value="" style="shape=flexArrow;endArrow=classic;startArrow=classic;html=1;rounded=0;fontSize=7;fontColor=#FFFFFF;strokeColor=#FFFFFF;strokeWidth=2;startWidth=5.5;startSize=4.13;endWidth=5.5;endSize=4.13;width=4;shadow=0;sketch=0;exitX=0.5;exitY=0;exitDx=0;exitDy=0;entryX=0.5;entryY=1;entryDx=0;entryDy=0;" parent="1" edge="1">
          <mxGeometry width="100" height="100" relative="1" as="geometry">
            <mxPoint x="1150" y="701" as="sourcePoint" />
            <mxPoint x="1151" y="656" as="targetPoint" />
            <Array as="points" />
          </mxGeometry>
        </mxCell>
        <mxCell id="oMiTvaC7AODBL7d5hOzX-122" value="" style="shape=flexArrow;endArrow=classic;startArrow=classic;html=1;rounded=0;fontSize=7;fontColor=#FFFFFF;strokeColor=#FFFFFF;strokeWidth=2;startWidth=5.5;startSize=4.13;endWidth=5.5;endSize=4.13;width=4;shadow=0;sketch=0;exitX=0.5;exitY=0;exitDx=0;exitDy=0;entryX=0.5;entryY=1;entryDx=0;entryDy=0;" parent="1" edge="1">
          <mxGeometry width="100" height="100" relative="1" as="geometry">
            <mxPoint x="866" y="702" as="sourcePoint" />
            <mxPoint x="867" y="657" as="targetPoint" />
            <Array as="points" />
          </mxGeometry>
        </mxCell>
        <mxCell id="oMiTvaC7AODBL7d5hOzX-130" value="" style="group" parent="1" vertex="1" connectable="0">
          <mxGeometry x="740" y="286" width="126" height="330" as="geometry" />
        </mxCell>
        <mxCell id="23046e2b9bb16c14-54" value="&lt;span style=&quot;font-size: 12px&quot;&gt;安全通信&lt;/span&gt;" style="rounded=1;whiteSpace=wrap;html=1;shadow=0;strokeWidth=2;fillColor=none;fontSize=11;fontColor=#FFFFFF;align=center;strokeColor=#FFFFFF;dashed=1;verticalAlign=top;" parent="oMiTvaC7AODBL7d5hOzX-130" vertex="1">
          <mxGeometry width="126" height="330" as="geometry" />
        </mxCell>
        <mxCell id="oMiTvaC7AODBL7d5hOzX-30" value="一机一密" style="rounded=1;whiteSpace=wrap;html=1;shadow=0;strokeWidth=2;fillColor=none;fontSize=12;fontColor=#FFFFFF;align=center;strokeColor=#FFFFFF;" parent="oMiTvaC7AODBL7d5hOzX-130" vertex="1">
          <mxGeometry x="11" y="94.86842105263156" width="105" height="46.05263157894737" as="geometry" />
        </mxCell>
        <mxCell id="oMiTvaC7AODBL7d5hOzX-41" value="同步/异步消息&lt;span style=&quot;color: rgba(0 , 0 , 0 , 0) ; font-family: monospace ; font-size: 0px&quot;&gt;%3CmxGraphModel%3E%3Croot%3E%3CmxCell%20id%3D%220%22%2F%3E%3CmxCell%20id%3D%221%22%20parent%3D%220%22%2F%3E%3CmxCell%20id%3D%222%22%20value%3D%22%E4%B8%80%E6%9C%BA%E4%B8%80%E5%AF%86%22%20style%3D%22rounded%3D1%3BwhiteSpace%3Dwrap%3Bhtml%3D1%3Bshadow%3D0%3BstrokeWidth%3D2%3BfillColor%3Dnone%3BfontSize%3D12%3BfontColor%3D%23FFFFFF%3Balign%3Dcenter%3BstrokeColor%3D%23FFFFFF%3B%22%20vertex%3D%221%22%20parent%3D%221%22%3E%3CmxGeometry%20x%3D%22751%22%20y%3D%22410%22%20width%3D%22105%22%20height%3D%2250%22%20as%3D%22geometry%22%2F%3E%3C%2FmxCell%3E%3C%2Froot%3E%3C%2FmxGraphModel%3E&lt;/span&gt;" style="rounded=1;whiteSpace=wrap;html=1;shadow=0;strokeWidth=2;fillColor=none;fontSize=12;fontColor=#FFFFFF;align=center;strokeColor=#FFFFFF;" parent="oMiTvaC7AODBL7d5hOzX-130" vertex="1">
          <mxGeometry x="11" y="152.89473684210526" width="105" height="46.05263157894737" as="geometry" />
        </mxCell>
        <mxCell id="oMiTvaC7AODBL7d5hOzX-70" value="成功闭锁通知" style="rounded=1;whiteSpace=wrap;html=1;shadow=0;strokeWidth=2;fillColor=none;fontSize=12;fontColor=#FFFFFF;align=center;strokeColor=#FFFFFF;" parent="oMiTvaC7AODBL7d5hOzX-130" vertex="1">
          <mxGeometry x="11.5" y="210.99526315789478" width="105" height="46.05263157894737" as="geometry" />
        </mxCell>
        <mxCell id="oMiTvaC7AODBL7d5hOzX-56" value="设备异常告警" style="rounded=1;whiteSpace=wrap;html=1;shadow=0;strokeWidth=2;fillColor=none;fontSize=12;fontColor=#FFFFFF;align=center;strokeColor=#FFFFFF;" parent="oMiTvaC7AODBL7d5hOzX-130" vertex="1">
          <mxGeometry x="11.5" y="266.6578947368421" width="105" height="46.05263157894737" as="geometry" />
        </mxCell>
        <mxCell id="lljOV04hM253Ap9FNTPz-74" value="混合密码认证" style="rounded=1;whiteSpace=wrap;html=1;shadow=0;strokeWidth=2;fillColor=none;fontSize=12;fontColor=#FFFFFF;align=center;strokeColor=#FFFFFF;" parent="oMiTvaC7AODBL7d5hOzX-130" vertex="1">
          <mxGeometry x="10.5" y="32.99842105263156" width="105" height="46.05263157894737" as="geometry" />
        </mxCell>
        <mxCell id="oMiTvaC7AODBL7d5hOzX-131" value="" style="group" parent="1" vertex="1" connectable="0">
          <mxGeometry x="877" y="286" width="126" height="533" as="geometry" />
        </mxCell>
        <mxCell id="oMiTvaC7AODBL7d5hOzX-35" value="&lt;span style=&quot;font-size: 12px&quot;&gt;车辆管理&lt;/span&gt;" style="rounded=1;whiteSpace=wrap;html=1;shadow=0;strokeWidth=2;fillColor=none;fontSize=11;fontColor=#FFFFFF;align=center;strokeColor=#FFFFFF;dashed=1;verticalAlign=top;" parent="oMiTvaC7AODBL7d5hOzX-131" vertex="1">
          <mxGeometry width="126" height="270" as="geometry" />
        </mxCell>
        <mxCell id="oMiTvaC7AODBL7d5hOzX-37" value="车辆设置" style="rounded=1;whiteSpace=wrap;html=1;shadow=0;strokeWidth=2;fillColor=none;fontSize=12;fontColor=#FFFFFF;align=center;strokeColor=#FFFFFF;" parent="oMiTvaC7AODBL7d5hOzX-131" vertex="1">
          <mxGeometry x="12.5" y="36.84210526315792" width="105" height="46.05263157894737" as="geometry" />
        </mxCell>
        <mxCell id="oMiTvaC7AODBL7d5hOzX-51" value="修改手机号" style="rounded=1;whiteSpace=wrap;html=1;shadow=0;strokeWidth=2;fillColor=none;fontSize=12;fontColor=#FFFFFF;align=center;strokeColor=#FFFFFF;" parent="oMiTvaC7AODBL7d5hOzX-131" vertex="1">
          <mxGeometry x="12.5" y="93.99526315789478" width="105" height="46.05263157894737" as="geometry" />
        </mxCell>
        <mxCell id="oMiTvaC7AODBL7d5hOzX-40" value="防玩功能" style="rounded=1;whiteSpace=wrap;html=1;shadow=0;strokeWidth=2;fillColor=none;fontSize=12;fontColor=#FFFFFF;align=center;strokeColor=#FFFFFF;" parent="oMiTvaC7AODBL7d5hOzX-131" vertex="1">
          <mxGeometry x="12.5" y="151.9736842105263" width="105" height="46.05263157894737" as="geometry" />
        </mxCell>
        <mxCell id="OjVr_0bqtpeIBgxC1Dfs-1" value="上报车况" style="rounded=1;whiteSpace=wrap;html=1;shadow=0;strokeWidth=2;fillColor=none;fontSize=12;fontColor=#FFFFFF;align=center;strokeColor=#FFFFFF;" vertex="1" parent="oMiTvaC7AODBL7d5hOzX-131">
          <mxGeometry x="12.5" y="212.00368421052633" width="105" height="46.05263157894737" as="geometry" />
        </mxCell>
        <mxCell id="oMiTvaC7AODBL7d5hOzX-132" value="" style="group" parent="1" vertex="1" connectable="0">
          <mxGeometry x="1020" y="256" width="138.76000000000002" height="618.87" as="geometry" />
        </mxCell>
        <mxCell id="oMiTvaC7AODBL7d5hOzX-46" value="钥匙管理" style="rounded=1;whiteSpace=wrap;html=1;shadow=0;strokeWidth=2;fillColor=none;fontSize=11;fontColor=#FFFFFF;align=center;strokeColor=#FFFFFF;dashed=1;verticalAlign=top;" parent="oMiTvaC7AODBL7d5hOzX-132" vertex="1">
          <mxGeometry y="29" width="126" height="331" as="geometry" />
        </mxCell>
        <mxCell id="oMiTvaC7AODBL7d5hOzX-47" value="下载钥匙" style="rounded=1;whiteSpace=wrap;html=1;shadow=0;strokeWidth=2;fillColor=none;fontSize=12;fontColor=#FFFFFF;align=center;strokeColor=#FFFFFF;" parent="oMiTvaC7AODBL7d5hOzX-132" vertex="1">
          <mxGeometry x="11" y="125.78947368421052" width="105" height="46.05263157894737" as="geometry" />
        </mxCell>
        <mxCell id="oMiTvaC7AODBL7d5hOzX-48" value="车控命令" style="rounded=1;whiteSpace=wrap;html=1;shadow=0;strokeWidth=2;fillColor=none;fontSize=12;fontColor=#FFFFFF;align=center;strokeColor=#FFFFFF;" parent="oMiTvaC7AODBL7d5hOzX-132" vertex="1">
          <mxGeometry x="11" y="66.84210526315792" width="105" height="46.05263157894737" as="geometry" />
        </mxCell>
        <mxCell id="oMiTvaC7AODBL7d5hOzX-49" value="冻结/解冻" style="rounded=1;whiteSpace=wrap;html=1;shadow=0;strokeWidth=2;fillColor=none;fontSize=12;fontColor=#FFFFFF;align=center;strokeColor=#FFFFFF;" parent="oMiTvaC7AODBL7d5hOzX-132" vertex="1">
          <mxGeometry x="12.5" y="182.81578947368422" width="105" height="46.05263157894737" as="geometry" />
        </mxCell>
        <mxCell id="oMiTvaC7AODBL7d5hOzX-43" value="分享/撤销/过期/删除" style="rounded=1;whiteSpace=wrap;html=1;shadow=0;strokeWidth=2;fillColor=none;fontSize=12;fontColor=#FFFFFF;align=center;strokeColor=#FFFFFF;" parent="oMiTvaC7AODBL7d5hOzX-132" vertex="1">
          <mxGeometry x="12.5" y="243.9473684210526" width="105" height="46.05263157894737" as="geometry" />
        </mxCell>
        <mxCell id="oMiTvaC7AODBL7d5hOzX-126" value="重启数字钥匙" style="rounded=1;whiteSpace=wrap;html=1;shadow=0;strokeWidth=2;fillColor=none;fontSize=12;fontColor=#FFFFFF;align=center;strokeColor=#FFFFFF;" parent="oMiTvaC7AODBL7d5hOzX-132" vertex="1">
          <mxGeometry x="13.5" y="298.9473684210526" width="105" height="46.05263157894737" as="geometry" />
        </mxCell>
        <mxCell id="oMiTvaC7AODBL7d5hOzX-133" value="" style="group" parent="1" vertex="1" connectable="0">
          <mxGeometry x="1160" y="256" width="126" height="391" as="geometry" />
        </mxCell>
        <mxCell id="oMiTvaC7AODBL7d5hOzX-53" value="&lt;span style=&quot;font-size: 12px&quot;&gt;运维监控&lt;/span&gt;" style="rounded=1;whiteSpace=wrap;html=1;shadow=0;strokeWidth=2;fillColor=none;fontSize=11;fontColor=#FFFFFF;align=center;strokeColor=#FFFFFF;dashed=1;verticalAlign=top;" parent="oMiTvaC7AODBL7d5hOzX-133" vertex="1">
          <mxGeometry y="29" width="126" height="330" as="geometry" />
        </mxCell>
        <mxCell id="oMiTvaC7AODBL7d5hOzX-54" value="日志收集" style="rounded=1;whiteSpace=wrap;html=1;shadow=0;strokeWidth=2;fillColor=none;fontSize=12;fontColor=#FFFFFF;align=center;strokeColor=#FFFFFF;" parent="oMiTvaC7AODBL7d5hOzX-133" vertex="1">
          <mxGeometry x="11" y="129.63157894736844" width="105" height="46.05263157894737" as="geometry" />
        </mxCell>
        <mxCell id="oMiTvaC7AODBL7d5hOzX-55" value="&lt;font style=&quot;font-size: 10px&quot;&gt;SOTA&lt;br&gt;&lt;/font&gt;" style="rounded=1;whiteSpace=wrap;html=1;shadow=0;strokeWidth=2;fillColor=none;fontSize=12;fontColor=#FFFFFF;align=center;strokeColor=#FFFFFF;" parent="oMiTvaC7AODBL7d5hOzX-133" vertex="1">
          <mxGeometry x="11" y="68.84210526315792" width="105" height="46.05263157894737" as="geometry" />
        </mxCell>
        <mxCell id="oMiTvaC7AODBL7d5hOzX-58" value="异常离线分析" style="rounded=1;whiteSpace=wrap;html=1;shadow=0;strokeWidth=2;fillColor=none;fontSize=12;fontColor=#FFFFFF;align=center;strokeColor=#FFFFFF;" parent="oMiTvaC7AODBL7d5hOzX-133" vertex="1">
          <mxGeometry x="12.5" y="187.9994736842105" width="105" height="46.05263157894737" as="geometry" />
        </mxCell>
        <mxCell id="oMiTvaC7AODBL7d5hOzX-62" value="信号强弱分析" style="rounded=1;whiteSpace=wrap;html=1;shadow=0;strokeWidth=2;fillColor=none;fontSize=12;fontColor=#FFFFFF;align=center;strokeColor=#FFFFFF;" parent="oMiTvaC7AODBL7d5hOzX-133" vertex="1">
          <mxGeometry x="12.5" y="244.99947368421044" width="105" height="46.05263157894737" as="geometry" />
        </mxCell>
        <mxCell id="oMiTvaC7AODBL7d5hOzX-128" value="固件版本查询" style="rounded=1;whiteSpace=wrap;html=1;shadow=0;strokeWidth=2;fillColor=none;fontSize=12;fontColor=#FFFFFF;align=center;strokeColor=#FFFFFF;" parent="oMiTvaC7AODBL7d5hOzX-133" vertex="1">
          <mxGeometry x="13.5" y="301.99947368421044" width="105" height="46.05263157894737" as="geometry" />
        </mxCell>
        <mxCell id="oMiTvaC7AODBL7d5hOzX-134" value="" style="group" parent="1" vertex="1" connectable="0">
          <mxGeometry x="740" y="709" width="550" height="70" as="geometry" />
        </mxCell>
        <mxCell id="oMiTvaC7AODBL7d5hOzX-123" value="" style="rounded=1;whiteSpace=wrap;html=1;shadow=0;strokeWidth=2;fillColor=none;fontSize=11;fontColor=#FFFFFF;align=center;strokeColor=#FFFFFF;dashed=1;verticalAlign=top;" parent="oMiTvaC7AODBL7d5hOzX-134" vertex="1">
          <mxGeometry width="550" height="70" as="geometry" />
        </mxCell>
        <mxCell id="oMiTvaC7AODBL7d5hOzX-111" value="ElasticSearch" style="verticalLabelPosition=top;verticalAlign=bottom;html=1;shape=mxgraph.infographic.cylinder;fillColor=#FFFFFF;strokeColor=none;labelBackgroundColor=none;fontSize=11;fontColor=#FFFFFF;labelPosition=center;align=center;" parent="oMiTvaC7AODBL7d5hOzX-134" vertex="1">
          <mxGeometry x="189" y="20.940000000000055" width="40" height="40" as="geometry" />
        </mxCell>
        <mxCell id="oMiTvaC7AODBL7d5hOzX-112" value="redis" style="verticalLabelPosition=top;verticalAlign=bottom;html=1;shape=mxgraph.infographic.cylinder;fillColor=#FFFFFF;strokeColor=none;labelBackgroundColor=none;fontSize=11;fontColor=#FFFFFF;labelPosition=center;align=center;shadow=0;" parent="oMiTvaC7AODBL7d5hOzX-134" vertex="1">
          <mxGeometry x="320" y="20.940000000000055" width="40" height="40" as="geometry" />
        </mxCell>
        <mxCell id="oMiTvaC7AODBL7d5hOzX-113" value="MongoDB" style="verticalLabelPosition=top;verticalAlign=bottom;html=1;shape=mxgraph.infographic.cylinder;fillColor=#FFFFFF;strokeColor=none;labelBackgroundColor=none;fontSize=11;fontColor=#FFFFFF;labelPosition=center;align=center;sketch=0;shadow=0;" parent="oMiTvaC7AODBL7d5hOzX-134" vertex="1">
          <mxGeometry x="449" y="21.940000000000055" width="40" height="40" as="geometry" />
        </mxCell>
        <mxCell id="oMiTvaC7AODBL7d5hOzX-127" value="MySql" style="verticalLabelPosition=top;verticalAlign=bottom;html=1;shape=mxgraph.infographic.cylinder;fillColor=#FFFFFF;strokeColor=none;labelBackgroundColor=none;fontSize=11;fontColor=#FFFFFF;labelPosition=center;align=center;direction=east;" parent="oMiTvaC7AODBL7d5hOzX-134" vertex="1">
          <mxGeometry x="70" y="20" width="40" height="40" as="geometry" />
        </mxCell>
        <mxCell id="oMiTvaC7AODBL7d5hOzX-16" value="" style="group;fillColor=#7798BD;" parent="1" vertex="1" connectable="0">
          <mxGeometry x="290" y="591" width="218" height="80" as="geometry" />
        </mxCell>
        <mxCell id="23046e2b9bb16c14-50" value="" style="rounded=1;whiteSpace=wrap;html=1;shadow=0;strokeWidth=2;fillColor=none;fontSize=12;fontColor=#000000;align=center;strokeColor=#FFFFFF;" parent="oMiTvaC7AODBL7d5hOzX-16" vertex="1">
          <mxGeometry width="218" height="80" as="geometry" />
        </mxCell>
        <mxCell id="oMiTvaC7AODBL7d5hOzX-6" value="OMS" style="verticalLabelPosition=top;html=1;verticalAlign=bottom;strokeColor=none;fillColor=#FFFFFF;shape=mxgraph.azure.computer;rounded=0;shadow=0;fontSize=10;fontColor=#FFFFFF;align=center;labelPosition=center;" parent="oMiTvaC7AODBL7d5hOzX-16" vertex="1">
          <mxGeometry x="87.67391304347827" y="22" width="47.39130434782608" height="45" as="geometry" />
        </mxCell>
        <mxCell id="oMiTvaC7AODBL7d5hOzX-9" value="OMS" style="verticalLabelPosition=top;html=1;verticalAlign=bottom;strokeColor=none;fillColor=#FFFFFF;shape=mxgraph.azure.computer;rounded=0;shadow=0;fontSize=10;fontColor=#FFFFFF;align=center;labelPosition=center;" parent="oMiTvaC7AODBL7d5hOzX-16" vertex="1">
          <mxGeometry x="156.3913043478261" y="22" width="47.39130434782608" height="45" as="geometry" />
        </mxCell>
        <mxCell id="oMiTvaC7AODBL7d5hOzX-10" value="OMS" style="verticalLabelPosition=top;html=1;verticalAlign=bottom;strokeColor=none;fillColor=#FFFFFF;shape=mxgraph.azure.computer;rounded=0;shadow=0;fontSize=10;fontColor=#FFFFFF;align=center;labelPosition=center;" parent="oMiTvaC7AODBL7d5hOzX-16" vertex="1">
          <mxGeometry x="16.58695652173913" y="22" width="47.39130434782608" height="45" as="geometry" />
        </mxCell>
        <mxCell id="lljOV04hM253Ap9FNTPz-58" value="" style="group" parent="1" vertex="1" connectable="0">
          <mxGeometry x="290" y="244" width="218" height="138" as="geometry" />
        </mxCell>
        <mxCell id="23046e2b9bb16c14-28" value="" style="rounded=1;whiteSpace=wrap;html=1;shadow=0;strokeWidth=2;fillColor=#F04D22;fontSize=12;fontColor=#FFFFFF;align=center;strokeColor=none;arcSize=6;verticalAlign=top;" parent="lljOV04hM253Ap9FNTPz-58" vertex="1">
          <mxGeometry width="218" height="138" as="geometry" />
        </mxCell>
        <mxCell id="oMiTvaC7AODBL7d5hOzX-124" value="" style="rounded=1;whiteSpace=wrap;html=1;shadow=0;strokeWidth=2;fillColor=none;fontSize=11;fontColor=#FFFFFF;align=center;strokeColor=#FFFFFF;dashed=1;verticalAlign=top;" parent="lljOV04hM253Ap9FNTPz-58" vertex="1">
          <mxGeometry x="8.179739130434783" y="9.200000000000001" width="199.46999999999997" height="119.7656" as="geometry" />
        </mxCell>
        <mxCell id="lljOV04hM253Ap9FNTPz-29" value="&lt;font color=&quot;#ffffff&quot;&gt;APP&lt;/font&gt;" style="verticalLabelPosition=top;html=1;verticalAlign=bottom;align=center;strokeColor=#b85450;fillColor=#FFFFFF;shape=mxgraph.azure.mobile;pointerEvents=1;labelPosition=center;" parent="lljOV04hM253Ap9FNTPz-58" vertex="1">
          <mxGeometry x="36.333333333333336" y="29.22352941176471" width="61.44875000000001" height="93.88870588235294" as="geometry" />
        </mxCell>
        <mxCell id="oMiTvaC7AODBL7d5hOzX-31" value="DKPlugin" style="rounded=1;whiteSpace=wrap;html=1;shadow=0;strokeWidth=2;fillColor=none;fontSize=12;fontColor=#FFFFFF;align=center;strokeColor=#FFFFFF;" parent="lljOV04hM253Ap9FNTPz-58" vertex="1">
          <mxGeometry x="41.19291666666666" y="94.16470588235293" width="52.36541666666667" height="16.23529411764706" as="geometry" />
        </mxCell>
        <mxCell id="lljOV04hM253Ap9FNTPz-50" value="&lt;font color=&quot;#ffffff&quot;&gt;APP&lt;/font&gt;" style="verticalLabelPosition=top;html=1;verticalAlign=bottom;align=center;strokeColor=#b85450;fillColor=#FFFFFF;shape=mxgraph.azure.mobile;pointerEvents=1;labelPosition=center;" parent="lljOV04hM253Ap9FNTPz-58" vertex="1">
          <mxGeometry x="127.16666666666669" y="29.22352941176471" width="61.44875000000001" height="93.88870588235294" as="geometry" />
        </mxCell>
        <mxCell id="lljOV04hM253Ap9FNTPz-51" value="&lt;font style=&quot;font-size: 12px&quot;&gt;DKPlugin&lt;/font&gt;" style="rounded=1;whiteSpace=wrap;html=1;shadow=0;strokeWidth=2;fillColor=none;fontSize=12;fontColor=#FFFFFF;align=center;strokeColor=#FFFFFF;" parent="lljOV04hM253Ap9FNTPz-58" vertex="1">
          <mxGeometry x="131.70833333333334" y="94.16470588235293" width="52.36541666666667" height="16.23529411764706" as="geometry" />
        </mxCell>
        <mxCell id="lljOV04hM253Ap9FNTPz-65" value="" style="group" parent="1" vertex="1" connectable="0">
          <mxGeometry x="290" y="400" width="218" height="213" as="geometry" />
        </mxCell>
        <mxCell id="lljOV04hM253Ap9FNTPz-59" value="" style="rounded=1;whiteSpace=wrap;html=1;shadow=0;strokeWidth=2;fillColor=#0072BC;fontSize=12;fontColor=#FFFFFF;align=center;strokeColor=none;arcSize=3;verticalAlign=top;" parent="lljOV04hM253Ap9FNTPz-65" vertex="1">
          <mxGeometry width="218" height="178.92000000000002" as="geometry" />
        </mxCell>
        <mxCell id="lljOV04hM253Ap9FNTPz-61" value="" style="rounded=1;whiteSpace=wrap;html=1;shadow=0;strokeWidth=2;fillColor=none;fontSize=11;fontColor=#FFFFFF;align=center;strokeColor=#FFFFFF;dashed=1;verticalAlign=top;" parent="lljOV04hM253Ap9FNTPz-65" vertex="1">
          <mxGeometry x="9.080173913043478" y="7.667999999999999" width="199.8301739130435" height="162.732" as="geometry" />
        </mxCell>
        <mxCell id="lljOV04hM253Ap9FNTPz-52" value="" style="shape=image;verticalLabelPosition=bottom;labelBackgroundColor=default;verticalAlign=top;aspect=fixed;imageAspect=0;image=data:image/png,iVBORw0KGgoAAAANSUhEUgAAAcMAAADWCAYAAACt6ulCAAAgAElEQVR4nOx9V3NbyZn2A4ABOTNTEpUmj+312rVbe7PXe7s/de/9latcs8Fb3p3xjMeSRqJGFBMIEDkQ+bvQ9zQfvOoDgtQk+puuQoEEDvr06X77Dc8bOjSdTqf4uf3cfm7/37V32fqhUOg7HMnP7ef247fwjz2An9vP7ef2c/u5/dx+7Lb0Yw/gu25W2w2FQphOp5hOpwiFQtfSaH2a823SiDn+H2rMnOOgcQSN5arvf24/XptMJphMJuh2u+h0Om4vRSIRLC0tIRaLIRqNur3F9eP7D02DP1b7vp/Tt7d8vO7ndvN264ThPKLjRrXXjMdjTKdThMNhhMPhhYhmOp1iMpksTGDfByG+C7HrPFynjyCBdtVv9F1/b9fDN6abKis/t3drVmD51m88HqPf7+Po6AivXr3CaDTCZDLBysoKEokEdnd3sb6+jkgk4l76e+6hqxi5va+v/ZCCdR6E7HuWeQrdIoIs6Le2f10z3+fz5ua7UDr/lhXXWycM2eZtDMt0gxZtUWHzXSz6Iv4ZK0SuO4br/CZIKF3nfou2RfqyjPld+/u5zW/KSHUv6TpQEHa7XVSrVRwfHyMejyMajaLX62E4HCIUCqHT6SCbzSKZTCIajWJ5eRmRSMTdi9YlldF3DVP4PsIcvgua+qnQpV3XcHi+N2xRwf+3Hl7yNyUMuZmtlaHEME+zsn3xd+9C5JYw543ftkXv67tHkJXlu9a3ea7zzPO00kUFoY7hphbAj8mMbhujIPIxmUwcaqJW3Wg0wmAwQLfbRbvdRqfTQbfbxdraGra3t9FqtdBqtfDq1Su8evUKe3t72NnZQSaTmUFgQqEQJpMJhsMhlpaWsLy87O5/XSSAfU0mE/f/Vdf7njvoOrv/beN9fd/Pe5abuGZ8/fvuZ/e88jW1yufxg6tQJB+i830gTD92u3XC0PoAfZMetOhBMN28e31XzWpYi4z5JvfwCTlf/3pt0Dz6+rF9LHrtVc2OZ949fm7v3nw+Pp9iSd8gFcNYLIZ8Po9EIoF0Oo1oNIpWq4VKpYJ+v4+dnR0UCgUkEgmsrKw4oWgVrEUh0XljXqQfvcbygEWgRdvPdfYC7+n7/ipe5FOeF0XBLA9YBPEJ2n++sSyCON1GX/GtE4ZsVwkXbdQm1drj72xf2t7Ff+Yb57zPbtqX/VyVhUWuDbpfkCV7VZ+LbL55834VpPNTbbdp07P5YEvSfDgcxtLSkguOicViWF5eRiwWQyqVQrFYRDgcRqvVQqlUwhdffIHDw8O3rKfV1VVncS5qCc5Dbd4FsXnXNQoa/zz+wZcPbZknEH0CzT73VXuc79ZvG6SI23cVbIsoDhZ6v2174m9CGC5ioSgxXscqu44jnZ/pb+ZBK/P6vMqnN68/qwlfdb2PGfr6vAm06xO4iwpk3//z+n7XdtP+bhtEahvXdjweu/+BN3tmeXkZ4XAYiUQCyWQSw+EQ1WoVxWLRQaLT6RR3795FuVxGu91GqVRCIpFAPB7HZDJBJBJx1wUF1PjG5Ptb/w+C1K8SMvOufVfl97ptEbRqnhCeB29axXJRyzKov+vMzW0ThMAtFYaLQCyqoQT5wBbZkNzA9jfziMhu1kVhGR/EcdXY5j3Lopo4cCm0OV8+C+0qwbXIPa2w91mV15kD37hu0hZhSvPabRSIdu5Ho5H7nDSwvLzsIkczmQwuLi5wfHyMlZUVpFIpLC8vI5/P45NPPsHp6Sm++uorlEolbG9vv2UZUeDSP3nVuK5SUunv1D2u62jf9bdBStp1LBrffd6Fz8z7fhFUaNHfzOvjJr7BoOtvm0C8NcJwEatkUQ0vaLMEwQFXLfCiltJ1LNJFvtemYw+CK+ZZnXrNTTaRjsN33U0tvutY0z9m+ymM4V1aKBSaEVCqEIVCISQSCaytraFWq+H8/BzFYhH9ft/RSzweRz6fR7FYRLPZxP7+PrrdLvb29pyFyH59MJyO4yb05/vddRGMIN9bEF8JEgQ3oYXrWqiLIEdBfZMnBPG6Rf19t1EBnNduhTC8jh9q3kJrU61SX/wtX0FW0iJtEUvwpu2qzaDPw3sFWVx8zu+qaX4m7ztPS+d13/U4fm7zm9KI+g/tHgKAeDzuhGG1WkW73cbFxQUAIBKJuICara0t9Pt9PHv2DI1GA2tra1hdXcV0OsXS0pITuEF777r+QLtfg65ZZC70Xf/WiFt7jfb/rkjFdSxS3zivEoY+tGwRBOiqsejvbrNSeCuEoWqSPnjjKg1lPB6/BXXaDeQTtosu7k01pHkW2rv0y358m9MHRdr54OYP6neRdtUGnfebeff8W9NGf+ym0KLPIphMJhiPx1haWkIqlcLq6ipCoRDG4zEGg4ETcIPBANPpFMViEaPRCN1uF+FwGAcHBxgOh1hfXwcADIdD50PUMfA9SMlTgTkPYrUCTJ9Rv7d72/c536kk6B6ZZz0F0ehVtDtPmF4FRy4K7yocvMhY31XA36Z2K4Qhm08Qqq/Lp+nQFzIajRwhczPaahk3afP8E0Ea66KCQgW4bVdZv1dZz1Y5UI18Or0MppjXZ9D/eh/LZILGvCjEY/v/rtp3baXfhmZ96T6BMJlMMBqNnDCMRqOIRCIYjUbo9/uObgaDASKRCAqFApaWltDpdFCpVHBwcAAAWFtbA/BGGAKYEWhBSi7fSa+0aHwWmk+Aaz4i9zr5gOZCsv8gy3TR/aXjtXOpSJSvzdsfQcrrdcZj+/MpB/q/Dymb95zzxnBb2q0ShoAfxgDeJhCmU7DyxcrKyozADBKs1ioaj8cusGDRcWlTItONrUKc73YjzLMcFVa0BEtBTwag1/B7H/Fz3oK070XgId/Gs882z1L1MaF5m+z7EIzXbbdVGCoNki6tW4ApFmzZbBYbGxsYj8col8vY2NhAPB53a3RxcYHJZIJCoYDhcIjDw0PU63WUy2VkMhnEYrEZoRTEbDkufh6JRNz/du/Y32q6iKV9PksQg2eAj/bP/UoBGyQAOIfj8diVgFy0WQHtmxsroHx7335n7xE0zz6haec6SFmwe/C2CsVbJwzZ7ALqIpEgR6MRxuOxKw9lBRH7AS6Fnv2+3+9jMBjM3Pu6i633tZvKpy3O00qtQOMG0o1B4b+8vOxgLFrDPqWBY5zHnFQ7X+Ra/TtIafEpB7qOV81zkN/3um0RoTuv3UZhaJUwrkMkEsHKykqg5bC6uopMJoNms+nKsJG2JpMJ+v0+ptMpcrkcut0uxuMxms0mSqUSQqEQotGoQ2r4u6Bobx/dWIGkvk4rxHQ/aD/2HronNfWD33G8g8EAo9EoEO3gtcPh8C2BGKSAsx9+r3NiCxYoomOv1We1yrBavZbWrcVqr7NR5kFW6d+ClXgrhOE8RucjdPoz+v0+Li4uXCkp/azf7ztBNxwO3TuJg0RhhWOQJhYkwJSIuUH48lmI+nufFewTnEFjYtJ0LBZDPB5HPB5HLBbD6uoqVlZWXGWRIE1SBbhlGL57h0IhDIdD9Pv9t663TIHryWuojAyHw7nCNgg+Gw6Hrl7mTdoiwndeu60CMRwOY3V1FUtLS45miKKMRqO3EvObzSZarRZGoxFisRg2NjawtbXlGH8oFHKKWKFQwJ07d1CtVvHkyRO8evUKmUwG4/EYw+EQy8vLTmFbXl52dKhzqYxd3Rpcr0gk4vrgM+g1/JwKsfII0qotOUe+oHyi3+87oci+dWycT/ZLRdwqjzr3bFapZb82qMnyjSAhyGfm/p5Op24OVEnm97T+ufa8ZnV11dWb5Th91qPy5qsU5Z9y+0kJQzvR+rkKKf1cmSIJ8eLiAhcXF+7YmXK5jGq16j5Twu/1eri4uJjR+qbT6YxfMQi6CHqxWQ3TCkLdLHZz2M+DrCCfkqCMLBaLIZlMIpvNIp1OI5PJIJFIuIoitBwtdKqbT8frsw5VoPZ6PXQ6nbcE/yJzooJU59OuM8er89fv91Gv13FxcXEjwWSVAct4fTTpU1puU5tMJlhaWnKl01SwTCYTDAYDxyjtekUiEeRyObRaLaeAcL3ISDOZDHZ2dlwN0+FwiNXVVaf4kDnzpcn5AGaEg2XepDcKVDJwpWUKhpWVFayurroCArTgSKv1eh21Wg2NRgONRgPdbtfxhl6v54Qj+YP2rUIYgBOCPqiUtAz4rV4rEPmi8KOyqILW/l7HxecF3sDDq6uriEajiEajM3Ouc8RrVlZWkEwmsbGxgVQqNXOd8gxfjAbfgyx+vfa6wvL7tD6/N2EYBP1xU1n4gozW59hWZzg1SADodDqo1WquaPDx8TEODw/R7Xbf0uq4sYFL058MLxqNukg5XsMxkGisYPQ13+dBG4Df+bQnvV4tMxV8ZCi0aLlB+N3FxQWGw6Eb92AwQLPZxGAwQK1Wc5vMbtpQ6BKK8m0wtSb1xc9oZfN3nGcfdKqWBKHdaDTqCjvzvp1OB61Wy1n36+vryOfzDo5aWlrCeDx2wjBozqxw07VRmlteXkY6nUYsFpuJfOQzUXDTKrCRiz5aCNoPvu/epfn6CkIt+L9aS1a5JOPXzyeTCS4uLhCJRNDv91Gr1ZDJZBCNRmd87OFwGMViEfl8Hqurq064rK6uIhaLYTweu71qlTFadbyGSlLQ85AGSaMK3QKYoVtVmtUS1PsuLy8jGo06y0h5AJEVCljyEWvRXsUzLMphLSzLN7hXaaHq3rXr43PF2BcVR8tn2O/y8rLz84bDYccns9ksCoUCMpmM+56+YIWqlddbRZsvn0DV6+xvB4MBJpOJE+R2rixNX6d9L8LQtyH5YJwgaoD6oNx81iJSaI4MsNfroVKp4Pj4GGdnZ6hUKnj16hVevnzp1ZwikYgjamqu8Xjc1U6kBcUJ5oSqBqVQTZBFZ+cgSHuz/Vkrw0ek2rgpKOyHw6HT0JWBKPQLXMLK/C2FpsI/3EgURtFo1IXUW+3cPhuZA7V1C7PpMynz0SonJHoyt3K5jNPTU2dV3Lt3D9vb2+j3+xiPx1hZWcFwOESpVEKr1ZqZO9uChBXHSOtlZ2cH+Xwe8XjcWUacDyohZLzW12TvdZWA+q6EYZDVYe9nrW4qMLR+FCHx0eZkMkGj0XCISqVSQSKRcMKLr5WVFaTTaeRyOaTTaSf4otEo1tbWHILjY9Rqkfb7fbTb7RmBxfHwXhw/LcVoNIqlpSVH3/r8tLDoNuGc0KWQSqXcey6XQzabddV2KATJS9QqVBohn6GlbQWiVZKtW0FfXAPuGfI3vqsQ07UcDAaOD5JmLb/gelMhULSMa0ilgtZisVjExsYG1tbWUCwWkc1mkclknGWpMQoaiGcNIv6t8+ATmkqrXG/NWSVNBtH7ou0Hh0lV01Tcm4yUD6zMm59TCz08PMTTp09xfHyM8/NzVKtV1Go1xONxbG9vo1AoIJ/PI51OI5lMzmgsvD8DBcgELRzI39hxslmLQ60ln3at99WTAKwwtH2z+RzjPo2KzUI1PsbGjcPrfJaeWoZK5L5xat+8fp6gt89mITBlqsPhEMViEcViEYVCAalUyjGDUCiEs7Mz7O/vo1QqzTAtCiy9b1BE4Hg8RrVaxdLSEtbX15FIJLC9vY1oNIrBYODW0EcLZFrXbTfVYn3zaJ8n6De8RpESnx/b0gLbZDJBu91Gs9nE6ekpDg8PnbVOOA+4VLwymQwePXqEdDqNarWKe/fu4dGjRzM+Yjt23nc0GqHdbrvr+CJNUgBUKhVUKhWnXK2vryOVSqHVajmBy3Xn81n0wO5TKsK0ADk2KpE+OJSKtoUh9fgqi6roZ/Oajo980X6nvIwRu+S3FHwaKKgQLAUmX/1+H71eD61WC/V6He12G+12G/V6Hc+fP3dCP5vNIp/PY3NzE5ubm8jlcsjn88jn80gmkzMKjqUnjpvrqJaiKs5UsunPtqk5viCh67YfVBha6W2ZiLW4VBPtdDo4Pz/H4eEh9vf38eTJE1QqFRcg0263USgU8MEHH2BnZwdbW1vI5XLIZDKuX4USdUyMgut0Os7y1HHy7yBt3i6CteqA2UCAIF+kNgsjWAHq8w2owLeCmc1C0zY6Tzeb/sZHYJaR6Jz5BMZVjRo+rdFut4tWq4VarYZkMom9vT08evTIaeSqTTMXTq0KDQbgeH0MkOPVTbi8vOy04Fgs5hgq+15eXp5RdmzzIQO+ebhKqZnX5iETann4xsNntjTLvy3Dtms5GAxQr9dRKpVQqVTQ7XYdMqHw5GQyQSKRwN27d926bW1tYW9vbwZ2VlrXZyDkD8CtLyG81dVVJ1BfvXqFg4MDB7ffvXsXhULBweuqnOqz87l8AW6WF5F2NOCO75wz8hj6v3kPWoi6Tlbw++Zc593nT+Rv9UXjgUq8olnWdcD19MGkFxcXaDQaqFariMfjODs7w8XFBer1OqrVqrMwaf3v7u7izp07Tmnd2Nhweaf0WfqgZYt+WcVLA4aUx/n2w7u0H0wYKuPQqC9NiAfgmDwn6eLiAufn5/jLX/6Cp0+fYn9/HxcXF8hkMtjd3XVmeTgcxqNHj/Dxxx+707an06nzIWmUF60ifke/jwYCULNivUUVZJZ52cXjhlUCtdddBWkps1YLyzJz1cSBS7+PBiNYzdc3DmsxKozp0+Z4bZDw0/5VG/e1IKHZ7XZRKpXQbDZnaIdrpc8Wi8Vw//59JJPJt5iFjiPIkiINcLNq4IAKLL5zjqi1kt7sy86JbzxWQbtOCxKk9nnt/6SxIMvd+pxsU+YWiUTQbDbRaDQcxEiaZAoFg22m0ylarRaOjo6Qz+eRzWadQKFSxz26vLzsFCQKFCq1fHY+w3g8Rr/fd6dlxGIxRKNRTKdThwABb1em0b2pyrnuNUKKKlDVb6dWiboFuDd9Atbn25s339zTlgfpnvbRvCoAvF7frVC09MI9kc/nsbS05ODjeDyOTqeDXq/nfIbdbhcHBwfY398HACSTSaTTaWxubmJtbQ2FQgFra2tYX19HMpl060H+z5QeqwBwrkgHqrDr/7p+86oUBbUf1DK0i6wTbhlut9tFo9HA6ekpDg4O8OTJE7x+/RrNZhPpdBq7u7tIp9OYTqdIpVIoFApYX19HLpdzGDg1N+tw5sZpt9sYjUYzeVXU/Ckss9ksksnkWwEkvmeyjFC1Mvu8PuZshZVvYRXm4D10I+vmUmGobZ4AsxvIZyXYphtR+/A9r28ceh8+92QyQb1ex+npKTqdjoOpLJSn81QsFrG6uvqWBaj+iSAIhZ8nEglEo1Gk02mEQiG0Wi30ej33W4Xm+DvSRdDz+hiQZTw3aXbP2Gbvb59V//cpSfPWjc+cTqfR6XTQ6XRwdnaGSCTiXBNEXAC44LThcOgs/ng8PrMnuVcYJGHXS90YOm4AzhJjtLSmilh3hA8KtgxYmataf5au9TfaBy1WfVl4kkLVQpa6dpafqMCzY/DtU0urQXte6UIFDBGSTCaDXC7nrL61tTW0Wi10Oh0AcBb+eDx2kfrn5+dYXV1FvV5HpVJBOp1GoVDA9vY2crmci2KmjzcWi7nxKI8i3fgUah/aeNP2gwlDtQitRkyNkIswGAzw6tUrPHnyBP/zP/+Dg4MDxGIxrK+v4x//8R9x584dVzT42bNnWFlZwdbWFrrdLj7//HPnDKaWTwGizHowGLiwcOuHY/Rlr9dDPp93m5NaIjeUEqO1oKjh+ohb5yQIHrGWhVommttkNVFaTj6B7fOV6XX8nhDUPEFvn8VqvHZj+ywTnwZLrT8SieD09BQnJyczwqnb7c74CoHL6FkGSdn7c550fu04yTAYRRoKhVCr1XBycoJwOOz8QMvLyy43jdaR7csKEGVgurZBwuo6zYdSWFq0FgV/Q0tFr7F7gd/5aGUymWBjYwNLS0uoVCp4/fq1Q1MSiYTby7TqGE2aTqddIFKn03GMnoJLrQAeKMw15niJGnG89HExEhgAer2eWw/u/5WVFffsdj9wTdQloRY06fIq5XA6nTqYXi1Hfqf3svvB16+1Pvl7VQztc+g7+/e5LuaNg/MAYCZinb5E+o0ZdEM+y2tpkIxGI5yenuLZs2cYj8eIx+MoFou4c+cO7ty54yBt+gNtnIXlebqPNL7jpu4Gth9UGPqaSv7BYIByuYxSqYSnT5/i+fPnOD09xXQ6RaFQwP379/H48WOsra1haWlpJpQ+Ho+j3W7j/PzcRbkxCtJueODSL6TakE48odbV1VV3vRKZTxhSKOn1Sqgq4KyVYJmkWsw+y8Jqcfa38wSV3ST2exWwtg9f/75xaF8+i8hakmq9U5M+OjrC0dERcrkclpeXUa/XEQqFXAI072cDA3zNRiorMyQUR3qkkCB6AGAmEplRd9RoGXDg831YuuIYdB1vKgxVUPF/PoMyCGUmer0KQ71O35UB69gVuur3+yiXy2g2m6hWq86CWFlZmaG3169f4/j4GMAbCE0FGCFRMl8tAUclmmtEq02tSk2zYZI4IdpQKOQsC+5/u05cD93X6mrQddJ5sb9l41zTXz3PgrfKi08pVl6gNDxPqCvf89HZVcKQvyWt8Pl4316vNxN9SiOEEav8vl6vO7iVMR6j0WjGJ0kYleka3GtcJ4vI+fjYuyiVwE/AZwi8eRAW9v33f/93/Pd//zeq1Somkwk++eQTPH78GJubm0ilUhiPxzg5OUGr1cLZ2Rnq9Tqy2ayLRIrH424zTyYTh2nTt2GDUAA4CITaqZrtqVRqJiFYtUVtVuOiIOCmthaizypS7cv6Enitbgh+ZokCwFtWqd7HJ6DVv8FxWCZrW9AG1nmwUaUckzJmWmZcAyZCHxwc4PDwEJ1OB/1+H81mE+fn5y4RmvdQH1NQ1Ks+l8LMbBQMhPo4xxoUwhfnkcyOzMBao9bisnRvlZrrNipt1ifte9d1sve7SolS5YYvBkEQFjs8PEStVsN4PEYikcDW1hbS6bQLcul2uzg+PsbBwYFLbF9fX8fa2przOa2srCAejzsITX3hfFbSCMfF9AzyFs4z14Gok6ZgkObUGuU1FKqkEesH5LwAbxfCUJqyiogVlj7rLajZvWXvyaa8ySfggu5tv7dWqQpr/m4ymbgEftI3ixWcn5+jVqu5vOGVlRWsra250n2tVgvlchlHR0f461//is8//xypVArFYhG/+tWv8Nvf/tYpSHRz2fsrgjRP0bhO+0F9hjrpZL71et1Fib5+/RovX750NQ+z2Sz29vawubnpahrSHGdeWiKRcNZbMpnE7u6u01bI4NTRTwIl/BIOh13+kgpJljBTpuqzwIDZzaHOdeDSyT/Pj6Q+BN2Ivug29sn7Wg1XtVlt8yxVe38VhovAKnZ9ddOSqJXhWCFJ6IX+Cc3fozKjeVIU6MxbY/pFoVCYWTNFAVjxhM9qrTY+E4Wy5jFRmOozW1hfg47sdSoQfVDOIgzR12zABO/pW1/f3xyLrr1VvviyOW3xeBwrKyuubBnHMxwO0el0UCqV0O/3USwWndBh0NvS0hJqtZpjjlzndruNRqOBfr/vQvJ1jdRi5fhYeIOQqa6huhbU0rRKpe4rokVWkVDaDbLofcLKWptBzSoh+u6zzq31Z19WKfP1a78PEih6H+BtqFjpm77h1dVV5x8Ohd6gOczlphKUTqddNHK/30epVMJf/vIXdLtd3L9/H3t7e07gUmHWPckxW5q/qZX4gwlDhcVCoZDTFp8+fYo//elPePbsGfb39/Hw4UN8+umneP/997G9ve1w6aOjI4zHYzeZe3t7aDQaiEQiSKfTCIfDrvwT82Gs1qCMiGWoGBABXMIvZIY2fF+tJ8s8+J1WvNHfzWOUPs2G/dkSTFbY8B4q5PlSjJ3v9jOf9s9mrVdN9rXPpULWWj6qEChD4fNQyYlEIk7BicfjqFQqM5VA+OK6HB0dodPpIBR6c9L6zs4Ocrnc3I1Ay4G5iBoURQE7Go1m6rfSP6WRuj7BaudB19n6DO3c36QxyMtGo+r8WovYFqTQdbHMXptFK3icU7vddhZ5Lpdzc9VqtQDABV7wZIvpdIqDgwN8++23yGaz2N3ddalRtBhLpZKrdkL4dHl52Sm+VH4nkwkqlYoTvCsrK46vUAASMeJaaiAGBSfXSKvXKH2r0mYtMauQWIVDrVulCd2T85h3kFJrhaH2xc+CBKwVJL77q4KgqJ6mdJEX0HojP2OQzcXFhStzV61W0el0XPrbvXv38Omnn6LZbOLs7AwvX77Es2fP8OTJE/zud7/DP/3TP+Gf//mf8ejRI9y7d28mDkShfjsn5IU/+WhSatG9Xs9BJs+ePcOLFy8AAA8ePMCDBw+wt7eHRCLhiI8bbWlpCclkErlcbiah2mqOrBqiCddsyoQ1QpFMwybUKuSqAspCbXYz+MKvbbi6DXCwYdN6b95DrVCf9skx6DXsyyd8tU/eVyFMZfKqBATdn7/hNcT+eU/Om2r4Wvex1+s5Xy1D6ZPJJDY3N2f8CePxGO12G61WC+FwGIlEwoVtcw6s5sznt5HBOhbCnXoNfWN8RoXiVBEJEm5XwVQ3bSoMfczBrpkt4cXmU9Y4br1G15nro36h0WiERCKBTqeDly9fzljoVD4ikYirWJJOp2cqu7A1Gg10Oh2XEkHrs9PpuGfi+Gq1Gs7Pzx0kx7gBKjzdbtd7ggv3lboGdE8qtKprqAqzzrUPZrzKglxECNq++Jmusa6RIm/KB7RPH91p//pMqtCyqZJPWlKeQgW+0WigXq8jEokglUphOp06ZZf7mMpSMplEKpUCABwfH2N/f9+tSbFYdHOve3mRvXad9oNXoOn1ejg7O8MXX3yBzz77DK1WC4PBAL/97W/x29/+1j3k8fExXrx4gVwuh/X1ddy9exe5XM5FjrEqAmE0hau4MayQUSFF/wEduaxTyAVst9vodrtIJBIuhQOYrQ9IItOcK2LkhPYI61GwWssSuBQ+ZL4U1Br5pkIoSDCxUeOlgAFmoSKf9qgWjDIOC7ffbpgAACAASURBVCdZzVL7081PRUDLUQGYCWQgnMPk5MFggGq16uAUPmcymcS9e/ccEyU8VyqVcH5+jnA4jGQyiXw+7w6RtQLaIhMKJ3Edw+GwC++288S10N/6BMc8AeezCC2juU7TAK952n2QAmXvu4hw1n3A/i4uLnBycoLhcOjcFJPJxOWHMmJUFVfmcXKvsOQZhSmjdbkerHxSrVZRrVYxnU5dZG+v10Mul0Mul0OtVnM5i9xLVJBZV5N7lUqEBlCpskirh7RDoar70IcGsPn8jbb5LDif0PJZcCrkVBDafhRWtu/zFDVF1FT508pBhETpxmIxhmq1itPTU7RaLWQyGWxtbblI33g8DgBublkt7OHDh85X/PXXX+Pf/u3fUCgU8N577zk/st1/arEqP7pJ+8GEYa/XQ71ex/7+Pr7++mscHR1hOBy6ajHb29sIh8POHGbCJusahkIhNBoNB6dUq1X0ej0AcESqxXRDoZDrixOnRzaphcdQ+Var5cKBaQEo7EimPp1OZ0oWaVkzCgDNXbRRrBZiJEPUo1W0ssw8SMB+rtYLmT3vwT6DfFdqPelG9t2b19qxWWGoQhXAjGXI8fV6PYRCIbTbbRcOr3Ae1yEajSIej7tNwDkDLq1om77D5/I9K39n4aIg68j3e8tggjak1bT1+ptuXo4/6H5Bz+DTpu3/lkHb7xSeV9iMjPG9995Ds9l08JmiOKurq+4UFSpDrDVcqVQwnU5dsIwW0w6FQo6RLi8vu2A5Wqrc/1SsWOCdPs1kMomdnR1XV1OD6lQIqvKkSippVhEdnT+fb5B0qHEEttn1CBKcFtkJEsBBluhVzdef7gsNLFMFUueclvnZ2ZkLfCuXy65cZqPRQLlcdsZJJpPBxsaGK5358OFDF629v7+Pg4MD/PGPf8Svf/1rZLPZGeXVCnOrlF+3/WDCsNVq4cWLF/jP//xP/P73v0cymcSjR4/wm9/8Bv/wD/+A169f49WrV45wP/74Y9y/f99Fox0fH7tQ+0qlgkajgXQ6jXv37jlnPt9JeK1WC41Gw2l+zIkhLKK+uE6ng2az6YI4WG+Pfir6sbiB6PCvVqsO1mEeFZk0I1KtkONCWbiKG04j3CjAdMMCwdFqGllJS5Rao/bN5tMSrbXI7xcRhvwdrVa7eVXA8TM62TWgg1F9FJgaicxTSsbjyxMrLIO2mrTPKlJIjOO3Wr5PidGgG/XX2Xv6rMV3FX626XrNsyp847PQtk/AWyhK+9K11aPT8vk8PvjgA3S7XdRqNXfihFUuGY16fn6OUqmEb7/9FrVaDRsbG654BvctAGdB0sLI5XKu0gzjBPTVarVweHiIUqmERqOBWCyGR48e4fHjxwCAtbU1xOPxGf+xPhP3ECFh0qQKQ86bulp8LouLiwunvF+1nvZvroHyEBZ50GuVH6gCqm4Wew8fvShd2cAx5VHa13g8dgYPlRquMYulpFIpLC0tzeQf7u7u4tNPP8WdO3ewtLSE7e1trK+vo1Qq4dmzZzg5OcHvf/97rK+v49GjRzOIBPmj5VH2GRdt1xaG80xsO5HU+prNJp4+fYrPPvsMpVIJe3t72N3dxXvvvYdEIoEXL15gMBi48Np4PI50Oo1+v4/z83NX4QIA8vm80xjVSmu1Wq6iDK02bk711xFC1dylbreLZrPptNZMJoP19XVsbGy4jUD4s9fruZO7W60WEomEKzOk8xKJXBb6tT5NzpsyaCVmFR4UrGpdKvOy/iorbNRn6nP2+xi1Dcqx11v4RelChQsAryarQSe8h/qC7Hj4GxVknAvd6JYe5/0dZNGqQmB/o0LWPquvD7sf7DiuakGaetA1dp3sWvj61+ekwqHWpu1L/yfawqO1uH5cHx7VxH3GupbsmwKC5472+/2ZAAkKpFwu52BKjnU4HKJarTpBRpSGcCeV0EwmgwcPHqDZbDrkgf6ovb09PHz4cKbOaafTmdlT9E3TpeKLuOW7z++qysKiB08H0YjyB4VefUJRacGui31ZNMhHN9x3dBcoL7DoDy1hRnsPh0N3UglrDjebTdTrdZTLZXz++ec4OTnB9va2S8K/e/cuPv30UxwcHODFixfY39/Ho0eP3JFRdt51vXx7cJF2LWGoE6BQV1CbTN4U2D46OsKf//xn/O53v8Pa2hr+5V/+Be+//z7u3LmDp0+f4j/+4z9w7949PHjwANvb2ygWi26ivv32W9TrdRc8sb6+jmw2+1aIfa1Wc/lp3BTUYCgcWFaoWCy6HCgK3PPzc1ceKJfLYXNzEzs7O+45aH2x0sazZ8/Qbrfxi1/8Aru7uygUCi4EeJ7VRKLyCSSrnTO9Qa1J25/PGtE+g7B0K9j0OxukYMdmx83/SZS+Mdrr1dKjQmMZapAgpqJBhYL3sMJKm2/8+q59BDWfkLMBFfPub9s8AWmtvHkWAzALl2pQgw/mtvdThSOIdtkX9xyVEUaO6qHMwCXqoRWg2u02jo+PnWXA02YojLLZrCuwwHHGYjEX9Q3ACd96ve4iVpWZUwFNJBJIpVLY2NhAIpFAt9vF8+fP8X/+z//By5cvcX5+jtFohK2tLedHpFKtSutkMnEwn8YLULjxOTlvVqgE0c51muULqlSqELboB9eBfEQDmeg31VM5FMFSiBiAc//w2WxJSBvQCMBFkkajURSLRdy/fx+ZTAatVgulUgmTyQSlUgkvX750NUz/6Z/+CXfv3sX29jZ+9atf4fT0FK9fv8b+/j729/fx3nvvIZVKzTyzNQZUWb5Ou5Yw1MW0GjEnnhtiNBqh2WzixYsX+Oyzz3B0dISPP/4YDx8+xOPHjxEKhfDkyRMMBgOXRrG1tYXBYICXL1+6avMMYGG9w2q1ipOTE5ydnWE8HrvKB4TkotEoEokEwuHwzJljXCT6GtR/wTP0ALiqI69fv0a5XHZEQt8lheXOzg6azSaGwyFOTk5cFCSFMCFVEp+e7adz6RMwZPAKJdp1UAamlpZPOGrf9t4+IavaoW8j+qwRHa/vWp81pWPVTajXEQal9aFzRKK3Gvk8i8oK8EXbVYzMt56+5ru/CqGb3NPXv893FOSrZl8+uImKEaNpGVhGhnhycoLT01OUy2VXgqxerzvEhccvEUbj6RbD4RDZbBbr6+sza01BxmICPJ6J46XbgKka/B1dGaQnJvITBmVE8scff4xMJuMEKhO+WfKNMQTcx2SqvC8wG03JcWkQnFq2bCokrtv0Xro+1jixe87yE66zvmjd0z1lFTAqBJreohHuAJwvv9FooFaroVKpoFarYTqdIpfL4dGjR9jd3UU+n58543J3dxeVSsXRz8nJCf7617+6GJGHDx/i/v37ODk5wfn5Ob766ivk83lHMxynDUb00f4i7dowaZCWAlxqIeFwGBcXF6hWq3j27Bl+97vfIRqN4l//9V/x6aefYmtrC9988w3+93//Fw8fPsSvf/1rF1779ddf4/nz5xgOh1haWsLe3p6DK6vVKp4/f479/X2cnJxgPB67JN1QKOTOMaSfT6vXE6tW64MmPiuo0/KrVCquCG0ikUAymcSDBw+cUFtbW8PKyooL62b1DQAulDufzyOVSrkXrTtqMerb4r01SlQhCRvxqEyT/jXrL2Czm4Xr5yMYXhv0nYV15wlV/sbSjlUG+EwaMMTvyVwIVRFm0pQG5o5dJQitEFpUEC6yqRbdeHaMFmUJ6tNa1qqA+pSpoLWgT5lavZYjBPxRh9zTdDmUy2VUq1WEQm9gzufPn+Pg4ADtdtspgNlsFs1m00FhfD4G13Acu7u72Nvbc742rjFRm+Fw6KqVsCgDBSijUKmsMpGbpfqoBNOHzn376aefIpPJ4MWLF6hWqyiVSs4XSX5Rq9VcBZVYLIbNzU13FJGuk/r1NTjNMmTeX88fvE7TUzN89DPvf6Uf9Wvq4cZaRo0BhhqtTut3aWnJGRLKR2i9Myf87OwM1WrVpTv98pe/xOPHj2eCExkp3Gg0cHR0hM8++wxfffWVm7dPPvkEH3zwAR4+fIjXr1+jXq/jyy+/xEcffeRiBeheIT2RxuahO/PatYShjeQhMZAASRCh0JvIwD/+8Y/46quvHBZMwv/iiy8wGo3w8ccfY2dnB9lsFufn53j69Knz3fGU8X6/j2fPnqHRaKDRaLggl+3tbaehFQoFV+zVnriswicUCs0ko3PSaMmFQm9Ou85ms27zk0DOz8/dETTAZe1EClvWQFXtlhCL5j3ZDUOIgX1wkS0D51jtQnMzKnH6WpDlyKbCzicMVZDbPn3aJIWZtch8FiM3KDeiWglMsidTI1TH60j86psNen47xqBrFm3W6tXP5jUVZHY8PkEdJPi0D58Fzus0AIn0p+vM+WRNX+bbMkiMtSTVamIABPciI4JZIarf7yMcDmN7e3vGUlIlZ2VlBY1G4y3B32w2Z2g5n8/P+Ouq1apT/AjzvX79GicnJ86CZRpOMplENBp1z55Op10kK/cfnz2fzzuIjpYhrUr6Pq0SaP14vj2hVvZNmvXVWRrQvy3tBFmTvhQtm6rF8apVqvyUihL5Gf8nT6QRwgOCGa/BvvjbXC6HDz74AOPxGOVyGc+fP3ewaj6fx8OHD/HkyRMcHx/j1atXuHv3roO/NcDtpkKQ7do+QxLkdDp1mg6d47SAaLH96U9/wqtXr/DLX/4Sv/jFL7C9vY1KpYKnT59ie3sbf//3f+80sufPn+Orr75ysGihUEA6ncbz58/x4sULvHz5Et1u1wm89fV1FzGaz+fdYb56Bh0Xx1Zv0QnkAlOAMtybm52Fw4l/A28EIXNjYrGY0xhVA4xGo+h0OqhWq7i4uHDaqp6CzbGk02mk02lkMhlv+PI8QecL6rBtEQuOL86Tz8II+j37sJGcPt+T9W/oJqLGSkWDsIxaf4RtiEBwHn1pKL52E/jE96z2f8sA593bMn/bl1U4eZ3ew5dXZteH12rKjyqI/I5lszQqmnm89XrdoR4qTBmYRv86LQtNjs9ms9jY2HAMkOtLWK3X66HRaDgrjvdot9sYj8fO5ZHNZp2gZdQ39yzn6vz83FmW0+kUGxsb2NjYcJAqABc3QGG4urqKeDyOWq2GdruN1dVVbG1tOfeK3Ve+6Fu7fkrfPqFykzZPybuqWeVK92XQM+i1qlRpNSxfgRLeS8tkhsNhp1Tl83mXF8s+IpEIMpkMHj9+jEKhgD/84Q/44osv8PDhQ/R6PWSzWdy/fx/ffPMNyuUyDg4O8Pr1a4f+cXx2P9ykXUsYUmNXTWEymTiLhhUfnjx5gj//+c/o9XrY2trC3/3d32FrawuvXr3CYDDAgwcPsLW1hUwmg3q9jidPnqDZbCKbzaJYLCKTyaBcLuPZs2fuZIr19XXEYjEXdp1IJDAYDBw2/fLlS5RKJVe5hjk93MA2X1BzhqjZKEOltVUsFpFKpVy9UxUa1p+iodXlctnNWzqddtppKBRyVhCFcqfTwWAwcL6RyWTi4Ft1btsUC5vnpMzSZ31Yq4zNCi8KG5816ds8QYJ4nnXJ7/gcfDbg7WhI+1LIx4aN+6y1oLYoVOr7jc9qX+SeQcqIvivjs3N7ldC1FgB/Q8W13++7yGvm4E0mb0qo0R/Y6/UcVDaZTJBKpdy6U7mkEhgKhZwVSMHFoDamI3AcyjzD4bCLIiXMSFqn8KIlQeGUTqfdHqPCyflQy4aQKyvTTKeXFXPC4TfF/PP5vEvPicfjuHv3LpaWlvDq1auZ+AVNlbDw51Woh87/uzBqPt9VLUgRtoLUB7fq+PUzFZyKDFIpIiI2nU6RyWScspNKpVAulx2tcd3JJ4miEepkJaKdnR3cuXMHw+EQz549c0f3bW1toVqt4uzsDE+ePMHm5qare0t+rS4jX9DhVe3aATQaZcVJYzQYHexffvklPv/8c0ynU9y5cwcffPABlpeX8fz5c0SjUXzwwQcoFouIRqP49ttv8fXXXztBWCgUEIvF8PTpUzx79sxBmJubm9jY2MD29jay2aw7WblSqeDk5ASHh4cOv2airm4ybio9l04ZsVaPUV+KbnAS5Gg0Qq1WQ7PZnAngURy+1+s5yJXWLq+xCbj8jKcxjMdjxGIxFItFJJPJmQgwjo+vIGvA+hb5nU8YKsTDjUfLSwUSaWAefVwlKC0DAS7rhVqLXfvUl08Y2uazbO338/6/6ncWoppn7V3Vn/bpUzh8MKhP6Ku1p4zHwoHlctnB96wOQ/ojPVOAxuNxJJNJRwvM0yUUZoPXMpkMALiEe10jCkNeS98l94LuPyqo9NvRn0caoaAkJKvozMXFBZ49e4azszOcn59jOp26WAL+jnVUq9UqVldXUSwW0W63cXR0hEQigc3NTTc2PoMqbLoOPiHoQ0duKhBtAA3bIson31WJYp86fhuAo/RF4cJ9Z10zqtgCcLy01Wq9dd6hok9cM/oAOe+7u7sYj8cuenRjYwObm5s4PT11cSO//OUvnVJEWllUaQhqN0q6Vw1fN2Cj0cDh4SGePn2K09NT/OY3v8HHH3+M6XTqoI1EIuESahniHA6HHV5/eHiIo6Mjd5QO8/02NjZcUMrq6qqzsFixhD4/5hzpInODM2xaiYCbnpCJBtxwggEgHo87058Lx7BxwllkKDZFoNvt4uXLl27zq4+RwpP4OSPbCNsyJJ2bkmMlwVkoh0TGI3GowFjritez6Xwp/Gj71hYkGOxGU4iJ99bNrf4grSDD9aWVau/BdAxf9J4d1yJNhdo86Mj2bRnNIvfx9emz/nxBS6rtq8bOa0lTzWbTWX+kMVZmYVSnhsgTRuThuGwUjoQmuddCoZCDqhiIQZ8/96IKAwa8sA4lzzwkTVLBI2yqa0q61/1Li1QPdOZ9NzY2EA6HcXZ2hmaz6fgOv8/lcs46ppuCliATxrVKjkKfFm3x0YjdbxrxeJM2T9Gc9xsqOj7lUP+38QCAP6COffoEK7+nEkPlhnRxcXHh/Hy+uIjp9A3Euru760otst4tDaGDgwNnAO3s7Li8dD6D5VvXadf2GbLRvOXEjEYjVKtVHB4e4vj4GL1ez6VRMMmSGyGZTKJareL169fO10gndaVSwZMnT7C6uopUKoWtrS13sj01VIZpk5hpZivMp+kGuuk1ok4FmVaM4cG+9H+Ox2Pkcjln5fHoJwYB8H0ymTh/iQZ6UBBrZFs0Gn2rjBs/T6fTDmJikj+FLC1drd7PZ+BzMICHzIMWsKaYBCXDc+w+v4LVMH1MXYWcT9haJq/fka7YxuOxszz03uq81/qnvg0QxKwWafP6u8lmsxv/qnvwb59loMyJ1pGeMH5xceHyZxkZrVAiMHvWXygUmsk7AzBDv8CbNaOlRrplDWANrrECjbTHMVOx5J7StaVyyusJfQGYSb2hlUv/ux47Rp9+KBTC0dGRCwJi3WKtkUna4x5eWVlx9ZK1HypfFonwCUS7XzjH11XOtL938Rnqve0+9ll2qvCRj5Lfa79sNsBGI4eXl5dxcXHhhOF4PHbBblaoTqdTxONxrK2tuSpjhLHX1tawsbGB4+NjtFotl9JDucFxa5GR67ZrR5NaM5kWUafTwcHBAV69euUCXDY3N7GysoLDw0P0ej2X7E7hSKcqNYE//OEPKJVKM9jx9va2C2vm5DUaDXz77beoVqvodruuECyJrlgsAsBMhCKxZBI2fX3c7GSsrIrBRaIA6Xa7OD099dZY5Bl6tGYYgkyhdO/ePayvr88kwHI+J5OJg0fpVOYJAAwkWFpackKSgozMh+PWajeTyZsiyRT8qhxo4q3WUFVBw2dXqMrnsyQBchOQoG0gjV7Hv1UTJT1xw1kBwe+BSwatBb9TqRQymYzzi82DQC3zsuPSd5/wsnAYx3fdHDK9h6b6+BgpcJlCwyjni4sLpwT1ej1XdIJICWlRQ+UpaLSIPfcDnwOAKylIS5CR0byO9wYurcbpdOoCXqiEMY6AxS645hbyV8tDrX66AegPInTPF58DeDvHlfnD9+7dQ6VScQo6E79DoRByuRzee+89dLtdnJycIBqN4v3338fx8TFOTk5QLBZdlCyf0YdC+KBGtSa1CMJN2zxBetV31k8PBEco2/1hlWJFy+yeUP+98iOeOdnv92eu1aAb7iHl0Txei1HlVJ6GwyFKpRIODg5cNsK8AiWLtmuLUTI6bbTUjo6OcHBwgEwmgzt37qBQKCAcDjtH9e7urstHoa+C+P3z58/xl7/8BbFYDPl8Hnfu3MH9+/eRzWYRjUZnIg6Zm9Ltdp1PY21tzQlmMnlNjaBfg2OnMKR/kXVFNbxc/XqE6/SZmd/Eo0dIMLT6CLuSoQCX8M7FxYVbtEQi4Q5F5X0opGn6x+NxBwdQu9cSUaqYTKdT9+z2LEQNR7f+UQ2rBuC0ZU39IEZvN5YKODINTRPhRrGFBIgqaCKz3YDcKKrIUBjST0yFhOO5rhaumrKvqWVroWBlEPzM97fei41rqXNgNXbOEYNcGOhCBqDCsNvtunvoGlD4+ZLDdc3V30ikQRPSNQ9WUQfCmAwWAy4T1TOZjOMFZHwUcIrgqEKmsDrXVcdFulBljMow/4/FYu4AgBcvXqDT6WB9fd3lFROSOzo6wv7+PnZ2drCzs+Nyl3koAGnfChB99ylxFvG4KZO2FlTQNb7mU1b18+uMgf0EWYhcOxoKdNU0Gg1nbft8lTpWlnHTAu80KnjcE4OjKAPUSJu3h69q144mVeZJrZaDKZVKODk5wa9//Wvs7e25EkeEJ3K5HIA351WNx2Nsbm5iNBrhr3/9qyvTdP/+fTx+/NiVSRqPx+5ss8lk4kK9h8Mh8vk8Hj9+7AJquODc6BSiymCA2RPpbY6NTUjlwaO6YUejkatNOp1OUavVHPPhxmH+1Hg8doTBYt9kUNzoTB8oFAoYj8dOIOuxMtSUCA9TGBCO0gAHClMVkgrnaiAAtXBVHCjAI5GImw8GKXAz6PzpRlHmaJ3bhOLUyg+F3iRvNxoNZ5FbRmsFr2qVvK+FfYM2hP1cadlq/GzzYEtaYL4AhHlBD0pLTG3gi5CmBjHx3qQLfVEj1gNseTwOlTNWdOF46aMGZkvj0XLUxlJr6u+m0OGxS6o00SLgmih9qs9a51Pph7RpGbhGgHN/0rWg/fF5ALhUClaHarfbLhAnHA47JYrpT6FQCOl02kWTvn79Gnfv3kUmk5m5xr6C6CuIjq7brup33vc631cpir7vVBhbyFTRC15Ha58FR+g6Un6hihj7Go/HqNfr7sCGTCbjKgjFYjHnZ+ZxXufn5zNKIZ/tpgLxRtGkikPT0mk2my5fp1AoYHd3F8Al5EJ/HHOYwuEwstmsc4Z2Oh1XS/DevXsurYCMnxrw2dkZWq0WkskkisWiqwajfgUySzJltTBU+7QMlYujxb7r9ToajcZMfhYDdKxiYH2AZIbMq2IuIZkGNXSWjlLBppFzAFx5KxWwhIMYyTsevylbppYd76F1BzlmPqcWGCDMq5AjBabOjz6ravAKrSpTJIHSj6BWAQs4ExK20JnCvUr0nGfWq2w0GjOh/GxBsKj9f94GskEU+j/nQ+lKLSzLTPiu86kFq5lqQ5oOspyopDDtQH11fGl6AscGYEZg6B5Qv5zuG/5P/z5REpZKtEJQBSDnQvmHKqjW8rHCktfZVCJVylTI6joSVSHUy+TvVCr1VvQ4fdTxeBw7OzuoVCool8tYW1t7S9G5qUC8adM+gxQs264SCotaifrMPqiXz6+CLhKJOAOA8Q/VahWpVAqFQsF9zj1AhO7k5ATHx8eu8g9TLoiu5XI5VKtVVCoVlwfb6XRm+OUPIgzZaEGR4Gu1Gl6/fo1ut+uqkxcKBVSrVbTbbVc0dzKZOOsjHA47JnhycuKg0fX19ZkagLQieN4ZUygeP36MRCLhnKzKSMmoGQzDzUnit7AbF5STSaZC5y1PTwcuSyNtbGzMVOyfTCao1Wo4ODjAyckJyuUyVlZWUCgUEI/HndBpNBozQsqX+qGLTwuNMGk+n3/LYU0LQwMp1DIkMavlqxAqCZi1HTUJWn+njF+hVz6PnirA33KsvA9hLoUFefTL6uqqK73H32uqioXnKPzPz89nTjHQ++s719n+bS0WC4OxD2vxqWWoKAPnWD/3BRbxvuqHomJBhcAGfynzJZ0q9DydTl15McLHFBr02TBwRP0yutaTycTtJZYjJK3SElSBwLUngqFrTwVSK5XwPmrR2zUJUiDYOD+Ej+0JMfw9hXaxWMTS0hIajYZTxAl9UpmYTN7kB6fTaezt7aHT6aBcLrvScpxvH11dZfW9q4C8zr3s72zQz7wWJNRVGHL9+DnHQ/5AxVsj37vdLp4+fYpqtYqHDx9ie3vbBScNBgN3uv2zZ89QqVTw+PFjPHjwwB3oTnSNyhit+dPTU6yvr2NnZ8et503n+kbRpFaTY2ToZPKmIgWtH5ZPS6fTSKVSTvslkyORtVot3L17F48ePXJlksgAuNFpFk8mEycYptMpyuWys75UMJApsQAtoUJuIp9j2CbVApeaJa9j0AqZLjV5zdFiHUXi3LSGyMApWIDLhGjNJaQVzRxDADPCUyPf2Dg+CjJaX2rNahARAKdoqAWgFp5aOb4qPmTcWmpOGR2VDTIljWSksCaywOg9Mm1Nm6EFq35HzguZIQAHZ6vAsoKLc6VzpgJdv/c1Zdb8W61AnS+Fq/XZtS/OtYWVdY75TPxM6UCryvA77g8LnZP+SQtUgriGpFP1K1MYcnxUMPXZFfYKipr0MSmfVcW5ver3qrzovPoUmKWlJZdXyOhS0i7RlXw+7xQqKu9URrvdLqrVqjuZhryJv9e9vMiz3KR9V/3cpJH+gsZilQPOO+lHXVyMKK3Vasjn8wDeoIcstdZsNt2Bv3fu3HHxGIqg0dKnEOUReslkci4KdFW7tjAkETBibDQauWONlpeXkc/nXUDI2dkZLi4u3AG81WoV0NBlWgAAIABJREFUrVYLS0tLrt5nu93GZPKmdNPdu3dnNOlQKOTgjdPTUzQaDWxvb7sK6SwKm8lkXJRRp9NxuVC0PDWilBtH/XtaE1RhHjIIC2HyO9Vs9XDfTCaDX/ziFy4VQ4U04U5alIQamYysfhPmMVIoUKCvrq4il8u5oAS1CsjUqUjQn0JcnQUAgEuGYi0cMj4rCDXIRQlfhQsFgKUZhTQtRE1fVDgcdo52wp4+gUNmrVAcBT6voTBSyNo661UBoDbr2+gcg/Vl6vzxe2rDfC4VjByb3l+DhvgbHQMFkOaWEj1QJYTKkf7NQvJ0TRSLRcRiMRwdHbnAENI3FTcGfWnksCqJCrNbga3ois6zWr78rfUF29/ou/1bG2lc10GVHloV9DOqYqjJ/uvr6yiXyzg7O3OCkccK0QJJp9POJ0skirTJubH70Y7nKqEW9P33Ab1e1bcVLGpp+4S+Pjsr0WQyGYfG8ci8L7/80qEPDAQkP9jc3MT777+PBw8eYHNz0xVs5zrTp53P59FoNHB8fIxMJoMPP/zQKeKWDheduxsd7subkek0Gg1UKhXn74vFYg6KG4/HbjPTagqH3xT3ZvmxjY0NB+uwPBQfRmsmsq9IJIJyuewOBKbQIRTDTd7pdBzj1BQKMh9ubGWYbmIMo6GABC5rmdI/2Wq1UKlUnN8zl8vho48+miljBVzW46NviL46yyxpHTFSSi0OjoPaqgpBRl1Rc+fGDYfDLkRctXgyda6rKgxaYk6Fl7Wy7P/qP1NBaK0nJVT1VSm8y1xTAGg0Gjg9PXU0wg1CaMQKGbXyVODrZ8qgdZ3s87Fv0g37s4LR+sv099aHqM+vlqmiFtqnRv+qkKJVaRW0UOhNjc/T01OEw2EHLXFvEXJnkQdagOpa0PnQsfJv+5l+rs3HnK5iUIsyMLUQfUKHc8k5JANut9suZ5I+RFWcx+Mxkskk1tfXcXBwgEaj4Sxs9ks68dGPjsMiEkHPq4rXd9m+yz7nCXPOgc4LqxgRhuaBCwyC5L5gWg5jQDRPVSNUmUalKXqs/6w8gGO9zrzeyGeojG44HLqyOx988AHu37+PWCzmBJMlVr56vR7K5TK2trbw8OFD5HI559OgACKswYMgV1ZWHCxWqVSQzWbx0UcfuSoYVmNnVQn1qSiD5/iZW8jABTrkI5HIDNTFMRC/pvXEyjuj0Qh3797F7u4u7t2756ovqHYMXJZfI6zK+yvUys8YhTudTt1mHI1GqNfrODg4cBAjI7dYyFyhLwqZ6XQ6k39orSOukY0S9QnAoI3hE5y26T2V8XM8sVjM5Q1GIhG0Wi2cnp5iOn0TuWsrAXF9bN4kgLf6t/dkYwSvjtsGyvhgVt5DIU4r2Hx9sj/C4bbUnq6J3XMWclUa1XV9+fIlvvnmG3z44Ye4c+cOqtUq6vW6S2JmxLYKVp0fn9D+Pi2Ud21BgphzR4Z6cXHhDhVmtCL5lTJSBnkcHR3NnOBBy1yhZqtIKX35UBRfU+tWnydoH/3UGw0MCkIq2HSnkGaVzjudDk5OTlyRd/LZUCjk0vC63S7Ozs6ctU/eORwOZ1JgrttuBJNqSDaL4rZaLbfJptM3eW4cGP9njhQDaabTKZLJJHZ3d5FKpWaYBjUCplJQgyPTYlJtPp93OL4NRqDWbH2EylQoDAk/2ZQEPfOLtfC4OCw2wJyX1dVV5/RV34u1PgjHaRUaBthQM22326hWqzNw8fr6uhNW5+fnSCQSLmFfoU1CtdzMtASASye3Mn6dH16jfj8fJKLvwKxWyO+sVmyFr+1f54fjXl5eRrPZdOdTApdRj6lUCvF4fCYB3yf4rPCzz0PIRiNRfVCX73mBy8IMvueziqC1kjWghFaHargqjPW32gctev6GfR0eHuL8/NwFgpXLZXS7XWxubmJ9fd3V67TrGrS2P2VBaJsdaygUchYgLRQG+2mgB4Xl2dmZi9Alb2A1qHw+P5MeZAOYiCBYC4V/B43zNgq8eU3zlCORiOOhVP7U/aSIUbvdxrfffotut4uNjQ2sr6+7OBSt0pVKpZwboFKpIJ/Po1gsOmF77fFe52K70JT2zMUjsdHKIsY7Hr/JFWQoLIUho95oGqugopBiusbm5qbzd4zHY6ytrWFtbc1BQ7b6iG5gjZhUvx+ZLaOUbPh+JHKZZ8fEfDI4+vmY6Hx2djZTVLvX670VVMLx6dhoDTDqj+NnLVceHZVIJPDgwQPEYjFMp1M354RaGchTq9UwGo1cFSDODX2HGk2qIe+6KSmULQxoNdV5gk6tKX1mC08GWZDT6WUVEWupqvWljEg1TauA8Ldqmam/jhvNZ0Fe9dIxB8FinA9a9nxRswVmLYOg1Ax91/zEXq/nYCTmx7JIMoUsla5EIuGO07FMnC3oGX9KzWdFabMWPH3tg8HAHeqrvnUGaFBp19qX/F2tVnNHt3EMpBdLUz76uOnz3bZGhCccDqNSqbgC8e12G9lsFltbW3j//feRz+edf/vk5ASvX7/G69ev8eTJE/zpT3/Chx9+iA8//BDvvfee45GhUAjZbBaFQgEnJyfOp5vL5Zxf9ybtnU6taLfbKJfLzlkaj8cRjUZdAjUJjD6rcrmMer3uclB2d3edJFetnpobc8+07NJ0enlqdS6Xm9H2fVqX/s468pVQNUJRf6+RmwwpB94wK2qL3EQMTonH429FDqpw8DFajkEtmLW1NQyHQ1fKiIJ2NBq5OaGmy0jdZDKJVqvl5g+ACx2ncNdgEp8Q4hgsE54nDPluhRyvV+htnmDlfTl/odBltK1NYdAqKgCc0hMkjCxMaa0uVYR81rBPaJPG6IvSfi0zBi6tbht1yuvsOHXufWPTpGRGPk8mE5dHRyGv0btM5+Fes3Rw1RzoNT9Wu4mgYDUcQnFM2dFI2Vwuh5OTE5ydnQG4DI7JZDKo1Wqu8DkjzNXyt3PiUwBv8mw/VWVkXuO+oF+W7pqlpSUHge7s7DgUjcgPE+v39/exv7+Ps7MzFyvCAgmJRMIFYjL+pFQqYWNjA3t7ezce87WEIS0EbtR6ve6qyWSzWXdECqHFbDbrDtvt9/s4OztzPotsNosHDx6gWCzObDA6+SuVinP+ZzIZTKeXVeoTiYQ7/NcKQUuctB50kdjsxiZkBcz6vsLhy6IBfPZQKOTCrnn8FE/RTiaTM/UblZHytz5ISpkQIZxOp4MXL164Mm22diqZXSqVwng8RqFQwNnZGf7rv/4LL168wGTy5rzJQqHgKofQWtR0AuAyTJ6J1EFwpn0mndegABELHfr64mYhFGzvSUhZr9e19vVr76GWln5GCEev1+AlDXKyFhsjMG3Ere/Z51nDPuFphaA+o/pWOR9qNZdKJZyeniIej7soXjuORa1BO3/zokG/73ZTi4nQOvMm6eag/5lRijxsgAjVzs4OMpmMy5umf4rzxHnVyFo2FZi++bIWf9Az3kaBSD7DSGXmMWezWWQymRl/IFNZtre3MR6PXZzEwcEBDg8PUSgU3Fm32WwW5+fn7j60Omu1mlNevneYVLXVUOiyckgkEkEul5updk/NnRuVWjutFOaGUFgCs9oVoda1tTXEYrGZ0ykKhcJMZZkgQgn63AffWatG+/AxWv5PiIoRU2TmmsKhv/cFFakA4ZjoN5xMJigWi+74GQAz/gpuWDZGCbKoLYN+ODYG9NjqMLwvoe9mszkzh0GQj28z+xiCvc4GpigzV4e6zhH7DGLo17VW1Dr1WXM2f8+uFRstC2txqpJlg1MUDVDEIsjf6RNUzL0issJnoV9lOp06pt1utx2SoCkkdq6v2k+03H9qzHnemKyyTX9VOBx21Uvi8biD5VlkfzgcotlsolgsutrCRGF6vZ5Lm6KCpusIXCqX8+ZqkXn8qc31oo08X/2uLDFp95zu/fF4jDt37rjv+v0+qtUq9vf38cEHH7gofeaPhkIhNJtNd8DBjZWl61xMRknokLX+OCiWCNNE3Egk4rRlRv8Vi0V3kC+dq5wcbmr1byQSCRwdHWE0GmFra8udcMwIwusQi4XKOKk+bZx/+2A94LKWHp3xXCRaEWQ0lgGqz5WMXDV0+iMrlQoGgwG2trbcotO/pQFADEYKh8Mu9JgaFqO3mFvIAumEGNTSpxLDyDlr2fosF2tl2WdVoa15fzadRDeFVvrQ33FD0RfNvucleut6WktN/9cIUHuNvdZ+57M4lXa40e2L91Vf5byIVJ1z0gz3jEbokbnTlzwajdBqtbC8vOzKW5H2rTAMar61/7Ga0pY2n+CxShj3ezKZdPEOdH8wmIPBGcCb1C760Pl7KsB0PTBtid9TSbO1Za/zTD7F8zY10iKRKF/hEVtYBbjkfRsbG9ja2kK323U89ptvvsHu7q479mtlZQXFYhGTyQTHx8cz5RhvQqc3KtTNDdRqtXB8fIzBYPBWEvRoNHJ1RRmNub29jdXVVWxtbbngFxIOf0d/Vzj8pmQSAFckenV1Fclk0h0QCcDl0WlUHhcjCOJTIQUEO9/1tyo8uXij0cgFuKyvrzuFwFoSHA8bTXm1jiwjZAAE4Wb11WpiqVp07JubkD5cwhTcyKqoqGXIMTK9w1pv1jKxAs8KAmtt+4JXLJPn5mBqjfoBWU6P1+rJFfOYjlV07GcKG/uQACtI7bsP8vTdy/d7zV/Va32Qsm/eNeEbuKxHSyakbgtWpel0Om5/xWIx75rOm8OfSiNdXdXs+jC6mlYelUleSwuRc0ilhNHMLO6hifd2HKrcKgoU9BzfxXP+1JrSrxa16HQ6aLVazrr2FXLg77a2tvDRRx/h+fPnODs7Q6lUcge8FwoFTCYThxp2Oh00Gg0X4LSoosd2bWGoN+BRSjywV7VZ5t9Np1NXYHp3dxe5XA5ra2szR+6o4Gq1WiiVSlhaenOw5nQ6dfl2PK6JkVysaEKmTsiQxK+JyJxoZWrzml5DYaN198iIKAz39vbeEoaaD2aFhbWm+BtNNm21Wuj3+87ipBWnqRRkhBqQwc1Ngsnn8y73kN+p4FWFJBwOO6vNJ7SsksBnAS4tFTIRZSRWIdG++D2T/fWZ1HfI/C7CVPSjas1ZbUEMyie4tR7rPObkszB9NKNjUKXC1xfXVf2NQfSo9/VBxMyN1WLy0+nU1eoF4Kr8cD4tFOu791Xz8mO16wgKXkdhyHQv7gmuwcrKCjKZzMwcEtWiQkmLmwgGx6H7m2uj6IuOW8cfNMe3VRByD5NWub8oDBnpzOBLNqIl5Lebm5uIRCI4PDzEq1evUCqVXFm8YrGI4XCIcrnsFJtarYZcLvfWySuLtGunVliYkMEzu7u7GI/HOD4+xtHRkSt4m06nHeaulS60+ovCla1WC+fn505gNhoNDAYDZLNZ5HK5GeJTLYKExlQOMlGrlc3b0JborEWhzF+LdIfDYacQcF6CBIjex24OwtBkZjZPUiMWCTXoBmdQwGg0clAOGb0qDDoutdjU0rHjDrL4tPG31k9qr7MKAe+twRmqLep6cu2pdNAnShoIstCCGAo/t1Ckfh/Up1q985AIfU7bh679VTTDqFN9JiaLU+ixrJ8GSPEos3A4PHO6C/ectYB982MRDqsI/JhtEctKGwPOKAhZvYTPw2AaO+f0ETKIhgXCqdSrYuKD2H2Cjk0FqrbbKAjZSPe0DBm81Gw2Hf+iO0wVUQpD0jEFqfIVnsJCCJuWYKPRcIfGa3DgIu3awtBWvhiNRshms9jZ2cFoNMLR0RFOT09Rq9UQDoedMKR/kM5+jdZUbJ3J5mtra4hGoyiVSuj3+9jZ2XEnGqgwVDhS4VLLyJXYfZvHWgq+pr4++mMI02o1f1pV2p/1/wS9KOB4Kgh/a4UZiYljZb4iNSpaToQA1UelY1NfoVoq8xik1WIXsRh8lrHtU79XJUbTD2jxM91FFR6tPTtvnL5nol/Sjs2uj69vKigKbfoERRCNWaWAa67NZ6Vz3bi+9Pcy1YfICH3MCjtz7hbJydLxLaJU/pSaj3YZyq8HgGslFM6ZVp4C4EpBEq3iXCtf4D24z6+yurXNE3y3Zb7ZdM9YYdhut2eEofr5SLOcZ63KpG4MFlph3jRTN+r1uoNNr9tulGfINhgMHPZ7cXGBVquF0Wjk8j2KxaKrG0pGThhMGS8tGqYjqNQHZosVK9O0sBQ3O60hAE7QKnPVyMQgbZifWV8hYUT1bTLIhzmA2r/1u/l8ZRwHn4tMjnOxvr6ORCLhTmXgBqSmT2c04Wntn8RlmSHvqQLaWtJ2jnxa6zzrOUiIBG1s7U+jznQTcBw2j1P71/vzb3tvy6A0zUSvCRLevnWzv72qqTVs1813ra4P6XE8Hs9ozKR7uha0tiajJHXugubJvluf7E/FKrxuI5OkRcfTUTqdjhOQsVgM6XTa8TXu862tLYdMsVjCYDBwtYAVjbKuGYuwAG8jJHYdbrNVCGAGhQiHLwtb0B1CIci9Z90YVDAVzidqRjSuWCw6VxXrXTcajR9GGOrmpyOZWhKZ9cOHD3Hnzh1XXYDFqDXiTqEwBozw5HjCOhcXFwiFQjPV+i20qBuUzJ4pHXoKg1pVKkwX0dZosiscwlDeUCjkEkZZi3Qymcxo3JbYVcACmFEwrDDkmYiRSAS1Wg0rKyuu6DJwadHYJG6dYz67FcTKRFUY2jnWjWyFm10LvnzRlQDe0pR146sg04LI1qLlmui6UzhYerB963pw3PxM/+fY5tGHFRr6LPMgUW3KNK3P0DcmK8RtWgbniRWe0uk0Dg8PZ/LprGKm97LztahV81NvqpyqBUI+xrNYmSCeTCZdNDerQW1ubjpInla4BiZpihPvSeTF5jvzezvX/N+nLAe1n6LQVAWPe55oDuectUrJo3T+FDnk3qbyx/nk0Vs8m5IR+Ky/zHEsSrsLCUMrPHgq8XA4xMrKClqtFsrlMtbX17GxsYHNzU13thQxXYUpgdlgA17HijOrq6vOUmQhY1+NT9sICbJfZfa8pxKatWq08X8dM6EUplRUKhVEIpEZ4WQT/H3WCP+2sCAZIjVVMrTJZDJThJrRtbyX4ulUSvRsRG5Uwjacc+CSOQQFZOj62+YTAvY386xAn5YctB6+4AO2eVaKwi8sk8c5Ig2r71X7twLUtqD5uUqI6SudTrtal9aKCKJJfS7CSVSASFcqWOk3tEFm9oxLSxvXYSS3scXjcezu7mJpackJNlZ0ssq7+rOz2Sym06kre5fJZGYQGFov/X4f5+fnOD8/d2dMqtJCmlQY0JeHTPcPm7UigyxLNt8+XdT61N8q3VqkzWekWDSBCF8ymcR4PHbn2fJAdy2pyd+fn5/PKHNUVhg8SMuSBfsJk1rr0uZTc5w6d1cKQ5923+/30Ww2HeTJqKyHDx9id3cX6XTaYe7qiyHD1VJbfGef4XDYFV/u9/soFArIZrMO/pnH+Kyvxhftp++2+T4nw9FAHy4ka4aycIAKG84d+7CEZOdBmR/LRGlEZygUmgkO0t9xA02nUydImeiqRMPNzGfQMWpEoyXiRTTPeZvLzusi/S0qiHzX2u/UKuj1eqhWq2g0Gq60FiHZmzYLb/rub9ef1/CAUy1arEUVrJWgz8L/KQxJC5wHt8n/X0CICkMN1iKCQNpVxva3JhCVudMFQf8/FXhl8G8xzP+Xh0i/PI9Zs3TW7/ddZPzBwYFDj3id+nOptNqzKnmtCgptiwi061r1tq8gxOCq/i0vBOAg6Hg87gIlebiDommk59FohJOTE+zv7zv/LJUKKh6k+Xg87g6KZ9oL19HHS/Qz7t8bRZPS+cnzpJaXl105Mga4KB5MaIFh3/1+HwDcRuTn3W4XuVwOyWQS5+fnDo9n9fgfs6mWAVwew8R6ehQmamH5iDSIaQKz1qFag6q5WyapFh61VTJ3Ckl7r6s2z21tKhiAy+cPhd6kqdRqNZTLZZTLZbepGBRxXaZxVVtU8+52u/jyyy8dHW1vb2Nra+stizUoAEsLDqiw1WfXSlAUhKFQyN1DBSH70Xf7TL7vbkOzCAj3EaHQZDI5Yw3qfJOmNH6B0agUnAxoY47sZDJxuXDMtSYyQfcSUTPCfjzFneeSqgDheKi8cF31XdPJrKWvaNc8lMpnbbJx7lSRJyJnrWgbWES0CoAzJujv29zcdLnnAFCtVlEul3FwcICTkxOEw2FXnJv1TOlG02elVc76sZa25wVR3kgY0ums4cXZbNYVDbabjoKMk64aFBeFDxEKXYbNh0Ihl46xSNTb99l0oakMsICsCkMgmFFYTV8JUmEI9k3iUaJV/54Sqm5I5pCpdvn/Q1OI0DKyWq2Gg4MDdyZdMpl0yhsVjpsGhVjhEcRUfHDWYDBw4eDtdtuV07ORm/MYkxVSZJhqWUSj0ZmgBQAOyiOUfhUsa+99G+nKziXTlXgCDJ/LRnCT+bMEHoP89BxJxitoBC/jJlhFhRYlkTCmaRC14YEHTEVTy5HjoaXI78gn6JPTszUt79Dn0iIpOjfA224O5dk6f+w3yKevv9eD0sfjsUv/4jF4W1tbiEajWFpawunpKU5OTlCr1dyxY6w+xvNraU1yHtgv4Wu61/g8Oh4fXVw7gAaAO1qJvisuhk7ucDhEtVpFr9ebmXwuNheKRzVRq+r1ejOBKcrUf8zG+9OXyYRcFgLwVXLR37HNY2rAJcQyGo1mKrXb/vRe+hlhac1R9I1D7x0EOd62pr4LCoJ2u+2KvpfLZWxubuKTTz5x1XkUPv6uhCHbVUIReKMt5/N5VKtV51+aTqcuMICMjXtEBb3eQ+FXSxO0ZkgbvJa+fxZ18DWlMRUkt5lO2PS0D10THqmmwTK0wBndSAuH/MBGIquflgcLMBWAuY18Ec2hsqLlChlVX61W3RqoQLMv0obCsRSQtCDJr1WAWotShRw/J0+x9K60oJHKRLjI67nP4vE41tfXkc1mXSAiT6mg24nWHct3Pnz40GUohMNhV1g/kUggl8uh1Wq5RHvGn6TTaVdTVqOubePYrm1uhcNvCtPW6/WZw261WDAjQWkCc/OEw2Hk83l3NiE3Ocu2LS0tOdiAha/tyeU/RlNmQK2DwpvCXavSBGlVFjpjn1ajojBkZXefxq54uDIqDZrQMyL1Wa5qt53RKczV6/VwdHTkClXn83k8ePDAXad1ZN81XWCeUhEkDOkzYdR1r9fD4eEhlpeXkc1mZ4KjbEoQ+1UasPck3B6Px2fq0kYiEZceYFMtfOP23fM2Nn0WWnlaH5muGwpDq3wCmHFfkNfR4lFYUCPmFanQdBoKSDJ/nk/Z6XScoGw2mzOpB/osepKLRovzRQOE/JkC0b58wpSpOnrQNp9dc5eVJvVZlRfx2Smcicow3oLoCKF7ohnZbBb5fB57e3vY3t52udRU6hiQo/WKKQyLxSIAzFzv2+NOcbgOIfFHxNgZ+aklnSaTN+cc1ut1J/Wp+dA0pvnKk95rtZpLnCRRZLNZVwiXBPquzOomTR3pkciborwsCKvJ36oIUAOyRGIZoQow/paWMgtTs4SWhSeU0GzINjC7YfVeVsv/W2lcH2rT3JA8OiyZTOLx48fuwGNN5LcBTddtVlgEvfugGmrfuVzOVXAqlUquKorWZtVoaQ07Z5+WxsgEyPTpaqCVYIWhRRsUGvP5FG9b0zVWP5fuM6ZY0OVDOlJBxjVj3VctdED+aC007m2OQ2mBQoZH22mqFGlAzyHVg6H1pRamogCKWhFGZJ/6TuGsCAv5LpVrImGpVMopEhSOqVQKqVTKHWOnEbmENLWQCF0Cjx49mvG5KqTLtaGFp+UkiRpqFO90+iZugvCq7gOuIZtVIK9tGYZCIYd7c6ORMIjZ1mo1VCoVVx2DcEC73UY0GkW73XZHyYxGIzSbTYRCoZnTGBhGy4X8sRsnjcKQz05CUE3ICkNt9lmUUaqmOJlMHKGpxekbl96bRKypGD5t/7YytHmNz0WmT7/2eDxGIpHAzs6OC8EmJEXBoJVG3uX+wHwL0TYyAUY21mq1mSAAAI5pq6WhwnCeVUgmoAdkU4Ei87TWhEUSfgr777tuCgMqDfAUHg2sAmatMPXdEfakcgxgJiiGc6f0ZZEha40FQXnc3+QTiwhDFUaa8qFQLcdkIy8pOJWn0EVEGUCIdXl52SmXdO+oIkCEwkbbx2IxFIvFmTxwADNzTGGncLX2ZWFdyhQ993UeDfOZbxSVQi2Hkp9OTIb+n56e4vz83BXmrtfrzkfBPDpqAePx2J0ppoEzdOpbR/CP0XRDMEdNoz01P4bXq6UcRNxsKsyUyRGrV2alzM/eR/0Miu9bS9S2vwVmR4grHH5TmaLT6aBUKqHX67mzM3m+Y6fTcRv6uwjO8gkitiABy9+QmfKg3nQ6jXg8jvF47MpKMZJQUQBrXahVyM+oRJFJWGSF9BYU+Rz0TLdZkVKkRJUIwp3NZtMFxem80jeoJdgIFWq+JptGVAYhB2wWHeJn+r02Wla0RhUtskqNWpga6EOlW/NR7X2IADLNC4CzEBmYokr4ZPImXafb7c4ghrSIGQwYCr2JFWm1WjO0SaWQiojSvCJ06tIgv9RAGgAOZuZ8qZXug/6BGwpDpkFMp5dngKmjmQWsk8mkO6We8AO1JY1+ZEQbYQdl5j8VQQhcBrf0ej0AmMHOtQyb1dStJRYk0EikFIQ6r77f6X2YskI4mkTL+9uxKAR2m5kbm4WwAMycakFli/4VMjOrLNyk2U1mN9y8/snYGB1IiI7uBiqFmnbD39kgGm36nUaX8jM7PksXQe867tvWfGO2UCYhRF0z8iimQ1BpJxqmaI4qLIQpF2mWVnzv7MtaktZv5+tT/ZQqvIKUbD53s9l0RoxeRyVdBSyFkUbA+5QoKhbdbhcAnBXJww/Uv6nws6aV6Jww6Z4HNE8mE3S73ZlzXn3KoG03EoY81BfADNxJs3Q6fXN8EE+taDabWF1ddeHCFIj/l733Wm4tSa6GF0BeCXHPAAAgAElEQVQS3oOePG66W6PWaEYTCj23HkLSjS6k+DS+p6d7jqUnvCFAEPgv+K/k2snaoDvdPDQZgSAJbluVlWalKQZLtT6HDMdrXOclfkryMCZhCMK6GsOhl0yGIbOpcPRCB0AkfZvp2Wr9eCWrglA9DNYtaSG1hz/0/o/BI1RSa1iFh4dfKMwYO6TQuqsyjHumOEMIgHkhXBOpVMoavrPRumaC+l0n9F09f3kLOE6havw5JFTjoLuHSKF14BWKH0dCiiy/8Ma69gcmf9EopbFzW7iZ8+jHn2s6hDzovagIeL42dAgpWv1J5Evlj5c7IbmmaJXyFceB+mM0GiGZTKJerwOAlVloI4NSqYRyuYxqtYpyuWxIjl47m82iUqlENq6mQ8ZjfEWC5wPgDsqw2+0ikUigWCzagPX7fUynU0uOoctKa0vLMABYz1JlSBbzA7iEMd8XcWKpDE9OTrC4uGhZpN67UGjkKq+Dk8EsXSpa7UKhz6G/q/WvtY9kPC5Uekw3faaHRgqdaF0YG0Ewo5SL0ndCui2FrPi4MfbKkBAcjRam4nMnBb4XeYzf+aQpL9gUXiepUFDhRc9GvSR93pAyfKg8osR3YPKKJx0fLYMgLJfL5TAYDEywMwbtjVbOhb+3/vSkSkdzAeLeI+538kwcKqE/Q2Oj0KYaWGpga4IR/6fwO417olfT6dQyRQlHs9aQ6BaNi1arhXQ6jeXlZdv9qFQqRWK9WiLClov9ft9qOOlozRu3ROKG2aQkKkOmtaqwYVcW7lTBhBONs3GACWOp0iMkwUH8UhYcJ5nB51KphEKhcKkzTgim4Pf+o8KYFtNoNDLXPy51OSRotU2bYu2+76b3HDyc8VCFnI6rZorSup3NZmg0GgansPA5n88jnU5HFOhdyc9PyDPk75xzXRe5XM74QSEunjNPwHnhquepYUD4iPcZj8fBhKuQ1/tQeYTkjRVu5kujHbgQ8FRkimIRAeJOMpRZGq9XRahGawiejhtv760qeZkQ+h9wsXmBvm/IC9Sx4U+FYslzGnPktRjSIRHFIJ8wxsqY62w2Q71ex5s3b7CwsIBut4ter4fd3V0zTHiP4+Nj60xWr9exvb2N9fV11Go1U4q8dzJ5XgNKA4W9TzVk5PlA3/9W+xlyULggtcv7cDhEPp83C0mtBFqmdNXZlo0JAiqcaKnd98LzDEvPsF6vW7ovYV61jkLegWc6zfSiomUXDC2k5QLV8+KsOk68egDXhWgeC2yqMI1CoITdAVxavHd99zioSX/qsfrTxwRpDOoa0ixlD4PpdeOELT0g7giju53QwGMII/ROj4W8YUjFVigUDJUiFE2ERQUu5yKZTFotIg0a7xVx7LT2WOmqsdXjfVnAvPNDx8UhTKHjeYzKKM9LvsmA91y9slY+pleXzWYxGo3QaDTQarWsvRrP09jrYDCwawwGA5OTDHnQU6/X6zg5OcH+/j663S46nY61Ogy9p353Y2Wok81FlclkUC6X0Wg0LBnGD4xmB9HaohdEpTIcDlGpVFAul617/DxX/ucgn2lFZUgLhhlUFGjzSiC8EPSZWH7XbS2E1XPjMHwKPJ8wQUPEP888eOShkXo79Kpns5lBx+VyGZVKxRQOE1MIy9yljvU6itArKRJjT5yz09NTtNttMwj5vJpSDsC8RhU0yhsqxPgc7HNJYc/4MpUhQxnzPI2HTH48aNxTsTWbTUsY4THJZNLCPhpfpRNAZch+wPQivUcVp6C8XAgZ0vrhcfrT/+7vE8qWDl0jRL6JiKJWJOoCXo+8rO/t1ydh006ng0+fPqHVakV4lgluREkSifMNIT5+/Ijj42MrZWFjisXFRRSLRWxsbKDdbuPt27fodrvodruoVquXlLkf70TiCpjUezb8m8ky7NGn9TQLC+dbGrHoklAo/88MocFggMPDQ4Mo2u02Wq2WdRNQS4zX/TkXZQhuonDl1lVsHhCCQXymny4+3Zmcx6pSnEc0LHQhcQFOJpNIn00uWmVcb6Xpc/P/D538u2giE//W97xrggjn4TqwpR4fd4y3tv3i1bn3c0fe0O+1ziuXy1kjDPKeQsTXGYc4Q+qhENchEIVDWfbld4XR9UQolOdqpyfC3SHFxd9DkKRSHG/472/6vnFw63UpZNz5Z9T/AxcyWx0KKtNEIhHJgE8kzvNP1tbWsLW1ZXPEfW4PDg7QbDZtnrjjRb1eR7lcRjqdNr3D4v+TkxP88MMPyOfz2NzctOcLISuz2Zx2bKEFyhMnkwn6/T7q9ToKhYIlvtAFLpfLKJfL9iKaxMHsn06ng/39fayurmJra8uU4crKSoQBteF3qNPKbegqwe+tJoU7mGxAZagNYnmOF1Z6XSpDFvlSIOmkhIQdP96D8VAXoTAyjVfUmmSipDU8D51CVrUKQDUEPhdfXQd6Ch1PYwaIbmQ8m0U3OA69G3Cxx6afOz2OfEahfXR0ZCnsqgy9p3Kd93yIROORXh/nnxnZCpOqYlMPncQuKclk0orQ6c3o3PB6pJuO8XWM5DjycugmFDJ8dC3Nuz89QCbEUMYof9O4oDx9/fo1/vmf/xkALCmz1Wrh//7v/2yf1tlshlarhcXFRaytrVleAKsVisWiwaV/+ctfsLGxcUkOUFdpaOtGMCkzFmll8jOdTi3TikzGhaYvHaeVWRenPfQ4uD6V976ImaQewgQuu9sh0ncOWX8qoJkVFRJMcYzNuaFyfup01eL3CvO2wuJzUJxnGDKmPM3zRv27qVDnGmYmONGbxwSde1KZojF1bxwxQZBeIr0/eo6qCFhKQQVLWabQ4V29sodI5F3tvMO6bO2OA1w0HeHvqjtoIG5sbFifVu5XyKYA3CCbuoK6hGEnGjch0vVxIzeAXRpoZTJRg8qQrXoSiUREqfneemohALCYDZNnNIvSx79+bqJA0bRghVbi4Kq4a3kYSxejWvDMLIxTht6jIHOQga4ar8cg3J7psrfhUQ1fQ6drkGuYglwVgof69LoPWahzDdIj9MqQceRWq2XJNDyenqMqw2QyaWEdRcc0zv8Y0JbbkHa/SSQSVgLB7FvNfQCi+RnUD5lMxvb5fPXqlW2XR5nHTFRFvdRbp4Eyj8xIusnL0YIELpr9UqEpfOAVmH9hWqH0fpiAwm119Jq83n0Kbz4ji0GZDTXPM/SKkf/jOSp4aEGxDIK7XhNv98QFzGuSMbSJ7bzxelaEj4PilJZXhH79kKe4fpkUpvEwpZACfIgK0Ss+fufh0mazib///e/Y2dlBq9UCAMvCJYyqYQsa8HQGtO7uKZMa7JR9mh8xm80s8YV9T7lHrsZtFxcXbbcjVhnwOs1m0zZ6oBylY7W0tGRJYiqf42LeN1aGWsysWUUqnLWfqAaheRwfXDPjqAw1/d0nENwXJRLnrYnonqshoFCLHh93HS4SHS9OIoURm5QD8UkU3jOk50oG85C0MsIzPR7y8WXlK429h5K8NKZDARSCZh+DIiT57HAApgy5bprNJn788UdThrPZeUNppvirF00vhMpQd1546hQyzHzcbmlpybbqGw6HVjbhlWG1WrWt/6hjptMpWq2WbSdI/qcypLeuu2fwmqE5unHRPW+odUoAItCDprVr5xlmWmmrIg8ZaoD1S1h0HLDxeGz7wekeYNppAYjGBFXZEV71ypN/a+Ncep7z4o8elqVnyfG7zmJ8XrAPn66Kd3qhr/Fu8h3DFD4VXu/xGEjXnbYI4xiyN+xgMECz2bSenIVCwcqoFPrjGNEh0EQRf88vQZbdB6ni4Rgwz4TKsF6vWxu2Xq+Hfr9voSJFNZLJJEqlEiqVimVEMwbZ6/VsPtlEY2Hhook6SzHm5aDcGMxWL0Y1biKRuFSPQ2XIoCjT/vm9vy4hi5Bnc9+kMCmtyFD87yoFpspQPUUthA41o52X2EA4lcpQA9A8ztNjEXDPNL9mVH9SWGjjCxpRFOLKK96a5rW+lDV5G9JaNq4/Gp+s7ZxMJmg2mzg+Pkaj0Yj0XFao1Yc+WG8YKuV5yGN2W/LoBMeA8pPoRLVaRSaTMc+QPZZ1rqgbuF8i0TDKPbbEo6fOrje6tZUmNN3ZM+SNdT84tZQ08YUJHdpYmPFATagBLmC+6zzwfRE38QQQgVSUfPyG3+mEesXJQmsdRz2Pv3tSxaoCKtSU9pkeN4XgHy+I1dAkSkNPR+M5ek1VGKF7PjQeo6EY5/0yvZ+wJ+PwjGMlk0lLbPPJRryejqkvl3qKFHIW6M3RIVDlSKdgNpsZFMrfCX9yqzPKzZOTE/T7fbsWv6O+YpN1nb8Q3TiblIpM98Li94RKtUCVL+aVofau40trLcqXpAiBi21HOOCapBJnLYeUo/+/eoY+3uOPjbu2H8tQ4fUzPU7yAl35xBtfhEiZ1cc1qmiMPz/uug+RdH0Al9ctG4Jopql6FirfdGw0JqtZ4boOnzp5ZaiKTvswUxaSX1U2JpNJ5PN5a/DNkhYqu/F4HNngYDqdmhPD/8dRIpG4eQINlaAuLnqBquW9tQQg0ibrqoDml6YQaQQkEolILV+cwAi9S+i9gWhi0nXLSBQeJeSsSU3zFHXIg3imh01xc+p5ju3fNG7DWBkQLe5+rLyhUKd+59eKdpcBYO3suO5UuGs8yne3eazjeB0KQcramUZ3TMnlcrZBfMiA4DHcyokF+NyUmf1LeW1eZzQaodvtBhvfA7csrVAtzYuElGGcMPY97fyL+i2bvoT6HD5/yPvVd5sXKwz97aEsD1f568V5lj5W6D3D69BTXqwPnebNcRwsz3VIoUBPUa1yID4W+RiMqNC69IKSyo/GPfMeVBlSbmld9TMic06e/4CL7FCWg+lOH7lczpJe/E4bvAY3hWDVAfVPr9ezrf88jM39E9UzDCnEG2kbQgKmSf9/z5ACmYzhvUK9qWazaVdy7fXJe30ppApR31FjD1cJiFAskX9r4gwXlcYb/HPw/EQimkXqu/c809OhkGfD7z1pXJ8Zfaw3DO2jyOtojP+hkr6DNzo1iQ2A9b5kmj6FuHodjEOFehSH4opPkdRbIyyq4TKWtmSzWcxmM7Tbbev+QwNOw1SMLwKwRi2DwQD9fj/SSYmOy2w2i/ScjTNWbpRAo0FhnWif1g9Euw94Ia4Kkeez0Dy079R9krcYVRn6GJ+HRkOeowbTVcnSOuIkhmI0ei6vSVwcQKQRgJ73TE+LPJ+QPI/6Ho2sN2RGuE+o0fKgh0ghaIzf+/+xh3Iul7Mt5jRGT49GN5cNGQ9PWRFyTDkuVH6+NzMzeVkS0Wq1LIM3VI5Gp0H35mT9J5Uh5TSblzA7dV7s+9bKUDd51HpDtZzo7oZSZL1nuLS0hGKxaMrwSxLkIc/Wf69M7705jRnq8fy/z5iicFJ3X6/LcxUbB3Dj+sKbQKnP9OWSGkvA5Xi1HqcfbZUFwOq22ILMCyJC+Q+VQqEHlVsqZLPZrCVq8FgdBx820dgicBH60MSQp0qUl2xKoNnMiUQi0nmMO9SfnJxYfgkVJlt/zmYzlMtl1Ot17O/vI5E430CYvEtZylI/Xw+uxo8ajjfGO0Lp19qI26fIhlo80cJkmivd31wuZ57lfS06z7QKR+o7egs5jtlDClKVEXCRnMNMv6veXRUs078V/rmqUbcXnk95od43hWIq1/Em/HHzYtf+WP1bvZ3hcGhdjPTZ9JyHTqFx8x9uPJtOpyNhC2/AhmBQ7bCliSJPkeLGWnuLcryZeKldfkIhOeBcuVYqFdvLkNeczWbWKIGepm4kf1Xj9FuB/0zF1uwphUn50KxHVM8FgDX7LhQKSCQS6PV61qlGOwT8VAsw7rpxipB1kHTdNRWY5/kYgUIEACKxCB7DyWb6L5UhEC2X0HP0OWnxcMcQWqpxtVAhb/RZEd4v0Zj0SWmKJvgMZPKNF8IhFELDEsrPtJzZEpG7vI9GI/s/+UPPecjxwhDpeLGlIT0Nbj47mUzMM/E9l3ke1/ZkMrHmHIw1qgd+m8990m2fmTyjvUjZ3EAdKI29hsI8vA4zT1lUz1pDKlWtJzw7O0Mul7N44Wg0Qr/fNx2l78X7ALfoTcr0VO1kQa2sC5U38dbldDo1T0YbdTNmBkT3DfsShDWfmwFYtRTjrIxQrDDu2lq2cRUE66/N51Km8i3h9Dn0Gl/C2D7T5WQOXTdesOi8+jUXssIpiPjxDfU1B4BlU3FoxkOOF4YopHQUtaK3zO80zwEIz5vubvMYINK7PHuorEJ7OitySN5UXg3xNx0xlgNp/oY6X5rZyznRDFW+m6IgN4oZ0urRjTEzmYwpRw5AyCpVL3I8Hl+qReTxGpugp/mlLEAVIld5lrrAQt6dnvMY4ahnuh5pnFiNG0UFCPXQu+AxXB++CFwVof4kb2mt8FOjuLiqyiptV6fIVpyHrR4QDXnfREPvfZfn/rlJUYabku5ORP2gcp1OALuPEab3eSZUpJoFDSCSyatKVRUrr+H7yYboxh1oiL1yESt8AFyuo/MWKl1adY2ZGruzs4N2u23/54t7jf5zU5yl4t9TySu0OOhDx0YF1rNCfDp0lYHklZv+HeoRrIJahTX/p8lrz3RO3njV0Ijfto59ir0ApnzTzWsTiYtewbel+5R9t723l2UqI8l/auABl6F+XseX+igf++Ql3keVnyIi897nVjvdU5FpvYguaC4+1coKfWoMMZPJIJ/Po9Vq4ejoCC9fvsT29rYxEFu03dcO7p7Z1RqMU1hxHqE3EPz4qCB7VoZPg7xA4PxTKGiXDo0r0hMZjUZ2Lcb/VNnRoGQ9YSKRsFgha4Sf6Zw89Mw4Kvsr0wsZDAaYzWaoVquWFUlvmzEsfmjw+5yBh0S3VYhEOzT8NZvNLuWGqEPls+mVd713qa0Febw/D7jI7OXfce9z49IKXbQ+BhGKbShkwA9jhKlUCpVKBalUCgcHBzg8PLQNHqnx7ztg760MTkJI4XmYVGmet0eBCFy2fp4ilPWUyHt8quhC8T8gmmTjIVLgsoWtmY/A027m7tdrKNbP8aWSY/yPRgSTMYCL9arwqsaxfNbpUyKVYfSYgWj5HeN52us6FDIK1WyGoO1QuE5lOM/T6/MZb6wMNf5HxeYXp3qGHj9nJwEqw2w2i9XVVUynU/R6PUynU/T7fSt21dTZ+yCfhBCKY/oF5t18HqPCKRQn9cc90+MnD5MDFxnIPlvZx6zjNnGmkFErmRa5rtNnHouSj1FRXgEwJUfvmzKJddFM5WfYh5nehLH13Ns8133SbfnEx611w15VhGylxvihFs4rbzM8pxRShipjFV3h36HxTCQSN1OGvqSC8A0XpfcKqYl1U19Cqt5qSKVSKBaLmE6n6HQ6tqHmVZDkT01eWGkQ/Somnfd//Z/3DJ/p6ZBXfIq2qNehHqB6G7reSGpo+cb4VyURPHaa9+4apvB5AWpknJ2dRQxiCluWZWhcVhXsXeJvD5k4pjQGqAzH4zFarRY+fPiARqOBZrOJwWCA8XiMg4MDvH37NlL+k0wmrTifzgO7zHDzZc6BX1ceweRP1Su38gyVObRbhU89JhMQ76VHqJ4js7WSyfNdjLvdLtrtttWRKOZ8X6QwlR+D6yrEefFFD6U8W+xPh3y2tVrQqgwpWIGLdmCz2UVht+cbtZgBXOrLeB3efWx0ldGpilATj3gu8yU09kfvkR4Ov6PwV6V6l/jsfc3VXZS48iS9aIUsR6MR2u02AKDT6eD4+NiyST99+oRCoYBKpWL1hOxSlslkIo4WN2QeDAYWz2W9dgg29c9GupEyBMLlA95jVEhxaWkJhUIBCwsLhr8zOH18fGxQa6/XMyye19F08/tWEj4uqt/xe3/svGuF4NQQvPpMj5sUcdDuS6oENfSgMCcQrXVTo00Tsrzy83Hvp0yhOBQNEs4Ne7ZWKhVLmOGmv0SvNLOehr4vkbnLeN+nMrwr+Zg4cK7E8vm88XKxWIz0K02lUtjd3TWDj9+3221bJ6enp7a7PRUiG7go3A2EPUNPN1KGIWtSg8cKj1Jzp1IplEoliwUyM3Q0GuHw8NDqSzqdDnq9HrLZrFkC3LVYiyjvg0IKywsX/XnVNfS70LWequX+FIlJGgq7ee/EG52KlOj/NSnBeyFcl6pYn6IyDBmwfhw0O3Q2O+9gwp3udQ+9wWCAQqFge+sxs5FePPMpnmqMVmOF5E0aDul0GqVSyX7PZDLIZrNm5O3s7GB3d9eapWurQMphFt+zqTpbsXll6GOIcXL1xspQLVlNZ/XBfgD2wGxttLCwEOnQcHJygmKxiPX1detWfnp6eqko+D69wpC3ph6wHncdikuGiLvXMz1uooBdXFy0+AjLlYbDoUFH3NZG087VEwRgWzDxQwHNdVgul1EsFi2b7ynyWMgTBKLrksY8e5SyhRhbfjHZ4/j42HbboaEynU4xHA7R7/dxcnKC8XgcCSU9FVL0QstOMpkMKpWKtU2jwioWi1hbWzNomeO4vLyMzc3NSB2n7vJDyLTX66HT6WA8HpuxqHpJvVNP/O7GMKmPbfl4hc+KYy0h4U8NNs9m593HNzY20G63I93gQ6mw90VxnuE8gXIdQePfK+QpPtPjJi5YlhLRs6BCazQaaLVaODg4QKfTueQJUtCwdVi/38dgMMBwOLTEglwuh0KhgK2tLayvr6NQKEQScp4KheQVx8DHUpntns/nLYGDmfDs4dpsNlEsFlGr1UyoU4i3220cHByg2+2i2+1atuNt6aHBpAyRaa14IpFAqVTCixcvLHZI/i8Wi9jY2LAEmcFggFarhdXVVWxubtq6YNIm9Uk2m8VwOMTu7i4WFs43BtZEHW0Go3Pt3202u2FpBS/g42ZeMYRq5RgbnM1mps3pPmsvP235Rg/0S1GGSvOCsX7Q486Lo2dl+HRIy2qAy1Z0uVw2AVGpVCLWLs/n+hoOh+j1epcEMNP92cuRQuopeSokv05DSA3ht1KpZAkajGklk0kUCgUzNBjPIpSaTqeRz+cjyYHD4dA8/tvQfcqCu8Y5VeGRp4vFImazmWWPcuyYCcrETO5g0Wq1zEMfj8dWleD34VQYls/uHRdv/PB34Baeod6EF/I3UoxccWMqONbmsHB1OBza7yy90F2Q73PRzkuMiVN2d8nACl1fA88/Jd230fEUSWuggKgyJHxULpctzq6xRW+UUhl2Oh202+0IDzLJgLVwwOWMynnzH4qRPwbSriQal2XiXzabRTabNYMEAHK5HGazGbLZrCV9sEk0jQ713O+qDPl890G3nWsmEE2n08iGDoVCAaVSyZQZjYbBYIBut2uQMtvg9ft9NJtNg/1ZoE8YO5lMGorCkhdffeANnpCzcmPPkG4nX1T7vfnsHR5PbF09vel0ilKpZIOyt7eHg4MDNBoNi2tMJhO0222USiVks9lbTchNySsxn9Si0C2VtPYg9NdSUohVvd1QA1n1qn3nEK1DU4NEU+/jYq0e7r3OGDzTT0vkBy1L0nlkggEXv+9+pMowk8mgVCpheXnZUBjgwnukR0NvhdfQbiq+No5EpR0SNg+FaJj7OCEQXa9aMsY98Wigs6k0lSbhOy1jOT09RTabRbFYRL1ex+vXr+/UD/YheoYhjzuZTJrHvb+/j1arhW63i0wmg729PRweHpoh0uv10Ov1jPd9IhljsPv7+yYTCZumUin7zstr9Rb5nGYE3XRgQkWMelH9Gzj39Fqtli1sKsNsNoutrS0cHR2h0Wig3+9jOByiVquhUChgMpmg2+2aZfZzUUgZ+AxPHUDtlqDvHZcI4zPYVNl5JeaVF+M8oXto5lRo8Xil+KzwvhzSBa68RgHKDEafPKPGJwVGqM0avU02v2B8njymjZCVx0LKkM/5UOk63i2VIeFlTQQhTEclqJv/qjIslUqo1+t2rjdMnxKpQqIjtbu7i263i+FwiGw2i06ng/39fQCwpMtsNhvZi5CVCMzaPTs7Q7PZBAAUi0UAiGzo6zNYdQ7I91xnicQNO9DQO+KL6d5UfEmtz9G4YDqdRr1eNyVHS3d9fR2VSsWKJIvFonlEoRTx+yKPP+t3N6E4zzNOmXorJnRfb4U91UX3EOm6POTnmN9xQVMZeiXGRa+1v96o83GV0DOpsfWQSZVTKKwDxHuMrGtjezXvbWi4SMtctNXiUyLPr+pIsbogn89jZWUFmUzGajfH4zFWV1fx1VdfoVgsWneZ2WxmpRSz2Qy9Xg+JxPnm8CcnJxY39DXv88JsOie3UoZqtaoy1MlXpjg9PTX3+OTkBJ1Oxx6yUChgdXUV7XYbh4eHWFpaMstMO/XfN6lndtu0dB9PDCnD65Rr+EXrF+9TW3SPga6C2T0pDymErzymnp8qP8+7hN9pfHooic/zJSSz3YXmxf/jylVIlGNM3iAaFCor02voxt0PeexuSiG55MscmKi0urqKTCaDfr+P2ey8rrNWq+Ef/uEfrHSFvEt0g9m8LGHpdru2g0uopEJJ14caj7cuuidcol1iNJ6l57ABq7YzAy5gh0QigcFggE6nY9AEs7g0Lfe+mInPrPHSeXG3eeTHhovK95AMXTsEj3qhyP8/pYX30Ml7cvNg7Hmwu0LvHrr3ik2/1+PijM/HoAyBcFOLkHGpRKVGiDS02a+/hxfIT63OkBTiu0QiYRvDF4tFLC8vY2lpyRJlBoMBMpkMCoVCpPm2KlQdX9bknp2dWQKT6iUef9W6+izt2BRmCXk2WiyZSCTM1T09PbVAKTU7z9cModsqns9BvK8qrKvgW/+8fgK8AtPgux+/UOwxTig9xwEfNl3HG/RxYuVPXiNOqOt1VPHFWdF6v8eiDEnqKfvvPVER+tpnbZfnYVf/ue+s+PugkJHBsWAsnApxMpkgk8lEGlAwK5fXUjia12XN+nA4RDKZtLpQwti8pzdaQg7DreoMFRMPKQV9Ye24T6y9VCpZIX6z2USz2USr1Yp04PDQz30SB5PPxRGVISQAACAASURBVMxYr/DmCYrQO3hlqDD0da4Rsmyf6fFRnGJTS5mkf6sA8dej4apKNXQfz2OPRRkqhZAWVXCsg5vNZpapqLJK44ZKHj17asRxiXMeFOLXDaxVd3jDTUNy4/EY/X4fvV7P9sAFEElsIvJB5TiPbrWFE1+QL6H1MyFrSK0ips6ywL7b7eLw8BDJZBLr6+uRgSO8yrTZ+2AofRe2W/LKMGRNz1OO/n8cE+Bylq4+g/cGQn8/K8THRVfNp+e1qyByDWdoUk2c0gzx3WOhOHRFQzksqB8MBpEaTf7u+8eqh6ieEP9+KuQdBT8mcclGVIb8hLLtSZwbIoiKTGouSzKZtOxffy1dNzdWhgxgKobu3U/+5IfWEV1gDoTGEdfW1rC+vo6DgwMcHx+b+8v+fvcJM4Q8w1BtISmkCNXy9kqU1/YZtHExQK8MNSVfLf5netxECxm42AncQ1JK5CuGLHxiTWjvUB9bC8WAHiIRrQIuv4eWj7Amk8owlUpZqIfKkNdQ+cQkwFBM/6kQ+crXYmvITGVbKL4XMv5ZyM/uP6pA/V6gRN5YcqH3Ae6QTaruprq22guOD+0FOQV+Mpm07Cr+nU6nUalUsL6+juFwiGazGWlxxO4D90l0vb1neFNoNO7ai4uLlrbtYz66cD15PDyUxPRMD5eu4i8ubC2tCF1DhbIaTJpsE9c/86YhgS+ZvDL3Ssp7eGqUc937XdVJWgwOwAS+XvspkdcD5E/KJ21O7+sx6RhomE3nyxt0fk5UhrKht/cMvTK+kTJk0JMPq9tl+EFQ70RjiMBFGzYWArPtEbvD0+NMJpOmDHO53G3m47MQFQ4x6JuUfIQgT/0JXCjDk5OTS6Upeqxa8SGLHnhWho+R4owubzT5nwAMaoqDnZSPfMswLcB/yAqQFFpT+j9+rx6MZpKy96jPDPUIj0J0pMeUfHRd4nhzPNikhDyYTqeRzWbN46ZzRGeL482mE9Qp/B/rCsm7mkmqoQAqQ6KaNAYvGTM3eTm+UJxFpQPgFWEEm5W012QyaXUkg8Egsneh1uncV70hn9tnk8bFDElxFrr+JClMqklDKoS8ZU6iRc8xflaGD5euEx/U373A9ceFQhYhniWPUfD4e8x7jodOXlZpRx9CnZQ93CLLw3A0YHk+jYrHNE53JeUljpe29uN4A7DvQwYEx5sVCOPx2OZHPUBuncWuSTRieI3Qurl1o259wdCioRL0nR24EaNCPPSKGCvMZrNW3EqFeJ/Cne/CmOG80oo4y3NevMXXMNJyobEQYgh++Fw60c/K8GGRV0zz5s4rwTgY7joKkcR4DreQ8uc+ljihJ8ogrjFFryhzuHEAS8FOTk4AIGKwU1bxe0J/vnb4Ka5Jb2zoeJGXaGQwY5fF+HGlFaenp2i322g2m6YMaYxwb0kiiryPxgz5XJ5u5BmGYlm+JREfnN9rg1oyDDcc5W4VWnqRy+VQr9etoTAHSbe5uQ9SzPtzJ6iEru0hLy+YvDX77Bk+bAqFGubRPOXG8+M+oXpCABGYVJGPx6QASR7J4ncqi9Tj03FZWloyWA9ABL3isT6p7amuRz8GGq/mWGtMNpk839uQOgKIhof43WAwQL/fN1lHJyKVSiGZTEY8Q87JVQmYN1aGWgSvXomvbwr9j9YWMWC6uTwmmUyiXC5jfX0dmUzGOgsQPr1PUov8LpBtSIDx3f3CuSq+QYbSDg13fb5n+nnpuh5DSPlpCMLD6OQDTTn3H+Ujxl0YV9H7Plby602Vod9RXXenYKxLG3MrnKqxqKesDLUCwNeM04ifzc63HqMyXFpasi3LQrxKx4qbLGsZ3nR6sa2T7xZ0Hdg6VhnOO5GLjYHlVCplXcO5DxUHwzdNZSCaVoDH3o+OjvDu3TscHx/bINHl9anKV5URfE5GDCkxFWS++473otWA4PG8LhcPM9e0sa/eTxcbcJGtRmtIM6w0/sH785px76fHPdPPQ2rE+N0jgCgPe57Sa3iEhvOphfW6ZgCYd6MZ25p154vy/fM8NNKxmQczp1Ip5HI5TCYTdDodk1WMB3LcEonoRrQMAxEi1TX+mI2KEIXCRPxOM0Ap+9iNDAAqlQqy2WyE5/i7IoUsezk7O0OlUkG5XDbeVRmZTJ5v7aRzEkLi5nqGcYKfF9EMq2q1itnsvJO43x/N4+v0CBXHJST67t07/L//9//w6dMn29ZJ6w29ux3XBUef+a4LVxdOiLHVkuRxISGmCkoFDceJMQnCLd5YUCsHQCQ4rOUuCtfwXA8H+Tl9Vob3Q2ogqTKMUz4hvuI5qgxVGPD/ej7jK0tLSxgMBhgOh0in08jlchFB7+tpH7IyBMKZ2X49p9NpaxHWbDYtTsjmGNolixCpwnG6swIQ9RTvgzyq8HN8SF52csyYKMmx5P61s9ksogz9tU5OTqyhNwD0ej1MJhOsrq5ieXnZ1gCdMJZn5HI5U4YhpwS4ZQcarenQhcv6QVpIPluI7djoyXBR0ePjzsadTgfD4RCJRALlcvmSIubgeopboHdlRIV9dRsXvd9VkJX+HlJO3mrVa4f+5j1UyCm087ne/Zl+XtK55d/XPc+T8iT/Bi5iXCq01bD0NV/6THEG4UMiv3Y4RkRmRqORGe3cmPz09BSZTAb5fD7i/dHL8ds18TvOwUM1Hu5C/p053hxj3XdQvWjNjqdMo74gPNput9HtdnF2dmYb+moTBI1Lsv8pk2s8akL+vpUyVOtIvT56hEC07RpfmNZTNpuN4OzEdukZqfZXaJSki9Rbrv7vz7Vo6eGenJxY4o/37uYpNX3WkDL0XiCP1eO996b35PheBR0/0+MibyT535WnNHY/Ho8NElX+mUwmllGqhhYQbaDx0Inv4rvGUP4Mh0N0Oh00Gg3bXadcLhsUxxiiwm0KlwIXjRAeMupyl2f2MCfHmuObzWYjteratEATAomAET3s9/toNBpot9sAYHrG56coAsJ+2Jp175/1Vh1o4pTheDw2xtAEGio1/p+7FJ+enpqVxcEqFouoVqsYj8eGB5+enlr2UKhLPMl7aqHfb0uMI3Q6HSuOD3mGnvxzei9PYVKOlxaF6nt5iMcvtJBn+EyPm+YJWm9MkT8Z3iiVSpGaOJ/pF3fdh0x+/fnEv8XFRZRKJVSrVXQ6nUg93HQ6xXA4jCg5etQ+wY9ykPLqKRqolEPkJ1VUhEkBWA5JCHFQ+TibnSfbdLvdSBcw5qwsLS2h1+uh3+9fKnXhbhZ8HiXO1a060GjHdk0h1n0LFVKldmfML5VKRWpNNCOyUqlgPB6j3W5bFim7k/f7fetUoy/iYaWfAsZJpVLIZrOYTqcYDAYRL9hDR/Pic6FFoWPFRafMoh4o/+a1VWiRyZ5LK54ueS+OFrXyJGPwAIzvKLB9xp9HJR4y+TVIr05h04WFBfMAR6ORFXCfnJyg1WqZMtR17Xez96jQU4ZJPT8BMA9aFRx7XHvZrU4VE2aY1ET+TqVSKJVKSCaTODo6sjgiAMv+ZcxQn80bkjdShoRIVACrC+xfXhWldnPgsUylZdeL2WxmWanHx8cYDAYWBB0Oh+j3+ygUCpEUcB8TCRWp35USiYQF1Zno4vc24/P7cfHxGh0rn/DAtGDGdDRL1CtDfVe9jodgn+nxk4ejQt9T+PjEMwoTzZD014i7/kMjHysELsaGmaOHh4cWysnlclhZWUGr1bISsFAPTBr1uVwOmUzm0n3vey1+DqjztveMCxvRsQKATqeD0WhkMdlisWj5GZRvo9HIYOtWq4XT01NLVqpUKqhUKuaMsfIAwKUGCKFMfUNObvKC6sHxIj7dX5Wh1s/5TEdlIuLvs9kMuVwOy8vLFvBMJM7TbofDoWWWKkTpF+5PoQyB8wyzQqGAhYUFswRDcb1Qpp8+H3/qRxeZKkMe62FW7xkq1h7nfT7T4yTPU/574HIZkvcAtVxgXmHyYzGyVE5QDo3HY1OGzWYT/X4fS0tLqNVqlq2tO++ElGE+n7dicTWM9edTIUUmfB01cOGxTadTdDodi2EXCgVzeDQTejQaodVqmTIcj8cRSJu1iXS6KD+5u4hmj4acuNnsFjvd60XJRLPZRfYog/CERENWpodGE4mEYcGMY6jHqLBfXD1ViBQOuauCXFpaQi6Xi2xhpTAvBYz3BD35/+ukaEyHPRBD1/HKVhcqn+2pLb6nSiEeiUMJNHZI+I9Ws25J5JEOryAfuoeopPKk3+9jZ2cHw+EQ7XbbDPJOp4PBYIB8Po/l5WWD3BgzpAdTKBSsc5bG7Z+qceoTrXxvV6JejAFms1lr3M3xpWxttVrY29szL3IymSCdTmN5eRn1et14myUZjPcWCoVIv91QGI1r5cYwKT+qDAFc8mxUmKsCVKhCE2xGoxG63S4ymYzBNul02iwv9cKuowj54p8j5jGbnbdg0nglLRAtE5n3DKGx9AqNzMPUY+8RhgQcxyHOeHimx01XzbOP/zGpg3A/d4cJ5QCQQmEA/f4hksoEheIajYaVVGxvb6Ner6PX62E0GqFer6NeryObzUYQr9FoFPEM1TB+ykiN1xfsCgMgogzZVo1JLirbqUuOj4+xv79vNeqUySsrK6hWqwb9E6amMqRBA8RDt/zuVjFDXojJLYw90KNjwJkeo344MIlEIlIsrscuLi4aZj8ajayUgUpRFUKcovEve1vS5BW+H63q4XB4qd4ohEWrQvaxP++y07Pzeyb6idPr89nYAF272DzT4yXlLYV7QiU65FHGWlKplAkathbzCIoaoMBlyP4hEuWPb2yxtLRkMN1oNLKsxEKhYII3l8uhUChYfRzl38nJScSr1uSNh15acRdS/tE4tZZP8DjKvG63i8PDQ2ss0ul00Gw2sbu7i2azicFggNlshnw+j2q1ikqlglQqhV6vh16vh+l0asqzWCxidXXVtv/zstnTjZUhPRgtmdCOJ7Q4h8Oh4ev8PtQiJ5FIYDQaAUAEj89ms8jn85ENflUh8oV8Eos+6+eIIfIeaj0nk+e97waDAQqFQgRGUkF0HatdPUq1luKgTq8cVRmm0+lLLd2e6XGTh0BDsCiFtO4TypjM6ekp8vn8JWX4WOKDceQ7kVDhFQoF2yKI9XD8XyaTsVo1RcZOTk7M4OD61VjZQ6a7oGqUbT5e6ENk1BmTyQTdbhf7+/t2zt7eHg4ODqyagMZcuVxGvV5HqVTC4uKiJVjSSel0OiiVSlheXkY+nwcwPxnsxjApoU3tIqO1bWQuYsOEPH02D3v95fN5e4nFxUVUq1XrEpDNZlEoFAwjHgwG6PV6loarXeP9og3FKe9CqliprNkYQLNjPawZ9zwk7byg5RXziufjPE9mVtGTflaGT4M8f4f4kLzLel3yLHmEaExonYSMzND3D43UYGAh93Q6RbFYtAQMdsTiJuQAIv1/uTNCqHxAFeF9GxV3uf9t0YAQPKzxWf5/aWnJajpZUvfx40czMvb393F8fGx6hAbLxsYG1tfXkU6n7X7cBrDT6WAymSCfz2N7exvlcvnS+yhCye9vBZPSC2GsTFvmMGbIuhGFFnkcg59Uhp1OB5VKBblczs7XhBUApnziWqHFPe9dSZlbuxyw9pEtl4BooNwLJQ83kXzMUCHXkHWuQWWvDGnta7f2Z3q85GPncbEpTZihoaRlObo7u7923H0fKoXWFDMVmdHITY5ZZE8ZBlzE4xX2A8L9P3WdPlS67bOHDDKOCcePcr5WqwEAWq2WQZx0fhjDLZfLyGQyKJfLWF5exubmJlZWVpBOpy0OORqNcHR0hE6ng0QigVKphI2NDSvXI3n5y79vnE1KOJSZi3wxZQpmWmocUWNh0+nUPJnDw0O0223b7Z6eH6EJZrkxUO3LKnwh5V3c+rj3VWuCypCt46h0vCL0O0fExf/0HhRKFFZxUJX+T9+ZZR/PyvBpkOevON4nf7FeV+FTojxaP+zP4/X1+4dIKqs0I/3k5MSKtTkuVIbj8djyFxKJRCTdn8YrlaeHRlVpPlTI9C6K3MPulHuUT0T4VlZWDKlgDTflYbVaRalUQi6XQ6lUwtbWlilCQqTsEjQajbC3t4der4dsNotqtYrV1VUUCoXI+4RCZ1fCpCrcgWhvwnQ6bdlohBSWlpYwm81stwkyFm+ugVIAlkKre13RPWatCYsvWffD4LQf5LgFelflqMqLyp3t5FQZ3hSODSlG7u7M9kQ+KzTO0+Sz6W4DmtDDMb4OebjnIZKHZrTDCv9P4URh9Tng9NuSGpUh4ROysnkef3J9+XPUayT8p4pAi+7jIFGVA2oYPkQKKXXCc8wapfKi0U9lyF0+aIyyixZRGfJZaM2qYXubsbvLuTfx8ENKQn+GjvGOQIgvqQs0Y/7o6MjGlTqF48QQG+VXoVBApVLBxsYGVlZWIqghn4GF+ZPJBIVCAcVi0fRICKnz7xirDP0g6GQwc5FY+2AwwGQyMXe00Wig1+uZVaWLajKZWG9PxgZLpZJhv1zQlUoF6XQaf/3rX3F8fGwwxq9//etLBa+00jzD3bbOMC4uorFMDr56gCFPlT8Vn6aBoKUoAFAoFHB6eorDw0MzGrQLvlqavA7HwXfHoOHhy1N87Y8KuJ/Cs/65SI0KhZ6JTNCbJ1+wdEeD8p+zAXVosYUUHRWS3xdv3odW82w2M+Wm23X5OLSGMsgDiUTCMpYzmUykXZVfQ5oPwGf4HLW7PzdxffoOPGzz1ev10G63DX3K5/Mol8soFov2e6lUQiqVwunpaaRZdDqdttARW91xjCibfN01nwm4fonMdd9Tf8b97mFd/52SGlqeF4gExrWJpLyisZ/L5dBoNPDp0ycsLCygUqnYGFE2MlmJ321tbWFlZSWCzBFhZDIjt79bWlqKNG1RQzPkqVL+3hgmBRDR4tzuhDUehEQHgwFarVakMJ0biHIRajIOF6d6mblczhiMsUVuHswBVsWgL/m5yFsT3OWaVqSvgYyDQ0PWorec1OukMiMzABcWmE95B6KCn54glaGHXEPMHrcIHhJptjIXBbORufWONyrIm3d596sElfemPC9oVw5mMlIYaPcMj4Lou8QZMioMNNFN14ta7CH+0vveBTb70ojvp9svzWYzS87LZDJmYLJRPzNvWX4xGAwAXOxq45VO3Jxfh9fi5oD/80aSXj/0k7/rx3cl8l4ecIEqeMTJfyi/FDbW/3tDnYlJ2Ww2wuusJmCpWDKZxOrqKiqVSmSTdyoxVYbUHWyAwPcIGSJ+TG6lDCl4CcnRMlAFNp1Osbu7ay3MFhcX0e12I56MZpmyHIPeFrNRK5UK1tfX0Ww2MZ1O0ev10Ol0IvehsAgpiLsqRxUynPBMJoNut2vF8dq0m8rfM63/O475lAFVSHKseZw+H4WbQjXKcKFYhbcEdQz94noIRJ6cTqfW4D2dTqPdbmNvb8+sUnrcurt7Lpe7U6JDCILxfKfwmX7P2Ekmk0E2m8V4PMbBwQFevnyJarVqcBB5THeY0HtSSIVqBX0ci+vRx7b0feaN80NFD3Se/DjROM/n86b0mOlO1CqVSkVKK1iqosYq1yHXpO5oEfLY/FiHlIxXKqog1chReaLKTr+nTGB4izKM64HvpDXdVDbcBFqdGfZsZhnD8vKy9QqlgiNx3LrdLgDg5cuXWF9fx4sXLywEpvkofp506zxdB0wMY74JG3PrdUKGpI45cAvPkBY3lZx6cxS81WrVvKZWq4VUKmW1OFQmtBwYrKaXyQXNCSoWi1hfX8fe3p7V0DE9PMTUXiHeddGqNZxInDfjLRaLODg4wGAwsPf0Xl7IStSfXpiFmJ/jSnc/pKgUttLNLeNg1pCg88/20BQhEE3lJnJBgd/r9dDtdtHr9SL1mBqTvYsBcNW5cR4VFygTxFg43Ov1AMA6nWjSBklDAAAiXm7cuKhgVlhdnyWOPz7nmrpv4lho3JjGhq6hbDYLABbKIF8BF95kIpEwBerXfNz69sYyj/Vjz++0vjqk+Pi7tsKkXNaaZT2W3/M4KkKV51xLDAn5DjJU/GqEq3zzcLS+ezqdtqJ57m/LEjt9x0KhgGw2G0ED9T7MW9HcFfYs5fzpHPiYrs7BtZWhCuJ0Oo1arYalpSWcnJzYgzDxZX19HZlMBru7uzg+Pkaj0cB4PEYul7PsIMKstMY42FygLF3I5/PY2NjAzs6O9bDT7We8+/tTLFSdxEKhgGq1itnsPFFIXfO4e6unoJ4hEM1u4mQRLuOY6P3jIA8yJoUhGZwxVV0M1wnyPzSaTs93wWZcF4DFAieTCdrtNj59+oS1tTWsrKyYRcyFDtyed+LGbZ6C4XdUzo1GA/v7+7aZLGEl3e7Gx//IL/zOw5368dt7+XgqyT+vV4QPmVRQc3smem+ax0BDfHNzE8vLy2i328ZbRB8osFOpFGq1mnVC8WNM0vihZp3qM/GaGt+dTqfo9/sWIuKzMeNeeYz5GDSoWIqmninlC396A8rLFEKe7BnNMFE+nzcoX6FkDXtpHFFjgvl8HonE+aa7zJE4Pj7Gp0+fsLi4GEFqtre3sb6+bspWEQ0qQk045JxUq1W7j59/vqdHx25VWsHNFBnLo4Dl5NGipZBhm5ylpSWsrq6iXC4b7r6wsIBqtYpGo4F+v28BVr5ctVpFvV639Fu67QoP+pfj36FBuM378nqz2fmuGuVyGYlEIrKLhvZ19M/gn0WDufzwXEIPZGyOr3ZsCL2TXoMLg3AGMH9PtcegDLmovQAqFot48eIFxuMx3r9/b2PCRa4xkNumvs/jtZC1z+OIhgwGA+zu7uLDhw+YTqfY3NxEuVy2lmkU0lq3pkJVBZhHDxYWFiItDdVDJEoT2q0ixF+PhVQRTCYTDAYDNJtN4xfCgclkEqVSyWBDyhrWPKtRrkkdoZg+50TzAeiF0bNR70ZhSs6fP05loGbss9RAe6Xyvam46M3xJ+WXKmgqQ3rLVHSE9LX+EohWG4TWEkNKNEAODw/NQ202mzg6OrIYIt+dfWJXV1dRr9eRy+XMKOQ1qfDJ86lUyurWQ8ad/5tr6EplqMqAL8iC+UQiYRk8hFuo9HK5HNbX11EqlSJMUyqVUKlUrLtDMpnEysqKZaSyLykt5JWVFeTzeayurtoAhHbE0AkPCfW7KkQyeSaTQalUsnfnBHPrFsIKV8FNqgw1+E4BRUVISNhbcSErh4zMRccAswrNkLD2XuJD9Aa40IGLBBoAqNVqyOVy+P777/GHP/wB3W4Xg8EAL168wObmps3XXbIjQ+eFPPjQ7+12G/v7+/j06RM+ffqE169f46uvvkKtVrvkaSiiwLIk/U7vxzW5sLBgMDFhPQphQlA+fviYFSFwkRVOpcN+mKVSyRpzc91RltF4ODs7w2AwMNidyIMqJwCmPDgXXI9UbJ1OB51OB+12G51Ox/iS8kSFu4ezeU3zaCTBh+gbk1LII+oVUonp7kB+w3ZSKHTiE868ca/yRuFSxmCJqu3u7qLValkbtclkYsqW5zDv5De/+Y3F/Qml0lDwypAQrCrDeTx8JUwaB+8A59BOPp+3XRIYYKXQVoZj8SqJsUIKbNbxEH7w+Deh1EKhgHw+bz0DuaWKbgz8U8KlCh3Qokomk7YwtHvOPE8hLv6ijERrjG3taCRcNaFUCBxLPgsXQchi5bvFPe9DIcZ9/CKlpbm+vm47ZO/v7+Ps7AydTses2Lt4xHFj5hWgV4QA0O/3LT1/dXUVa2trWF1dtY4xRGL4Pt6gUk+T36l3wuQbFpQrbzBj0gu/OOFxlVD50kkNB3rZg8HA+rVS0aVSKSwvL1vPSxroVG4am2LHGt1tgQZHv99Ht9tFu92OeHVEA+iBEvbUOB0bIdA7YzKK9+L44TlE1lQZkryy4nn80CgKweYhB2OekefRCgAW4tLQGhNwqMj5fpTxR0dHaLfb2NnZQTabjYxNInGxWYR6y6lUKpJNqu8+j+Z6hqoQdbGpC064k1tmsP6JliknkUykUAEAYzS6vtpBRS0OTm673bZWPSyo9NCQt2Y+9wJOJi8KlQeDATqdTgTG9ck9cc8W8l4VmtAEHTUodF68xUYLj8pBlaGHWb33ot8/NLiU75tMJi+19ctkMtje3kahUMAPP/yA7777Ds1m0/iKsLT3sG5CcQZGSEDo9xREKysrpgyr1Sq63S6Gw6EZlFwTKgR8JjXHQZUh4469Xs8UKwUHx+YqiFSfN+7/D4Eoe6gQiE5NJhNL4+90OrZH3uLiojV8LhaLJsfohVCAM36mY9Tr9XB8fIx3797h3bt3pgTUU1KPjbKSBf5UaFSE/J9+tMhfZaXCoVzzyn+aeKPfMTmG5NEm/z+fwKMyROWMdiCjIcDt71ZWVvDq1Stsbm5ifX3dPNlms4nj42P87//+L/7yl79gb28P0+kU+XzeiulpwDBuSMSQzhPRuusiXTeKGSomyx2Jc7mcYbsHBwcRFxW4SGxQIcCBI9TDFyD0OhqNLFg9GAzsZWjpENpgMSwhBF7/p1isVFT8vVqtolar2R5oL1++jDCdQgnzFAuPVyjM90JU40HP4e+kZDJplqGmGuu1/b0fC1Hwc9GRz9iCLJFIoFwuY2trK7KQSZ/bAAjNu78HrdhsNotKpWK7qtMA8h2IFCZX1ER53itdjgfLN7SLk8Lz89bNVTz8UIhrmLwxGAxweHho3iAhTOYx+MxbGiG6XZCP2ZIWFhasNIxK0EOJ6pER0WEsmwZxKK6nXlwcUkDnI3SMjoc3rP3v5BU9R3/GKUBdY/q+TAg6PT21srnt7W2srKygXC5HDBZurDydTnFwcICDgwODVTWeTmSS5VS+U5B/vji6cQINhTWVYT6fx2w2Q6/Xw97eHhKJhO01xYzG4XAIAJaWTIiBBeG0UkulklkPnHRaEZouT4irXC7fyZq/yTv7mEqtVsPq6iqazabFN5V8tlicl+oVoVeGPo06ThGS4ZjpxbiH97JDRJS/UwAAIABJREFUFp6+10P1DBOJhCULaEyZViP3qnvx4gXW19cBwPiWAvAuCTTzPKeQICLR4qcQZJyYSWKce16H80Nl6C3f0D1oPbP2SrccCnXd8QJE+e2heoXAhTKkZ9bv923DWIYlBoMBFhYWUC6XI7JHPfJut4tOpxMxWH2bSHZBYRIO51cTUTRO5+dRx5m/a9KNyhtf1qC132okhj5AtGTHe5C+qUjoOdVI0/95A4BOC73xarWKjY0NbGxsRNCcs7Mzk2P8/b/+67/w9u1bQwaZZEMdw5wTes0hZXgVb1wrgcZf0Fsz3PRyOp2i0+lYTSAnW6EYn+bLAU+n06jX62g2m+h2u/ZCTFJhESeTS9gGjhOlykqf9XNBpXo9NpCt1+uWBcs0fS44n5ARUlx6TRV42iuSgoxetCdel1aqBqAZh/D1dMrI8xTkQyLlUwov5a/ZbGaJXKpkGPO5i/LXRa/P438P3YPCkKVEPJ5tDMkDWi9KHvHQuf7O87S5vcL3GiviO8QZA4/FM1RUikZ4q9XC0dERGo0GlpaWTM5oxidDOQAiGd6lUskStLTtIcMTCwsLhl5pnE7LG7z3FRpnbwCrYgEux/X4fqzfjruuv4fei3/zPiEjXu/PnyrXNPuZHqHfk5DwM4BIYwmOfy6Xw9ramo0h5SHlmiYaJhIJrKysoFKpXHJe4gwNpWt5hroY/IQS3mQKcrfbxc7ODgaDAer1Omq1mu0OzaJ6fTgu2HQ6jeXlZRusQqGAVCplsUj2Ks1kMiY4uAeZvqAqP07CXTIF/eCRESuVCpaXl/H9999H6nk4CV6wkMFC1pW3oKgMARgMwNTukGBS4U6oRQUhx0ifwWeXzhPmD4U0Tkb+JOTC5AjyLjP2GLxnUsRt7+uNDP05j3jMYDBAu91GPp+3LM+lpSVLsNA5pBLzcWE/l+QBVaRcDzRmVWg8dqiUioc8wqYgh4eHODw8xMbGBmq1GrLZLM7OzqzsgQb/dDo1pGs6nZoMYAMSGi1M5NLkFy0aBy7qCrk+fdyNRLiR+RiaBco50ZpEnuN5RMcgNC4hZchQlecRNSpU3npI1iMZ/X4fvV7PGolQGfI5tQMNFVwul8PKyorpEMK/XK+cD27ksLKygmq1anC4ytWr6EZF9yQOkgZpFxcXsba2hlQqhffv3+Pw8BCtVgvNZtMC0HxxWqMaRGYtSyKRsHoddfE5GWQOWgSavRla0NcdiKvID6x6b5zo4XBo2bLKmCEYTWEFD0txbMnIGvfTbC9lSl1oWu+oTKrPEYJwqUAeIkwKRMea/MPvyav8PyF7rQ+7LZ/cBI4h6fhqXRh5iogI59XHjFWIqhBSI5AtDikMaVipQtXU+8+1Vr5UUiXI5DTdwkqVJeNVHLtkMmmNvEejkXnvjDV6g1TlHFEjzyM65vNKwlQ5aSY+EC21UNLvyPf6P68A9X7KB1S0ni9CfOKP4/1Z69put9Fut01+qhyjY8UxUwNESy+Y/MUxI48PBgOUy2XUajUUi8Xg83nl7enWvUk1sMvB29zcRLFYxN/+9jfLoOr1esjlclheXsb29rY1TKblqpYqB0hjXGq9asBaYyuaxfpTCXK1qglBaMyTsC2/U+WlzxXyDMnwnGAyBplevRYVeKpIvVXoDQIdQ70OjQsPcYTe/0smv4CBy8lFar1r9xHt8nPde5HuogQ9HFUoFOw6uj1QyIunAlejysdtuLO97tZBT1nT828Sd5/nPX7pxLXB9ToajUzuaIIM1zfHhuPJMpjT09NI4Xmv14t0DdJ6PZZShBRgCEEIKUP+VOXlQx+h64RCSP7D70PPp0o3zvNTCl2X50yn5z1J2Z9ayyN4LS3g5/ixnpN5AL7uVr3DSqWCarVqyjCEoIUQHLtnDN/EEm/AbKlisYjxeIyjoyOcnJygVqtheXkZp6enePHiBXK5nNXifffdd6hWq9jc3Ix0vtABq1arePHiBfr9Po6OjmyHY7YmY8E/WyQ1m81IRxy+oMZH4iYrFNfz1kNISHLiaBkCsCJa7Ryix9PioaU5z3Ih47Homl4AoRG1Vv37MUCfz+eti023241k7qq1F2IMVZJkPs1q9eOji0SVjfdgeU7IK9XjeIx6PnqOtihT2J7XUC85ZFWTfzUGq4rBW9o+3uOfPZTkEsc33hvwx/I7Jorxe8ZuKEAYM9Tx0nfnXHPdTCYTQ2fohVL43MQI4D0838y7Rkjw3jZZidfw94yDxEICkaVgnU4n0viD/SwJny4sLKBer1uyBg3ebDaLcrls40f+CrUK41x67yv0bHHv6hWhf/fQ2Ic8NL0ej/Fj5p8tLtwz73n5k+eyZjCRSFi5QzqdtmoEn7ymHmar1cKnT58wHA6RyWRQq9VQLpfRbrfR7/etGQJlcrFYjMTb/bvN49cbl1boYLI12enpKY6Pj83SqlarSCaT1o384OAAe3t72NvbM+aq1WqRRBMKoHK5jGQyib/+9a9oNpvWvu3Tp09WaM+anuFwiGazaXEWFeI+VqiKzscZef84y0YnmcTYHAtFuZuG3lfHS71hFV6h8aVS456R9Aw1LZzvqc8PXEDYtGxpiRFz11iFMogqAs4LM9K0RZRC23ou35nHKSypMRFf2KvKlYKWXhzjCJpwkEgkbEw03XzePMc9r374XPqsHB+9v6/X5DOrcaHjoTwWuq8qReUJ/l/nRPkkFD9W9IJe73A4tDFlBjdr49QS12vo2iDp+3pDyh8Tx9M6F7clL4NC7x76n/5+enpqXspgMMDi4qIlujCDsd1u224MTKhhkTzlHusOgWgHJPIE61xZ93tbdCXuvOuM41XnXnWNuLG8yvgBLhQpGwzMZjPjOZaA0UhXeakI4PHxMd6/f4+TkxPkcjnUajWUSiV8/PgRx8fH1jCBBiJzABQliXsXTzdShup1TafnHcU3Nzexv79v6bKqCE5OTrC4uIharYbBYIAff/zR6kHevHmDr7/+2oSuNnnVgkreV+9N7Ljf76PRaKBSqVyCerwVq5Ov9YJx1jvJeycqnFKpFNbW1kw401tl5hmv5T0NIGpBhb5nQWqr1UKn00EqlbJCYCpVTa/3sY+TkxNrkh4S5nq/kMDylmycoPfnq+dFhqYCVkVLUrhH70Fhrj0aKVjU2+M1rhvzC407+WQ2m0VgLvW21DNWBcr50HHRVHyv/DTTVa8fOnbe+bwPv1eYjseMx2M0Gg1kMhmsr6+j3+9jb28Pr1+/NuOI4855CqEiXqGHBGnc2M/zQj4n+WcjhZTBdDq12BMAC+OwxGU2m9nG5CsrK9aUgYgEC+N5LT8O3vjStfJYyb8bZVIikYh0DVOImQa9ynY1zE9PT7Gzs4PvvvsOi4uLtj0Ua8tPTk6syTcA89jZhu2mdKtG3VzAhUIBGxsb1jKHWpqLlfG8crlsO9WzTiSdTmNra8usJi5qlgawcJIxMwofFay8HrNK4xSLf/55AxVaTLSsqaA1zlmv19HtdvHp0ye0Wq1LffJC1jt/xgkTCn5uZrm/v2/F2HwOzU5TJcIMQo1vqNIMZRFqZpj+rYLdFwCrZ6fKwgtzzZKjAvNehveG1PDQJCLyhTeOyGdxApz30vfzH84b76GbIusWN0yw0HoxLcpWpeWVmY6n8pN66V7xcb70w/MVAaDXzWJtxrIajQa2t7dRq9UMGpzNZpcsch2juDUxzyvwxlPo/J9CCc67R+iZuJ61C0qhULBsdQpZ7qfKWmZNRKJnPZvNInPH6+t6/KmU/5dM/v0pkziG9LaBeCSn1+uh1Wrhw4cP+PjxI77++mvLSaEzQ2OPYSB2prltqdStEmj4svl8HsvLy5hMJtbJYTabmeanNcUUY004aTabeP/+PVZXV7G8vAwAEcZaW1vD4uKi9fcrFAooFovodruYzWaoVquWxUmvlF6RCh8g6t3pO3Dg/U//nWa0es+K1nWj0TCFkEhcdEFRaFMhntBi8YqAP7WVE5+dY8y/uTDZ+LnVamEymaBUKiGfz1v7Jn1HL7Sp2ChwvbenAt17hj5+5ZUQn3Pe//Q7n+Si6AGVkr9mnDAnheZa/zfvXP+uISNCr6VZvlpA769Jo4rvGEoqCxkgPIZlNCcnJ9asmQ0x9vb20Gw2UavVrJaXyQVM6lA4iXOuz6djc10Bo4rp51QEIcQjRMPhEIeHhxiNRlhdXbVmBORrlhPQ+O73+2i1WgbNM9alCUnq5XiD7DF5hFfNpxpXNFLpHGgjAI8w8Du22vzjH/+IP/zhD9jd3UU2m8WbN2/w7bffYmFhAcfHx6ZYWfrCjYWpfFXWX5dupQyBc8FI7Hw6nZrHpy1xKMQTiYuAKY8ZDAbWfHVtbc3gT+Bc4VSrVSwtLeEvf/kL2u22NV5tt9uYTs+3iaL1wBRohX1CjKjeWNxiUViPg0rlpskns9nMvImzszPr/agdXwDECkxSyBPlfQi/egWv1+H9aXkdHx/b1ijFYtHqbrgfmXan4ILXmiR6GBTQ/p09BKRjOU+5qOIPeQ6KOPBDZUCmp2JgH0IKcE0O8jHIOEHkvUdFM/wuBPSINe6r3UD0Xt5TpoKjEFDrl/NKvlXUw2fM8Vn12hTcDBmwOJyxLravYjtEn6WsCMA8zypkIF5F87zHuyrIq85XflSeo2HCfsLMUWBTEB7ny0663a4Zu4x1ZTKZyNZ0fl3qc94lXvgQKO69ieoRXubfVHhEKRSlajQaODg4wJ///Gf8/ve/N/Tx1atXePHiBY6PjyM7XYzHYywsLNgWT6HGJNelWyfQECZSQcTaPwqxdruN2WxmWaBra2um/QHg6OgI9Xo9Av+RIZkkQ0iQQoUDx+SZg4MD26yV0Kq34r2n6IW3LhiNSbJ+CIBlkg0GA9vok4KKdURnZ2eWsh26p7caveeqxbP9fh8HBwfo9/sol8uRLUnYgYdb83DjT25QmkgkbPsstidS2E/jH2rNajySAnSeB6R8wZ9UXD6JyXtvfuz5bBwnIgisT2q1WuYNa+yMnqMuqOt4b3HKkHympTFMx9d4pyoSjvG8e/t3DXmzKlB1B3JNouJxvAaPTafTVm7BGA0hpOl0inQ6bU0xNJFJ5y80p36s4o7ncaG/Q3N+G8vdj1FIuc6b5/F4jOPjY9uthAYOcDnjErgw4JrNJnZ3dw02ZUakv0coOY6GR2h8HgPFKULgogMNawGpI96/f49Op4Ner2eZumybyGTLyWSC5eVlfPPNN/jqq6/w4sWLSI0oZd9wOEQ+n0etVkO1Wo3UL96Ubu0Z0ipljIU9D9mzzzccXlpasua3qVTKLAP29mQ2FweYAood3HU7m2w2a/Ew3QKF9+E1VLlwEanlHoLadPdkNnhOJBJW10hlSCubliITElqtFtrtNmq1WqT2MeRJaWYnA/oUev1+37Kl2K7r4OAAk8nEGgVzexgWArOzA3shMsPW9xf0HhjHgMrF9z4keU/BCyVVtD7xSJNd1HNWA8iPFZ+z1Wqh0WigXC4DgAkjPrsXivp8/uN5mBSnGBjX03honGer56jFqx6HT6KJy5glX5C/yRc8TncC4LFUnJoc4vmbiAb3ldPO/v7dOBf8GRq3uPGMI3+t25DnlXnH6X3H4zFarRa63a7FXL33NpvNIrFgoj7dbhelUsk2Jlc+VUPOK3xe97YC+iFRiEdo2Pf7fXM22P5O94OkvCX/rq+vY2trC7/85S/xi1/8AoVCweTLeDw2eTwcDlEsFlGv100Zhrz069CtskmBc+YiLMMdHIbDIfb29rC5uWn7qHFRksHo3RCOajQaePv2LX7xi19gZWXFXF92l1lbW0M6ncbh4SGGw6HVKLKYv1gsRjqYaw0UBbLuIK3JENrhg++nypANnhlT4LYqfHcG3+mdqQVJZUi4jcqPlpIKL+4w4RU7cAE1EDrgc/sEDBoKpVIJhULBlKRmYxKS8x3w1XtT5eS9Os4734V/6/ixgNkrQzIo58ILCV6HykE7S5AnuCMKrXmmxoeSieK8cOXfkKLUnrs6NjRc/D2SyaQlpvikHL2uT4zxf/OZVNmxsQMbVfgPE3/UqyesR6N0Op3a+qBxRONpbW0NpVLJeEGTc7zx5uOdXibEeYX+mM+hDHUO4+ZV54hGFVEGhjTUK9Q5KxaLWF1dtZwFJvBRGdII8evCvz+vrwlsD5VCyEDIIFG+oRfXbDbRbrfNeWDtM7NA1UB+8+YNfvvb3+L169d4+fKl5TsAMOTLo3eESbkH5W3pVtmkKsjS6bQxCbMq2UuOECdxXcYSCdtks1mcnJzg48ePqNfrEW+BSrRcLmNhYcGK+mnN1mo1E6rpdBrdbteSLrwAp6LkRzfa1KQPtd5YOsHEn3w+b/Ur/LC4PZvN4uXLlwBgE5zL5VAqlSKJKHp/KsLRaGSKV616xmQ53rpLdDKZNMhQlRuVYSaTMStLY2l8TxWomhxEga/xkpCw8ZCuCoLQOPr6K01molVNRUNFOh6PzcCgQVKtVrG2tmZxH4X9VGDre3oFr+8RWtSqHH0ZSJyHqYv5JsqQSowNlXWOyHdEXULb+PBdaZTyWfk31wpj7YzD0lIHzmvAVPH6Hc9DnnAcheDekLL8nEohjkd1vhWqYxYpYWLf85c5D9y1gkYODW/WITJzPs7jU88wZIw9ZPKeV5yip9Ki7FpYWLDx1jg5P6zLZM/X9fV1W0OKoGmZBpPCKPcUqr4p3VqNUqBxO6dSqYRWq4XZbIZvv/0WKysryOfzBi0CsAXOLg6rq6tot9vY3d3F5uYm2u22LX5CRbRuCZWyyH59fR25XM4W7sHBgcE/HGwubKZM67MDMAucx/BDiEQ9I209B8AGnR1otre3MRgM8PbtW+zv72N/f982bKVCoqdMRUzlCFz2sNRDyWQyti1WPp9HuVyObPzJeKAKLr5jqAyC9+U9+TeVM58h5B2oZ6vxNR6jtYBMLgCi/Tv1WXVsFhYWrHSCAfJOp2PzvbW1hRcvXuDg4MD4ijuccKGpQvGGTpyXqJ4Vn4XjoDzAd/SJMby+V4R6/ZAipKfO+KSeR1jJQ9GeL3RX89nsPGbLDVDfvHmDV69e4d27d/j48aPF1PmOHz9+RCKRMMOUJQM08NhhiXGYOAHjjQOOu75/6Pe70HVgUh53dnZmyIuiKInEeVYtDQEeT3nA+BUAW3tLS0uRkIRCoXy/q/jtIVHI8wtBkHqc/uTvlM2j0QilUgn1et1qNelBdjodJJNJ7O/vW56EoleE+BkemkwmWF1dxfr6eiSrmo7XTcf9TtmkFGZ8ubdv31pyRyKRQKlUAgArh+DOFgcHB0ilUqhUKjg7O8Ph4SEajQbev3+Pzc1NrKysRBiM2aVMDpjNZmY9ECrUbEBVhmpd+0lSD08VIlvFqVenySYUOkyw0bjowsICTk5OsLu7a7EeVQ7qVXEcdX8zKmIKKFVmAMxC5fjrDhcAgrsv+IQOEr/TLjP8Wz1EFYSh+Jz3iHgdQnSaiaklJ15Rs06O49tqtQBcNO2ld865pHLh3mdqrChdtVDJxzTAqORCWYDkBcY6NIM5NM4eqtU4IhBFLdS79Ak26vVyXrLZrGVZa5YoM7w5dzTcODeKUGgchhZ3r9eL7KzO67PkIJlM2rzq2Hre0DHzc/FzKAiOG7Nth8Oh8QyNGN0dhuuOc9rtdi3Jj52zdE70vfm3RyFu66V8SXQbiHc2m0Vqnck3hKArlYohXywJazQaGAwG2N3dtfKger2OcrlsHiY/rGt/9eoVtre3DVECbm9w3ao3qcfjuWPx27dv0Ww20el0MJlMUKlUAJzX4AHA1taWQYS09k9OTrC3t4dGo4E//elPyGQylnUKwBYs6w65ke7a2pptAUIG54LW2JjvIE/yDMuPQof6jvREqCAbjYYV/LOGi1YP04dHo5Htk6bwFiFYNhhgOzkV9lTK9Jy8lTkYDCyeMRwObUFqzJHjodtLMabH66p3x+sTYlX4Vd9BW6px8VPJ0UjgNX2dHGFeHWMKLM4j+wuyY4oKeoVT2XGiXq+bF57L5UypqPcWyuz0c6+KXc/lh//z5OOgISiVa8d/CCHRK6exxHHziATHWLNNfX0thRAh+HK5jLW1NYtJ0xMl7M/3IlzP+I4myGkjDBqy3vjwSlF/13fWOOlPTUQ8mHmoDQkYVmAYguuQsqTT6aDRaGBjYwMrKytYWloyQ1MVHOc9xEsclxA/PEbi+5+dneH4+BgfP3603AvuWftP//RPNp4ALEnu8PAQf/jDH/Djjz+afMzn89jc3MTR0RFarZbxMHvHbm9v48WLFybPtEzmpnTronvgAu+tVqt4+fIlfv/732Nvbw8HBwc4ODgwAb+/v2+BfioAWtaZTAYbGxu2KfDOzo6VEXDncgDWd65er2MwGFhsbm1tLaI0PDSmBeIhgajekbfO1ZNrt9vodrvmlfBv9n6km84kD/Ys5XuQGShQKGw4HvRKNXGDyo0KnhAXs680eSRkrWp8cjwen0/44sWeaF54eWiPCoixVYXq9Nm1HlHvTc+JHgUFIOFQWuUcQ+BcyVMRcM54jnpL6llzF/tqtWpZZ5otq3PJ5/OeoldifB//CXl8VEx6fsij5HPrM3EeNYZNr04TPDieXumqAiXfE4JnjIzGF61qfW8+G6/B6yqcf3JyYjxDY2gwGJji4Hc+pukNTi8/fipShUT+ZWkU557GGSHj8XiMarVqqNTu7i5OT0+tublCevp+Xp7oO3t589SIvENnoV6vY3NzE5ubm5YZzrFhz9zj42O8e/cOk8kEOzs7ePnyJabTqcGszWYTzWbTEsJ8ScVtFSFwywQaEjMdWexYq9Xwww8/YGdnxywAZSIGSGu1Gk5OTnB0dISFhQW8efMG33//PXZ2dvD+/XssLi7im2++QalUiizQTCaDN2/eYG9vDz/88AMGgwGq1aopTS5GL9RJKoi4KGj9UyhRYPj4HlOyqcy0mJQKmEKnUqnYrhYsDaFhUCgUInE1MoQKX1r8hKza7bYl1HDceY5u/ppIJFAulw0ypOXOFlPqBSo8q4KDjKsZoRQYatnTe/VZl/QktSDWQ0eE+HiPXq9nWZntdtvi0DQEGMfRujCtlaSnqXAuvSVS3O86/nw3fVav4NQzVKF7lcDj/xWGDSlsheUZS+n3++h0OlbWo5nGWpKjz0EvZjY7b23FuNlkMjH0gf/3hoAKFY236TFHR0dm0GjMkQXpjL1rlmtIMf6UpMqQ40j+YYIRkZTxeIxcLoetrS38/e9/xw8//IBUKoWXL19aAxCuIYYyOAckrwg9rzxGCkGoPgwFwMby5cuXKBQKAKI72zP2/fr1a+uitbe3Z/2eKQ8PDg5weHiIxcXzDdaZ1MS8CTWeb0q38gy98GBW5dramjWXfv/+Pb7++utI55N2u20NqI+OjrC3t4dqtYp6vW7bqYxGI7x9+9YWLL0EWsulUgmj0QiFQgGnp6f49OmTtRzTDvHqBajQocVMuMN7WhQqvgxD4zj0cDX7jtYxvT8VFCqgKcAJZWqNIaE4PheVEBWlJlWoRc6C6rOzM+vwQ6XNzETtKENG1aYJPr1f4TMVkgqbhrIOmZSkdXHeYub46T0ymYxt88Ln0J/es6BlrolJIUXlz41TWgppzYtphc6/iaDznqFXRF5p0iCgItQyEno8molMA0SV7HA4jLSw0ziiPr++t8a1Q+/NZyFPMFnOrwPu+aewOnlH49AeZlQjQ3k25NGGjBiusUajgePjY8xms8iWaPSogXNBTaN6OBxaXSHzF5icxLHzPKpxYD+PIWVxU7rO+fOMsbg1dJ1rqHJXPiESx//pe3J8dbcK1odrT1xVmjyXBfSMH9JY4RpoNpvo9/uoVqvY2tqyLclC73ZT4+tWypAKRGM/i4uL2NjYwMuXL/H27Vu8e/fOMrUo6BiMXl1dxXA4RLfbRblcRqlUwtbWFhYXF/Hjjz/i3bt3liG4vb2NarVqRfdMe15fX8fR0RF++OEHFItFbGxs2AJTyI4uNhUaM1JZUE/Fx/gKkzUUZiSEwjgJFUA6nUalUrG0XkJ7jLVwbNhggFANBaHWVKrCpVfJGsp8Pn+p4Tbvzyw4erX0Jgnt0KBg6r0KXr6LQrRUkMTzPXklE2cVslwgTrGol6iwsc+MDQlA9QQJFSrUyuO80Ip7Bj7Hdeiugi0E48Q9nypKNUr4k12YqBDZlUj5jEadN3J8zWIIYtLnUmXGz2w2M4+R8oCeKxVkpVKxtUEkgtmuvA4VL5/DJ65RcWt3KTV4lZdUGQ4GA8tHYAIWN+Klt7y4uGgtv5aWlnB4eIhOp2ON4Wu1mhnzIZiea1HHyhtl89bBdSju3DiF61EQ/t8/hz8npMxVGQJRg1gRKnUWmDPBbbKIFNB4Vf7jGudzkm+Y5ET+JX/TU1xdXTUvk+fz+XjNm9KtY4Y+fXhpaQmvXr3CYDDAhw8fcHBwgPfv31tRfiqVQrfbtaaqpVIJr169wnQ6xd/+9jfkcjlsbGyYUGs0Gvjd736HTqdj3coZ8F9aWsL6+rrBMOPxGDs7O5FFygWqXhgnm7BiyGJlTaHGubTmkNl1XjCQMRizYaNshcM0a1MTMqh8FJbUZCAP7XIOOO5UvvqutMKoDBWu8p6eJhr5Orbb8EZIYfq4iveGQlCjxhm1bEK9YnpBWipy3ee8L7ruva86jgs+l8tF4sOEzvnTt3QjPzI5TZWQX9d8DlUAXCtajsKcAPIoeZjwJJsmcD9SrZHltXhtIhm8v8+s5TN5XtMYPz08yhPKDu5ww/ekMciErWaziYWFBbx+/Rq1Ws3i2h4lucrr8ArMQ+w3obvwapxS8OvP30PlqCpKhZ5VCaqBSmVII595E1q2ps+gnj/5BoChR5PJxBqasDf1ysoKNjc3LcPX8+xt6FbKULFgu9DiIl6/fo1EIoH/+I//wI8//ogffvgB1WoVr1+/Rjabxf6UuLbHAAAgAElEQVT+PpLJJEajEcrlMn75y1/iu+++w+9+9zv86le/wsuXLy2l//e//z3+/Oc/W/eCb775JtJRY21tDYVCAdlsFu/fv8ePP/4Ysd4ARJISAESsU3pLtDZ5DrM7GQNhQSdd9kqlYpg3vcxut2uChckFR0dHthh5HSo9Cm8qM3pwZ2dntgs3s0QVSiLpQtTzteSAwk09WV6HH++Bke66cLmQuFCAqGXJv3Vx8W8PxzAGrF4xFx6FKP9/22e+TwoZAdclejX5fP4SRKgJNOxIw36QvtuRGn3kF5985p+Tc0CviNfhzuX0RkejEXq9Ho6Pjy37l9cnzzLOTX6hwtRsZn0G5VcVovSEx+OxtSwkopTP5yMCnoKWynBpaQmdTgfff/89vv32W3z77bd2jIe1eV/+9L+HDMK78mfc+g/91ONoPAKXS6x8QllIqaiRr0ia5nKo7OH/qQxZVkGDQ1spqufPtcxzZ7NZpH6YmamsRWdRPuuSQ4jLTenGjbq9FtcYyOLiIsrlMn77298ikUjgw4cPSCQSqFarFkMbjUbWcYbbbmxubmI0GuH7779HNpvF9vY2ptOpJdp8+vQJk8n5NlHVatXavzENfDweGwyoNXdqcSq8pjV9uvhVyOr/lREajQaOjo4iO0qolc3YHOE+1tJQMNDq0TFlES+FUa1WszEOwVlUEpoZqgkz+vHwlxdqalV7JXkb0oWpC4uCyP9Nz8TXU/pn5+Lx40LLkXPxlEgFnQow9ZoZu2O2LQXUycmJKUatO9SSEr2uCppEIhHZUozE+KQiJonERWiDc0wjletsMplYmdB0OjX0hWuQCXJshMCyGt3RHDjn7VarZTvZcHd0eg+tVgs7Ozu2JRxrlQmPTqdTrK+vW/yQa5tQ/lVx1Li1RbrtmgrdK3T90PMoKuPPVfTHzy9/0lkIGbEar6XRwLlked3i4qLlUGgGLhCtVSfkvru7iz/+8Y9YXFy0crper2eNTIrFIl68eIHl5WXL2OdzhQyUm9CNlCEtLwoh/k1hzmzJf/u3f0MymcS///u/Y29vD//6r/+Kra0ta5v27t07JJNJvHjxAqurq6Yg//SnP+HXv/41vvnmG9RqNWxvb+N//ud/8PbtW1OEr1+/NmVDi3M0GqFYLFpHDk4Um7cCF4k0XJwKg6pS1ON04XKi2WSW3ht3yKbnQoXMtPNkMmnWORNltFCeihSAFY8zzkKlp3CnxkVuQyFIUnF/et53rQMLPWPIigaiwluPVZg0lMjDsaAgf4ie4V3Ie/T+eyoNthDTmkvGzdiardvtWsY0YU3GYL1yUw9AEYjZbGZJUJo4Q4VE/mJvShpyrGmloma4gp4Ed5pn845UKoV6vY61tTUTpOSTvb09fPz40Zpx/+Y3v8Ha2hqazSaOj4/x4cMHDIdDbG9vY319Hevr6+h2u/jw4QNyuRxevnxpfYW1+T9Lp7x35RWDhx9Jnr/vQiGlF/e3hle896fedShkoeuM8+sTwDTWy4RD5kiweoCwOOdKMz75TIT1P336hN/97nfWoJse+97eHvb39/GrX/0K33zzDZaXl01G8j1JKjduQjdu1K01cPxbseDZbIbl5WW8efMG33zzDfb29vCf//mf+Prrr/H1118jn8/jw4cPODw8xHfffWexQrrSnU4H//d//2cK4dtvv8Xa2hqOjo6sO8Hx8TH+/Oc/W2xgbW0NX331laXYkgFoYZI0m1IZhTBPIpGwCWV8hTEPenXZbNa6IjAATwVKz5BuPZUiBQIFCjt70LvRcwnf0uKhQgzVNc2jecd4a189Li6C25JfVLyPz9b0C9ZDUDyHHopagMrsnNOHCpPeFdq5ThxL1y3XKBURk7O0R67GGX3/XBp0zCbsdrumzHgPoiNEbjSBi/zM+j3eX3fa0KxDZnoDMMHKHWK4RZxHM6goc7kc1tbWkEgkLCWfZU7savL+/Xt0u10cHBxgfX0dS0tLlnhDz5WGfxwMCYS9vqvm5boUd15ojc9TjCEIV5W51gvzO43V6zF6Dq/HePXHjx9xcHBg+SGbm5tWD67vo9dgjgnh9OXlZWxtbeHw8BA7Ozs4PDzEwsICXr16hX/8x39EsVg0NPKua4h0I2XocVlNPAEu8OVarYZXr17hl7/8JbrdLv77v/8bnU4H//Iv/4JCoYAPHz6g0Wjg5OTE9qoio/9/7V1ZU1vZ1V3Mg0aEAA2MNt3guJ1uJ92Vzkse8pZfm9d8yXMqlUon1Z02bWw3tjGT0IQEAoQNut8DtQ5L2+eKyTbtmF2lElzde+4Z9tnz3md5eRkbGxv47LPPMDs7i/n5eRwfH2N5eRkvX750p3fv7e25TTU6OorJyUnHeHSy2U/gLNdRJWQuhoayMxqPEa+7u7tu0WdnZ5HJZBzjYAUR4MyswKOs1GnMqFqW0KKfj8zU5w/RawoXYYZKJAl28153k573bnWuK9HiPXy3ChN2o5IZaiQhCSrQftjtx2omver8q0bCdnzmrosIN0qYyIAODw+dr5FHrQVB4PxAAJxGSUGO/j62RwGSQXQUAFlrN5lMthW06OnpcXuDplEe9cO8skQi4fpG4qxWnnQ6jdHRUZfvW6lUUK1WUavV3N7T1CxGPSaTSWfJqdVqSCQSiEajTui1xQSsGyDMpAxc/4DfizLE85ihXtc157pr4ZE3b944RYB7lPuRY1Itkcxwa2sLOzs7LhNgYmIC4+Pj7r3cx3zH69evsb29jcePH7vj/Bgg8/z5cywtLaFSqbggzc8//9zFjwDXMz8rXCnp3qedECE4wP7+fjx48MD5dGq1Gv72t7+5xMv9/X2USiVsb2+7QAAWtc5ms2g2m1hbW3OnFqTTaWcvXl9fx88//+zCxyuVCp48eeKkE24YWzVDpVc6crnIjUYDOzs7bdVA3rx5g2QyiXw+7zYbNc9KpeJOFwfgzDfc5JQyaSu3wQkA2iQrMgzgLJHXCh9W0tS5V6DZyLdG9j5ltu+KKVr/oDXJ8B7tlxViiEcM3ec8cr44vstGkf6vgSUEPtywZrtOGgUFDZo5BwcHkUwmMTY25qIDWd6MhZUjkQhev36N/v5+5HI5RCIRx1Bpci0Wi26d6UPa29tzDKy/v98V3tc+kQlyXDwJnX48+kSJZ5r4z2cikQju3buHkZERVCoV1Ot1bGxsYHBwECMjI4jFYs6Hub6+7oRYVjtReqfme0tXlL7YQJTrBnhoH6zfTi0rPvOtLUdo7/G5TZQ26juoJZKOqZDAdBTmoDYaDWxsbCCbzboUFWpytOqVy2Vsbm5ieXkZP/30E0ZHR/HNN99gamoK3d3dKJVKWFlZQTQaRT6fd+ZRtZaF4fFl4eqHPxnQTpycnNZWXFhYQF9fHzY3N/H06VP84x//wMHBAebn59Hb24tSqeRSEGZnZx3Dy+fzePToEVZXV7G/v494PI7p6Wnkcjk0m00MDAygXC676NGDgwNXA69er2N8fNyp5dTM1AehwSdEDtYRZbkqQiqVwtTUlHuuVquhUqm4TzKZdA56OouTyaT3EFD1tahZT4Mg1KaugTudGNt5zNG3VrZN1bquA51Mdec9o/0gM2QFGqazcM3JDPn/pwhWCzkPwogf2+I3GY22rcT2+PgY6+vrKBQK7hSVnZ0d9PX1YXp6GrFYzOW7sr4nfUh0RTAP8PDwEGNjY873Pjg42FZEoaenx1WLoZZYrVYRjUZdfUv6IwE46wvfQ5Pw9PQ0hoaG8Pr1a6cpjoyMYGZmxuW1cW/zcGzmb/rO4OQc0ZSqQWzKEDmn1/EZWjeCZU4+Px7XmP50/V1Nnewf+6uBaWTwuicpaNMKRoGkv7/faXlMtqf1j/nl1Pi7u7ud9WxtbQ1PnjzBysoK1tfXkc/n8fDhQwwODuLo6AjFYhHr6+v4+uuvsbCwgNHR0bZcZMVtfl+Vhl2pUDcnkH+TsJN4Uxs7Pj5GOp3GH//4R6TTafz973/H8+fP8X//93+Ym5vDwsICGo0GyuUyfv75Z6ytreHOnTvI5XLI5/MYGhpyBa9Zpm14eNj5ECix5vN5TE9PO2bIiWKkqfo0afvu6+tzB5syL5B2bppvWAic/j0iolaL4XiJUFxkVoFh/p+Wy9I8vq6uLsccrclFFzeMWZEhWAk0zDxin9X2fch1WbCarDVZ243F9bBEmkTX5hyxDV+wzbs2934oeBfmMyUGdu11fS/yLutPsn/39PS4aD5qAJubmzg5OcHIyIgrnk68J0Mk7tMPTyZyfHz8VpktnnuqfkgGzvAIs1gshqOjI5RKJWfeY1oU+6pFKQqFApaXl3F0dORoTD6fRzQaRX9/v7NIWaFBo21ptfEJcGpKtL6164C14FjzrDIyG1HO57Ud25Y+a6PXGQSlWiXHbLVjlo4E4A4gPzk5wePHj1EoFJBIJJzfkBGitVoNjUYDkUgEv//97/HFF18gk8ngxYsXWF5exvb2NoaGhjA3N4cvvvgCqVTqLS2WDJ79+iABND6JEmiPMtVPEAQYGRlxp0aT4f373/9GT08PFhcXXRRgpVJBs9l00ZSUIriRtre3XSUYhlhHo1HkcjlMT09jcnLSRchRMtGTHXp7e9uiX5nC0NfXh9evX6Ner6NcLru8wr6+PsRisbaQ6iBoP6ldEYIIyjJPb968cSco0NzHdsgkiUTKGKixKuGySG0Rgc8SCRR5dWOE+QyUUF6XoaiJRf+3/e9kpiFO0ZcBnJ3LqGPtpB1/LBC2p67Tlq+9MC3yPEFJ11Hb4XlzQRC4Q6cPDg4Qj8edkEm3CdOhKDiyFCOLM1OLbDQajgHSqgKc1rDkszTf0pTJAs5azYnlABlgwUCfUqmEra0tJBIJTE5OYmZmBul02uUrA6cuCsYMKLPWsolAe4K/+ttszWL1aV+XKXLulXGRZqipVukABQm7V7QtZWo+zVCFZGsuVYYMnJbpo3WQLqStrS1sbm46ZhgEgWOGQRAgEokgn8/jV7/6FaamppBIJFAsFvHPf/4TOzs7LgaFAZgWl5UZXidi99LRpMBZUq+1lVuiSydnEATIZDL405/+hMePH2NpaQnPnj3D9vY2ZmdncffuXVdRZn9/H999951zco+OjjoTKmsG7uzsuHdoXdHe3l6X3tHV1eX8HFw8+jvoa6STnqo9C0WXy2U8e/YMkUjEHQ/EYBdG1mn6BBGDJpQgOA0y2NnZQalUatMkqZUSgW2OozVNkGH57PxcE6Zz0BysEarKJNWEo+1fhkieB77+8bpaD1QyVZMThSi70dSMZwkzgGsTmo8RrKTuE3rs/OvaWFOTbVvb9ZlV1QynvlsKpfQZMhKbON5qtRCPx92+otDKepRaSpAMlUUEyFQ06jqVSjkmxKhXmuxYeID04de//jVyuRxmZmZcXAHHyxQoMgnuJ1atYRCcnSP9tv47Xn8XzFDXw2r8VkD03cfr+ru9BpwxPM455yPM4kQ8UoaktZG18hHTcZLJJMbHx5FIJJBKpdwRbN3d3ahWq1hZWcH333+PXC6HBw8eYGpqyikp6ivUcbOfV3WbXDmAxmok9ndOCqWEVCqFr7/+2kmCz549w/fff4/j42OMjY0hk8m4yLJisehCrhmCTbNMEATOXwCcFYWlA1zrIMZiMSetUXJkxBPNltzIrDzDjdloNADAaZb0PwJw0quedK2IxIgrloSykY5q+glzwLMtK1laBsZn7DFQto6p+kkVmaz2+C78b1arpSmU86bEmuZ09cfYftvgG8U1ZervSsP6mMASp/OYW5jZrtPcWU1fr3FfaVWSw8NDFItFl/hOra6np8dpVgAwNjaGiYkJJ6BGo1FUq1WngZHZ0W9HHx5rCDPNgnVOrRBJoZQuCFa9ImFlcB+ZOvvBhH8r4FMg5vjDGI/vd+L/dcFnHbLXfYJL2P9WwLaBNpra5Bsb0C5UUUkYGRlps+a8fv0ae3t7aLVaGB4edi4ufoaGhtDf34/NzU28ePECL168wNbWFu7fv4+HDx8in8+7U3vsWEgrfGO9DFwpgIYv5gSQUJOQ2wAQJf6zs7MYHBzE5OQk/vvf/2JnZwd//vOfMTc3h7t372J8fByLi4uOibFw99jYmCvQPT4+jvn5eedcpX2a76HphBqYak6RSMQttNYJnZmZaSvYrdViuJnJ2FXrAtpNB+ovoNTMBVOGZLU0tk3GyqAeW/pI51M1QPpWFQEJ1hyiAo32l/deh7FY6ZkEmv3UPlAjbDabztnOe1RjtDhlhQs1k3xscJ3N65PuO92r+5H4qswpzIytmo4KLcRZrX3KupQ//vgjms0m0uk0xsfHXaR4q9XC6uqqO8A1l8s5oZJWn7W1NRwcHGBychKxWMwJs/Z0Dua07e3tudPoI5GI2+NdXV2YnJx0Gh7LIuqJ9cBZylVXV5fTPihQkgYwaEOZT9ge8TGNMCHkfYMKSLbv542Bwij/VxpEGqWpLTQrT01NIRqNusPPyRv6+k6PZpucnHSHHmjA09HREX766Sf85S9/watXr5DNZnH//n387ne/Qzqdbuu7HRMtStYidRm4cqFuK+GHSSxWimD+DzWYH374ARsbG1hbW3P5LDRzAnDlosiAGZUUj8dxfHyMjY2Nt0yIrOpCBsyJs/5M6/tjsrAmGtPEQulH/QFKFEhYdEH4bqudKZIBZ8Rcn9XKPjq31obPTUbfpCWOdh2UgfMZzR8K2yA+7dGnlVHDJuj8cA3snFBq7Orqajtdg+v35s0b1Go1J5mz5JOWEmPeGaXH8yTlizARHyHj+Mmgr7P5LFxFANF+ndcPOyeqkds2wywSFJ74LgptlUrF7VNGCQJwydGKp/V6HWtra5icnHRVZSj8qi+O71CCTCbF/3mSAQNsGLwDnOJaPB539VutFUKZg5Zd073Oijjqw+S3mkHDzIc6T8oML4MvlgkpXEQIsu2okKO/+7RbS2vC6DoAp/1rxGcQBO4kEwYn0i9IgaZarTqf8dLSEh49eoRUKoXf/va3uH//Pubm5tr2Yth+vq7Aca2T7nXRbYST/k7QRRgbG8M333yDbDaLe/fu4dmzZ1hZWUGj0cCTJ09w9+5dzMzMYGpqCr29vahWq9jY2EChUMDQ0BCSyaRzcpNgkgF2d3c7oqrSLDe3b2KtE5ZHviSTSWfnVqTWTctvG0VmzQ56TYmNfVbbVm1QHd3W36MEx74v7GOf4ZxYROeaWq2W9+s4rM+Pz/M6cJZHqbVdgyBwR2LR58TNWq1W8fTpU9Trdezs7DgfL01xnLsXL16gVqu95bfxbWLfh+OxOE0BidepaVBzuE4kq25kuxb6u28/aZSyRhXa8VgirqAERKsp0demGjmtLqoFKu6zOAb/TiQS6O7uRqVSQbFYdGPY3NxEs9lEsVjE8+fPnemTjGp+ft5Fi7JGqB0DzaTFYhEbGxuO4GYyGczNzbnIT7pNdK/q3PJbLSY2cEu1yLA19LUZxrw6CS4+Qu9jpL62fW1Q0OCeDOtLWLu0HFjlR3FGrT28l3sZOC2Rx+hhpXcserC0tIRXr16hUCigVqshHo/j22+/xR/+8Afkcrk2YQAIz621zPuycOU8Q52YsM51Ap5pFolEkMlkHHGpVCooFAquCjoAJBIJh7DMT+KG3d3ddYEwvIcblxOujCxMUwLQlgCv2psPkXzM0CKtJXBqPrXVcEgIrIaoAoY6yu07fISf12z/rKnBgu/dVrPVIBydAyXsSuh9c2L7Re2a68qAif39fZTLZbRaLRwcHDgmROd+q3Va77JUKjmzjG1XcVMZhzIPy4xUAyRR6O7ubiswrfh1HVCm1Gnj69pyHoLg7WOYzmOG6mOjiZD/U9tjzq2uPRmXFeRoQWFlKK0dyUNZtbh9Mpl0aRb0CdLfNDExgXg8/hbeK06xDnEkEsHw8DAKhQLK5bJjovRjWv972P4P0zx4XdfGB2GCv4IqCWHMzPdu20/f8773+fpnBSUrBNp2fX22+1lpmEbeHh0dtdEzWnhWVlbQ09OD/f19vHr1Ck+ePEG1WsX+/j6SySRmZ2fx8OFDfPXVV239DGPonf6/DLyzpPuLAJGbpg5GZY6Pj+Pbb7/FwsICHj16hOXlZZRKJVdpZmpqCvfv38edO3fcJDIv6eXLlwCA+fl5t0FU8zo6OnImWUsU2B9FeCXUlKjCpEkFDXwJQywfYVJmpvcp07MMR81XVqsjWCLgY7Zh/SRCkxD5pEKdF42AVT+LQphmqsyZRaL39/ddAvTR0ZHzKezt7TmTNaP9GIHcarVcYJTV3u16K9Ow60YGR1OcBjpxQ1JjYlvnEaJOoFqIroVl1j4Bgn2lYKNh8Z0kZAqNzJ9lG2p50FPquX80mIUBDycnJ9jb28OTJ09cRRk9t1CFo93dXZTLZVdfkjmJFGRpzmTgDM3+LGqvGg7Hx9xjRqmSCPM+xfcwYdjuUX5bRsHnfc/qOK1lCDg7Ps6ugwWfYtFJ4/HtK8tQrbXA96yOU9/LoEHfvaQrtCLwm1YDVizi+Flx5j//+Q+q1Sqq1SpardPo+mw2iy+//BIzMzMueyCM0V1X8AyDD8oMCao5UMrmMS8nJ6fVa16+fInNzU3s7+/j5cuX6O3txf7+vqsoT98UUwkUUUnUrP3YSjXsi69/2k8fgvmQTDeEvdf2w/e3vUeJtDJCJYiWWetm12ct47Hv135SY7VjtMRYNSjey6LPYfPuY4j2Ggk7owoZfq2nfdCUzQAc9df6xmuJmNUOfeZUgo1qJROij8lqn5eBMM1V+2jX0af1WsEljHhyXBQmaEHhvOuRYLyHvqDu7m6ncUWjUXcKDXBaAKPVarl9mUgkXHrE8fGxyz1sNpuIx+NIpVKusAX7z4hoa5HRXFxlcgxOY6k+arT7+/uuHcVlnYMwDcl3jxUEdU/42vLhtua/hQnA9m8fLiqECdd2rc9j+j5hjvcTn6wgrlH6rGPL/ExaDxj9y7EzIpin1Q8MDLg6pEyxy+Vyrvaz7U+nuXgX8MGZoQZ60MkKwPmBstksJiYmcP/+fRQKBXz33Xd4/Pgx/vrXv2JgYACLi4tYXFzEvXv33EGiWgtxYGDALRKZrdXY+Dc3SScJhIQlzPdkzWy+jWDfrX3w/W3BEnElFvxWphhG2G1/LSP3gUrFPsZl54wai2U6Oke2z/wmMWcbW1tb7gBPptew6MLx8XFbqDuDamg2PE8I0H5TeAqCwFkXeDICfU8aYKH5UtfVDC3jCiNmPulfiZUyUJ8G4BuzzhGfVS3fEk+uS6vVcsnPzA1MpVLIZrOYnZ11wW2cJ0Zxr62tIRaLuQA5FvBWHOB8a8Q696qahNVfqvmIzBdmtKLiluKiBbuvgfZgLzIEn6Br96fVKAG0+Vg5HsVNq03qb5zHMPy13/rxCVu+cftoBdAeoEWrD03iNr+UTJDBMDyYnWb1/v5+xONxZLNZV/2HFYV4zJeWAeykRLwP+ODM0EeI1RnLHJ9EIoF4PI6joyP09PRgZWUFu7u72N7eBgCXV8jkXm4M9TVY85YvIswyLPbJ+sQsw+FYwpihT0Pzgb3u25RhTMsSUQ1qOW/ThrVrCWCnMdk+c35UyLDMN4wZcu6VaHHj0eQyODiIiYkJl0bCOejtPT0Lr1AouHJQvr7ZudG/ldANDw8jl8u1aS70DdLczjFqmsJVQJlhmJDhE9j4m82F862fjl/Bzr3tD+9Rgk1iRUGBmgCFFR6dRH9Rq3WWrF6tVl2KA6M8h4aG2rSNVussRcvOB82MiufEFfoPuT7sowpZYfPow3O7131z4fs7TOOy94YJaWHM0KYTWTwIwxUfzbL3+GiK0mbuafrpWaSdmqCmf2nfT05Oy+Ox1ms8HndHOmUyGecbprme9IHC2ftmfhY+ODMkQbEahJ4dxv9HRkbwzTffYH5+Hqurq3j69Cl+/PFHPHr0CD/88AMikQhSqZTzM/T19eHu3btuM2k5Jd8E66LZPDUSBWqZYUwhDAE51rBNyIUPM2dpgINv82k7PsbjC7wIYwx8hzLuMMJsNT29X32SOka72X3v0DGy7BbfU6vVUC6XkU6nMTMz455nKb/BwUHs7Ozg0aNHWFtbe8sv6NMGLCEiTu7s7KC3txeLi4u4c+cOpqamXLEHu7Z8h16/LARB4IJzfIyLfVctxRdA5WvXx/QVFDctjulzJycnbrzUxmnyojCazWaRTCYRBIFjhL29vS4aVDUGnjdI7VvHyn4BcOvL8TOojlqgMrpEIuFKq2kBbTJVtqmaDr8Vd6lxatUUn7+eWpL92Oc4hzwkwDJa3a9hQohvbS2e6Jh8+60TnbC/KUMknaY/kKfY1+t1VCoVlMtldwQWhZ5kMunKcGYyGcf80um0y+PkGlLjBM4id8N8nD44T0C4DHwwZqgbUhfdamJ6b09PTxty83iWjY0N7OzsuGCLer3uzKTb29tIp9POx0R/R6doOysh64IwmOQ8wuIDNWna8fokM3stjBn6JHlrBgozl1nJ1EcAfZsjTIv0SaVh2qWOzfaf42Q+EkvrjY+P4+DgwB2ZVSqVHD5ws5Lg+foRZh6zzFAjkimkMJWE1UjYPudR8Ul9QpeFMIHBjqXTBg/DyU64as28ZHqKA9Y0zjbpm2NZRq0EY+f24OAA5XIZjUaj7ZQHFvHm/YoD3HcA3ioWzXuUoRSLRVQqFTQaDVQqFZRKJXeaBdtutVptwUJWYOLYOu0PnVfiC2kMcUi1JMsM7ZpYwY2ggq8VPC349nnYftP2w8bJZ3meITVAnkKyu7vrhKCuri6Mjo46YYhBUclkEqOjo0ilUs69QT+zMlnOQZimeh4QZ94FfFBmqCHcdvF5D7/109PT4xjc559/jlqthkKhgKWlJfzrX//C1tYWKpUKlpaW8ObNG3z55Zf46quvHNFMJBIu6VbDxC2h9y1CJ6nbIjxBGbyPKdn3hTHDMA0gjNhbRmg/7K8tKhZmviwAAAxkSURBVGxrp2o+oRYOZz9U4rVzyqOyrLZnx8VnfJVxyIiSySQikYhLzD04OMDa2hqy2aw78gc4M5knk0nnK/YJP775JKHkOZVcNxaH4LFCur7qM1Sh5SpwGQnYp72pIGHb1W/7N//nc2TubNNqKtR6qMlSU+jq6nIHVrOEIoVHalm1Wg2rq6toNpuIRqNuPhlgodpvq3VaVJsn0/T29jp80uOUbEQ1o8s5N4yAVaZJgZk4zoAsfrRcod1TZHp6Pqp9thNdU/82cc5nwfCttQ9HfPTDhy9cT4KaPLW4iNVsW63TYCSe6Uhf7M7OjjsMQWtHz8/PI5/PI5fLOcZvo5v5bs6pps/5cPei8K4Y4gdjhlYDANq1ENV2eL+PKdK0QuliaGgIpVIJ1WoVpVIJ5XIZ0Wi0LfnaSpFcHJX8FdH13WrqtETV9tcyJ+DqBaS13z6CZk0lVnq30qxl3p18nzTzWGbi01A5j8rUrOmwExO3c6t9JYEsFArY3NxEEASupF8+n3fvIcFl0r2+y86bzof+RkLFICxWRHr16pXzQ7G/JPTs37uSTG3frDbm09KUgCp0IpQEq5Hxfv1wvTXZXlM6WMye2rPFjZ6eHnf6ObV7pkyxLcUvmuR40gz3J/NNSQd0DK1WC41Gw6XYKPNRPFBNmGZbzfflvaQHeh6qLa5PwU8ZomWkOvcWv7VPSlPCNFOfT9J++56hOVetHlb71mAnfQ/Xgms0MjKC0dFRl25Da0A6ncbY2JjzsVMQsWMNY9pXFSQVLA5fBT4oM9ToLt0w5xGuk5OTtkNee3t7EYvFsLi4iAcPHrgzBNfX17G6uopisYhisegKZW9sbKBYLLZJkpT0GApOE6yenED/lZpaVQJU7cP3e6vVavM3Ap19d/o/azyqJOXbMFbLU5+GanvW7KJ5eozkIhLXajUXMq/MVdtQYqwfzTNUxtdJA7KMiW3wZAL6bSmVfvbZZ5ienm4TXJrNJiqVijulxDJ+O8eKZ/xmZHI8Hsfh4SFevnzZhjNad5URj1xn63O+KHTCB998+/pv2/GNzde+plRYIY7vJR4xUpC5Y9FoFOl0Gr/5zW8wNzfnhAn1Q1JQajabKBQKePbsGdbX153Lw+IF15kWJMYBdHefBlPRzKqnF6hgp0K1+g1pBWJUMgDHPKvVKmq1Gur1umPOAwMDGBwcdMdRcX/ofvcJ0rYai/W9+dZaQfeq+ic5L4oP9l5dK2VwBwcHzo2kQqjdl3pNNTcGMnK9c7mc+5AWWy2de0MtLepK8NE7xYOrMsjrMtUPGkCjk6DSp/5miSYRwJoYmNBrGVIymXTITaJK4m4L/tJmrUyMG4oMpRMCEWy9Rt6j4d9hEKbiKwEkUinBVWbEDantKHPWxGm7efm7zSXTlAKbV6h9t2vLjWg3mY7LblzVgDVsns9zHDwIlOHYfK67uxvxeBzJZPKtogKdmIRaJYgPaiJWzYk+SvaXeYYq4F0VrAZvrykxCUust2P1acJhH30H71XzNk1crVbL7Z1W6/T0AR69Q6an/VY/UzQaxcLCAhYWFt5iGBa3yFR0L3IdKLypwKlWDKUXZIKcLwq/wFkqF/tIky3HRrxS64XmLlNb1gITds47WSM63WMFIUsn9Vmaay0dtUIw21D3hDJvvcYxM5CNroJoNNrGHDkvKpRw7lXb981LGN27SfjgATTK9OxmVr+FmuWCIHBqNxkCk6+5EQYGBpDJZDA5OekIuN3gPKKlVqs5RzAlXeYA6XFPWpRbx6ASkEaO2Qgy/k7wEWL70fvI4KxpMwjaAwDUdEMkZvV+hrEnk0kn6VILDPNRkBnY6Dj2TYUDlWJVE7WCgzJLn7+CqQuMuNP7eEYliRb7yrxCFm3QQBcLypytL6jVaqFer6PRaLh+qYbCOWW/lHnrWN8FWGJn/VMUanwmfcv4tU2fhmwJLE2IisvUhilEcc0qlQqCIEA2m0Umk0Gj0XDl20ikG40GVldXUa/XkUwmsbCw4Iouq/BAvOH4YrFYW+m3w8NDp6XQF2X9ULzGfpMgK0PXseq86WkbLCnHIBGex8ii/YyU9fncfVGkFv/4t14L2//8ph9eGRqZOwVcasA2en1wcBCJRMJF1nJvW8HYCsjq7tB9A7S7cMj8bHUdi3tWuNPx6X2dLEjvGz6omZSgkoRet5KpblJeZ1sqWehCaT4YQRkqfY6sfKAMz2eiUAnZqvY+Kc5HeOz4fSYsHwJYYmXbC9NaSbyVgOp5h1poW8G2TQajc+DT6O08hd1nhQQrTNi54e96pI4SHs6xak2qiYbNuU8aV3+Y5k355kc1h/e9eZUA+oK/tG8+DVj7HcYwOffWN0yhSyOimUjNgLTh4eG2Ys5aBIE1Sbu7uzE7O4vx8XGMjo62MSLgzPLBMdI02tPT4zQSmjk5ZjW78X8yQ90XKrjofFnmw3fTbZJKpdosJBTOtESjNVP6hFa7lmFrbPul1yyz0b2vWp3iBJ+nIKVpC75IWmtx8PnwObdcK6UXSq87MXg7L77fbwo+eG1SDppIFKZBEME0JyWMsRCZqWGoM1+RlUSVUtZFwDI1QidCqIz+IhqDzzR2WSJr+6hSlo/4Ww1BP5wvNXd0eqdufkuk7Bg7jYnmRyvMqNWgq6vLESVuch+z7tRvoH1d2W9qRtoO+0VzmJoqw5jPZcE3Nz5tz0dkroI7loiR8VthQu8jY2B6AAtxkxlSQ2BULq0w9XrdldtKpVJte8+nDSg+2WhDZUI6VjtnurZqJVIBWp/n2mvCvrZt+2vffZG1DxOs7Lfibxio6VOfCXuvxS+dB58lQdu0c6oMVWm5zrllyj76o3//UhjijdQmBc6kMf5tGZyNylJCxXuA9igtBoVY9d63ycOQwELYvbqRfb/5/j4POiHNRfoZ1pavnU4b3jKTTv3QteE6dvKfnTcmNf3pM9oXBmbofWEM/yIQhhf6N3FKTUWXGVcn4Ph87w679q7wTomemhTJSPi/+t+LxSImJibail1oYYtms4m1tTVUq1XE43F36K5WhNH32/52wl2lG/b/rq6ut1KmaPrrJLxa3A/rg2Us5zEU3zv0/7D3+Zi2Xduw/dEJwvrrm2O9Zhmzj16r9S5MCNf7f4lwo8ywE2Ja7cJ3v72mdm77+2UQ9yJw0fbehcZwFbjIezsh62X6bef5Ov22JnEFXrO+YPbBd+95EEZ47fMWH98VHrGtywhn/O6kDZwHYcRZfaG03ARB4Aqw7+7uolqtYnx8HJFIpK3KC7Ww/f19d2ZhOp12B3LboKSL9s3+ZglxJxpgi16cJ9hdFK6y/r45v+i7fALmRYSfq9Afn5UhzBev93zscGPM8EPCdRfqqs/f1HtvEj7GPt803NSc2UhDAq9pnt7x8bFLt2FUYTQadelLDGjb3NzE9va2iyDN5/MYGxvz5pN+jHATtOA8s+n7gv8VJndR+CSYIXBzDO1dahAfC3xKG+hdwE1YD6xZVE3cWlCAmuHR0RHq9TqCIHDVZgYHB10UKau9FAoFbG9vIwgCxGIxTExMIJFIhGrwHxPcZN+vwww/RRp0FfgkmOGnuAFvcgN8zPP9scF15trnsw+CoK0qDJnh3t4eCoUCBgYGMDIygq6uLpf2wsIILKgeBAEWFxeRyWRcNLLmKp5ndvslw+1+/N+FD69738KF4WNE4o+xz58ihJks6b8k8WaBBE2TSKVSrtA2mSVPMTg6OsLw8DCmp6eRzWbbKpGwvY8VrmvqvIlnb+Hi8ElohjcJN4XItxvoFs4DX24YI7LJLG0h90gkgrGxMZdisbW1he3tbZTLZZycnCCXy2FiYgIDAwNtBSeA9mPJPsV9cbsnf9lwywxv4RY+QegUfagl5vQAXxaoCIIAh4eHaDabKBaL2N7exuHhIWKxGDKZDDKZzFtRnISbCAS5hVu4CNwywwvAVe39t5LgLVwE3ncKTafnfKkljB5lcex6vY56vY69vT1sbW0BgAucabVOT465c+cOxsbGMDIy4g5mVlDz68ceUXoTcEuD3j/cMsNbuIVPFCwjVGbFawBcKbR4PI6uri5X1Pr4+NiVLsvn80in067Aha/d26jGDw8XTci/hVtmeCG4RaZbeJ9wU/hlq6loreCenh5XxzYWi7mjk6jVse4tTzSgj9BXrcT6JW/30+Xhds7eP9wyw1u4hVtwYPMPqekFwelZoixczZQKljqj5sdAGwbKAO2lx26Z4S38UuH/AcdPVLHZuR5YAAAAAElFTkSuQmCC;rotation=-180;" parent="lljOV04hM253Ap9FNTPz-65" vertex="1">
          <mxGeometry x="25.591304347826085" y="10.146545454545455" width="163.26304347826087" height="77.47530434782608" as="geometry" />
        </mxCell>
        <mxCell id="lljOV04hM253Ap9FNTPz-62" value="" style="shape=image;verticalLabelPosition=bottom;labelBackgroundColor=default;verticalAlign=top;aspect=fixed;imageAspect=0;image=data:image/png,iVBORw0KGgoAAAANSUhEUgAAAcMAAADWCAYAAACt6ulCAAAgAElEQVR4nOx9V3NbyZn2A4ABOTNTEpUmj+312rVbe7PXe7s/de/9latcs8Fb3p3xjMeSRqJGFBMIEDkQ+bvQ9zQfvOoDgtQk+puuQoEEDvr06X77Dc8bOjSdTqf4uf3cfm7/37V32fqhUOg7HMnP7ef247fwjz2An9vP7ef2c/u5/dx+7Lb0Yw/gu25W2w2FQphOp5hOpwiFQtfSaH2a823SiDn+H2rMnOOgcQSN5arvf24/XptMJphMJuh2u+h0Om4vRSIRLC0tIRaLIRqNur3F9eP7D02DP1b7vp/Tt7d8vO7ndvN264ThPKLjRrXXjMdjTKdThMNhhMPhhYhmOp1iMpksTGDfByG+C7HrPFynjyCBdtVv9F1/b9fDN6abKis/t3drVmD51m88HqPf7+Po6AivXr3CaDTCZDLBysoKEokEdnd3sb6+jkgk4l76e+6hqxi5va+v/ZCCdR6E7HuWeQrdIoIs6Le2f10z3+fz5ua7UDr/lhXXWycM2eZtDMt0gxZtUWHzXSz6Iv4ZK0SuO4br/CZIKF3nfou2RfqyjPld+/u5zW/KSHUv6TpQEHa7XVSrVRwfHyMejyMajaLX62E4HCIUCqHT6SCbzSKZTCIajWJ5eRmRSMTdi9YlldF3DVP4PsIcvgua+qnQpV3XcHi+N2xRwf+3Hl7yNyUMuZmtlaHEME+zsn3xd+9C5JYw543ftkXv67tHkJXlu9a3ea7zzPO00kUFoY7hphbAj8mMbhujIPIxmUwcaqJW3Wg0wmAwQLfbRbvdRqfTQbfbxdraGra3t9FqtdBqtfDq1Su8evUKe3t72NnZQSaTmUFgQqEQJpMJhsMhlpaWsLy87O5/XSSAfU0mE/f/Vdf7njvoOrv/beN9fd/Pe5abuGZ8/fvuZ/e88jW1yufxg6tQJB+i830gTD92u3XC0PoAfZMetOhBMN28e31XzWpYi4z5JvfwCTlf/3pt0Dz6+rF9LHrtVc2OZ949fm7v3nw+Pp9iSd8gFcNYLIZ8Po9EIoF0Oo1oNIpWq4VKpYJ+v4+dnR0UCgUkEgmsrKw4oWgVrEUh0XljXqQfvcbygEWgRdvPdfYC7+n7/ipe5FOeF0XBLA9YBPEJ2n++sSyCON1GX/GtE4ZsVwkXbdQm1drj72xf2t7Ff+Yb57zPbtqX/VyVhUWuDbpfkCV7VZ+LbL55834VpPNTbbdp07P5YEvSfDgcxtLSkguOicViWF5eRiwWQyqVQrFYRDgcRqvVQqlUwhdffIHDw8O3rKfV1VVncS5qCc5Dbd4FsXnXNQoa/zz+wZcPbZknEH0CzT73VXuc79ZvG6SI23cVbIsoDhZ6v2174m9CGC5ioSgxXscqu44jnZ/pb+ZBK/P6vMqnN68/qwlfdb2PGfr6vAm06xO4iwpk3//z+n7XdtP+bhtEahvXdjweu/+BN3tmeXkZ4XAYiUQCyWQSw+EQ1WoVxWLRQaLT6RR3795FuVxGu91GqVRCIpFAPB7HZDJBJBJx1wUF1PjG5Ptb/w+C1K8SMvOufVfl97ptEbRqnhCeB29axXJRyzKov+vMzW0ThMAtFYaLQCyqoQT5wBbZkNzA9jfziMhu1kVhGR/EcdXY5j3Lopo4cCm0OV8+C+0qwbXIPa2w91mV15kD37hu0hZhSvPabRSIdu5Ho5H7nDSwvLzsIkczmQwuLi5wfHyMlZUVpFIpLC8vI5/P45NPPsHp6Sm++uorlEolbG9vv2UZUeDSP3nVuK5SUunv1D2u62jf9bdBStp1LBrffd6Fz8z7fhFUaNHfzOvjJr7BoOtvm0C8NcJwEatkUQ0vaLMEwQFXLfCiltJ1LNJFvtemYw+CK+ZZnXrNTTaRjsN33U0tvutY0z9m+ymM4V1aKBSaEVCqEIVCISQSCaytraFWq+H8/BzFYhH9ft/RSzweRz6fR7FYRLPZxP7+PrrdLvb29pyFyH59MJyO4yb05/vddRGMIN9bEF8JEgQ3oYXrWqiLIEdBfZMnBPG6Rf19t1EBnNduhTC8jh9q3kJrU61SX/wtX0FW0iJtEUvwpu2qzaDPw3sFWVx8zu+qaX4m7ztPS+d13/U4fm7zm9KI+g/tHgKAeDzuhGG1WkW73cbFxQUAIBKJuICara0t9Pt9PHv2DI1GA2tra1hdXcV0OsXS0pITuEF777r+QLtfg65ZZC70Xf/WiFt7jfb/rkjFdSxS3zivEoY+tGwRBOiqsejvbrNSeCuEoWqSPnjjKg1lPB6/BXXaDeQTtosu7k01pHkW2rv0y358m9MHRdr54OYP6neRdtUGnfebeff8W9NGf+ym0KLPIphMJhiPx1haWkIqlcLq6ipCoRDG4zEGg4ETcIPBANPpFMViEaPRCN1uF+FwGAcHBxgOh1hfXwcADIdD50PUMfA9SMlTgTkPYrUCTJ9Rv7d72/c536kk6B6ZZz0F0ehVtDtPmF4FRy4K7yocvMhY31XA36Z2K4Qhm08Qqq/Lp+nQFzIajRwhczPaahk3afP8E0Ea66KCQgW4bVdZv1dZz1Y5UI18Or0MppjXZ9D/eh/LZILGvCjEY/v/rtp3baXfhmZ96T6BMJlMMBqNnDCMRqOIRCIYjUbo9/uObgaDASKRCAqFApaWltDpdFCpVHBwcAAAWFtbA/BGGAKYEWhBSi7fSa+0aHwWmk+Aaz4i9zr5gOZCsv8gy3TR/aXjtXOpSJSvzdsfQcrrdcZj+/MpB/q/Dymb95zzxnBb2q0ShoAfxgDeJhCmU7DyxcrKyozADBKs1ioaj8cusGDRcWlTItONrUKc73YjzLMcFVa0BEtBTwag1/B7H/Fz3oK070XgId/Gs882z1L1MaF5m+z7EIzXbbdVGCoNki6tW4ApFmzZbBYbGxsYj8col8vY2NhAPB53a3RxcYHJZIJCoYDhcIjDw0PU63WUy2VkMhnEYrEZoRTEbDkufh6JRNz/du/Y32q6iKV9PksQg2eAj/bP/UoBGyQAOIfj8diVgFy0WQHtmxsroHx7335n7xE0zz6haec6SFmwe/C2CsVbJwzZ7ALqIpEgR6MRxuOxKw9lBRH7AS6Fnv2+3+9jMBjM3Pu6i633tZvKpy3O00qtQOMG0o1B4b+8vOxgLFrDPqWBY5zHnFQ7X+Ra/TtIafEpB7qOV81zkN/3um0RoTuv3UZhaJUwrkMkEsHKykqg5bC6uopMJoNms+nKsJG2JpMJ+v0+ptMpcrkcut0uxuMxms0mSqUSQqEQotGoQ2r4u6Bobx/dWIGkvk4rxHQ/aD/2HronNfWD33G8g8EAo9EoEO3gtcPh8C2BGKSAsx9+r3NiCxYoomOv1We1yrBavZbWrcVqr7NR5kFW6d+ClXgrhOE8RucjdPoz+v0+Li4uXCkp/azf7ztBNxwO3TuJg0RhhWOQJhYkwJSIuUH48lmI+nufFewTnEFjYtJ0LBZDPB5HPB5HLBbD6uoqVlZWXGWRIE1SBbhlGL57h0IhDIdD9Pv9t663TIHryWuojAyHw7nCNgg+Gw6Hrl7mTdoiwndeu60CMRwOY3V1FUtLS45miKKMRqO3EvObzSZarRZGoxFisRg2NjawtbXlGH8oFHKKWKFQwJ07d1CtVvHkyRO8evUKmUwG4/EYw+EQy8vLTmFbXl52dKhzqYxd3Rpcr0gk4vrgM+g1/JwKsfII0qotOUe+oHyi3+87oci+dWycT/ZLRdwqjzr3bFapZb82qMnyjSAhyGfm/p5Op24OVEnm97T+ufa8ZnV11dWb5Th91qPy5qsU5Z9y+0kJQzvR+rkKKf1cmSIJ8eLiAhcXF+7YmXK5jGq16j5Twu/1eri4uJjR+qbT6YxfMQi6CHqxWQ3TCkLdLHZz2M+DrCCfkqCMLBaLIZlMIpvNIp1OI5PJIJFIuIoitBwtdKqbT8frsw5VoPZ6PXQ6nbcE/yJzooJU59OuM8er89fv91Gv13FxcXEjwWSVAct4fTTpU1puU5tMJlhaWnKl01SwTCYTDAYDxyjtekUiEeRyObRaLaeAcL3ISDOZDHZ2dlwN0+FwiNXVVaf4kDnzpcn5AGaEg2XepDcKVDJwpWUKhpWVFayurroCArTgSKv1eh21Wg2NRgONRgPdbtfxhl6v54Qj+YP2rUIYgBOCPqiUtAz4rV4rEPmi8KOyqILW/l7HxecF3sDDq6uriEajiEajM3Ouc8RrVlZWkEwmsbGxgVQqNXOd8gxfjAbfgyx+vfa6wvL7tD6/N2EYBP1xU1n4gozW59hWZzg1SADodDqo1WquaPDx8TEODw/R7Xbf0uq4sYFL058MLxqNukg5XsMxkGisYPQ13+dBG4Df+bQnvV4tMxV8ZCi0aLlB+N3FxQWGw6Eb92AwQLPZxGAwQK1Wc5vMbtpQ6BKK8m0wtSb1xc9oZfN3nGcfdKqWBKHdaDTqCjvzvp1OB61Wy1n36+vryOfzDo5aWlrCeDx2wjBozqxw07VRmlteXkY6nUYsFpuJfOQzUXDTKrCRiz5aCNoPvu/epfn6CkIt+L9aS1a5JOPXzyeTCS4uLhCJRNDv91Gr1ZDJZBCNRmd87OFwGMViEfl8Hqurq064rK6uIhaLYTweu71qlTFadbyGSlLQ85AGSaMK3QKYoVtVmtUS1PsuLy8jGo06y0h5AJEVCljyEWvRXsUzLMphLSzLN7hXaaHq3rXr43PF2BcVR8tn2O/y8rLz84bDYccns9ksCoUCMpmM+56+YIWqlddbRZsvn0DV6+xvB4MBJpOJE+R2rixNX6d9L8LQtyH5YJwgaoD6oNx81iJSaI4MsNfroVKp4Pj4GGdnZ6hUKnj16hVevnzp1ZwikYgjamqu8Xjc1U6kBcUJ5oSqBqVQTZBFZ+cgSHuz/Vkrw0ek2rgpKOyHw6HT0JWBKPQLXMLK/C2FpsI/3EgURtFo1IXUW+3cPhuZA7V1C7PpMynz0SonJHoyt3K5jNPTU2dV3Lt3D9vb2+j3+xiPx1hZWcFwOESpVEKr1ZqZO9uChBXHSOtlZ2cH+Xwe8XjcWUacDyohZLzW12TvdZWA+q6EYZDVYe9nrW4qMLR+FCHx0eZkMkGj0XCISqVSQSKRcMKLr5WVFaTTaeRyOaTTaSf4otEo1tbWHILjY9Rqkfb7fbTb7RmBxfHwXhw/LcVoNIqlpSVH3/r8tLDoNuGc0KWQSqXcey6XQzabddV2KATJS9QqVBohn6GlbQWiVZKtW0FfXAPuGfI3vqsQ07UcDAaOD5JmLb/gelMhULSMa0ilgtZisVjExsYG1tbWUCwWkc1mkclknGWpMQoaiGcNIv6t8+ATmkqrXG/NWSVNBtH7ou0Hh0lV01Tcm4yUD6zMm59TCz08PMTTp09xfHyM8/NzVKtV1Go1xONxbG9vo1AoIJ/PI51OI5lMzmgsvD8DBcgELRzI39hxslmLQ60ln3at99WTAKwwtH2z+RzjPo2KzUI1PsbGjcPrfJaeWoZK5L5xat+8fp6gt89mITBlqsPhEMViEcViEYVCAalUyjGDUCiEs7Mz7O/vo1QqzTAtCiy9b1BE4Hg8RrVaxdLSEtbX15FIJLC9vY1oNIrBYODW0EcLZFrXbTfVYn3zaJ8n6De8RpESnx/b0gLbZDJBu91Gs9nE6ekpDg8PnbVOOA+4VLwymQwePXqEdDqNarWKe/fu4dGjRzM+Yjt23nc0GqHdbrvr+CJNUgBUKhVUKhWnXK2vryOVSqHVajmBy3Xn81n0wO5TKsK0ADk2KpE+OJSKtoUh9fgqi6roZ/Oajo980X6nvIwRu+S3FHwaKKgQLAUmX/1+H71eD61WC/V6He12G+12G/V6Hc+fP3dCP5vNIp/PY3NzE5ubm8jlcsjn88jn80gmkzMKjqUnjpvrqJaiKs5UsunPtqk5viCh67YfVBha6W2ZiLW4VBPtdDo4Pz/H4eEh9vf38eTJE1QqFRcg0263USgU8MEHH2BnZwdbW1vI5XLIZDKuX4USdUyMgut0Os7y1HHy7yBt3i6CteqA2UCAIF+kNgsjWAHq8w2owLeCmc1C0zY6Tzeb/sZHYJaR6Jz5BMZVjRo+rdFut4tWq4VarYZkMom9vT08evTIaeSqTTMXTq0KDQbgeH0MkOPVTbi8vOy04Fgs5hgq+15eXp5RdmzzIQO+ebhKqZnX5iETann4xsNntjTLvy3Dtms5GAxQr9dRKpVQqVTQ7XYdMqHw5GQyQSKRwN27d926bW1tYW9vbwZ2VlrXZyDkD8CtLyG81dVVJ1BfvXqFg4MDB7ffvXsXhULBweuqnOqz87l8AW6WF5F2NOCO75wz8hj6v3kPWoi6Tlbw++Zc593nT+Rv9UXjgUq8olnWdcD19MGkFxcXaDQaqFariMfjODs7w8XFBer1OqrVqrMwaf3v7u7izp07Tmnd2Nhweaf0WfqgZYt+WcVLA4aUx/n2w7u0H0wYKuPQqC9NiAfgmDwn6eLiAufn5/jLX/6Cp0+fYn9/HxcXF8hkMtjd3XVmeTgcxqNHj/Dxxx+707an06nzIWmUF60ifke/jwYCULNivUUVZJZ52cXjhlUCtdddBWkps1YLyzJz1cSBS7+PBiNYzdc3DmsxKozp0+Z4bZDw0/5VG/e1IKHZ7XZRKpXQbDZnaIdrpc8Wi8Vw//59JJPJt5iFjiPIkiINcLNq4IAKLL5zjqi1kt7sy86JbzxWQbtOCxKk9nnt/6SxIMvd+pxsU+YWiUTQbDbRaDQcxEiaZAoFg22m0ylarRaOjo6Qz+eRzWadQKFSxz26vLzsFCQKFCq1fHY+w3g8Rr/fd6dlxGIxRKNRTKdThwABb1em0b2pyrnuNUKKKlDVb6dWiboFuDd9Atbn25s339zTlgfpnvbRvCoAvF7frVC09MI9kc/nsbS05ODjeDyOTqeDXq/nfIbdbhcHBwfY398HACSTSaTTaWxubmJtbQ2FQgFra2tYX19HMpl060H+z5QeqwBwrkgHqrDr/7p+86oUBbUf1DK0i6wTbhlut9tFo9HA6ekpDg4O8OTJE7x+/RrNZhPpdBq7u7tIp9OYTqdIpVIoFApYX19HLpdzGDg1N+tw5sZpt9sYjUYzeVXU/Ckss9ksksnkWwEkvmeyjFC1Mvu8PuZshZVvYRXm4D10I+vmUmGobZ4AsxvIZyXYphtR+/A9r28ceh8+92QyQb1ex+npKTqdjoOpLJSn81QsFrG6uvqWBaj+iSAIhZ8nEglEo1Gk02mEQiG0Wi30ej33W4Xm+DvSRdDz+hiQZTw3aXbP2Gbvb59V//cpSfPWjc+cTqfR6XTQ6XRwdnaGSCTiXBNEXAC44LThcOgs/ng8PrMnuVcYJGHXS90YOm4AzhJjtLSmilh3hA8KtgxYmataf5au9TfaBy1WfVl4kkLVQpa6dpafqMCzY/DtU0urQXte6UIFDBGSTCaDXC7nrL61tTW0Wi10Oh0AcBb+eDx2kfrn5+dYXV1FvV5HpVJBOp1GoVDA9vY2crmci2KmjzcWi7nxKI8i3fgUah/aeNP2gwlDtQitRkyNkIswGAzw6tUrPHnyBP/zP/+Dg4MDxGIxrK+v4x//8R9x584dVzT42bNnWFlZwdbWFrrdLj7//HPnDKaWTwGizHowGLiwcOuHY/Rlr9dDPp93m5NaIjeUEqO1oKjh+ohb5yQIHrGWhVommttkNVFaTj6B7fOV6XX8nhDUPEFvn8VqvHZj+ywTnwZLrT8SieD09BQnJyczwqnb7c74CoHL6FkGSdn7c550fu04yTAYRRoKhVCr1XBycoJwOOz8QMvLyy43jdaR7csKEGVgurZBwuo6zYdSWFq0FgV/Q0tFr7F7gd/5aGUymWBjYwNLS0uoVCp4/fq1Q1MSiYTby7TqGE2aTqddIFKn03GMnoJLrQAeKMw15niJGnG89HExEhgAer2eWw/u/5WVFffsdj9wTdQloRY06fIq5XA6nTqYXi1Hfqf3svvB16+1Pvl7VQztc+g7+/e5LuaNg/MAYCZinb5E+o0ZdEM+y2tpkIxGI5yenuLZs2cYj8eIx+MoFou4c+cO7ty54yBt+gNtnIXlebqPNL7jpu4Gth9UGPqaSv7BYIByuYxSqYSnT5/i+fPnOD09xXQ6RaFQwP379/H48WOsra1haWlpJpQ+Ho+j3W7j/PzcRbkxCtJueODSL6TakE48odbV1VV3vRKZTxhSKOn1Sqgq4KyVYJmkWsw+y8Jqcfa38wSV3ST2exWwtg9f/75xaF8+i8hakmq9U5M+OjrC0dERcrkclpeXUa/XEQqFXAI072cDA3zNRiorMyQUR3qkkCB6AGAmEplRd9RoGXDg831YuuIYdB1vKgxVUPF/PoMyCGUmer0KQ71O35UB69gVuur3+yiXy2g2m6hWq86CWFlZmaG3169f4/j4GMAbCE0FGCFRMl8tAUclmmtEq02tSk2zYZI4IdpQKOQsC+5/u05cD93X6mrQddJ5sb9l41zTXz3PgrfKi08pVl6gNDxPqCvf89HZVcKQvyWt8Pl4316vNxN9SiOEEav8vl6vO7iVMR6j0WjGJ0kYleka3GtcJ4vI+fjYuyiVwE/AZwi8eRAW9v33f/93/Pd//zeq1Somkwk++eQTPH78GJubm0ilUhiPxzg5OUGr1cLZ2Rnq9Tqy2ayLRIrH424zTyYTh2nTt2GDUAA4CITaqZrtqVRqJiFYtUVtVuOiIOCmthaizypS7cv6Enitbgh+ZokCwFtWqd7HJ6DVv8FxWCZrW9AG1nmwUaUckzJmWmZcAyZCHxwc4PDwEJ1OB/1+H81mE+fn5y4RmvdQH1NQ1Ks+l8LMbBQMhPo4xxoUwhfnkcyOzMBao9bisnRvlZrrNipt1ifte9d1sve7SolS5YYvBkEQFjs8PEStVsN4PEYikcDW1hbS6bQLcul2uzg+PsbBwYFLbF9fX8fa2przOa2srCAejzsITX3hfFbSCMfF9AzyFs4z14Gok6ZgkObUGuU1FKqkEesH5LwAbxfCUJqyiogVlj7rLajZvWXvyaa8ySfggu5tv7dWqQpr/m4ymbgEftI3ixWcn5+jVqu5vOGVlRWsra250n2tVgvlchlHR0f461//is8//xypVArFYhG/+tWv8Nvf/tYpSHRz2fsrgjRP0bhO+0F9hjrpZL71et1Fib5+/RovX750NQ+z2Sz29vawubnpahrSHGdeWiKRcNZbMpnE7u6u01bI4NTRTwIl/BIOh13+kgpJljBTpuqzwIDZzaHOdeDSyT/Pj6Q+BN2Ivug29sn7Wg1XtVlt8yxVe38VhovAKnZ9ddOSqJXhWCFJ6IX+Cc3fozKjeVIU6MxbY/pFoVCYWTNFAVjxhM9qrTY+E4Wy5jFRmOozW1hfg47sdSoQfVDOIgzR12zABO/pW1/f3xyLrr1VvviyOW3xeBwrKyuubBnHMxwO0el0UCqV0O/3USwWndBh0NvS0hJqtZpjjlzndruNRqOBfr/vQvJ1jdRi5fhYeIOQqa6huhbU0rRKpe4rokVWkVDaDbLofcLKWptBzSoh+u6zzq31Z19WKfP1a78PEih6H+BtqFjpm77h1dVV5x8Ohd6gOczlphKUTqddNHK/30epVMJf/vIXdLtd3L9/H3t7e07gUmHWPckxW5q/qZX4gwlDhcVCoZDTFp8+fYo//elPePbsGfb39/Hw4UN8+umneP/997G9ve1w6aOjI4zHYzeZe3t7aDQaiEQiSKfTCIfDrvwT82Gs1qCMiGWoGBABXMIvZIY2fF+tJ8s8+J1WvNHfzWOUPs2G/dkSTFbY8B4q5PlSjJ3v9jOf9s9mrVdN9rXPpULWWj6qEChD4fNQyYlEIk7BicfjqFQqM5VA+OK6HB0dodPpIBR6c9L6zs4Ocrnc3I1Ay4G5iBoURQE7Go1m6rfSP6WRuj7BaudB19n6DO3c36QxyMtGo+r8WovYFqTQdbHMXptFK3icU7vddhZ5Lpdzc9VqtQDABV7wZIvpdIqDgwN8++23yGaz2N3ddalRtBhLpZKrdkL4dHl52Sm+VH4nkwkqlYoTvCsrK46vUAASMeJaaiAGBSfXSKvXKH2r0mYtMauQWIVDrVulCd2T85h3kFJrhaH2xc+CBKwVJL77q4KgqJ6mdJEX0HojP2OQzcXFhStzV61W0el0XPrbvXv38Omnn6LZbOLs7AwvX77Es2fP8OTJE/zud7/DP/3TP+Gf//mf8ejRI9y7d28mDkShfjsn5IU/+WhSatG9Xs9BJs+ePcOLFy8AAA8ePMCDBw+wt7eHRCLhiI8bbWlpCclkErlcbiah2mqOrBqiCddsyoQ1QpFMwybUKuSqAspCbXYz+MKvbbi6DXCwYdN6b95DrVCf9skx6DXsyyd8tU/eVyFMZfKqBATdn7/hNcT+eU/Om2r4Wvex1+s5Xy1D6ZPJJDY3N2f8CePxGO12G61WC+FwGIlEwoVtcw6s5sznt5HBOhbCnXoNfWN8RoXiVBEJEm5XwVQ3bSoMfczBrpkt4cXmU9Y4br1G15nro36h0WiERCKBTqeDly9fzljoVD4ikYirWJJOp2cqu7A1Gg10Oh2XEkHrs9PpuGfi+Gq1Gs7Pzx0kx7gBKjzdbtd7ggv3lboGdE8qtKprqAqzzrUPZrzKglxECNq++Jmusa6RIm/KB7RPH91p//pMqtCyqZJPWlKeQgW+0WigXq8jEokglUphOp06ZZf7mMpSMplEKpUCABwfH2N/f9+tSbFYdHOve3mRvXad9oNXoOn1ejg7O8MXX3yBzz77DK1WC4PBAL/97W/x29/+1j3k8fExXrx4gVwuh/X1ddy9exe5XM5FjrEqAmE0hau4MayQUSFF/wEduaxTyAVst9vodrtIJBIuhQOYrQ9IItOcK2LkhPYI61GwWssSuBQ+ZL4U1Br5pkIoSDCxUeOlgAFmoSKf9qgWjDIOC7ffbpgAACAASURBVCdZzVL7081PRUDLUQGYCWQgnMPk5MFggGq16uAUPmcymcS9e/ccEyU8VyqVcH5+jnA4jGQyiXw+7w6RtQLaIhMKJ3Edw+GwC++288S10N/6BMc8AeezCC2juU7TAK952n2QAmXvu4hw1n3A/i4uLnBycoLhcOjcFJPJxOWHMmJUFVfmcXKvsOQZhSmjdbkerHxSrVZRrVYxnU5dZG+v10Mul0Mul0OtVnM5i9xLVJBZV5N7lUqEBlCpskirh7RDoar70IcGsPn8jbb5LDif0PJZcCrkVBDafhRWtu/zFDVF1FT508pBhETpxmIxhmq1itPTU7RaLWQyGWxtbblI33g8DgBublkt7OHDh85X/PXXX+Pf/u3fUCgU8N577zk/st1/arEqP7pJ+8GEYa/XQ71ex/7+Pr7++mscHR1hOBy6ajHb29sIh8POHGbCJusahkIhNBoNB6dUq1X0ej0AcESqxXRDoZDrixOnRzaphcdQ+Var5cKBaQEo7EimPp1OZ0oWaVkzCgDNXbRRrBZiJEPUo1W0ssw8SMB+rtYLmT3vwT6DfFdqPelG9t2b19qxWWGoQhXAjGXI8fV6PYRCIbTbbRcOr3Ae1yEajSIej7tNwDkDLq1om77D5/I9K39n4aIg68j3e8tggjak1bT1+ptuXo4/6H5Bz+DTpu3/lkHb7xSeV9iMjPG9995Ds9l08JmiOKurq+4UFSpDrDVcqVQwnU5dsIwW0w6FQo6RLi8vu2A5Wqrc/1SsWOCdPs1kMomdnR1XV1OD6lQIqvKkSippVhEdnT+fb5B0qHEEttn1CBKcFtkJEsBBluhVzdef7gsNLFMFUueclvnZ2ZkLfCuXy65cZqPRQLlcdsZJJpPBxsaGK5358OFDF629v7+Pg4MD/PGPf8Svf/1rZLPZGeXVCnOrlF+3/WDCsNVq4cWLF/jP//xP/P73v0cymcSjR4/wm9/8Bv/wD/+A169f49WrV45wP/74Y9y/f99Fox0fH7tQ+0qlgkajgXQ6jXv37jlnPt9JeK1WC41Gw2l+zIkhLKK+uE6ng2az6YI4WG+Pfir6sbiB6PCvVqsO1mEeFZk0I1KtkONCWbiKG04j3CjAdMMCwdFqGllJS5Rao/bN5tMSrbXI7xcRhvwdrVa7eVXA8TM62TWgg1F9FJgaicxTSsbjyxMrLIO2mrTPKlJIjOO3Wr5PidGgG/XX2Xv6rMV3FX626XrNsyp847PQtk/AWyhK+9K11aPT8vk8PvjgA3S7XdRqNXfihFUuGY16fn6OUqmEb7/9FrVaDRsbG654BvctAGdB0sLI5XKu0gzjBPTVarVweHiIUqmERqOBWCyGR48e4fHjxwCAtbU1xOPxGf+xPhP3ECFh0qQKQ86bulp8LouLiwunvF+1nvZvroHyEBZ50GuVH6gCqm4Wew8fvShd2cAx5VHa13g8dgYPlRquMYulpFIpLC0tzeQf7u7u4tNPP8WdO3ewtLSE7e1trK+vo1Qq4dmzZzg5OcHvf/97rK+v49GjRzOIBPmj5VH2GRdt1xaG80xsO5HU+prNJp4+fYrPPvsMpVIJe3t72N3dxXvvvYdEIoEXL15gMBi48Np4PI50Oo1+v4/z83NX4QIA8vm80xjVSmu1Wq6iDK02bk711xFC1dylbreLZrPptNZMJoP19XVsbGy4jUD4s9fruZO7W60WEomEKzOk8xKJXBb6tT5NzpsyaCVmFR4UrGpdKvOy/iorbNRn6nP2+xi1Dcqx11v4RelChQsAryarQSe8h/qC7Hj4GxVknAvd6JYe5/0dZNGqQmB/o0LWPquvD7sf7DiuakGaetA1dp3sWvj61+ekwqHWpu1L/yfawqO1uH5cHx7VxH3GupbsmwKC5472+/2ZAAkKpFwu52BKjnU4HKJarTpBRpSGcCeV0EwmgwcPHqDZbDrkgf6ovb09PHz4cKbOaafTmdlT9E3TpeKLuOW7z++qysKiB08H0YjyB4VefUJRacGui31ZNMhHN9x3dBcoL7DoDy1hRnsPh0N3UglrDjebTdTrdZTLZXz++ec4OTnB9va2S8K/e/cuPv30UxwcHODFixfY39/Ho0eP3JFRdt51vXx7cJF2LWGoE6BQV1CbTN4U2D46OsKf//xn/O53v8Pa2hr+5V/+Be+//z7u3LmDp0+f4j/+4z9w7949PHjwANvb2ygWi26ivv32W9TrdRc8sb6+jmw2+1aIfa1Wc/lp3BTUYCgcWFaoWCy6HCgK3PPzc1ceKJfLYXNzEzs7O+45aH2x0sazZ8/Qbrfxi1/8Aru7uygUCi4EeJ7VRKLyCSSrnTO9Qa1J25/PGtE+g7B0K9j0OxukYMdmx83/SZS+Mdrr1dKjQmMZapAgpqJBhYL3sMJKm2/8+q59BDWfkLMBFfPub9s8AWmtvHkWAzALl2pQgw/mtvdThSOIdtkX9xyVEUaO6qHMwCXqoRWg2u02jo+PnWXA02YojLLZrCuwwHHGYjEX9Q3ACd96ve4iVpWZUwFNJBJIpVLY2NhAIpFAt9vF8+fP8X/+z//By5cvcX5+jtFohK2tLedHpFKtSutkMnEwn8YLULjxOTlvVqgE0c51muULqlSqELboB9eBfEQDmeg31VM5FMFSiBiAc//w2WxJSBvQCMBFkkajURSLRdy/fx+ZTAatVgulUgmTyQSlUgkvX750NUz/6Z/+CXfv3sX29jZ+9atf4fT0FK9fv8b+/j729/fx3nvvIZVKzTyzNQZUWb5Ou5Yw1MW0GjEnnhtiNBqh2WzixYsX+Oyzz3B0dISPP/4YDx8+xOPHjxEKhfDkyRMMBgOXRrG1tYXBYICXL1+6avMMYGG9w2q1ipOTE5ydnWE8HrvKB4TkotEoEokEwuHwzJljXCT6GtR/wTP0ALiqI69fv0a5XHZEQt8lheXOzg6azSaGwyFOTk5cFCSFMCFVEp+e7adz6RMwZPAKJdp1UAamlpZPOGrf9t4+IavaoW8j+qwRHa/vWp81pWPVTajXEQal9aFzRKK3Gvk8i8oK8EXbVYzMt56+5ru/CqGb3NPXv893FOSrZl8+uImKEaNpGVhGhnhycoLT01OUy2VXgqxerzvEhccvEUbj6RbD4RDZbBbr6+sza01BxmICPJ6J46XbgKka/B1dGaQnJvITBmVE8scff4xMJuMEKhO+WfKNMQTcx2SqvC8wG03JcWkQnFq2bCokrtv0Xro+1jixe87yE66zvmjd0z1lFTAqBJreohHuAJwvv9FooFaroVKpoFarYTqdIpfL4dGjR9jd3UU+n58543J3dxeVSsXRz8nJCf7617+6GJGHDx/i/v37ODk5wfn5Ob766ivk83lHMxynDUb00f4i7dowaZCWAlxqIeFwGBcXF6hWq3j27Bl+97vfIRqN4l//9V/x6aefYmtrC9988w3+93//Fw8fPsSvf/1rF1779ddf4/nz5xgOh1haWsLe3p6DK6vVKp4/f479/X2cnJxgPB67JN1QKOTOMaSfT6vXE6tW64MmPiuo0/KrVCquCG0ikUAymcSDBw+cUFtbW8PKyooL62b1DQAulDufzyOVSrkXrTtqMerb4r01SlQhCRvxqEyT/jXrL2Czm4Xr5yMYXhv0nYV15wlV/sbSjlUG+EwaMMTvyVwIVRFm0pQG5o5dJQitEFpUEC6yqRbdeHaMFmUJ6tNa1qqA+pSpoLWgT5lavZYjBPxRh9zTdDmUy2VUq1WEQm9gzufPn+Pg4ADtdtspgNlsFs1m00FhfD4G13Acu7u72Nvbc742rjFRm+Fw6KqVsCgDBSijUKmsMpGbpfqoBNOHzn376aefIpPJ4MWLF6hWqyiVSs4XSX5Rq9VcBZVYLIbNzU13FJGuk/r1NTjNMmTeX88fvE7TUzN89DPvf6Uf9Wvq4cZaRo0BhhqtTut3aWnJGRLKR2i9Myf87OwM1WrVpTv98pe/xOPHj2eCExkp3Gg0cHR0hM8++wxfffWVm7dPPvkEH3zwAR4+fIjXr1+jXq/jyy+/xEcffeRiBeheIT2RxuahO/PatYShjeQhMZAASRCh0JvIwD/+8Y/46quvHBZMwv/iiy8wGo3w8ccfY2dnB9lsFufn53j69Knz3fGU8X6/j2fPnqHRaKDRaLggl+3tbaehFQoFV+zVnriswicUCs0ko3PSaMmFQm9Ou85ms27zk0DOz8/dETTAZe1EClvWQFXtlhCL5j3ZDUOIgX1wkS0D51jtQnMzKnH6WpDlyKbCzicMVZDbPn3aJIWZtch8FiM3KDeiWglMsidTI1TH60j86psNen47xqBrFm3W6tXP5jUVZHY8PkEdJPi0D58Fzus0AIn0p+vM+WRNX+bbMkiMtSTVamIABPciI4JZIarf7yMcDmN7e3vGUlIlZ2VlBY1G4y3B32w2Z2g5n8/P+Ouq1apT/AjzvX79GicnJ86CZRpOMplENBp1z55Op10kK/cfnz2fzzuIjpYhrUr6Pq0SaP14vj2hVvZNmvXVWRrQvy3tBFmTvhQtm6rF8apVqvyUihL5Gf8nT6QRwgOCGa/BvvjbXC6HDz74AOPxGOVyGc+fP3ewaj6fx8OHD/HkyRMcHx/j1atXuHv3roO/NcDtpkKQ7do+QxLkdDp1mg6d47SAaLH96U9/wqtXr/DLX/4Sv/jFL7C9vY1KpYKnT59ie3sbf//3f+80sufPn+Orr75ysGihUEA6ncbz58/x4sULvHz5Et1u1wm89fV1FzGaz+fdYb56Bh0Xx1Zv0QnkAlOAMtybm52Fw4l/A28EIXNjYrGY0xhVA4xGo+h0OqhWq7i4uHDaqp6CzbGk02mk02lkMhlv+PI8QecL6rBtEQuOL86Tz8II+j37sJGcPt+T9W/oJqLGSkWDsIxaf4RtiEBwHn1pKL52E/jE96z2f8sA593bMn/bl1U4eZ3ew5dXZteH12rKjyqI/I5lszQqmnm89XrdoR4qTBmYRv86LQtNjs9ms9jY2HAMkOtLWK3X66HRaDgrjvdot9sYj8fO5ZHNZp2gZdQ39yzn6vz83FmW0+kUGxsb2NjYcJAqABc3QGG4urqKeDyOWq2GdruN1dVVbG1tOfeK3Ve+6Fu7fkrfPqFykzZPybuqWeVK92XQM+i1qlRpNSxfgRLeS8tkhsNhp1Tl83mXF8s+IpEIMpkMHj9+jEKhgD/84Q/44osv8PDhQ/R6PWSzWdy/fx/ffPMNyuUyDg4O8Pr1a4f+cXx2P9ykXUsYUmNXTWEymTiLhhUfnjx5gj//+c/o9XrY2trC3/3d32FrawuvXr3CYDDAgwcPsLW1hUwmg3q9jidPnqDZbCKbzaJYLCKTyaBcLuPZs2fuZIr19XXEYjEXdp1IJDAYDBw2/fLlS5RKJVe5hjk93MA2X1BzhqjZKEOltVUsFpFKpVy9UxUa1p+iodXlctnNWzqddtppKBRyVhCFcqfTwWAwcL6RyWTi4Ft1btsUC5vnpMzSZ31Yq4zNCi8KG5816ds8QYJ4nnXJ7/gcfDbg7WhI+1LIx4aN+6y1oLYoVOr7jc9qX+SeQcqIvivjs3N7ldC1FgB/Q8W13++7yGvm4E0mb0qo0R/Y6/UcVDaZTJBKpdy6U7mkEhgKhZwVSMHFoDamI3AcyjzD4bCLIiXMSFqn8KIlQeGUTqfdHqPCyflQy4aQKyvTTKeXFXPC4TfF/PP5vEvPicfjuHv3LpaWlvDq1auZ+AVNlbDw51Woh87/uzBqPt9VLUgRtoLUB7fq+PUzFZyKDFIpIiI2nU6RyWScspNKpVAulx2tcd3JJ4miEepkJaKdnR3cuXMHw+EQz549c0f3bW1toVqt4uzsDE+ePMHm5qare0t+rS4jX9DhVe3aATQaZcVJYzQYHexffvklPv/8c0ynU9y5cwcffPABlpeX8fz5c0SjUXzwwQcoFouIRqP49ttv8fXXXztBWCgUEIvF8PTpUzx79sxBmJubm9jY2MD29jay2aw7WblSqeDk5ASHh4cOv2airm4ybio9l04ZsVaPUV+KbnAS5Gg0Qq1WQ7PZnAngURy+1+s5yJXWLq+xCbj8jKcxjMdjxGIxFItFJJPJmQgwjo+vIGvA+hb5nU8YKsTDjUfLSwUSaWAefVwlKC0DAS7rhVqLXfvUl08Y2uazbO338/6/6ncWoppn7V3Vn/bpUzh8MKhP6Ku1p4zHwoHlctnB96wOQ/ojPVOAxuNxJJNJRwvM0yUUZoPXMpkMALiEe10jCkNeS98l94LuPyqo9NvRn0caoaAkJKvozMXFBZ49e4azszOcn59jOp26WAL+jnVUq9UqVldXUSwW0W63cXR0hEQigc3NTTc2PoMqbLoOPiHoQ0duKhBtAA3bIson31WJYp86fhuAo/RF4cJ9Z10zqtgCcLy01Wq9dd6hok9cM/oAOe+7u7sYj8cuenRjYwObm5s4PT11cSO//OUvnVJEWllUaQhqN0q6Vw1fN2Cj0cDh4SGePn2K09NT/OY3v8HHH3+M6XTqoI1EIuESahniHA6HHV5/eHiIo6Mjd5QO8/02NjZcUMrq6qqzsFixhD4/5hzpInODM2xaiYCbnpCJBtxwggEgHo87058Lx7BxwllkKDZFoNvt4uXLl27zq4+RwpP4OSPbCNsyJJ2bkmMlwVkoh0TGI3GowFjritez6Xwp/Gj71hYkGOxGU4iJ99bNrf4grSDD9aWVau/BdAxf9J4d1yJNhdo86Mj2bRnNIvfx9emz/nxBS6rtq8bOa0lTzWbTWX+kMVZmYVSnhsgTRuThuGwUjoQmuddCoZCDqhiIQZ8/96IKAwa8sA4lzzwkTVLBI2yqa0q61/1Li1QPdOZ9NzY2EA6HcXZ2hmaz6fgOv8/lcs46ppuCliATxrVKjkKfFm3x0YjdbxrxeJM2T9Gc9xsqOj7lUP+38QCAP6COffoEK7+nEkPlhnRxcXHh/Hy+uIjp9A3Euru760otst4tDaGDgwNnAO3s7Li8dD6D5VvXadf2GbLRvOXEjEYjVKtVHB4e4vj4GL1ez6VRMMmSGyGZTKJareL169fO10gndaVSwZMnT7C6uopUKoWtrS13sj01VIZpk5hpZivMp+kGuuk1ok4FmVaM4cG+9H+Ox2Pkcjln5fHoJwYB8H0ymTh/iQZ6UBBrZFs0Gn2rjBs/T6fTDmJikj+FLC1drd7PZ+BzMICHzIMWsKaYBCXDc+w+v4LVMH1MXYWcT9haJq/fka7YxuOxszz03uq81/qnvg0QxKwWafP6u8lmsxv/qnvwb59loMyJ1pGeMH5xceHyZxkZrVAiMHvWXygUmsk7AzBDv8CbNaOlRrplDWANrrECjbTHMVOx5J7StaVyyusJfQGYSb2hlUv/ux47Rp9+KBTC0dGRCwJi3WKtkUna4x5eWVlx9ZK1HypfFonwCUS7XzjH11XOtL938Rnqve0+9ll2qvCRj5Lfa79sNsBGI4eXl5dxcXHhhOF4PHbBblaoTqdTxONxrK2tuSpjhLHX1tawsbGB4+NjtFotl9JDucFxa5GR67ZrR5NaM5kWUafTwcHBAV69euUCXDY3N7GysoLDw0P0ej2X7E7hSKcqNYE//OEPKJVKM9jx9va2C2vm5DUaDXz77beoVqvodruuECyJrlgsAsBMhCKxZBI2fX3c7GSsrIrBRaIA6Xa7OD099dZY5Bl6tGYYgkyhdO/ePayvr88kwHI+J5OJg0fpVOYJAAwkWFpackKSgozMh+PWajeTyZsiyRT8qhxo4q3WUFVBw2dXqMrnsyQBchOQoG0gjV7Hv1UTJT1xw1kBwe+BSwatBb9TqRQymYzzi82DQC3zsuPSd5/wsnAYx3fdHDK9h6b6+BgpcJlCwyjni4sLpwT1ej1XdIJICWlRQ+UpaLSIPfcDnwOAKylIS5CR0byO9wYurcbpdOoCXqiEMY6AxS645hbyV8tDrX66AegPInTPF58DeDvHlfnD9+7dQ6VScQo6E79DoRByuRzee+89dLtdnJycIBqN4v3338fx8TFOTk5QLBZdlCyf0YdC+KBGtSa1CMJN2zxBetV31k8PBEco2/1hlWJFy+yeUP+98iOeOdnv92eu1aAb7iHl0Txei1HlVJ6GwyFKpRIODg5cNsK8AiWLtmuLUTI6bbTUjo6OcHBwgEwmgzt37qBQKCAcDjtH9e7urstHoa+C+P3z58/xl7/8BbFYDPl8Hnfu3MH9+/eRzWYRjUZnIg6Zm9Ltdp1PY21tzQlmMnlNjaBfg2OnMKR/kXVFNbxc/XqE6/SZmd/Eo0dIMLT6CLuSoQCX8M7FxYVbtEQi4Q5F5X0opGn6x+NxBwdQu9cSUaqYTKdT9+z2LEQNR7f+UQ2rBuC0ZU39IEZvN5YKODINTRPhRrGFBIgqaCKz3YDcKKrIUBjST0yFhOO5rhaumrKvqWVroWBlEPzM97fei41rqXNgNXbOEYNcGOhCBqDCsNvtunvoGlD4+ZLDdc3V30ikQRPSNQ9WUQfCmAwWAy4T1TOZjOMFZHwUcIrgqEKmsDrXVcdFulBljMow/4/FYu4AgBcvXqDT6WB9fd3lFROSOzo6wv7+PnZ2drCzs+Nyl3koAGnfChB99ylxFvG4KZO2FlTQNb7mU1b18+uMgf0EWYhcOxoKdNU0Gg1nbft8lTpWlnHTAu80KnjcE4OjKAPUSJu3h69q144mVeZJrZaDKZVKODk5wa9//Wvs7e25EkeEJ3K5HIA351WNx2Nsbm5iNBrhr3/9qyvTdP/+fTx+/NiVSRqPx+5ss8lk4kK9h8Mh8vk8Hj9+7AJquODc6BSiymCA2RPpbY6NTUjlwaO6YUejkatNOp1OUavVHPPhxmH+1Hg8doTBYt9kUNzoTB8oFAoYj8dOIOuxMtSUCA9TGBCO0gAHClMVkgrnaiAAtXBVHCjAI5GImw8GKXAz6PzpRlHmaJ3bhOLUyg+F3iRvNxoNZ5FbRmsFr2qVvK+FfYM2hP1cadlq/GzzYEtaYL4AhHlBD0pLTG3gi5CmBjHx3qQLfVEj1gNseTwOlTNWdOF46aMGZkvj0XLUxlJr6u+m0OGxS6o00SLgmih9qs9a51Pph7RpGbhGgHN/0rWg/fF5ALhUClaHarfbLhAnHA47JYrpT6FQCOl02kWTvn79Gnfv3kUmk5m5xr6C6CuIjq7brup33vc631cpir7vVBhbyFTRC15Ha58FR+g6Un6hihj7Go/HqNfr7sCGTCbjKgjFYjHnZ+ZxXufn5zNKIZ/tpgLxRtGkikPT0mk2my5fp1AoYHd3F8Al5EJ/HHOYwuEwstmsc4Z2Oh1XS/DevXsurYCMnxrw2dkZWq0WkskkisWiqwajfgUySzJltTBU+7QMlYujxb7r9ToajcZMfhYDdKxiYH2AZIbMq2IuIZkGNXSWjlLBppFzAFx5KxWwhIMYyTsevylbppYd76F1BzlmPqcWGCDMq5AjBabOjz6ravAKrSpTJIHSj6BWAQs4ExK20JnCvUr0nGfWq2w0GjOh/GxBsKj9f94GskEU+j/nQ+lKLSzLTPiu86kFq5lqQ5oOspyopDDtQH11fGl6AscGYEZg6B5Qv5zuG/5P/z5REpZKtEJQBSDnQvmHKqjW8rHCktfZVCJVylTI6joSVSHUy+TvVCr1VvQ4fdTxeBw7OzuoVCool8tYW1t7S9G5qUC8adM+gxQs264SCotaifrMPqiXz6+CLhKJOAOA8Q/VahWpVAqFQsF9zj1AhO7k5ATHx8eu8g9TLoiu5XI5VKtVVCoVlwfb6XRm+OUPIgzZaEGR4Gu1Gl6/fo1ut+uqkxcKBVSrVbTbbVc0dzKZOOsjHA47JnhycuKg0fX19ZkagLQieN4ZUygeP36MRCLhnKzKSMmoGQzDzUnit7AbF5STSaZC5y1PTwcuSyNtbGzMVOyfTCao1Wo4ODjAyckJyuUyVlZWUCgUEI/HndBpNBozQsqX+qGLTwuNMGk+n3/LYU0LQwMp1DIkMavlqxAqCZi1HTUJWn+njF+hVz6PnirA33KsvA9hLoUFefTL6uqqK73H32uqioXnKPzPz89nTjHQ++s719n+bS0WC4OxD2vxqWWoKAPnWD/3BRbxvuqHomJBhcAGfynzJZ0q9DydTl15McLHFBr02TBwRP0yutaTycTtJZYjJK3SElSBwLUngqFrTwVSK5XwPmrR2zUJUiDYOD+Ej+0JMfw9hXaxWMTS0hIajYZTxAl9UpmYTN7kB6fTaezt7aHT6aBcLrvScpxvH11dZfW9q4C8zr3s72zQz7wWJNRVGHL9+DnHQ/5AxVsj37vdLp4+fYpqtYqHDx9ie3vbBScNBgN3uv2zZ89QqVTw+PFjPHjwwB3oTnSNyhit+dPTU6yvr2NnZ8et503n+kbRpFaTY2ToZPKmIgWtH5ZPS6fTSKVSTvslkyORtVot3L17F48ePXJlksgAuNFpFk8mEycYptMpyuWys75UMJApsQAtoUJuIp9j2CbVApeaJa9j0AqZLjV5zdFiHUXi3LSGyMApWIDLhGjNJaQVzRxDADPCUyPf2Dg+CjJaX2rNahARAKdoqAWgFp5aOb4qPmTcWmpOGR2VDTIljWSksCaywOg9Mm1Nm6EFq35HzguZIQAHZ6vAsoKLc6VzpgJdv/c1Zdb8W61AnS+Fq/XZtS/OtYWVdY75TPxM6UCryvA77g8LnZP+SQtUgriGpFP1K1MYcnxUMPXZFfYKipr0MSmfVcW5ver3qrzovPoUmKWlJZdXyOhS0i7RlXw+7xQqKu9URrvdLqrVqjuZhryJv9e9vMiz3KR9V/3cpJH+gsZilQPOO+lHXVyMKK3Vasjn8wDeoIcstdZsNt2Bv3fu3HHxGIqg0dKnEOUReslkci4KdFW7tjAkETBibDQauWONlpeXkc/nXUDI2dkZLi4u3AG81WoV0NBlWgAAIABJREFUrVYLS0tLrt5nu93GZPKmdNPdu3dnNOlQKOTgjdPTUzQaDWxvb7sK6SwKm8lkXJRRp9NxuVC0PDWilBtH/XtaE1RhHjIIC2HyO9Vs9XDfTCaDX/ziFy4VQ4U04U5alIQamYysfhPmMVIoUKCvrq4il8u5oAS1CsjUqUjQn0JcnQUAgEuGYi0cMj4rCDXIRQlfhQsFgKUZhTQtRE1fVDgcdo52wp4+gUNmrVAcBT6voTBSyNo661UBoDbr2+gcg/Vl6vzxe2rDfC4VjByb3l+DhvgbHQMFkOaWEj1QJYTKkf7NQvJ0TRSLRcRiMRwdHbnAENI3FTcGfWnksCqJCrNbga3ois6zWr78rfUF29/ou/1bG2lc10GVHloV9DOqYqjJ/uvr6yiXyzg7O3OCkccK0QJJp9POJ0skirTJubH70Y7nKqEW9P33Ab1e1bcVLGpp+4S+Pjsr0WQyGYfG8ci8L7/80qEPDAQkP9jc3MT777+PBw8eYHNz0xVs5zrTp53P59FoNHB8fIxMJoMPP/zQKeKWDheduxsd7subkek0Gg1UKhXn74vFYg6KG4/HbjPTagqH3xT3ZvmxjY0NB+uwPBQfRmsmsq9IJIJyuewOBKbQIRTDTd7pdBzj1BQKMh9ubGWYbmIMo6GABC5rmdI/2Wq1UKlUnN8zl8vho48+miljBVzW46NviL46yyxpHTFSSi0OjoPaqgpBRl1Rc+fGDYfDLkRctXgyda6rKgxaYk6Fl7Wy7P/qP1NBaK0nJVT1VSm8y1xTAGg0Gjg9PXU0wg1CaMQKGbXyVODrZ8qgdZ3s87Fv0g37s4LR+sv099aHqM+vlqmiFtqnRv+qkKJVaRW0UOhNjc/T01OEw2EHLXFvEXJnkQdagOpa0PnQsfJv+5l+rs3HnK5iUIsyMLUQfUKHc8k5JANut9suZ5I+RFWcx+Mxkskk1tfXcXBwgEaj4Sxs9ks68dGPjsMiEkHPq4rXd9m+yz7nCXPOgc4LqxgRhuaBCwyC5L5gWg5jQDRPVSNUmUalKXqs/6w8gGO9zrzeyGeojG44HLqyOx988AHu37+PWCzmBJMlVr56vR7K5TK2trbw8OFD5HI559OgACKswYMgV1ZWHCxWqVSQzWbx0UcfuSoYVmNnVQn1qSiD5/iZW8jABTrkI5HIDNTFMRC/pvXEyjuj0Qh3797F7u4u7t2756ovqHYMXJZfI6zK+yvUys8YhTudTt1mHI1GqNfrODg4cBAjI7dYyFyhLwqZ6XQ6k39orSOukY0S9QnAoI3hE5y26T2V8XM8sVjM5Q1GIhG0Wi2cnp5iOn0TuWsrAXF9bN4kgLf6t/dkYwSvjtsGyvhgVt5DIU4r2Hx9sj/C4bbUnq6J3XMWclUa1XV9+fIlvvnmG3z44Ye4c+cOqtUq6vW6S2JmxLYKVp0fn9D+Pi2Ud21BgphzR4Z6cXHhDhVmtCL5lTJSBnkcHR3NnOBBy1yhZqtIKX35UBRfU+tWnydoH/3UGw0MCkIq2HSnkGaVzjudDk5OTlyRd/LZUCjk0vC63S7Ozs6ctU/eORwOZ1JgrttuBJNqSDaL4rZaLbfJptM3eW4cGP9njhQDaabTKZLJJHZ3d5FKpWaYBjUCplJQgyPTYlJtPp93OL4NRqDWbH2EylQoDAk/2ZQEPfOLtfC4OCw2wJyX1dVV5/RV34u1PgjHaRUaBthQM22326hWqzNw8fr6uhNW5+fnSCQSLmFfoU1CtdzMtASASye3Mn6dH16jfj8fJKLvwKxWyO+sVmyFr+1f54fjXl5eRrPZdOdTApdRj6lUCvF4fCYB3yf4rPCzz0PIRiNRfVCX73mBy8IMvueziqC1kjWghFaHargqjPW32gctev6GfR0eHuL8/NwFgpXLZXS7XWxubmJ9fd3V67TrGrS2P2VBaJsdaygUchYgLRQG+2mgB4Xl2dmZi9Alb2A1qHw+P5MeZAOYiCBYC4V/B43zNgq8eU3zlCORiOOhVP7U/aSIUbvdxrfffotut4uNjQ2sr6+7OBSt0pVKpZwboFKpIJ/Po1gsOmF77fFe52K70JT2zMUjsdHKIsY7Hr/JFWQoLIUho95oGqugopBiusbm5qbzd4zHY6ytrWFtbc1BQ7b6iG5gjZhUvx+ZLaOUbPh+JHKZZ8fEfDI4+vmY6Hx2djZTVLvX670VVMLx6dhoDTDqj+NnLVceHZVIJPDgwQPEYjFMp1M354RaGchTq9UwGo1cFSDODX2HGk2qIe+6KSmULQxoNdV5gk6tKX1mC08GWZDT6WUVEWupqvWljEg1TauA8Ldqmam/jhvNZ0Fe9dIxB8FinA9a9nxRswVmLYOg1Ax91/zEXq/nYCTmx7JIMoUsla5EIuGO07FMnC3oGX9KzWdFabMWPH3tg8HAHeqrvnUGaFBp19qX/F2tVnNHt3EMpBdLUz76uOnz3bZGhCccDqNSqbgC8e12G9lsFltbW3j//feRz+edf/vk5ASvX7/G69ev8eTJE/zpT3/Chx9+iA8//BDvvfee45GhUAjZbBaFQgEnJyfOp5vL5Zxf9ybtnU6taLfbKJfLzlkaj8cRjUZdAjUJjD6rcrmMer3uclB2d3edJFetnpobc8+07NJ0enlqdS6Xm9H2fVqX/s468pVQNUJRf6+RmwwpB94wK2qL3EQMTonH429FDqpw8DFajkEtmLW1NQyHQ1fKiIJ2NBq5OaGmy0jdZDKJVqvl5g+ACx2ncNdgEp8Q4hgsE54nDPluhRyvV+htnmDlfTl/odBltK1NYdAqKgCc0hMkjCxMaa0uVYR81rBPaJPG6IvSfi0zBi6tbht1yuvsOHXufWPTpGRGPk8mE5dHRyGv0btM5+Fes3Rw1RzoNT9Wu4mgYDUcQnFM2dFI2Vwuh5OTE5ydnQG4DI7JZDKo1Wqu8DkjzNXyt3PiUwBv8mw/VWVkXuO+oF+W7pqlpSUHge7s7DgUjcgPE+v39/exv7+Ps7MzFyvCAgmJRMIFYjL+pFQqYWNjA3t7ezce87WEIS0EbtR6ve6qyWSzWXdECqHFbDbrDtvt9/s4OztzPotsNosHDx6gWCzObDA6+SuVinP+ZzIZTKeXVeoTiYQ7/NcKQUuctB50kdjsxiZkBcz6vsLhy6IBfPZQKOTCrnn8FE/RTiaTM/UblZHytz5ISpkQIZxOp4MXL164Mm22diqZXSqVwng8RqFQwNnZGf7rv/4LL168wGTy5rzJQqHgKofQWtR0AuAyTJ6J1EFwpn0mndegABELHfr64mYhFGzvSUhZr9e19vVr76GWln5GCEev1+AlDXKyFhsjMG3Ere/Z51nDPuFphaA+o/pWOR9qNZdKJZyeniIej7soXjuORa1BO3/zokG/73ZTi4nQOvMm6eag/5lRijxsgAjVzs4OMpmMy5umf4rzxHnVyFo2FZi++bIWf9Az3kaBSD7DSGXmMWezWWQymRl/IFNZtre3MR6PXZzEwcEBDg8PUSgU3Fm32WwW5+fn7j60Omu1mlNevneYVLXVUOiyckgkEkEul5updk/NnRuVWjutFOaGUFgCs9oVoda1tTXEYrGZ0ykKhcJMZZkgQgn63AffWatG+/AxWv5PiIoRU2TmmsKhv/cFFakA4ZjoN5xMJigWi+74GQAz/gpuWDZGCbKoLYN+ODYG9NjqMLwvoe9mszkzh0GQj28z+xiCvc4GpigzV4e6zhH7DGLo17VW1Dr1WXM2f8+uFRstC2txqpJlg1MUDVDEIsjf6RNUzL0issJnoV9lOp06pt1utx2SoCkkdq6v2k+03H9qzHnemKyyTX9VOBx21Uvi8biD5VlkfzgcotlsolgsutrCRGF6vZ5Lm6KCpusIXCqX8+ZqkXn8qc31oo08X/2uLDFp95zu/fF4jDt37rjv+v0+qtUq9vf38cEHH7gofeaPhkIhNJtNd8DBjZWl61xMRknokLX+OCiWCNNE3Egk4rRlRv8Vi0V3kC+dq5wcbmr1byQSCRwdHWE0GmFra8udcMwIwusQi4XKOKk+bZx/+2A94LKWHp3xXCRaEWQ0lgGqz5WMXDV0+iMrlQoGgwG2trbcotO/pQFADEYKh8Mu9JgaFqO3mFvIAumEGNTSpxLDyDlr2fosF2tl2WdVoa15fzadRDeFVvrQ33FD0RfNvucleut6WktN/9cIUHuNvdZ+57M4lXa40e2L91Vf5byIVJ1z0gz3jEbokbnTlzwajdBqtbC8vOzKW5H2rTAMar61/7Ga0pY2n+CxShj3ezKZdPEOdH8wmIPBGcCb1C760Pl7KsB0PTBtid9TSbO1Za/zTD7F8zY10iKRKF/hEVtYBbjkfRsbG9ja2kK323U89ptvvsHu7q479mtlZQXFYhGTyQTHx8cz5RhvQqc3KtTNDdRqtXB8fIzBYPBWEvRoNHJ1RRmNub29jdXVVWxtbbngFxIOf0d/Vzj8pmQSAFckenV1Fclk0h0QCcDl0WlUHhcjCOJTIQUEO9/1tyo8uXij0cgFuKyvrzuFwFoSHA8bTXm1jiwjZAAE4Wb11WpiqVp07JubkD5cwhTcyKqoqGXIMTK9w1pv1jKxAs8KAmtt+4JXLJPn5mBqjfoBWU6P1+rJFfOYjlV07GcKG/uQACtI7bsP8vTdy/d7zV/Va32Qsm/eNeEbuKxHSyakbgtWpel0Om5/xWIx75rOm8OfSiNdXdXs+jC6mlYelUleSwuRc0ilhNHMLO6hifd2HKrcKgoU9BzfxXP+1JrSrxa16HQ6aLVazrr2FXLg77a2tvDRRx/h+fPnODs7Q6lUcge8FwoFTCYThxp2Oh00Gg0X4LSoosd2bWGoN+BRSjywV7VZ5t9Np1NXYHp3dxe5XA5ra2szR+6o4Gq1WiiVSlhaenOw5nQ6dfl2PK6JkVysaEKmTsiQxK+JyJxoZWrzml5DYaN198iIKAz39vbeEoaaD2aFhbWm+BtNNm21Wuj3+87ipBWnqRRkhBqQwc1Ngsnn8y73kN+p4FWFJBwOO6vNJ7SsksBnAS4tFTIRZSRWIdG++D2T/fWZ1HfI/C7CVPSjas1ZbUEMyie4tR7rPObkszB9NKNjUKXC1xfXVf2NQfSo9/VBxMyN1WLy0+nU1eoF4Kr8cD4tFOu791Xz8mO16wgKXkdhyHQv7gmuwcrKCjKZzMwcEtWiQkmLmwgGx6H7m2uj6IuOW8cfNMe3VRByD5NWub8oDBnpzOBLNqIl5Lebm5uIRCI4PDzEq1evUCqVXFm8YrGI4XCIcrnsFJtarYZcLvfWySuLtGunVliYkMEzu7u7GI/HOD4+xtHRkSt4m06nHeaulS60+ovCla1WC+fn505gNhoNDAYDZLNZ5HK5GeJTLYKExlQOMlGrlc3b0JborEWhzF+LdIfDYacQcF6CBIjex24OwtBkZjZPUiMWCTXoBmdQwGg0clAOGb0qDDoutdjU0rHjDrL4tPG31k9qr7MKAe+twRmqLep6cu2pdNAnShoIstCCGAo/t1Ckfh/Up1q985AIfU7bh679VTTDqFN9JiaLU+ixrJ8GSPEos3A4PHO6C/ectYB982MRDqsI/JhtEctKGwPOKAhZvYTPw2AaO+f0ETKIhgXCqdSrYuKD2H2Cjk0FqrbbKAjZSPe0DBm81Gw2Hf+iO0wVUQpD0jEFqfIVnsJCCJuWYKPRcIfGa3DgIu3awtBWvhiNRshms9jZ2cFoNMLR0RFOT09Rq9UQDoedMKR/kM5+jdZUbJ3J5mtra4hGoyiVSuj3+9jZ2XEnGqgwVDhS4VLLyJXYfZvHWgq+pr4++mMI02o1f1pV2p/1/wS9KOB4Kgh/a4UZiYljZb4iNSpaToQA1UelY1NfoVoq8xik1WIXsRh8lrHtU79XJUbTD2jxM91FFR6tPTtvnL5nol/Sjs2uj69vKigKbfoERRCNWaWAa67NZ6Vz3bi+9Pcy1YfICH3MCjtz7hbJydLxLaJU/pSaj3YZyq8HgGslFM6ZVp4C4EpBEq3iXCtf4D24z6+yurXNE3y3Zb7ZdM9YYdhut2eEofr5SLOcZ63KpG4MFlph3jRTN+r1uoNNr9tulGfINhgMHPZ7cXGBVquF0Wjk8j2KxaKrG0pGThhMGS8tGqYjqNQHZosVK9O0sBQ3O60hAE7QKnPVyMQgbZifWV8hYUT1bTLIhzmA2r/1u/l8ZRwHn4tMjnOxvr6ORCLhTmXgBqSmT2c04Wntn8RlmSHvqQLaWtJ2jnxa6zzrOUiIBG1s7U+jznQTcBw2j1P71/vzb3tvy6A0zUSvCRLevnWzv72qqTVs1813ra4P6XE8Hs9ozKR7uha0tiajJHXugubJvluf7E/FKrxuI5OkRcfTUTqdjhOQsVgM6XTa8TXu862tLYdMsVjCYDBwtYAVjbKuGYuwAG8jJHYdbrNVCGAGhQiHLwtb0B1CIci9Z90YVDAVzidqRjSuWCw6VxXrXTcajR9GGOrmpyOZWhKZ9cOHD3Hnzh1XXYDFqDXiTqEwBozw5HjCOhcXFwiFQjPV+i20qBuUzJ4pHXoKg1pVKkwX0dZosiscwlDeUCjkEkZZi3Qymcxo3JbYVcACmFEwrDDkmYiRSAS1Wg0rKyuu6DJwadHYJG6dYz67FcTKRFUY2jnWjWyFm10LvnzRlQDe0pR146sg04LI1qLlmui6UzhYerB963pw3PxM/+fY5tGHFRr6LPMgUW3KNK3P0DcmK8RtWgbniRWe0uk0Dg8PZ/LprGKm97LztahV81NvqpyqBUI+xrNYmSCeTCZdNDerQW1ubjpInla4BiZpihPvSeTF5jvzezvX/N+nLAe1n6LQVAWPe55oDuectUrJo3T+FDnk3qbyx/nk0Vs8m5IR+Ky/zHEsSrsLCUMrPHgq8XA4xMrKClqtFsrlMtbX17GxsYHNzU13thQxXYUpgdlgA17HijOrq6vOUmQhY1+NT9sICbJfZfa8pxKatWq08X8dM6EUplRUKhVEIpEZ4WQT/H3WCP+2sCAZIjVVMrTJZDJThJrRtbyX4ulUSvRsRG5Uwjacc+CSOQQFZOj62+YTAvY386xAn5YctB6+4AO2eVaKwi8sk8c5Ig2r71X7twLUtqD5uUqI6SudTrtal9aKCKJJfS7CSVSASFcqWOk3tEFm9oxLSxvXYSS3scXjcezu7mJpackJNlZ0ssq7+rOz2Sym06kre5fJZGYQGFov/X4f5+fnOD8/d2dMqtJCmlQY0JeHTPcPm7UigyxLNt8+XdT61N8q3VqkzWekWDSBCF8ymcR4PHbn2fJAdy2pyd+fn5/PKHNUVhg8SMuSBfsJk1rr0uZTc5w6d1cKQ5923+/30Ww2HeTJqKyHDx9id3cX6XTaYe7qiyHD1VJbfGef4XDYFV/u9/soFArIZrMO/pnH+Kyvxhftp++2+T4nw9FAHy4ka4aycIAKG84d+7CEZOdBmR/LRGlEZygUmgkO0t9xA02nUydImeiqRMPNzGfQMWpEoyXiRTTPeZvLzusi/S0qiHzX2u/UKuj1eqhWq2g0Gq60FiHZmzYLb/rub9ef1/CAUy1arEUVrJWgz8L/KQxJC5wHt8n/X0CICkMN1iKCQNpVxva3JhCVudMFQf8/FXhl8G8xzP+Xh0i/PI9Zs3TW7/ddZPzBwYFDj3id+nOptNqzKnmtCgptiwi061r1tq8gxOCq/i0vBOAg6Hg87gIlebiDommk59FohJOTE+zv7zv/LJUKKh6k+Xg87g6KZ9oL19HHS/Qz7t8bRZPS+cnzpJaXl105Mga4KB5MaIFh3/1+HwDcRuTn3W4XuVwOyWQS5+fnDo9n9fgfs6mWAVwew8R6ehQmamH5iDSIaQKz1qFag6q5WyapFh61VTJ3Ckl7r6s2z21tKhiAy+cPhd6kqdRqNZTLZZTLZbepGBRxXaZxVVtU8+52u/jyyy8dHW1vb2Nra+stizUoAEsLDqiw1WfXSlAUhKFQyN1DBSH70Xf7TL7vbkOzCAj3EaHQZDI5Yw3qfJOmNH6B0agUnAxoY47sZDJxuXDMtSYyQfcSUTPCfjzFneeSqgDheKi8cF31XdPJrKWvaNc8lMpnbbJx7lSRJyJnrWgbWES0CoAzJujv29zcdLnnAFCtVlEul3FwcICTkxOEw2FXnJv1TOlG02elVc76sZa25wVR3kgY0ums4cXZbNYVDbabjoKMk64aFBeFDxEKXYbNh0Ihl46xSNTb99l0oakMsICsCkMgmFFYTV8JUmEI9k3iUaJV/54Sqm5I5pCpdvn/Q1OI0DKyWq2Gg4MDdyZdMpl0yhsVjpsGhVjhEcRUfHDWYDBw4eDtdtuV07ORm/MYkxVSZJhqWUSj0ZmgBQAOyiOUfhUsa+99G+nKziXTlXgCDJ/LRnCT+bMEHoP89BxJxitoBC/jJlhFhRYlkTCmaRC14YEHTEVTy5HjoaXI78gn6JPTszUt79Dn0iIpOjfA224O5dk6f+w3yKevv9eD0sfjsUv/4jF4W1tbiEajWFpawunpKU5OTlCr1dyxY6w+xvNraU1yHtgv4Wu61/g8Oh4fXVw7gAaAO1qJvisuhk7ucDhEtVpFr9ebmXwuNheKRzVRq+r1ejOBKcrUf8zG+9OXyYRcFgLwVXLR37HNY2rAJcQyGo1mKrXb/vRe+hlhac1R9I1D7x0EOd62pr4LCoJ2u+2KvpfLZWxubuKTTz5x1XkUPv6uhCHbVUIReKMt5/N5VKtV51+aTqcuMICMjXtEBb3eQ+FXSxO0ZkgbvJa+fxZ18DWlMRUkt5lO2PS0D10THqmmwTK0wBndSAuH/MBGIquflgcLMBWAuY18Ec2hsqLlChlVX61W3RqoQLMv0obCsRSQtCDJr1WAWotShRw/J0+x9K60oJHKRLjI67nP4vE41tfXkc1mXSAiT6mg24nWHct3Pnz40GUohMNhV1g/kUggl8uh1Wq5RHvGn6TTaVdTVqOubePYrm1uhcNvCtPW6/WZw261WDAjQWkCc/OEw2Hk83l3NiE3Ocu2LS0tOdiAha/tyeU/RlNmQK2DwpvCXavSBGlVFjpjn1ajojBkZXefxq54uDIqDZrQMyL1Wa5qt53RKczV6/VwdHTkClXn83k8ePDAXad1ZN81XWCeUhEkDOkzYdR1r9fD4eEhlpeXkc1mZ4KjbEoQ+1UasPck3B6Px2fq0kYiEZceYFMtfOP23fM2Nn0WWnlaH5muGwpDq3wCmHFfkNfR4lFYUCPmFanQdBoKSDJ/nk/Z6XScoGw2mzOpB/osepKLRovzRQOE/JkC0b58wpSpOnrQNp9dc5eVJvVZlRfx2Smcicow3oLoCKF7ohnZbBb5fB57e3vY3t52udRU6hiQo/WKKQyLxSIAzFzv2+NOcbgOIfFHxNgZ+aklnSaTN+cc1ut1J/Wp+dA0pvnKk95rtZpLnCRRZLNZVwiXBPquzOomTR3pkciborwsCKvJ36oIUAOyRGIZoQow/paWMgtTs4SWhSeU0GzINjC7YfVeVsv/W2lcH2rT3JA8OiyZTOLx48fuwGNN5LcBTddtVlgEvfugGmrfuVzOVXAqlUquKorWZtVoaQ07Z5+WxsgEyPTpaqCVYIWhRRsUGvP5FG9b0zVWP5fuM6ZY0OVDOlJBxjVj3VctdED+aC007m2OQ2mBQoZH22mqFGlAzyHVg6H1pRamogCKWhFGZJ/6TuGsCAv5LpVrImGpVMopEhSOqVQKqVTKHWOnEbmENLWQCF0Cjx49mvG5KqTLtaGFp+UkiRpqFO90+iZugvCq7gOuIZtVIK9tGYZCIYd7c6ORMIjZ1mo1VCoVVx2DcEC73UY0GkW73XZHyYxGIzSbTYRCoZnTGBhGy4X8sRsnjcKQz05CUE3ICkNt9lmUUaqmOJlMHKGpxekbl96bRKypGD5t/7YytHmNz0WmT7/2eDxGIpHAzs6OC8EmJEXBoJVG3uX+wHwL0TYyAUY21mq1mSAAAI5pq6WhwnCeVUgmoAdkU4Ei87TWhEUSfgr777tuCgMqDfAUHg2sAmatMPXdEfakcgxgJiiGc6f0ZZEha40FQXnc3+QTiwhDFUaa8qFQLcdkIy8pOJWn0EVEGUCIdXl52SmXdO+oIkCEwkbbx2IxFIvFmTxwADNzTGGncLX2ZWFdyhQ993UeDfOZbxSVQi2Hkp9OTIb+n56e4vz83BXmrtfrzkfBPDpqAePx2J0ppoEzdOpbR/CP0XRDMEdNoz01P4bXq6UcRNxsKsyUyRGrV2alzM/eR/0Miu9bS9S2vwVmR4grHH5TmaLT6aBUKqHX67mzM3m+Y6fTcRv6uwjO8gkitiABy9+QmfKg3nQ6jXg8jvF47MpKMZJQUQBrXahVyM+oRJFJWGSF9BYU+Rz0TLdZkVKkRJUIwp3NZtMFxem80jeoJdgIFWq+JptGVAYhB2wWHeJn+r02Wla0RhUtskqNWpga6EOlW/NR7X2IADLNC4CzEBmYokr4ZPImXafb7c4ghrSIGQwYCr2JFWm1WjO0SaWQiojSvCJ06tIgv9RAGgAOZuZ8qZXug/6BGwpDpkFMp5dngKmjmQWsk8mkO6We8AO1JY1+ZEQbYQdl5j8VQQhcBrf0ej0AmMHOtQyb1dStJRYk0EikFIQ6r77f6X2YskI4mkTL+9uxKAR2m5kbm4WwAMycakFli/4VMjOrLNyk2U1mN9y8/snYGB1IiI7uBiqFmnbD39kgGm36nUaX8jM7PksXQe867tvWfGO2UCYhRF0z8iimQ1BpJxqmaI4qLIQpF2mWVnzv7MtaktZv5+tT/ZQqvIKUbD53s9l0RoxeRyVdBSyFkUbA+5QoKhbdbhcAnBXJww/Uv6nws6aV6Jww6Z4HNE8mE3S73ZlzXn3KoG03EoY81BfADNxJs3Q6fXN8EE+taDabWF1ddeHCFIj/l733Wm4tSa6GF0BeCXHPAAAgAElEQVQS3oOePG66W6PWaEYTCj23HkLSjS6k+DS+p6d7jqUnvCFAEPgv+K/k2snaoDvdPDQZgSAJbluVlWalKQZLtT6HDMdrXOclfkryMCZhCMK6GsOhl0yGIbOpcPRCB0AkfZvp2Wr9eCWrglA9DNYtaSG1hz/0/o/BI1RSa1iFh4dfKMwYO6TQuqsyjHumOEMIgHkhXBOpVMoavrPRumaC+l0n9F09f3kLOE6havw5JFTjoLuHSKF14BWKH0dCiiy/8Ma69gcmf9EopbFzW7iZ8+jHn2s6hDzovagIeL42dAgpWv1J5Evlj5c7IbmmaJXyFceB+mM0GiGZTKJerwOAlVloI4NSqYRyuYxqtYpyuWxIjl47m82iUqlENq6mQ8ZjfEWC5wPgDsqw2+0ikUigWCzagPX7fUynU0uOoctKa0vLMABYz1JlSBbzA7iEMd8XcWKpDE9OTrC4uGhZpN67UGjkKq+Dk8EsXSpa7UKhz6G/q/WvtY9kPC5Uekw3faaHRgqdaF0YG0Ewo5SL0ndCui2FrPi4MfbKkBAcjRam4nMnBb4XeYzf+aQpL9gUXiepUFDhRc9GvSR93pAyfKg8osR3YPKKJx0fLYMgLJfL5TAYDEywMwbtjVbOhb+3/vSkSkdzAeLeI+538kwcKqE/Q2Oj0KYaWGpga4IR/6fwO417olfT6dQyRQlHs9aQ6BaNi1arhXQ6jeXlZdv9qFQqRWK9WiLClov9ft9qOOlozRu3ROKG2aQkKkOmtaqwYVcW7lTBhBONs3GACWOp0iMkwUH8UhYcJ5nB51KphEKhcKkzTgim4Pf+o8KYFtNoNDLXPy51OSRotU2bYu2+76b3HDyc8VCFnI6rZorSup3NZmg0GgansPA5n88jnU5HFOhdyc9PyDPk75xzXRe5XM74QSEunjNPwHnhquepYUD4iPcZj8fBhKuQ1/tQeYTkjRVu5kujHbgQ8FRkimIRAeJOMpRZGq9XRahGawiejhtv760qeZkQ+h9wsXmBvm/IC9Sx4U+FYslzGnPktRjSIRHFIJ8wxsqY62w2Q71ex5s3b7CwsIBut4ter4fd3V0zTHiP4+Nj60xWr9exvb2N9fV11Go1U4q8dzJ5XgNKA4W9TzVk5PlA3/9W+xlyULggtcv7cDhEPp83C0mtBFqmdNXZlo0JAiqcaKnd98LzDEvPsF6vW7ovYV61jkLegWc6zfSiomUXDC2k5QLV8+KsOk68egDXhWgeC2yqMI1CoITdAVxavHd99zioSX/qsfrTxwRpDOoa0ixlD4PpdeOELT0g7giju53QwGMII/ROj4W8YUjFVigUDJUiFE2ERQUu5yKZTFotIg0a7xVx7LT2WOmqsdXjfVnAvPNDx8UhTKHjeYzKKM9LvsmA91y9slY+pleXzWYxGo3QaDTQarWsvRrP09jrYDCwawwGA5OTDHnQU6/X6zg5OcH+/j663S46nY61Ogy9p353Y2Wok81FlclkUC6X0Wg0LBnGD4xmB9HaohdEpTIcDlGpVFAul617/DxX/ucgn2lFZUgLhhlUFGjzSiC8EPSZWH7XbS2E1XPjMHwKPJ8wQUPEP888eOShkXo79Kpns5lBx+VyGZVKxRQOE1MIy9yljvU6itArKRJjT5yz09NTtNttMwj5vJpSDsC8RhU0yhsqxPgc7HNJYc/4MpUhQxnzPI2HTH48aNxTsTWbTUsY4THJZNLCPhpfpRNAZch+wPQivUcVp6C8XAgZ0vrhcfrT/+7vE8qWDl0jRL6JiKJWJOoCXo+8rO/t1ydh006ng0+fPqHVakV4lgluREkSifMNIT5+/Ijj42MrZWFjisXFRRSLRWxsbKDdbuPt27fodrvodruoVquXlLkf70TiCpjUezb8m8ky7NGn9TQLC+dbGrHoklAo/88MocFggMPDQ4Mo2u02Wq2WdRNQS4zX/TkXZQhuonDl1lVsHhCCQXymny4+3Zmcx6pSnEc0LHQhcQFOJpNIn00uWmVcb6Xpc/P/D538u2giE//W97xrggjn4TqwpR4fd4y3tv3i1bn3c0fe0O+1ziuXy1kjDPKeQsTXGYc4Q+qhENchEIVDWfbld4XR9UQolOdqpyfC3SHFxd9DkKRSHG/472/6vnFw63UpZNz5Z9T/AxcyWx0KKtNEIhHJgE8kzvNP1tbWsLW1ZXPEfW4PDg7QbDZtnrjjRb1eR7lcRjqdNr3D4v+TkxP88MMPyOfz2NzctOcLISuz2Zx2bKEFyhMnkwn6/T7q9ToKhYIlvtAFLpfLKJfL9iKaxMHsn06ng/39fayurmJra8uU4crKSoQBteF3qNPKbegqwe+tJoU7mGxAZagNYnmOF1Z6XSpDFvlSIOmkhIQdP96D8VAXoTAyjVfUmmSipDU8D51CVrUKQDUEPhdfXQd6Ch1PYwaIbmQ8m0U3OA69G3Cxx6afOz2OfEahfXR0ZCnsqgy9p3Kd93yIROORXh/nnxnZCpOqYlMPncQuKclk0orQ6c3o3PB6pJuO8XWM5DjycugmFDJ8dC3Nuz89QCbEUMYof9O4oDx9/fo1/vmf/xkALCmz1Wrh//7v/2yf1tlshlarhcXFRaytrVleAKsVisWiwaV/+ctfsLGxcUkOUFdpaOtGMCkzFmll8jOdTi3TikzGhaYvHaeVWRenPfQ4uD6V976ImaQewgQuu9sh0ncOWX8qoJkVFRJMcYzNuaFyfup01eL3CvO2wuJzUJxnGDKmPM3zRv27qVDnGmYmONGbxwSde1KZojF1bxwxQZBeIr0/eo6qCFhKQQVLWabQ4V29sodI5F3tvMO6bO2OA1w0HeHvqjtoIG5sbFifVu5XyKYA3CCbuoK6hGEnGjch0vVxIzeAXRpoZTJRg8qQrXoSiUREqfneemohALCYDZNnNIvSx79+bqJA0bRghVbi4Kq4a3kYSxejWvDMLIxTht6jIHOQga4ar8cg3J7psrfhUQ1fQ6drkGuYglwVgof69LoPWahzDdIj9MqQceRWq2XJNDyenqMqw2QyaWEdRcc0zv8Y0JbbkHa/SSQSVgLB7FvNfQCi+RnUD5lMxvb5fPXqlW2XR5nHTFRFvdRbp4Eyj8xIusnL0YIELpr9UqEpfOAVmH9hWqH0fpiAwm119Jq83n0Kbz4ji0GZDTXPM/SKkf/jOSp4aEGxDIK7XhNv98QFzGuSMbSJ7bzxelaEj4PilJZXhH79kKe4fpkUpvEwpZACfIgK0Ss+fufh0mazib///e/Y2dlBq9UCAMvCJYyqYQsa8HQGtO7uKZMa7JR9mh8xm80s8YV9T7lHrsZtFxcXbbcjVhnwOs1m0zZ6oBylY7W0tGRJYiqf42LeN1aGWsysWUUqnLWfqAaheRwfXDPjqAw1/d0nENwXJRLnrYnonqshoFCLHh93HS4SHS9OIoURm5QD8UkU3jOk50oG85C0MsIzPR7y8WXlK429h5K8NKZDARSCZh+DIiT57HAApgy5bprNJn788UdThrPZeUNppvirF00vhMpQd1546hQyzHzcbmlpybbqGw6HVjbhlWG1WrWt/6hjptMpWq2WbSdI/qcypLeuu2fwmqE5unHRPW+odUoAItCDprVr5xlmWmmrIg8ZaoD1S1h0HLDxeGz7wekeYNppAYjGBFXZEV71ypN/a+Ncep7z4o8elqVnyfG7zmJ8XrAPn66Kd3qhr/Fu8h3DFD4VXu/xGEjXnbYI4xiyN+xgMECz2bSenIVCwcqoFPrjGNEh0EQRf88vQZbdB6ni4Rgwz4TKsF6vWxu2Xq+Hfr9voSJFNZLJJEqlEiqVimVEMwbZ6/VsPtlEY2Hhook6SzHm5aDcGMxWL0Y1biKRuFSPQ2XIoCjT/vm9vy4hi5Bnc9+kMCmtyFD87yoFpspQPUUthA41o52X2EA4lcpQA9A8ztNjEXDPNL9mVH9SWGjjCxpRFOLKK96a5rW+lDV5G9JaNq4/Gp+s7ZxMJmg2mzg+Pkaj0Yj0XFao1Yc+WG8YKuV5yGN2W/LoBMeA8pPoRLVaRSaTMc+QPZZ1rqgbuF8i0TDKPbbEo6fOrje6tZUmNN3ZM+SNdT84tZQ08YUJHdpYmPFATagBLmC+6zzwfRE38QQQgVSUfPyG3+mEesXJQmsdRz2Pv3tSxaoCKtSU9pkeN4XgHy+I1dAkSkNPR+M5ek1VGKF7PjQeo6EY5/0yvZ+wJ+PwjGMlk0lLbPPJRryejqkvl3qKFHIW6M3RIVDlSKdgNpsZFMrfCX9yqzPKzZOTE/T7fbsWv6O+YpN1nb8Q3TiblIpM98Li94RKtUCVL+aVofau40trLcqXpAiBi21HOOCapBJnLYeUo/+/eoY+3uOPjbu2H8tQ4fUzPU7yAl35xBtfhEiZ1cc1qmiMPz/uug+RdH0Al9ctG4Jopql6FirfdGw0JqtZ4boOnzp5ZaiKTvswUxaSX1U2JpNJ5PN5a/DNkhYqu/F4HNngYDqdmhPD/8dRIpG4eQINlaAuLnqBquW9tQQg0ibrqoDml6YQaQQkEolILV+cwAi9S+i9gWhi0nXLSBQeJeSsSU3zFHXIg3imh01xc+p5ju3fNG7DWBkQLe5+rLyhUKd+59eKdpcBYO3suO5UuGs8yne3eazjeB0KQcramUZ3TMnlcrZBfMiA4DHcyokF+NyUmf1LeW1eZzQaodvtBhvfA7csrVAtzYuElGGcMPY97fyL+i2bvoT6HD5/yPvVd5sXKwz97aEsD1f568V5lj5W6D3D69BTXqwPnebNcRwsz3VIoUBPUa1yID4W+RiMqNC69IKSyo/GPfMeVBlSbmld9TMic06e/4CL7FCWg+lOH7lczpJe/E4bvAY3hWDVAfVPr9ezrf88jM39E9UzDCnEG2kbQgKmSf9/z5ACmYzhvUK9qWazaVdy7fXJe30ppApR31FjD1cJiFAskX9r4gwXlcYb/HPw/EQimkXqu/c809OhkGfD7z1pXJ8Zfaw3DO2jyOtojP+hkr6DNzo1iQ2A9b5kmj6FuHodjEOFehSH4opPkdRbIyyq4TKWtmSzWcxmM7Tbbev+QwNOw1SMLwKwRi2DwQD9fj/SSYmOy2w2i/ScjTNWbpRAo0FhnWif1g9Euw94Ia4Kkeez0Dy079R9krcYVRn6GJ+HRkOeowbTVcnSOuIkhmI0ei6vSVwcQKQRgJ73TE+LPJ+QPI/6Ho2sN2RGuE+o0fKgh0ghaIzf+/+xh3Iul7Mt5jRGT49GN5cNGQ9PWRFyTDkuVH6+NzMzeVkS0Wq1LIM3VI5Gp0H35mT9J5Uh5TSblzA7dV7s+9bKUDd51HpDtZzo7oZSZL1nuLS0hGKxaMrwSxLkIc/Wf69M7705jRnq8fy/z5iicFJ3X6/LcxUbB3Dj+sKbQKnP9OWSGkvA5Xi1HqcfbZUFwOq22ILMCyJC+Q+VQqEHlVsqZLPZrCVq8FgdBx820dgicBH60MSQp0qUl2xKoNnMiUQi0nmMO9SfnJxYfgkVJlt/zmYzlMtl1Ot17O/vI5E430CYvEtZylI/Xw+uxo8ajjfGO0Lp19qI26fIhlo80cJkmivd31wuZ57lfS06z7QKR+o7egs5jtlDClKVEXCRnMNMv6veXRUs078V/rmqUbcXnk95od43hWIq1/Em/HHzYtf+WP1bvZ3hcGhdjPTZ9JyHTqFx8x9uPJtOpyNhC2/AhmBQ7bCliSJPkeLGWnuLcryZeKldfkIhOeBcuVYqFdvLkNeczWbWKIGepm4kf1Xj9FuB/0zF1uwphUn50KxHVM8FgDX7LhQKSCQS6PV61qlGOwT8VAsw7rpxipB1kHTdNRWY5/kYgUIEACKxCB7DyWb6L5UhEC2X0HP0OWnxcMcQWqpxtVAhb/RZEd4v0Zj0SWmKJvgMZPKNF8IhFELDEsrPtJzZEpG7vI9GI/s/+UPPecjxwhDpeLGlIT0Nbj47mUzMM/E9l3ke1/ZkMrHmHIw1qgd+m8990m2fmTyjvUjZ3EAdKI29hsI8vA4zT1lUz1pDKlWtJzw7O0Mul7N44Wg0Qr/fNx2l78X7ALfoTcr0VO1kQa2sC5U38dbldDo1T0YbdTNmBkT3DfsShDWfmwFYtRTjrIxQrDDu2lq2cRUE66/N51Km8i3h9Dn0Gl/C2D7T5WQOXTdesOi8+jUXssIpiPjxDfU1B4BlU3FoxkOOF4YopHQUtaK3zO80zwEIz5vubvMYINK7PHuorEJ7OitySN5UXg3xNx0xlgNp/oY6X5rZyznRDFW+m6IgN4oZ0urRjTEzmYwpRw5AyCpVL3I8Hl+qReTxGpugp/mlLEAVIld5lrrAQt6dnvMY4ahnuh5pnFiNG0UFCPXQu+AxXB++CFwVof4kb2mt8FOjuLiqyiptV6fIVpyHrR4QDXnfREPvfZfn/rlJUYabku5ORP2gcp1OALuPEab3eSZUpJoFDSCSyatKVRUrr+H7yYboxh1oiL1yESt8AFyuo/MWKl1adY2ZGruzs4N2u23/54t7jf5zU5yl4t9TySu0OOhDx0YF1rNCfDp0lYHklZv+HeoRrIJahTX/p8lrz3RO3njV0Ijfto59ir0ApnzTzWsTiYtewbel+5R9t723l2UqI8l/auABl6F+XseX+igf++Ql3keVnyIi897nVjvdU5FpvYguaC4+1coKfWoMMZPJIJ/Po9Vq4ejoCC9fvsT29rYxEFu03dcO7p7Z1RqMU1hxHqE3EPz4qCB7VoZPg7xA4PxTKGiXDo0r0hMZjUZ2Lcb/VNnRoGQ9YSKRsFgha4Sf6Zw89Mw4Kvsr0wsZDAaYzWaoVquWFUlvmzEsfmjw+5yBh0S3VYhEOzT8NZvNLuWGqEPls+mVd713qa0Febw/D7jI7OXfce9z49IKXbQ+BhGKbShkwA9jhKlUCpVKBalUCgcHBzg8PLQNHqnx7ztg760MTkJI4XmYVGmet0eBCFy2fp4ilPWUyHt8quhC8T8gmmTjIVLgsoWtmY/A027m7tdrKNbP8aWSY/yPRgSTMYCL9arwqsaxfNbpUyKVYfSYgWj5HeN52us6FDIK1WyGoO1QuE5lOM/T6/MZb6wMNf5HxeYXp3qGHj9nJwEqw2w2i9XVVUynU/R6PUynU/T7fSt21dTZ+yCfhBCKY/oF5t18HqPCKRQn9cc90+MnD5MDFxnIPlvZx6zjNnGmkFErmRa5rtNnHouSj1FRXgEwJUfvmzKJddFM5WfYh5nehLH13Ns8133SbfnEx611w15VhGylxvihFs4rbzM8pxRShipjFV3h36HxTCQSN1OGvqSC8A0XpfcKqYl1U19Cqt5qSKVSKBaLmE6n6HQ6tqHmVZDkT01eWGkQ/Somnfd//Z/3DJ/p6ZBXfIq2qNehHqB6G7reSGpo+cb4VyURPHaa9+4apvB5AWpknJ2dRQxiCluWZWhcVhXsXeJvD5k4pjQGqAzH4zFarRY+fPiARqOBZrOJwWCA8XiMg4MDvH37NlL+k0wmrTifzgO7zHDzZc6BX1ceweRP1Su38gyVObRbhU89JhMQ76VHqJ4js7WSyfNdjLvdLtrtttWRKOZ8X6QwlR+D6yrEefFFD6U8W+xPh3y2tVrQqgwpWIGLdmCz2UVht+cbtZgBXOrLeB3efWx0ldGpilATj3gu8yU09kfvkR4Ov6PwV6V6l/jsfc3VXZS48iS9aIUsR6MR2u02AKDT6eD4+NiyST99+oRCoYBKpWL1hOxSlslkIo4WN2QeDAYWz2W9dgg29c9GupEyBMLlA95jVEhxaWkJhUIBCwsLhr8zOH18fGxQa6/XMyye19F08/tWEj4uqt/xe3/svGuF4NQQvPpMj5sUcdDuS6oENfSgMCcQrXVTo00Tsrzy83Hvp0yhOBQNEs4Ne7ZWKhVLmOGmv0SvNLOehr4vkbnLeN+nMrwr+Zg4cK7E8vm88XKxWIz0K02lUtjd3TWDj9+3221bJ6enp7a7PRUiG7go3A2EPUNPN1KGIWtSg8cKj1Jzp1IplEoliwUyM3Q0GuHw8NDqSzqdDnq9HrLZrFkC3LVYiyjvg0IKywsX/XnVNfS70LWequX+FIlJGgq7ee/EG52KlOj/NSnBeyFcl6pYn6IyDBmwfhw0O3Q2O+9gwp3udQ+9wWCAQqFge+sxs5FePPMpnmqMVmOF5E0aDul0GqVSyX7PZDLIZrNm5O3s7GB3d9eapWurQMphFt+zqTpbsXll6GOIcXL1xspQLVlNZ/XBfgD2wGxttLCwEOnQcHJygmKxiPX1detWfnp6eqko+D69wpC3ph6wHncdikuGiLvXMz1uooBdXFy0+AjLlYbDoUFH3NZG087VEwRgWzDxQwHNdVgul1EsFi2b7ynyWMgTBKLrksY8e5SyhRhbfjHZ4/j42HbboaEynU4xHA7R7/dxcnKC8XgcCSU9FVL0QstOMpkMKpWKtU2jwioWi1hbWzNomeO4vLyMzc3NSB2n7vJDyLTX66HT6WA8HpuxqHpJvVNP/O7GMKmPbfl4hc+KYy0h4U8NNs9m593HNzY20G63I93gQ6mw90VxnuE8gXIdQePfK+QpPtPjJi5YlhLRs6BCazQaaLVaODg4QKfTueQJUtCwdVi/38dgMMBwOLTEglwuh0KhgK2tLayvr6NQKEQScp4KheQVx8DHUpntns/nLYGDmfDs4dpsNlEsFlGr1UyoU4i3220cHByg2+2i2+1atuNt6aHBpAyRaa14IpFAqVTCixcvLHZI/i8Wi9jY2LAEmcFggFarhdXVVWxubtq6YNIm9Uk2m8VwOMTu7i4WFs43BtZEHW0Go3Pt3202u2FpBS/g42ZeMYRq5RgbnM1mps3pPmsvP235Rg/0S1GGSvOCsX7Q486Lo2dl+HRIy2qAy1Z0uVw2AVGpVCLWLs/n+hoOh+j1epcEMNP92cuRQuopeSokv05DSA3ht1KpZAkajGklk0kUCgUzNBjPIpSaTqeRz+cjyYHD4dA8/tvQfcqCu8Y5VeGRp4vFImazmWWPcuyYCcrETO5g0Wq1zEMfj8dWleD34VQYls/uHRdv/PB34Baeod6EF/I3UoxccWMqONbmsHB1OBza7yy90F2Q73PRzkuMiVN2d8nACl1fA88/Jd230fEUSWuggKgyJHxULpctzq6xRW+UUhl2Oh202+0IDzLJgLVwwOWMynnzH4qRPwbSriQal2XiXzabRTabNYMEAHK5HGazGbLZrCV9sEk0jQ713O+qDPl890G3nWsmEE2n08iGDoVCAaVSyZQZjYbBYIBut2uQMtvg9ft9NJtNg/1ZoE8YO5lMGorCkhdffeANnpCzcmPPkG4nX1T7vfnsHR5PbF09vel0ilKpZIOyt7eHg4MDNBoNi2tMJhO0222USiVks9lbTchNySsxn9Si0C2VtPYg9NdSUohVvd1QA1n1qn3nEK1DU4NEU+/jYq0e7r3OGDzTT0vkBy1L0nlkggEXv+9+pMowk8mgVCpheXnZUBjgwnukR0NvhdfQbiq+No5EpR0SNg+FaJj7OCEQXa9aMsY98Wigs6k0lSbhOy1jOT09RTabRbFYRL1ex+vXr+/UD/YheoYhjzuZTJrHvb+/j1arhW63i0wmg729PRweHpoh0uv10Ov1jPd9IhljsPv7+yYTCZumUin7zstr9Rb5nGYE3XRgQkWMelH9Gzj39Fqtli1sKsNsNoutrS0cHR2h0Wig3+9jOByiVquhUChgMpmg2+2aZfZzUUgZ+AxPHUDtlqDvHZcI4zPYVNl5JeaVF+M8oXto5lRo8Xil+KzwvhzSBa68RgHKDEafPKPGJwVGqM0avU02v2B8njymjZCVx0LKkM/5UOk63i2VIeFlTQQhTEclqJv/qjIslUqo1+t2rjdMnxKpQqIjtbu7i263i+FwiGw2i06ng/39fQCwpMtsNhvZi5CVCMzaPTs7Q7PZBAAUi0UAiGzo6zNYdQ7I91xnicQNO9DQO+KL6d5UfEmtz9G4YDqdRr1eNyVHS3d9fR2VSsWKJIvFonlEoRTx+yKPP+t3N6E4zzNOmXorJnRfb4U91UX3EOm6POTnmN9xQVMZeiXGRa+1v96o83GV0DOpsfWQSZVTKKwDxHuMrGtjezXvbWi4SMtctNXiUyLPr+pIsbogn89jZWUFmUzGajfH4zFWV1fx1VdfoVgsWneZ2WxmpRSz2Qy9Xg+JxPnm8CcnJxY39DXv88JsOie3UoZqtaoy1MlXpjg9PTX3+OTkBJ1Oxx6yUChgdXUV7XYbh4eHWFpaMstMO/XfN6lndtu0dB9PDCnD65Rr+EXrF+9TW3SPga6C2T0pDymErzymnp8qP8+7hN9pfHooic/zJSSz3YXmxf/jylVIlGNM3iAaFCor02voxt0PeexuSiG55MscmKi0urqKTCaDfr+P2ey8rrNWq+Ef/uEfrHSFvEt0g9m8LGHpdru2g0uopEJJ14caj7cuuidcol1iNJ6l57ABq7YzAy5gh0QigcFggE6nY9AEs7g0Lfe+mInPrPHSeXG3eeTHhovK95AMXTsEj3qhyP8/pYX30Ml7cvNg7Hmwu0LvHrr3ik2/1+PijM/HoAyBcFOLkHGpRKVGiDS02a+/hxfIT63OkBTiu0QiYRvDF4tFLC8vY2lpyRJlBoMBMpkMCoVCpPm2KlQdX9bknp2dWQKT6iUef9W6+izt2BRmCXk2WiyZSCTM1T09PbVAKTU7z9cModsqns9BvK8qrKvgW/+8fgK8AtPgux+/UOwxTig9xwEfNl3HG/RxYuVPXiNOqOt1VPHFWdF6v8eiDEnqKfvvPVER+tpnbZfnYVf/ue+s+PugkJHBsWAsnApxMpkgk8lEGlAwK5fXUjia12XN+nA4RDKZtLpQwti8pzdaQg7DreoMFRMPKQV9Ye24T6y9VCpZIX6z2USz2USr1Yp04PDQz30SB5PPxRGVISQAACAASURBVMxYr/DmCYrQO3hlqDD0da4Rsmyf6fFRnGJTS5mkf6sA8dej4apKNXQfz2OPRRkqhZAWVXCsg5vNZpapqLJK44ZKHj17asRxiXMeFOLXDaxVd3jDTUNy4/EY/X4fvV7P9sAFEElsIvJB5TiPbrWFE1+QL6H1MyFrSK0ips6ywL7b7eLw8BDJZBLr6+uRgSO8yrTZ+2AofRe2W/LKMGRNz1OO/n8cE+Bylq4+g/cGQn8/K8THRVfNp+e1qyByDWdoUk2c0gzx3WOhOHRFQzksqB8MBpEaTf7u+8eqh6ieEP9+KuQdBT8mcclGVIb8hLLtSZwbIoiKTGouSzKZtOxffy1dNzdWhgxgKobu3U/+5IfWEV1gDoTGEdfW1rC+vo6DgwMcHx+b+8v+fvcJM4Q8w1BtISmkCNXy9kqU1/YZtHExQK8MNSVfLf5netxECxm42AncQ1JK5CuGLHxiTWjvUB9bC8WAHiIRrQIuv4eWj7Amk8owlUpZqIfKkNdQ+cQkwFBM/6kQ+crXYmvITGVbKL4XMv5ZyM/uP6pA/V6gRN5YcqH3Ae6QTaruprq22guOD+0FOQV+Mpm07Cr+nU6nUalUsL6+juFwiGazGWlxxO4D90l0vb1neFNoNO7ai4uLlrbtYz66cD15PDyUxPRMD5eu4i8ubC2tCF1DhbIaTJpsE9c/86YhgS+ZvDL3Ssp7eGqUc937XdVJWgwOwAS+XvspkdcD5E/KJ21O7+sx6RhomE3nyxt0fk5UhrKht/cMvTK+kTJk0JMPq9tl+EFQ70RjiMBFGzYWArPtEbvD0+NMJpOmDHO53G3m47MQFQ4x6JuUfIQgT/0JXCjDk5OTS6Upeqxa8SGLHnhWho+R4owubzT5nwAMaoqDnZSPfMswLcB/yAqQFFpT+j9+rx6MZpKy96jPDPUIj0J0pMeUfHRd4nhzPNikhDyYTqeRzWbN46ZzRGeL482mE9Qp/B/rCsm7mkmqoQAqQ6KaNAYvGTM3eTm+UJxFpQPgFWEEm5W012QyaXUkg8Egsneh1uncV70hn9tnk8bFDElxFrr+JClMqklDKoS8ZU6iRc8xflaGD5euEx/U373A9ceFQhYhniWPUfD4e8x7jodOXlZpRx9CnZQ93CLLw3A0YHk+jYrHNE53JeUljpe29uN4A7DvQwYEx5sVCOPx2OZHPUBuncWuSTRieI3Qurl1o259wdCioRL0nR24EaNCPPSKGCvMZrNW3EqFeJ/Cne/CmOG80oo4y3NevMXXMNJyobEQYgh++Fw60c/K8GGRV0zz5s4rwTgY7joKkcR4DreQ8uc+ljihJ8ogrjFFryhzuHEAS8FOTk4AIGKwU1bxe0J/vnb4Ka5Jb2zoeJGXaGQwY5fF+HGlFaenp2i322g2m6YMaYxwb0kiiryPxgz5XJ5u5BmGYlm+JREfnN9rg1oyDDcc5W4VWnqRy+VQr9etoTAHSbe5uQ9SzPtzJ6iEru0hLy+YvDX77Bk+bAqFGubRPOXG8+M+oXpCABGYVJGPx6QASR7J4ncqi9Tj03FZWloyWA9ABL3isT6p7amuRz8GGq/mWGtMNpk839uQOgKIhof43WAwQL/fN1lHJyKVSiGZTEY8Q87JVQmYN1aGWgSvXomvbwr9j9YWMWC6uTwmmUyiXC5jfX0dmUzGOgsQPr1PUov8LpBtSIDx3f3CuSq+QYbSDg13fb5n+nnpuh5DSPlpCMLD6OQDTTn3H+Ujxl0YV9H7Plby602Vod9RXXenYKxLG3MrnKqxqKesDLUCwNeM04ifzc63HqMyXFpasi3LQrxKx4qbLGsZ3nR6sa2T7xZ0Hdg6VhnOO5GLjYHlVCplXcO5DxUHwzdNZSCaVoDH3o+OjvDu3TscHx/bINHl9anKV5URfE5GDCkxFWS++473otWA4PG8LhcPM9e0sa/eTxcbcJGtRmtIM6w0/sH785px76fHPdPPQ2rE+N0jgCgPe57Sa3iEhvOphfW6ZgCYd6MZ25p154vy/fM8NNKxmQczp1Ip5HI5TCYTdDodk1WMB3LcEonoRrQMAxEi1TX+mI2KEIXCRPxOM0Ap+9iNDAAqlQqy2WyE5/i7IoUsezk7O0OlUkG5XDbeVRmZTJ5v7aRzEkLi5nqGcYKfF9EMq2q1itnsvJO43x/N4+v0CBXHJST67t07/L//9//w6dMn29ZJ6w29ux3XBUef+a4LVxdOiLHVkuRxISGmCkoFDceJMQnCLd5YUCsHQCQ4rOUuCtfwXA8H+Tl9Vob3Q2ogqTKMUz4hvuI5qgxVGPD/ej7jK0tLSxgMBhgOh0in08jlchFB7+tpH7IyBMKZ2X49p9NpaxHWbDYtTsjmGNolixCpwnG6swIQ9RTvgzyq8HN8SF52csyYKMmx5P61s9ksogz9tU5OTqyhNwD0ej1MJhOsrq5ieXnZ1gCdMJZn5HI5U4YhpwS4ZQcarenQhcv6QVpIPluI7djoyXBR0ePjzsadTgfD4RCJRALlcvmSIubgeopboHdlRIV9dRsXvd9VkJX+HlJO3mrVa4f+5j1UyCm087ne/Zl+XtK55d/XPc+T8iT/Bi5iXCq01bD0NV/6THEG4UMiv3Y4RkRmRqORGe3cmPz09BSZTAb5fD7i/dHL8ds18TvOwUM1Hu5C/p053hxj3XdQvWjNjqdMo74gPNput9HtdnF2dmYb+moTBI1Lsv8pk2s8akL+vpUyVOtIvT56hEC07RpfmNZTNpuN4OzEdukZqfZXaJSki9Rbrv7vz7Vo6eGenJxY4o/37uYpNX3WkDL0XiCP1eO996b35PheBR0/0+MibyT535WnNHY/Ho8NElX+mUwmllGqhhYQbaDx0Inv4rvGUP4Mh0N0Oh00Gg3bXadcLhsUxxiiwm0KlwIXjRAeMupyl2f2MCfHmuObzWYjteratEATAomAET3s9/toNBpot9sAYHrG56coAsJ+2Jp175/1Vh1o4pTheDw2xtAEGio1/p+7FJ+enpqVxcEqFouoVqsYj8eGB5+enlr2UKhLPMl7aqHfb0uMI3Q6HSuOD3mGnvxzei9PYVKOlxaF6nt5iMcvtJBn+EyPm+YJWm9MkT8Z3iiVSpGaOJ/pF3fdh0x+/fnEv8XFRZRKJVSrVXQ6nUg93HQ6xXA4jCg5etQ+wY9ykPLqKRqolEPkJ1VUhEkBWA5JCHFQ+TibnSfbdLvdSBcw5qwsLS2h1+uh3+9fKnXhbhZ8HiXO1a060GjHdk0h1n0LFVKldmfML5VKRWpNNCOyUqlgPB6j3W5bFim7k/f7fetUoy/iYaWfAsZJpVLIZrOYTqcYDAYRL9hDR/Pic6FFoWPFRafMoh4o/+a1VWiRyZ5LK54ueS+OFrXyJGPwAIzvKLB9xp9HJR4y+TVIr05h04WFBfMAR6ORFXCfnJyg1WqZMtR17Xez96jQU4ZJPT8BMA9aFRx7XHvZrU4VE2aY1ET+TqVSKJVKSCaTODo6sjgiAMv+ZcxQn80bkjdShoRIVACrC+xfXhWldnPgsUylZdeL2WxmWanHx8cYDAYWBB0Oh+j3+ygUCpEUcB8TCRWp35USiYQF1Zno4vc24/P7cfHxGh0rn/DAtGDGdDRL1CtDfVe9jodgn+nxk4ejQt9T+PjEMwoTzZD014i7/kMjHysELsaGmaOHh4cWysnlclhZWUGr1bISsFAPTBr1uVwOmUzm0n3vey1+DqjztveMCxvRsQKATqeD0WhkMdlisWj5GZRvo9HIYOtWq4XT01NLVqpUKqhUKuaMsfIAwKUGCKFMfUNObvKC6sHxIj7dX5Wh1s/5TEdlIuLvs9kMuVwOy8vLFvBMJM7TbofDoWWWKkTpF+5PoQyB8wyzQqGAhYUFswRDcb1Qpp8+H3/qRxeZKkMe62FW7xkq1h7nfT7T4yTPU/574HIZkvcAtVxgXmHyYzGyVE5QDo3HY1OGzWYT/X4fS0tLqNVqlq2tO++ElGE+n7dicTWM9edTIUUmfB01cOGxTadTdDodi2EXCgVzeDQTejQaodVqmTIcj8cRSJu1iXS6KD+5u4hmj4acuNnsFjvd60XJRLPZRfYog/CERENWpodGE4mEYcGMY6jHqLBfXD1ViBQOuauCXFpaQi6Xi2xhpTAvBYz3BD35/+ukaEyHPRBD1/HKVhcqn+2pLb6nSiEeiUMJNHZI+I9Ws25J5JEOryAfuoeopPKk3+9jZ2cHw+EQ7XbbDPJOp4PBYIB8Po/l5WWD3BgzpAdTKBSsc5bG7Z+qceoTrXxvV6JejAFms1lr3M3xpWxttVrY29szL3IymSCdTmN5eRn1et14myUZjPcWCoVIv91QGI1r5cYwKT+qDAFc8mxUmKsCVKhCE2xGoxG63S4ymYzBNul02iwv9cKuowj54p8j5jGbnbdg0nglLRAtE5n3DKGx9AqNzMPUY+8RhgQcxyHOeHimx01XzbOP/zGpg3A/d4cJ5QCQQmEA/f4hksoEheIajYaVVGxvb6Ner6PX62E0GqFer6NeryObzUYQr9FoFPEM1TB+ykiN1xfsCgMgogzZVo1JLirbqUuOj4+xv79vNeqUySsrK6hWqwb9E6amMqRBA8RDt/zuVjFDXojJLYw90KNjwJkeo344MIlEIlIsrscuLi4aZj8ajayUgUpRFUKcovEve1vS5BW+H63q4XB4qd4ohEWrQvaxP++y07Pzeyb6idPr89nYAF272DzT4yXlLYV7QiU65FHGWlKplAkathbzCIoaoMBlyP4hEuWPb2yxtLRkMN1oNLKsxEKhYII3l8uhUChYfRzl38nJScSr1uSNh15acRdS/tE4tZZP8DjKvG63i8PDQ2ss0ul00Gw2sbu7i2azicFggNlshnw+j2q1ikqlglQqhV6vh16vh+l0asqzWCxidXXVtv/zstnTjZUhPRgtmdCOJ7Q4h8Oh4ev8PtQiJ5FIYDQaAUAEj89ms8jn85ENflUh8oV8Eos+6+eIIfIeaj0nk+e97waDAQqFQgRGUkF0HatdPUq1luKgTq8cVRmm0+lLLd2e6XGTh0BDsCiFtO4TypjM6ekp8vn8JWX4WOKDceQ7kVDhFQoF2yKI9XD8XyaTsVo1RcZOTk7M4OD61VjZQ6a7oGqUbT5e6ENk1BmTyQTdbhf7+/t2zt7eHg4ODqyagMZcuVxGvV5HqVTC4uKiJVjSSel0OiiVSlheXkY+nwcwPxnsxjApoU3tIqO1bWQuYsOEPH02D3v95fN5e4nFxUVUq1XrEpDNZlEoFAwjHgwG6PV6loarXeP9og3FKe9CqliprNkYQLNjPawZ9zwk7byg5RXziufjPE9mVtGTflaGT4M8f4f4kLzLel3yLHmEaExonYSMzND3D43UYGAh93Q6RbFYtAQMdsTiJuQAIv1/uTNCqHxAFeF9GxV3uf9t0YAQPKzxWf5/aWnJajpZUvfx40czMvb393F8fGx6hAbLxsYG1tfXkU6n7X7cBrDT6WAymSCfz2N7exvlcvnS+yhCye9vBZPSC2GsTFvmMGbIuhGFFnkcg59Uhp1OB5VKBblczs7XhBUApnziWqHFPe9dSZlbuxyw9pEtl4BooNwLJQ83kXzMUCHXkHWuQWWvDGnta7f2Z3q85GPncbEpTZihoaRlObo7u7923H0fKoXWFDMVmdHITY5ZZE8ZBlzE4xX2A8L9P3WdPlS67bOHDDKOCcePcr5WqwEAWq2WQZx0fhjDLZfLyGQyKJfLWF5exubmJlZWVpBOpy0OORqNcHR0hE6ng0QigVKphI2NDSvXI3n5y79vnE1KOJSZi3wxZQpmWmocUWNh0+nUPJnDw0O0223b7Z6eH6EJZrkxUO3LKnwh5V3c+rj3VWuCypCt46h0vCL0O0fExf/0HhRKFFZxUJX+T9+ZZR/PyvBpkOevON4nf7FeV+FTojxaP+zP4/X1+4dIKqs0I/3k5MSKtTkuVIbj8djyFxKJRCTdn8YrlaeHRlVpPlTI9C6K3MPulHuUT0T4VlZWDKlgDTflYbVaRalUQi6XQ6lUwtbWlilCQqTsEjQajbC3t4der4dsNotqtYrV1VUUCoXI+4RCZ1fCpCrcgWhvwnQ6bdlohBSWlpYwm81stwkyFm+ugVIAlkKre13RPWatCYsvWffD4LQf5LgFelflqMqLyp3t5FQZ3hSODSlG7u7M9kQ+KzTO0+Sz6W4DmtDDMb4OebjnIZKHZrTDCv9P4URh9Tng9NuSGpUh4ROysnkef3J9+XPUayT8p4pAi+7jIFGVA2oYPkQKKXXCc8wapfKi0U9lyF0+aIyyixZRGfJZaM2qYXubsbvLuTfx8ENKQn+GjvGOQIgvqQs0Y/7o6MjGlTqF48QQG+VXoVBApVLBxsYGVlZWIqghn4GF+ZPJBIVCAcVi0fRICKnz7xirDP0g6GQwc5FY+2AwwGQyMXe00Wig1+uZVaWLajKZWG9PxgZLpZJhv1zQlUoF6XQaf/3rX3F8fGwwxq9//etLBa+00jzD3bbOMC4uorFMDr56gCFPlT8Vn6aBoKUoAFAoFHB6eorDw0MzGrQLvlqavA7HwXfHoOHhy1N87Y8KuJ/Cs/65SI0KhZ6JTNCbJ1+wdEeD8p+zAXVosYUUHRWS3xdv3odW82w2M+Wm23X5OLSGMsgDiUTCMpYzmUykXZVfQ5oPwGf4HLW7PzdxffoOPGzz1ev10G63DX3K5/Mol8soFov2e6lUQiqVwunpaaRZdDqdttARW91xjCibfN01nwm4fonMdd9Tf8b97mFd/52SGlqeF4gExrWJpLyisZ/L5dBoNPDp0ycsLCygUqnYGFE2MlmJ321tbWFlZSWCzBFhZDIjt79bWlqKNG1RQzPkqVL+3hgmBRDR4tzuhDUehEQHgwFarVakMJ0biHIRajIOF6d6mblczhiMsUVuHswBVsWgL/m5yFsT3OWaVqSvgYyDQ0PWorec1OukMiMzABcWmE95B6KCn54glaGHXEPMHrcIHhJptjIXBbORufWONyrIm3d596sElfemPC9oVw5mMlIYaPcMj4Lou8QZMioMNNFN14ta7CH+0vveBTb70ojvp9svzWYzS87LZDJmYLJRPzNvWX4xGAwAXOxq45VO3Jxfh9fi5oD/80aSXj/0k7/rx3cl8l4ecIEqeMTJfyi/FDbW/3tDnYlJ2Ww2wuusJmCpWDKZxOrqKiqVSmSTdyoxVYbUHWyAwPcIGSJ+TG6lDCl4CcnRMlAFNp1Osbu7ay3MFhcX0e12I56MZpmyHIPeFrNRK5UK1tfX0Ww2MZ1O0ev10Ol0IvehsAgpiLsqRxUynPBMJoNut2vF8dq0m8rfM63/O475lAFVSHKseZw+H4WbQjXKcKFYhbcEdQz94noIRJ6cTqfW4D2dTqPdbmNvb8+sUnrcurt7Lpe7U6JDCILxfKfwmX7P2Ekmk0E2m8V4PMbBwQFevnyJarVqcBB5THeY0HtSSIVqBX0ci+vRx7b0feaN80NFD3Se/DjROM/n86b0mOlO1CqVSkVKK1iqosYq1yHXpO5oEfLY/FiHlIxXKqog1chReaLKTr+nTGB4izKM64HvpDXdVDbcBFqdGfZsZhnD8vKy9QqlgiNx3LrdLgDg5cuXWF9fx4sXLywEpvkofp506zxdB0wMY74JG3PrdUKGpI45cAvPkBY3lZx6cxS81WrVvKZWq4VUKmW1OFQmtBwYrKaXyQXNCSoWi1hfX8fe3p7V0DE9PMTUXiHeddGqNZxInDfjLRaLODg4wGAwsPf0Xl7IStSfXpiFmJ/jSnc/pKgUttLNLeNg1pCg88/20BQhEE3lJnJBgd/r9dDtdtHr9SL1mBqTvYsBcNW5cR4VFygTxFg43Ov1AMA6nWjSBklDAAAiXm7cuKhgVlhdnyWOPz7nmrpv4lho3JjGhq6hbDYLABbKIF8BF95kIpEwBerXfNz69sYyj/Vjz++0vjqk+Pi7tsKkXNaaZT2W3/M4KkKV51xLDAn5DjJU/GqEq3zzcLS+ezqdtqJ57m/LEjt9x0KhgGw2G0ED9T7MW9HcFfYs5fzpHPiYrs7BtZWhCuJ0Oo1arYalpSWcnJzYgzDxZX19HZlMBru7uzg+Pkaj0cB4PEYul7PsIMKstMY42FygLF3I5/PY2NjAzs6O9bDT7We8+/tTLFSdxEKhgGq1itnsPFFIXfO4e6unoJ4hEM1u4mQRLuOY6P3jIA8yJoUhGZwxVV0M1wnyPzSaTs93wWZcF4DFAieTCdrtNj59+oS1tTWsrKyYRcyFDtyed+LGbZ6C4XdUzo1GA/v7+7aZLGEl3e7Gx//IL/zOw5368dt7+XgqyT+vV4QPmVRQc3smem+ax0BDfHNzE8vLy2i328ZbRB8osFOpFGq1mnVC8WNM0vihZp3qM/GaGt+dTqfo9/sWIuKzMeNeeYz5GDSoWIqmninlC396A8rLFEKe7BnNMFE+nzcoX6FkDXtpHFFjgvl8HonE+aa7zJE4Pj7Gp0+fsLi4GEFqtre3sb6+bspWEQ0qQk045JxUq1W7j59/vqdHx25VWsHNFBnLo4Dl5NGipZBhm5ylpSWsrq6iXC4b7r6wsIBqtYpGo4F+v28BVr5ctVpFvV639Fu67QoP+pfj36FBuM378nqz2fmuGuVyGYlEIrKLhvZ19M/gn0WDufzwXEIPZGyOr3ZsCL2TXoMLg3AGMH9PtcegDLmovQAqFot48eIFxuMx3r9/b2PCRa4xkNumvs/jtZC1z+OIhgwGA+zu7uLDhw+YTqfY3NxEuVy2lmkU0lq3pkJVBZhHDxYWFiItDdVDJEoT2q0ixF+PhVQRTCYTDAYDNJtN4xfCgclkEqVSyWBDyhrWPKtRrkkdoZg+50TzAeiF0bNR70ZhSs6fP05loGbss9RAe6Xyvam46M3xJ+WXKmgqQ3rLVHSE9LX+EohWG4TWEkNKNEAODw/NQ202mzg6OrIYIt+dfWJXV1dRr9eRy+XMKOQ1qfDJ86lUyurWQ8ad/5tr6EplqMqAL8iC+UQiYRk8hFuo9HK5HNbX11EqlSJMUyqVUKlUrLtDMpnEysqKZaSyLykt5JWVFeTzeayurtoAhHbE0AkPCfW7KkQyeSaTQalUsnfnBHPrFsIKV8FNqgw1+E4BRUVISNhbcSErh4zMRccAswrNkLD2XuJD9Aa40IGLBBoAqNVqyOVy+P777/GHP/wB3W4Xg8EAL168wObmps3XXbIjQ+eFPPjQ7+12G/v7+/j06RM+ffqE169f46uvvkKtVrvkaSiiwLIk/U7vxzW5sLBgMDFhPQphQlA+fviYFSFwkRVOpcN+mKVSyRpzc91RltF4ODs7w2AwMNidyIMqJwCmPDgXXI9UbJ1OB51OB+12G51Ox/iS8kSFu4ezeU3zaCTBh+gbk1LII+oVUonp7kB+w3ZSKHTiE868ca/yRuFSxmCJqu3u7qLValkbtclkYsqW5zDv5De/+Y3F/Qml0lDwypAQrCrDeTx8JUwaB+8A59BOPp+3XRIYYKXQVoZj8SqJsUIKbNbxEH7w+Deh1EKhgHw+bz0DuaWKbgz8U8KlCh3Qokomk7YwtHvOPE8hLv6ijERrjG3taCRcNaFUCBxLPgsXQchi5bvFPe9DIcZ9/CKlpbm+vm47ZO/v7+Ps7AydTses2Lt4xHFj5hWgV4QA0O/3LT1/dXUVa2trWF1dtY4xRGL4Pt6gUk+T36l3wuQbFpQrbzBj0gu/OOFxlVD50kkNB3rZg8HA+rVS0aVSKSwvL1vPSxroVG4am2LHGt1tgQZHv99Ht9tFu92OeHVEA+iBEvbUOB0bIdA7YzKK9+L44TlE1lQZkryy4nn80CgKweYhB2OekefRCgAW4tLQGhNwqMj5fpTxR0dHaLfb2NnZQTabjYxNInGxWYR6y6lUKpJNqu8+j+Z6hqoQdbGpC064k1tmsP6JliknkUykUAEAYzS6vtpBRS0OTm673bZWPSyo9NCQt2Y+9wJOJi8KlQeDATqdTgTG9ck9cc8W8l4VmtAEHTUodF68xUYLj8pBlaGHWb33ot8/NLiU75tMJi+19ctkMtje3kahUMAPP/yA7777Ds1m0/iKsLT3sG5CcQZGSEDo9xREKysrpgyr1Sq63S6Gw6EZlFwTKgR8JjXHQZUh4469Xs8UKwUHx+YqiFSfN+7/D4Eoe6gQiE5NJhNL4+90OrZH3uLiojV8LhaLJsfohVCAM36mY9Tr9XB8fIx3797h3bt3pgTUU1KPjbKSBf5UaFSE/J9+tMhfZaXCoVzzyn+aeKPfMTmG5NEm/z+fwKMyROWMdiCjIcDt71ZWVvDq1Stsbm5ifX3dPNlms4nj42P87//+L/7yl79gb28P0+kU+XzeiulpwDBuSMSQzhPRuusiXTeKGSomyx2Jc7mcYbsHBwcRFxW4SGxQIcCBI9TDFyD0OhqNLFg9GAzsZWjpENpgMSwhBF7/p1isVFT8vVqtolar2R5oL1++jDCdQgnzFAuPVyjM90JU40HP4e+kZDJplqGmGuu1/b0fC1Hwc9GRz9iCLJFIoFwuY2trK7KQSZ/bAAjNu78HrdhsNotKpWK7qtMA8h2IFCZX1ER53itdjgfLN7SLk8Lz89bNVTz8UIhrmLwxGAxweHho3iAhTOYx+MxbGiG6XZCP2ZIWFhasNIxK0EOJ6pER0WEsmwZxKK6nXlwcUkDnI3SMjoc3rP3v5BU9R3/GKUBdY/q+TAg6PT21srnt7W2srKygXC5HDBZurDydTnFwcICDgwODVTWeTmSS5VS+U5B/vji6cQINhTWVYT6fx2w2Q6/Xw97eHhKJhO01xYzG4XAIAJaWTIiBBeG0UkulklkPnHRaEZouT4irXC7fyZq/yTv7mEqtVsPq6iqazabFN5V8tlicl+oVoVeGPo06ThGS4ZjpxbiH97JDRJS/UwAAIABJREFUFp6+10P1DBOJhCULaEyZViP3qnvx4gXW19cBwPiWAvAuCTTzPKeQICLR4qcQZJyYSWKce16H80Nl6C3f0D1oPbP2SrccCnXd8QJE+e2heoXAhTKkZ9bv923DWIYlBoMBFhYWUC6XI7JHPfJut4tOpxMxWH2bSHZBYRIO51cTUTRO5+dRx5m/a9KNyhtf1qC132okhj5AtGTHe5C+qUjoOdVI0/95A4BOC73xarWKjY0NbGxsRNCcs7Mzk2P8/b/+67/w9u1bQwaZZEMdw5wTes0hZXgVb1wrgcZf0Fsz3PRyOp2i0+lYTSAnW6EYn+bLAU+n06jX62g2m+h2u/ZCTFJhESeTS9gGjhOlykqf9XNBpXo9NpCt1+uWBcs0fS44n5ARUlx6TRV42iuSgoxetCdel1aqBqAZh/D1dMrI8xTkQyLlUwov5a/ZbGaJXKpkGPO5i/LXRa/P438P3YPCkKVEPJ5tDMkDWi9KHvHQuf7O87S5vcL3GiviO8QZA4/FM1RUikZ4q9XC0dERGo0GlpaWTM5oxidDOQAiGd6lUskStLTtIcMTCwsLhl5pnE7LG7z3FRpnbwCrYgEux/X4fqzfjruuv4fei3/zPiEjXu/PnyrXNPuZHqHfk5DwM4BIYwmOfy6Xw9ramo0h5SHlmiYaJhIJrKysoFKpXHJe4gwNpWt5hroY/IQS3mQKcrfbxc7ODgaDAer1Omq1mu0OzaJ6fTgu2HQ6jeXlZRusQqGAVCplsUj2Ks1kMiY4uAeZvqAqP07CXTIF/eCRESuVCpaXl/H9999H6nk4CV6wkMFC1pW3oKgMARgMwNTukGBS4U6oRQUhx0ifwWeXzhPmD4U0Tkb+JOTC5AjyLjP2GLxnUsRt7+uNDP05j3jMYDBAu91GPp+3LM+lpSVLsNA5pBLzcWE/l+QBVaRcDzRmVWg8dqiUioc8wqYgh4eHODw8xMbGBmq1GrLZLM7OzqzsgQb/dDo1pGs6nZoMYAMSGi1M5NLkFy0aBy7qCrk+fdyNRLiR+RiaBco50ZpEnuN5RMcgNC4hZchQlecRNSpU3npI1iMZ/X4fvV7PGolQGfI5tQMNFVwul8PKyorpEMK/XK+cD27ksLKygmq1anC4ytWr6EZF9yQOkgZpFxcXsba2hlQqhffv3+Pw8BCtVgvNZtMC0HxxWqMaRGYtSyKRsHoddfE5GWQOWgSavRla0NcdiKvID6x6b5zo4XBo2bLKmCEYTWEFD0txbMnIGvfTbC9lSl1oWu+oTKrPEYJwqUAeIkwKRMea/MPvyav8PyF7rQ+7LZ/cBI4h6fhqXRh5iogI59XHjFWIqhBSI5AtDikMaVipQtXU+8+1Vr5UUiXI5DTdwkqVJeNVHLtkMmmNvEejkXnvjDV6g1TlHFEjzyM65vNKwlQ5aSY+EC21UNLvyPf6P68A9X7KB1S0ni9CfOKP4/1Z69put9Fut01+qhyjY8UxUwNESy+Y/MUxI48PBgOUy2XUajUUi8Xg83nl7enWvUk1sMvB29zcRLFYxN/+9jfLoOr1esjlclheXsb29rY1TKblqpYqB0hjXGq9asBaYyuaxfpTCXK1qglBaMyTsC2/U+WlzxXyDMnwnGAyBplevRYVeKpIvVXoDQIdQ70OjQsPcYTe/0smv4CBy8lFar1r9xHt8nPde5HuogQ9HFUoFOw6uj1QyIunAlejysdtuLO97tZBT1nT828Sd5/nPX7pxLXB9ToajUzuaIIM1zfHhuPJMpjT09NI4Xmv14t0DdJ6PZZShBRgCEEIKUP+VOXlQx+h64RCSP7D70PPp0o3zvNTCl2X50yn5z1J2Z9ayyN4LS3g5/ixnpN5AL7uVr3DSqWCarVqyjCEoIUQHLtnDN/EEm/AbKlisYjxeIyjoyOcnJygVqtheXkZp6enePHiBXK5nNXifffdd6hWq9jc3Ix0vtABq1arePHiBfr9Po6OjmyHY7YmY8E/WyQ1m81IRxy+oMZH4iYrFNfz1kNISHLiaBkCsCJa7Ryix9PioaU5z3Ih47Homl4AoRG1Vv37MUCfz+eti023241k7qq1F2IMVZJkPs1q9eOji0SVjfdgeU7IK9XjeIx6PnqOtihT2J7XUC85ZFWTfzUGq4rBW9o+3uOfPZTkEsc33hvwx/I7Jorxe8ZuKEAYM9Tx0nfnXHPdTCYTQ2fohVL43MQI4D0838y7Rkjw3jZZidfw94yDxEICkaVgnU4n0viD/SwJny4sLKBer1uyBg3ebDaLcrls40f+CrUK41x67yv0bHHv6hWhf/fQ2Ic8NL0ej/Fj5p8tLtwz73n5k+eyZjCRSFi5QzqdtmoEn7ymHmar1cKnT58wHA6RyWRQq9VQLpfRbrfR7/etGQJlcrFYjMTb/bvN49cbl1boYLI12enpKY6Pj83SqlarSCaT1o384OAAe3t72NvbM+aq1WqRRBMKoHK5jGQyib/+9a9oNpvWvu3Tp09WaM+anuFwiGazaXEWFeI+VqiKzscZef84y0YnmcTYHAtFuZuG3lfHS71hFV6h8aVS456R9Aw1LZzvqc8PXEDYtGxpiRFz11iFMogqAs4LM9K0RZRC23ou35nHKSypMRFf2KvKlYKWXhzjCJpwkEgkbEw03XzePMc9r374XPqsHB+9v6/X5DOrcaHjoTwWuq8qReUJ/l/nRPkkFD9W9IJe73A4tDFlBjdr49QS12vo2iDp+3pDyh8Tx9M6F7clL4NC7x76n/5+enpqXspgMMDi4qIlujCDsd1u224MTKhhkTzlHusOgWgHJPIE61xZ93tbdCXuvOuM41XnXnWNuLG8yvgBLhQpGwzMZjPjOZaA0UhXeakI4PHxMd6/f4+TkxPkcjnUajWUSiV8/PgRx8fH1jCBBiJzABQliXsXTzdShup1TafnHcU3Nzexv79v6bKqCE5OTrC4uIharYbBYIAff/zR6kHevHmDr7/+2oSuNnnVgkreV+9N7Ljf76PRaKBSqVyCerwVq5Ov9YJx1jvJeycqnFKpFNbW1kw401tl5hmv5T0NIGpBhb5nQWqr1UKn00EqlbJCYCpVTa/3sY+TkxNrkh4S5nq/kMDylmycoPfnq+dFhqYCVkVLUrhH70Fhrj0aKVjU2+M1rhvzC407+WQ2m0VgLvW21DNWBcr50HHRVHyv/DTTVa8fOnbe+bwPv1eYjseMx2M0Gg1kMhmsr6+j3+9jb28Pr1+/NuOI4855CqEiXqGHBGnc2M/zQj4n+WcjhZTBdDq12BMAC+OwxGU2m9nG5CsrK9aUgYgEC+N5LT8O3vjStfJYyb8bZVIikYh0DVOImQa9ynY1zE9PT7Gzs4PvvvsOi4uLtj0Ua8tPTk6syTcA89jZhu2mdKtG3VzAhUIBGxsb1jKHWpqLlfG8crlsO9WzTiSdTmNra8usJi5qlgawcJIxMwofFay8HrNK4xSLf/55AxVaTLSsqaA1zlmv19HtdvHp0ye0Wq1LffJC1jt/xgkTCn5uZrm/v2/F2HwOzU5TJcIMQo1vqNIMZRFqZpj+rYLdFwCrZ6fKwgtzzZKjAvNehveG1PDQJCLyhTeOyGdxApz30vfzH84b76GbIusWN0yw0HoxLcpWpeWVmY6n8pN66V7xcb70w/MVAaDXzWJtxrIajQa2t7dRq9UMGpzNZpcsch2juDUxzyvwxlPo/J9CCc67R+iZuJ61C0qhULBsdQpZ7qfKWmZNRKJnPZvNInPH6+t6/KmU/5dM/v0pkziG9LaBeCSn1+uh1Wrhw4cP+PjxI77++mvLSaEzQ2OPYSB2prltqdStEmj4svl8HsvLy5hMJtbJYTabmeanNcUUY004aTabeP/+PVZXV7G8vAwAEcZaW1vD4uKi9fcrFAooFovodruYzWaoVquWxUmvlF6RCh8g6t3pO3Dg/U//nWa0es+K1nWj0TCFkEhcdEFRaFMhntBi8YqAP7WVE5+dY8y/uTDZ+LnVamEymaBUKiGfz1v7Jn1HL7Sp2ChwvbenAt17hj5+5ZUQn3Pe//Q7n+Si6AGVkr9mnDAnheZa/zfvXP+uISNCr6VZvlpA769Jo4rvGEoqCxkgPIZlNCcnJ9asmQ0x9vb20Gw2UavVrJaXyQVM6lA4iXOuz6djc10Bo4rp51QEIcQjRMPhEIeHhxiNRlhdXbVmBORrlhPQ+O73+2i1WgbNM9alCUnq5XiD7DF5hFfNpxpXNFLpHGgjAI8w8Du22vzjH/+IP/zhD9jd3UU2m8WbN2/w7bffYmFhAcfHx6ZYWfrCjYWpfFXWX5dupQyBc8FI7Hw6nZrHpy1xKMQTiYuAKY8ZDAbWfHVtbc3gT+Bc4VSrVSwtLeEvf/kL2u22NV5tt9uYTs+3iaL1wBRohX1CjKjeWNxiUViPg0rlpskns9nMvImzszPr/agdXwDECkxSyBPlfQi/egWv1+H9aXkdHx/b1ijFYtHqbrgfmXan4ILXmiR6GBTQ/p09BKRjOU+5qOIPeQ6KOPBDZUCmp2JgH0IKcE0O8jHIOEHkvUdFM/wuBPSINe6r3UD0Xt5TpoKjEFDrl/NKvlXUw2fM8Vn12hTcDBmwOJyxLravYjtEn6WsCMA8zypkIF5F87zHuyrIq85XflSeo2HCfsLMUWBTEB7ny0663a4Zu4x1ZTKZyNZ0fl3qc94lXvgQKO69ieoRXubfVHhEKRSlajQaODg4wJ///Gf8/ve/N/Tx1atXePHiBY6PjyM7XYzHYywsLNgWT6HGJNelWyfQECZSQcTaPwqxdruN2WxmWaBra2um/QHg6OgI9Xo9Av+RIZkkQ0iQQoUDx+SZg4MD26yV0Kq34r2n6IW3LhiNSbJ+CIBlkg0GA9vok4KKdURnZ2eWsh26p7caveeqxbP9fh8HBwfo9/sol8uRLUnYgYdb83DjT25QmkgkbPsstidS2E/jH2rNajySAnSeB6R8wZ9UXD6JyXtvfuz5bBwnIgisT2q1WuYNa+yMnqMuqOt4b3HKkHympTFMx9d4pyoSjvG8e/t3DXmzKlB1B3JNouJxvAaPTafTVm7BGA0hpOl0inQ6bU0xNJFJ5y80p36s4o7ncaG/Q3N+G8vdj1FIuc6b5/F4jOPjY9uthAYOcDnjErgw4JrNJnZ3dw02ZUakv0coOY6GR2h8HgPFKULgogMNawGpI96/f49Op4Ner2eZumybyGTLyWSC5eVlfPPNN/jqq6/w4sWLSI0oZd9wOEQ+n0etVkO1Wo3UL96Ubu0Z0ipljIU9D9mzzzccXlpasua3qVTKLAP29mQ2FweYAood3HU7m2w2a/Ew3QKF9+E1VLlwEanlHoLadPdkNnhOJBJW10hlSCubliITElqtFtrtNmq1WqT2MeRJaWYnA/oUev1+37Kl2K7r4OAAk8nEGgVzexgWArOzA3shMsPW9xf0HhjHgMrF9z4keU/BCyVVtD7xSJNd1HNWA8iPFZ+z1Wqh0WigXC4DgAkjPrsXivp8/uN5mBSnGBjX03honGer56jFqx6HT6KJy5glX5C/yRc8TncC4LFUnJoc4vmbiAb3ldPO/v7dOBf8GRq3uPGMI3+t25DnlXnH6X3H4zFarRa63a7FXL33NpvNIrFgoj7dbhelUsk2Jlc+VUPOK3xe97YC+iFRiEdo2Pf7fXM22P5O94OkvCX/rq+vY2trC7/85S/xi1/8AoVCweTLeDw2eTwcDlEsFlGv100Zhrz069CtskmBc+YiLMMdHIbDIfb29rC5uWn7qHFRksHo3RCOajQaePv2LX7xi19gZWXFXF92l1lbW0M6ncbh4SGGw6HVKLKYv1gsRjqYaw0UBbLuIK3JENrhg++nypANnhlT4LYqfHcG3+mdqQVJZUi4jcqPlpIKL+4w4RU7cAE1EDrgc/sEDBoKpVIJhULBlKRmYxKS8x3w1XtT5eS9Os4734V/6/ixgNkrQzIo58ILCV6HykE7S5AnuCMKrXmmxoeSieK8cOXfkKLUnrs6NjRc/D2SyaQlpvikHL2uT4zxf/OZVNmxsQMbVfgPE3/UqyesR6N0Op3a+qBxRONpbW0NpVLJeEGTc7zx5uOdXibEeYX+mM+hDHUO4+ZV54hGFVEGhjTUK9Q5KxaLWF1dtZwFJvBRGdII8evCvz+vrwlsD5VCyEDIIFG+oRfXbDbRbrfNeWDtM7NA1UB+8+YNfvvb3+L169d4+fKl5TsAMOTLo3eESbkH5W3pVtmkKsjS6bQxCbMq2UuOECdxXcYSCdtks1mcnJzg48ePqNfrEW+BSrRcLmNhYcGK+mnN1mo1E6rpdBrdbteSLrwAp6LkRzfa1KQPtd5YOsHEn3w+b/Ur/LC4PZvN4uXLlwBgE5zL5VAqlSKJKHp/KsLRaGSKV616xmQ53rpLdDKZNMhQlRuVYSaTMStLY2l8TxWomhxEga/xkpCw8ZCuCoLQOPr6K01molVNRUNFOh6PzcCgQVKtVrG2tmZxH4X9VGDre3oFr+8RWtSqHH0ZSJyHqYv5JsqQSowNlXWOyHdEXULb+PBdaZTyWfk31wpj7YzD0lIHzmvAVPH6Hc9DnnAcheDekLL8nEohjkd1vhWqYxYpYWLf85c5D9y1gkYODW/WITJzPs7jU88wZIw9ZPKeV5yip9Ki7FpYWLDx1jg5P6zLZM/X9fV1W0OKoGmZBpPCKPcUqr4p3VqNUqBxO6dSqYRWq4XZbIZvv/0WKysryOfzBi0CsAXOLg6rq6tot9vY3d3F5uYm2u22LX5CRbRuCZWyyH59fR25XM4W7sHBgcE/HGwubKZM67MDMAucx/BDiEQ9I209B8AGnR1otre3MRgM8PbtW+zv72N/f982bKVCoqdMRUzlCFz2sNRDyWQyti1WPp9HuVyObPzJeKAKLr5jqAyC9+U9+TeVM58h5B2oZ6vxNR6jtYBMLgCi/Tv1WXVsFhYWrHSCAfJOp2PzvbW1hRcvXuDg4MD4ijuccKGpQvGGTpyXqJ4Vn4XjoDzAd/SJMby+V4R6/ZAipKfO+KSeR1jJQ9GeL3RX89nsPGbLDVDfvHmDV69e4d27d/j48aPF1PmOHz9+RCKRMMOUJQM08NhhiXGYOAHjjQOOu75/6Pe70HVgUh53dnZmyIuiKInEeVYtDQEeT3nA+BUAW3tLS0uRkIRCoXy/q/jtIVHI8wtBkHqc/uTvlM2j0QilUgn1et1qNelBdjodJJNJ7O/vW56EoleE+BkemkwmWF1dxfr6eiSrmo7XTcf9TtmkFGZ8ubdv31pyRyKRQKlUAgArh+DOFgcHB0ilUqhUKjg7O8Ph4SEajQbev3+Pzc1NrKysRBiM2aVMDpjNZmY9ECrUbEBVhmpd+0lSD08VIlvFqVenySYUOkyw0bjowsICTk5OsLu7a7EeVQ7qVXEcdX8zKmIKKFVmAMxC5fjrDhcAgrsv+IQOEr/TLjP8Wz1EFYSh+Jz3iHgdQnSaiaklJ15Rs06O49tqtQBcNO2ld865pHLh3mdqrChdtVDJxzTAqORCWYDkBcY6NIM5NM4eqtU4IhBFLdS79Ak26vVyXrLZrGVZa5YoM7w5dzTcODeKUGgchhZ3r9eL7KzO67PkIJlM2rzq2Hre0DHzc/FzKAiOG7Nth8Oh8QyNGN0dhuuOc9rtdi3Jj52zdE70vfm3RyFu66V8SXQbiHc2m0Vqnck3hKArlYohXywJazQaGAwG2N3dtfKger2OcrlsHiY/rGt/9eoVtre3DVECbm9w3ao3qcfjuWPx27dv0Ww20el0MJlMUKlUAJzX4AHA1taWQYS09k9OTrC3t4dGo4E//elPyGQylnUKwBYs6w65ke7a2pptAUIG54LW2JjvIE/yDMuPQof6jvREqCAbjYYV/LOGi1YP04dHo5Htk6bwFiFYNhhgOzkV9lTK9Jy8lTkYDCyeMRwObUFqzJHjodtLMabH66p3x+sTYlX4Vd9BW6px8VPJ0UjgNX2dHGFeHWMKLM4j+wuyY4oKeoVT2XGiXq+bF57L5UypqPcWyuz0c6+KXc/lh//z5OOgISiVa8d/CCHRK6exxHHziATHWLNNfX0thRAh+HK5jLW1NYtJ0xMl7M/3IlzP+I4myGkjDBqy3vjwSlF/13fWOOlPTUQ8mHmoDQkYVmAYguuQsqTT6aDRaGBjYwMrKytYWloyQ1MVHOc9xEsclxA/PEbi+5+dneH4+BgfP3603AvuWftP//RPNp4ALEnu8PAQf/jDH/Djjz+afMzn89jc3MTR0RFarZbxMHvHbm9v48WLFybPtEzmpnTronvgAu+tVqt4+fIlfv/732Nvbw8HBwc4ODgwAb+/v2+BfioAWtaZTAYbGxu2KfDOzo6VEXDncgDWd65er2MwGFhsbm1tLaI0PDSmBeIhgajekbfO1ZNrt9vodrvmlfBv9n6km84kD/Ys5XuQGShQKGw4HvRKNXGDyo0KnhAXs680eSRkrWp8cjwen0/44sWeaF54eWiPCoixVYXq9Nm1HlHvTc+JHgUFIOFQWuUcQ+BcyVMRcM54jnpL6llzF/tqtWpZZ5otq3PJ5/OeoldifB//CXl8VEx6fsij5HPrM3EeNYZNr04TPDieXumqAiXfE4JnjIzGF61qfW8+G6/B6yqcf3JyYjxDY2gwGJji4Hc+pukNTi8/fipShUT+ZWkU557GGSHj8XiMarVqqNTu7i5OT0+tublCevp+Xp7oO3t589SIvENnoV6vY3NzE5ubm5YZzrFhz9zj42O8e/cOk8kEOzs7ePnyJabTqcGszWYTzWbTEsJ8ScVtFSFwywQaEjMdWexYq9Xwww8/YGdnxywAZSIGSGu1Gk5OTnB0dISFhQW8efMG33//PXZ2dvD+/XssLi7im2++QalUiizQTCaDN2/eYG9vDz/88AMGgwGq1aopTS5GL9RJKoi4KGj9UyhRYPj4HlOyqcy0mJQKmEKnUqnYrhYsDaFhUCgUInE1MoQKX1r8hKza7bYl1HDceY5u/ppIJFAulw0ypOXOFlPqBSo8q4KDjKsZoRQYatnTe/VZl/QktSDWQ0eE+HiPXq9nWZntdtvi0DQEGMfRujCtlaSnqXAuvSVS3O86/nw3fVav4NQzVKF7lcDj/xWGDSlsheUZS+n3++h0OlbWo5nGWpKjz0EvZjY7b23FuNlkMjH0gf/3hoAKFY236TFHR0dm0GjMkQXpjL1rlmtIMf6UpMqQ40j+YYIRkZTxeIxcLoetrS38/e9/xw8//IBUKoWXL19aAxCuIYYyOAckrwg9rzxGCkGoPgwFwMby5cuXKBQKAKI72zP2/fr1a+uitbe3Z/2eKQ8PDg5weHiIxcXzDdaZ1MS8CTWeb0q38gy98GBW5dramjWXfv/+Pb7++utI55N2u20NqI+OjrC3t4dqtYp6vW7bqYxGI7x9+9YWLL0EWsulUgmj0QiFQgGnp6f49OmTtRzTDvHqBajQocVMuMN7WhQqvgxD4zj0cDX7jtYxvT8VFCqgKcAJZWqNIaE4PheVEBWlJlWoRc6C6rOzM+vwQ6XNzETtKENG1aYJPr1f4TMVkgqbhrIOmZSkdXHeYub46T0ymYxt88Ln0J/es6BlrolJIUXlz41TWgppzYtphc6/iaDznqFXRF5p0iCgItQyEno8molMA0SV7HA4jLSw0ziiPr++t8a1Q+/NZyFPMFnOrwPu+aewOnlH49AeZlQjQ3k25NGGjBiusUajgePjY8xms8iWaPSogXNBTaN6OBxaXSHzF5icxLHzPKpxYD+PIWVxU7rO+fOMsbg1dJ1rqHJXPiESx//pe3J8dbcK1odrT1xVmjyXBfSMH9JY4RpoNpvo9/uoVqvY2tqyLclC73ZT4+tWypAKRGM/i4uL2NjYwMuXL/H27Vu8e/fOMrUo6BiMXl1dxXA4RLfbRblcRqlUwtbWFhYXF/Hjjz/i3bt3liG4vb2NarVqRfdMe15fX8fR0RF++OEHFItFbGxs2AJTyI4uNhUaM1JZUE/Fx/gKkzUUZiSEwjgJFUA6nUalUrG0XkJ7jLVwbNhggFANBaHWVKrCpVfJGsp8Pn+p4Tbvzyw4erX0Jgnt0KBg6r0KXr6LQrRUkMTzPXklE2cVslwgTrGol6iwsc+MDQlA9QQJFSrUyuO80Ip7Bj7Hdeiugi0E48Q9nypKNUr4k12YqBDZlUj5jEadN3J8zWIIYtLnUmXGz2w2M4+R8oCeKxVkpVKxtUEkgtmuvA4VL5/DJ65RcWt3KTV4lZdUGQ4GA8tHYAIWN+Klt7y4uGgtv5aWlnB4eIhOp2ON4Wu1mhnzIZiea1HHyhtl89bBdSju3DiF61EQ/t8/hz8npMxVGQJRg1gRKnUWmDPBbbKIFNB4Vf7jGudzkm+Y5ET+JX/TU1xdXTUvk+fz+XjNm9KtY4Y+fXhpaQmvXr3CYDDAhw8fcHBwgPfv31tRfiqVQrfbtaaqpVIJr169wnQ6xd/+9jfkcjlsbGyYUGs0Gvjd736HTqdj3coZ8F9aWsL6+rrBMOPxGDs7O5FFygWqXhgnm7BiyGJlTaHGubTmkNl1XjCQMRizYaNshcM0a1MTMqh8FJbUZCAP7XIOOO5UvvqutMKoDBWu8p6eJhr5Orbb8EZIYfq4iveGQlCjxhm1bEK9YnpBWipy3ee8L7ruva86jgs+l8tF4sOEzvnTt3QjPzI5TZWQX9d8DlUAXCtajsKcAPIoeZjwJJsmcD9SrZHltXhtIhm8v8+s5TN5XtMYPz08yhPKDu5ww/ekMciErWaziYWFBbx+/Rq1Ws3i2h4lucrr8ArMQ+w3obvwapxS8OvP30PlqCpKhZ5VCaqBSmVII595E1q2ps+gnj/5BoChR5PJxBqasDf1ysoKNjc3LcPX8+xt6FbKULFgu9DiIl6/fo1EIoH/+I//wI8//ogffvgB1WoVr1+/Rjabxf6UuLbHAAAgAElEQVT+PpLJJEajEcrlMn75y1/iu+++w+9+9zv86le/wsuXLy2l//e//z3+/Oc/W/eCb775JtJRY21tDYVCAdlsFu/fv8ePP/4Ysd4ARJISAESsU3pLtDZ5DrM7GQNhQSdd9kqlYpg3vcxut2uChckFR0dHthh5HSo9Cm8qM3pwZ2dntgs3s0QVSiLpQtTzteSAwk09WV6HH++Bke66cLmQuFCAqGXJv3Vx8W8PxzAGrF4xFx6FKP9/22e+TwoZAdclejX5fP4SRKgJNOxIw36QvtuRGn3kF5985p+Tc0CviNfhzuX0RkejEXq9Ho6Pjy37l9cnzzLOTX6hwtRsZn0G5VcVovSEx+OxtSwkopTP5yMCnoKWynBpaQmdTgfff/89vv32W3z77bd2jIe1eV/+9L+HDMK78mfc+g/91ONoPAKXS6x8QllIqaiRr0ia5nKo7OH/qQxZVkGDQ1spqufPtcxzZ7NZpH6YmamsRWdRPuuSQ4jLTenGjbq9FtcYyOLiIsrlMn77298ikUjgw4cPSCQSqFarFkMbjUbWcYbbbmxubmI0GuH7779HNpvF9vY2ptOpJdp8+vQJk8n5NlHVatXavzENfDweGwyoNXdqcSq8pjV9uvhVyOr/lREajQaOjo4iO0qolc3YHOE+1tJQMNDq0TFlES+FUa1WszEOwVlUEpoZqgkz+vHwlxdqalV7JXkb0oWpC4uCyP9Nz8TXU/pn5+Lx40LLkXPxlEgFnQow9ZoZu2O2LQXUycmJKUatO9SSEr2uCppEIhHZUozE+KQiJonERWiDc0wjletsMplYmdB0OjX0hWuQCXJshMCyGt3RHDjn7VarZTvZcHd0eg+tVgs7Ozu2JRxrlQmPTqdTrK+vW/yQa5tQ/lVx1Li1RbrtmgrdK3T90PMoKuPPVfTHzy9/0lkIGbEar6XRwLlked3i4qLlUGgGLhCtVSfkvru7iz/+8Y9YXFy0crper2eNTIrFIl68eIHl5WXL2OdzhQyUm9CNlCEtLwoh/k1hzmzJf/u3f0MymcS///u/Y29vD//6r/+Kra0ta5v27t07JJNJvHjxAqurq6Yg//SnP+HXv/41vvnmG9RqNWxvb+N//ud/8PbtW1OEr1+/NmVDi3M0GqFYLFpHDk4Um7cCF4k0XJwKg6pS1ON04XKi2WSW3ht3yKbnQoXMtPNkMmnWORNltFCeihSAFY8zzkKlp3CnxkVuQyFIUnF/et53rQMLPWPIigaiwluPVZg0lMjDsaAgf4ie4V3Ie/T+eyoNthDTmkvGzdiardvtWsY0YU3GYL1yUw9AEYjZbGZJUJo4Q4VE/mJvShpyrGmloma4gp4Ed5pn845UKoV6vY61tTUTpOSTvb09fPz40Zpx/+Y3v8Ha2hqazSaOj4/x4cMHDIdDbG9vY319Hevr6+h2u/jw4QNyuRxevnxpfYW1+T9Lp7x35RWDhx9Jnr/vQiGlF/e3hle896fedShkoeuM8+sTwDTWy4RD5kiweoCwOOdKMz75TIT1P336hN/97nfWoJse+97eHvb39/GrX/0K33zzDZaXl01G8j1JKjduQjdu1K01cPxbseDZbIbl5WW8efMG33zzDfb29vCf//mf+Prrr/H1118jn8/jw4cPODw8xHfffWexQrrSnU4H//d//2cK4dtvv8Xa2hqOjo6sO8Hx8TH+/Oc/W2xgbW0NX331laXYkgFoYZI0m1IZhTBPIpGwCWV8hTEPenXZbNa6IjAATwVKz5BuPZUiBQIFCjt70LvRcwnf0uKhQgzVNc2jecd4a189Li6C25JfVLyPz9b0C9ZDUDyHHopagMrsnNOHCpPeFdq5ThxL1y3XKBURk7O0R67GGX3/XBp0zCbsdrumzHgPoiNEbjSBi/zM+j3eX3fa0KxDZnoDMMHKHWK4RZxHM6goc7kc1tbWkEgkLCWfZU7savL+/Xt0u10cHBxgfX0dS0tLlnhDz5WGfxwMCYS9vqvm5boUd15ojc9TjCEIV5W51gvzO43V6zF6Dq/HePXHjx9xcHBg+SGbm5tWD67vo9dgjgnh9OXlZWxtbeHw8BA7Ozs4PDzEwsICXr16hX/8x39EsVg0NPKua4h0I2XocVlNPAEu8OVarYZXr17hl7/8JbrdLv77v/8bnU4H//Iv/4JCoYAPHz6g0Wjg5OTE9qoio/9/7V1ZU1vZ1V3Mg0aEAA2MNt3guJ1uJ92Vzkse8pZfm9d8yXMqlUon1Z02bWw3tjGT0IQEAoQNut8DtQ5L2+eKyTbtmF2lElzde+4Z9tnz3md5eRkbGxv47LPPMDs7i/n5eRwfH2N5eRkvX750p3fv7e25TTU6OorJyUnHeHSy2U/gLNdRJWQuhoayMxqPEa+7u7tu0WdnZ5HJZBzjYAUR4MyswKOs1GnMqFqW0KKfj8zU5w/RawoXYYZKJAl28153k573bnWuK9HiPXy3ChN2o5IZaiQhCSrQftjtx2omver8q0bCdnzmrosIN0qYyIAODw+dr5FHrQVB4PxAAJxGSUGO/j62RwGSQXQUAFlrN5lMthW06OnpcXuDplEe9cO8skQi4fpG4qxWnnQ6jdHRUZfvW6lUUK1WUavV3N7T1CxGPSaTSWfJqdVqSCQSiEajTui1xQSsGyDMpAxc/4DfizLE85ihXtc157pr4ZE3b944RYB7lPuRY1Itkcxwa2sLOzs7LhNgYmIC4+Pj7r3cx3zH69evsb29jcePH7vj/Bgg8/z5cywtLaFSqbggzc8//9zFjwDXMz8rXCnp3qedECE4wP7+fjx48MD5dGq1Gv72t7+5xMv9/X2USiVsb2+7QAAWtc5ms2g2m1hbW3OnFqTTaWcvXl9fx88//+zCxyuVCp48eeKkE24YWzVDpVc6crnIjUYDOzs7bdVA3rx5g2QyiXw+7zYbNc9KpeJOFwfgzDfc5JQyaSu3wQkA2iQrMgzgLJHXCh9W0tS5V6DZyLdG9j5ltu+KKVr/oDXJ8B7tlxViiEcM3ec8cr44vstGkf6vgSUEPtywZrtOGgUFDZo5BwcHkUwmMTY25qIDWd6MhZUjkQhev36N/v5+5HI5RCIRx1Bpci0Wi26d6UPa29tzDKy/v98V3tc+kQlyXDwJnX48+kSJZ5r4z2cikQju3buHkZERVCoV1Ot1bGxsYHBwECMjI4jFYs6Hub6+7oRYVjtReqfme0tXlL7YQJTrBnhoH6zfTi0rPvOtLUdo7/G5TZQ26juoJZKOqZDAdBTmoDYaDWxsbCCbzboUFWpytOqVy2Vsbm5ieXkZP/30E0ZHR/HNN99gamoK3d3dKJVKWFlZQTQaRT6fd+ZRtZaF4fFl4eqHPxnQTpycnNZWXFhYQF9fHzY3N/H06VP84x//wMHBAebn59Hb24tSqeRSEGZnZx3Dy+fzePToEVZXV7G/v494PI7p6Wnkcjk0m00MDAygXC676NGDgwNXA69er2N8fNyp5dTM1AehwSdEDtYRZbkqQiqVwtTUlHuuVquhUqm4TzKZdA56OouTyaT3EFD1tahZT4Mg1KaugTudGNt5zNG3VrZN1bquA51Mdec9o/0gM2QFGqazcM3JDPn/pwhWCzkPwogf2+I3GY22rcT2+PgY6+vrKBQK7hSVnZ0d9PX1YXp6GrFYzOW7sr4nfUh0RTAP8PDwEGNjY873Pjg42FZEoaenx1WLoZZYrVYRjUZdfUv6IwE46wvfQ5Pw9PQ0hoaG8Pr1a6cpjoyMYGZmxuW1cW/zcGzmb/rO4OQc0ZSqQWzKEDmn1/EZWjeCZU4+Px7XmP50/V1Nnewf+6uBaWTwuicpaNMKRoGkv7/faXlMtqf1j/nl1Pi7u7ud9WxtbQ1PnjzBysoK1tfXkc/n8fDhQwwODuLo6AjFYhHr6+v4+uuvsbCwgNHR0bZcZMVtfl+Vhl2pUDcnkH+TsJN4Uxs7Pj5GOp3GH//4R6TTafz973/H8+fP8X//93+Ym5vDwsICGo0GyuUyfv75Z6ytreHOnTvI5XLI5/MYGhpyBa9Zpm14eNj5ECix5vN5TE9PO2bIiWKkqfo0afvu6+tzB5syL5B2bppvWAic/j0iolaL4XiJUFxkVoFh/p+Wy9I8vq6uLsccrclFFzeMWZEhWAk0zDxin9X2fch1WbCarDVZ243F9bBEmkTX5hyxDV+wzbs2934oeBfmMyUGdu11fS/yLutPsn/39PS4aD5qAJubmzg5OcHIyIgrnk68J0Mk7tMPTyZyfHz8VpktnnuqfkgGzvAIs1gshqOjI5RKJWfeY1oU+6pFKQqFApaXl3F0dORoTD6fRzQaRX9/v7NIWaFBo21ptfEJcGpKtL6164C14FjzrDIyG1HO57Ud25Y+a6PXGQSlWiXHbLVjlo4E4A4gPzk5wePHj1EoFJBIJJzfkBGitVoNjUYDkUgEv//97/HFF18gk8ngxYsXWF5exvb2NoaGhjA3N4cvvvgCqVTqLS2WDJ79+iABND6JEmiPMtVPEAQYGRlxp0aT4f373/9GT08PFhcXXRRgpVJBs9l00ZSUIriRtre3XSUYhlhHo1HkcjlMT09jcnLSRchRMtGTHXp7e9uiX5nC0NfXh9evX6Ner6NcLru8wr6+PsRisbaQ6iBoP6ldEYIIyjJPb968cSco0NzHdsgkiUTKGKixKuGySG0Rgc8SCRR5dWOE+QyUUF6XoaiJRf+3/e9kpiFO0ZcBnJ3LqGPtpB1/LBC2p67Tlq+9MC3yPEFJ11Hb4XlzQRC4Q6cPDg4Qj8edkEm3CdOhKDiyFCOLM1OLbDQajgHSqgKc1rDkszTf0pTJAs5azYnlABlgwUCfUqmEra0tJBIJTE5OYmZmBul02uUrA6cuCsYMKLPWsolAe4K/+ttszWL1aV+XKXLulXGRZqipVukABQm7V7QtZWo+zVCFZGsuVYYMnJbpo3WQLqStrS1sbm46ZhgEgWOGQRAgEokgn8/jV7/6FaamppBIJFAsFvHPf/4TOzs7LgaFAZgWl5UZXidi99LRpMBZUq+1lVuiSydnEATIZDL405/+hMePH2NpaQnPnj3D9vY2ZmdncffuXVdRZn9/H999951zco+OjjoTKmsG7uzsuHdoXdHe3l6X3tHV1eX8HFw8+jvoa6STnqo9C0WXy2U8e/YMkUjEHQ/EYBdG1mn6BBGDJpQgOA0y2NnZQalUatMkqZUSgW2OozVNkGH57PxcE6Zz0BysEarKJNWEo+1fhkieB77+8bpaD1QyVZMThSi70dSMZwkzgGsTmo8RrKTuE3rs/OvaWFOTbVvb9ZlV1QynvlsKpfQZMhKbON5qtRCPx92+otDKepRaSpAMlUUEyFQ06jqVSjkmxKhXmuxYeID04de//jVyuRxmZmZcXAHHyxQoMgnuJ1atYRCcnSP9tv47Xn8XzFDXw2r8VkD03cfr+ru9BpwxPM455yPM4kQ8UoaktZG18hHTcZLJJMbHx5FIJJBKpdwRbN3d3ahWq1hZWcH333+PXC6HBw8eYGpqyikp6ivUcbOfV3WbXDmAxmok9ndOCqWEVCqFr7/+2kmCz549w/fff4/j42OMjY0hk8m4yLJisehCrhmCTbNMEATOXwCcFYWlA1zrIMZiMSetUXJkxBPNltzIrDzDjdloNADAaZb0PwJw0quedK2IxIgrloSykY5q+glzwLMtK1laBsZn7DFQto6p+kkVmaz2+C78b1arpSmU86bEmuZ09cfYftvgG8U1ZervSsP6mMASp/OYW5jZrtPcWU1fr3FfaVWSw8NDFItFl/hOra6np8dpVgAwNjaGiYkJJ6BGo1FUq1WngZHZ0W9HHx5rCDPNgnVOrRBJoZQuCFa9ImFlcB+ZOvvBhH8r4FMg5vjDGI/vd+L/dcFnHbLXfYJL2P9WwLaBNpra5Bsb0C5UUUkYGRlps+a8fv0ae3t7aLVaGB4edi4ufoaGhtDf34/NzU28ePECL168wNbWFu7fv4+HDx8in8+7U3vsWEgrfGO9DFwpgIYv5gSQUJOQ2wAQJf6zs7MYHBzE5OQk/vvf/2JnZwd//vOfMTc3h7t372J8fByLi4uOibFw99jYmCvQPT4+jvn5eedcpX2a76HphBqYak6RSMQttNYJnZmZaSvYrdViuJnJ2FXrAtpNB+ovoNTMBVOGZLU0tk3GyqAeW/pI51M1QPpWFQEJ1hyiAo32l/deh7FY6ZkEmv3UPlAjbDabztnOe1RjtDhlhQs1k3xscJ3N65PuO92r+5H4qswpzIytmo4KLcRZrX3KupQ//vgjms0m0uk0xsfHXaR4q9XC6uqqO8A1l8s5oZJWn7W1NRwcHGBychKxWMwJs/Z0Dua07e3tudPoI5GI2+NdXV2YnJx0Gh7LIuqJ9cBZylVXV5fTPihQkgYwaEOZT9ge8TGNMCHkfYMKSLbv542Bwij/VxpEGqWpLTQrT01NIRqNusPPyRv6+k6PZpucnHSHHmjA09HREX766Sf85S9/watXr5DNZnH//n387ne/Qzqdbuu7HRMtStYidRm4cqFuK+GHSSxWimD+DzWYH374ARsbG1hbW3P5LDRzAnDlosiAGZUUj8dxfHyMjY2Nt0yIrOpCBsyJs/5M6/tjsrAmGtPEQulH/QFKFEhYdEH4bqudKZIBZ8Rcn9XKPjq31obPTUbfpCWOdh2UgfMZzR8K2yA+7dGnlVHDJuj8cA3snFBq7Orqajtdg+v35s0b1Go1J5mz5JOWEmPeGaXH8yTlizARHyHj+Mmgr7P5LFxFANF+ndcPOyeqkds2wywSFJ74LgptlUrF7VNGCQJwydGKp/V6HWtra5icnHRVZSj8qi+O71CCTCbF/3mSAQNsGLwDnOJaPB539VutFUKZg5Zd073Oijjqw+S3mkHDzIc6T8oML4MvlgkpXEQIsu2okKO/+7RbS2vC6DoAp/1rxGcQBO4kEwYn0i9IgaZarTqf8dLSEh49eoRUKoXf/va3uH//Pubm5tr2Yth+vq7Aca2T7nXRbYST/k7QRRgbG8M333yDbDaLe/fu4dmzZ1hZWUGj0cCTJ09w9+5dzMzMYGpqCr29vahWq9jY2EChUMDQ0BCSyaRzcpNgkgF2d3c7oqrSLDe3b2KtE5ZHviSTSWfnVqTWTctvG0VmzQ56TYmNfVbbVm1QHd3W36MEx74v7GOf4ZxYROeaWq2W9+s4rM+Pz/M6cJZHqbVdgyBwR2LR58TNWq1W8fTpU9Trdezs7DgfL01xnLsXL16gVqu95bfxbWLfh+OxOE0BidepaVBzuE4kq25kuxb6u28/aZSyRhXa8VgirqAERKsp0demGjmtLqoFKu6zOAb/TiQS6O7uRqVSQbFYdGPY3NxEs9lEsVjE8+fPnemTjGp+ft5Fi7JGqB0DzaTFYhEbGxuO4GYyGczNzbnIT7pNdK/q3PJbLSY2cEu1yLA19LUZxrw6CS4+Qu9jpL62fW1Q0OCeDOtLWLu0HFjlR3FGrT28l3sZOC2Rx+hhpXcserC0tIRXr16hUCigVqshHo/j22+/xR/+8Afkcrk2YQAIz621zPuycOU8Q52YsM51Ap5pFolEkMlkHHGpVCooFAquCjoAJBIJh7DMT+KG3d3ddYEwvIcblxOujCxMUwLQlgCv2psPkXzM0CKtJXBqPrXVcEgIrIaoAoY6yu07fISf12z/rKnBgu/dVrPVIBydAyXsSuh9c2L7Re2a68qAif39fZTLZbRaLRwcHDgmROd+q3Va77JUKjmzjG1XcVMZhzIPy4xUAyRR6O7ubiswrfh1HVCm1Gnj69pyHoLg7WOYzmOG6mOjiZD/U9tjzq2uPRmXFeRoQWFlKK0dyUNZtbh9Mpl0aRb0CdLfNDExgXg8/hbeK06xDnEkEsHw8DAKhQLK5bJjovRjWv972P4P0zx4XdfGB2GCv4IqCWHMzPdu20/f8773+fpnBSUrBNp2fX22+1lpmEbeHh0dtdEzWnhWVlbQ09OD/f19vHr1Ck+ePEG1WsX+/j6SySRmZ2fx8OFDfPXVV239DGPonf6/DLyzpPuLAJGbpg5GZY6Pj+Pbb7/FwsICHj16hOXlZZRKJVdpZmpqCvfv38edO3fcJDIv6eXLlwCA+fl5t0FU8zo6OnImWUsU2B9FeCXUlKjCpEkFDXwJQywfYVJmpvcp07MMR81XVqsjWCLgY7Zh/SRCkxD5pEKdF42AVT+LQphmqsyZRaL39/ddAvTR0ZHzKezt7TmTNaP9GIHcarVcYJTV3u16K9Ow60YGR1OcBjpxQ1JjYlvnEaJOoFqIroVl1j4Bgn2lYKNh8Z0kZAqNzJ9lG2p50FPquX80mIUBDycnJ9jb28OTJ09cRRk9t1CFo93dXZTLZVdfkjmJFGRpzmTgDM3+LGqvGg7Hx9xjRqmSCPM+xfcwYdjuUX5bRsHnfc/qOK1lCDg7Ps6ugwWfYtFJ4/HtK8tQrbXA96yOU9/LoEHfvaQrtCLwm1YDVizi+Flx5j//+Q+q1Sqq1SpardPo+mw2iy+//BIzMzMueyCM0V1X8AyDD8oMCao5UMrmMS8nJ6fVa16+fInNzU3s7+/j5cuX6O3txf7+vqsoT98UUwkUUUnUrP3YSjXsi69/2k8fgvmQTDeEvdf2w/e3vUeJtDJCJYiWWetm12ct47Hv135SY7VjtMRYNSjey6LPYfPuY4j2Ggk7owoZfq2nfdCUzQAc9df6xmuJmNUOfeZUgo1qJROij8lqn5eBMM1V+2jX0af1WsEljHhyXBQmaEHhvOuRYLyHvqDu7m6ncUWjUXcKDXBaAKPVarl9mUgkXHrE8fGxyz1sNpuIx+NIpVKusAX7z4hoa5HRXFxlcgxOY6k+arT7+/uuHcVlnYMwDcl3jxUEdU/42vLhtua/hQnA9m8fLiqECdd2rc9j+j5hjvcTn6wgrlH6rGPL/ExaDxj9y7EzIpin1Q8MDLg6pEyxy+Vyrvaz7U+nuXgX8MGZoQZ60MkKwPmBstksJiYmcP/+fRQKBXz33Xd4/Pgx/vrXv2JgYACLi4tYXFzEvXv33EGiWgtxYGDALRKZrdXY+Dc3SScJhIQlzPdkzWy+jWDfrX3w/W3BEnElFvxWphhG2G1/LSP3gUrFPsZl54wai2U6Oke2z/wmMWcbW1tb7gBPptew6MLx8XFbqDuDamg2PE8I0H5TeAqCwFkXeDICfU8aYKH5UtfVDC3jCiNmPulfiZUyUJ8G4BuzzhGfVS3fEk+uS6vVcsnPzA1MpVLIZrOYnZ11wW2cJ0Zxr62tIRaLuQA5FvBWHOB8a8Q696qahNVfqvmIzBdmtKLiluKiBbuvgfZgLzIEn6Br96fVKAG0+Vg5HsVNq03qb5zHMPy13/rxCVu+cftoBdAeoEWrD03iNr+UTJDBMDyYnWb1/v5+xONxZLNZV/2HFYV4zJeWAeykRLwP+ODM0EeI1RnLHJ9EIoF4PI6joyP09PRgZWUFu7u72N7eBgCXV8jkXm4M9TVY85YvIswyLPbJ+sQsw+FYwpihT0Pzgb3u25RhTMsSUQ1qOW/ThrVrCWCnMdk+c35UyLDMN4wZcu6VaHHj0eQyODiIiYkJl0bCOejtPT0Lr1AouHJQvr7ZudG/ldANDw8jl8u1aS70DdLczjFqmsJVQJlhmJDhE9j4m82F862fjl/Bzr3tD+9Rgk1iRUGBmgCFFR6dRH9Rq3WWrF6tVl2KA6M8h4aG2rSNVussRcvOB82MiufEFfoPuT7sowpZYfPow3O7131z4fs7TOOy94YJaWHM0KYTWTwIwxUfzbL3+GiK0mbuafrpWaSdmqCmf2nfT05Oy+Ox1ms8HndHOmUyGecbprme9IHC2ftmfhY+ODMkQbEahJ4dxv9HRkbwzTffYH5+Hqurq3j69Cl+/PFHPHr0CD/88AMikQhSqZTzM/T19eHu3btuM2k5Jd8E66LZPDUSBWqZYUwhDAE51rBNyIUPM2dpgINv82k7PsbjC7wIYwx8hzLuMMJsNT29X32SOka72X3v0DGy7BbfU6vVUC6XkU6nMTMz455nKb/BwUHs7Ozg0aNHWFtbe8sv6NMGLCEiTu7s7KC3txeLi4u4c+cOpqamXLEHu7Z8h16/LARB4IJzfIyLfVctxRdA5WvXx/QVFDctjulzJycnbrzUxmnyojCazWaRTCYRBIFjhL29vS4aVDUGnjdI7VvHyn4BcOvL8TOojlqgMrpEIuFKq2kBbTJVtqmaDr8Vd6lxatUUn7+eWpL92Oc4hzwkwDJa3a9hQohvbS2e6Jh8+60TnbC/KUMknaY/kKfY1+t1VCoVlMtldwQWhZ5kMunKcGYyGcf80um0y+PkGlLjBM4id8N8nD44T0C4DHwwZqgbUhfdamJ6b09PTxty83iWjY0N7OzsuGCLer3uzKTb29tIp9POx0R/R6doOysh64IwmOQ8wuIDNWna8fokM3stjBn6JHlrBgozl1nJ1EcAfZsjTIv0SaVh2qWOzfaf42Q+EkvrjY+P4+DgwB2ZVSqVHD5ws5Lg+foRZh6zzFAjkimkMJWE1UjYPudR8Ul9QpeFMIHBjqXTBg/DyU64as28ZHqKA9Y0zjbpm2NZRq0EY+f24OAA5XIZjUaj7ZQHFvHm/YoD3HcA3ioWzXuUoRSLRVQqFTQaDVQqFZRKJXeaBdtutVptwUJWYOLYOu0PnVfiC2kMcUi1JMsM7ZpYwY2ggq8VPC349nnYftP2w8bJZ3meITVAnkKyu7vrhKCuri6Mjo46YYhBUclkEqOjo0ilUs69QT+zMlnOQZimeh4QZ94FfFBmqCHcdvF5D7/109PT4xjc559/jlqthkKhgKWlJfzrX//C1tYWKpUKlpaW8ObNG3z55Zf46quvHNFMJBIu6VbDxC2h9y1CJ6nbIjxBGbyPKdn3hTHDMA0gjNhbRmg/7K8tKhZmviwAAAxkSURBVGxrp2o+oRYOZz9U4rVzyqOyrLZnx8VnfJVxyIiSySQikYhLzD04OMDa2hqy2aw78gc4M5knk0nnK/YJP775JKHkOZVcNxaH4LFCur7qM1Sh5SpwGQnYp72pIGHb1W/7N//nc2TubNNqKtR6qMlSU+jq6nIHVrOEIoVHalm1Wg2rq6toNpuIRqNuPhlgodpvq3VaVJsn0/T29jp80uOUbEQ1o8s5N4yAVaZJgZk4zoAsfrRcod1TZHp6Pqp9thNdU/82cc5nwfCttQ9HfPTDhy9cT4KaPLW4iNVsW63TYCSe6Uhf7M7OjjsMQWtHz8/PI5/PI5fLOcZvo5v5bs6pps/5cPei8K4Y4gdjhlYDANq1ENV2eL+PKdK0QuliaGgIpVIJ1WoVpVIJ5XIZ0Wi0LfnaSpFcHJX8FdH13WrqtETV9tcyJ+DqBaS13z6CZk0lVnq30qxl3p18nzTzWGbi01A5j8rUrOmwExO3c6t9JYEsFArY3NxEEASupF8+n3fvIcFl0r2+y86bzof+RkLFICxWRHr16pXzQ7G/JPTs37uSTG3frDbm09KUgCp0IpQEq5Hxfv1wvTXZXlM6WMye2rPFjZ6eHnf6ObV7pkyxLcUvmuR40gz3J/NNSQd0DK1WC41Gw6XYKPNRPFBNmGZbzfflvaQHeh6qLa5PwU8ZomWkOvcWv7VPSlPCNFOfT9J++56hOVetHlb71mAnfQ/Xgms0MjKC0dFRl25Da0A6ncbY2JjzsVMQsWMNY9pXFSQVLA5fBT4oM9ToLt0w5xGuk5OTtkNee3t7EYvFsLi4iAcPHrgzBNfX17G6uopisYhisegKZW9sbKBYLLZJkpT0GApOE6yenED/lZpaVQJU7cP3e6vVavM3Ap19d/o/azyqJOXbMFbLU5+GanvW7KJ5eozkIhLXajUXMq/MVdtQYqwfzTNUxtdJA7KMiW3wZAL6bSmVfvbZZ5ienm4TXJrNJiqVijulxDJ+O8eKZ/xmZHI8Hsfh4SFevnzZhjNad5URj1xn63O+KHTCB998+/pv2/GNzde+plRYIY7vJR4xUpC5Y9FoFOl0Gr/5zW8wNzfnhAn1Q1JQajabKBQKePbsGdbX153Lw+IF15kWJMYBdHefBlPRzKqnF6hgp0K1+g1pBWJUMgDHPKvVKmq1Gur1umPOAwMDGBwcdMdRcX/ofvcJ0rYai/W9+dZaQfeq+ic5L4oP9l5dK2VwBwcHzo2kQqjdl3pNNTcGMnK9c7mc+5AWWy2de0MtLepK8NE7xYOrMsjrMtUPGkCjk6DSp/5miSYRwJoYmNBrGVIymXTITaJK4m4L/tJmrUyMG4oMpRMCEWy9Rt6j4d9hEKbiKwEkUinBVWbEDantKHPWxGm7efm7zSXTlAKbV6h9t2vLjWg3mY7LblzVgDVsns9zHDwIlOHYfK67uxvxeBzJZPKtogKdmIRaJYgPaiJWzYk+SvaXeYYq4F0VrAZvrykxCUust2P1acJhH30H71XzNk1crVbL7Z1W6/T0AR69Q6an/VY/UzQaxcLCAhYWFt5iGBa3yFR0L3IdKLypwKlWDKUXZIKcLwq/wFkqF/tIky3HRrxS64XmLlNb1gITds47WSM63WMFIUsn9Vmaay0dtUIw21D3hDJvvcYxM5CNroJoNNrGHDkvKpRw7lXb981LGN27SfjgATTK9OxmVr+FmuWCIHBqNxkCk6+5EQYGBpDJZDA5OekIuN3gPKKlVqs5RzAlXeYA6XFPWpRbx6ASkEaO2Qgy/k7wEWL70fvI4KxpMwjaAwDUdEMkZvV+hrEnk0kn6VILDPNRkBnY6Dj2TYUDlWJVE7WCgzJLn7+CqQuMuNP7eEYliRb7yrxCFm3QQBcLypytL6jVaqFer6PRaLh+qYbCOWW/lHnrWN8FWGJn/VMUanwmfcv4tU2fhmwJLE2IisvUhilEcc0qlQqCIEA2m0Umk0Gj0XDl20ikG40GVldXUa/XkUwmsbCw4Iouq/BAvOH4YrFYW+m3w8NDp6XQF2X9ULzGfpMgK0PXseq86WkbLCnHIBGex8ii/YyU9fncfVGkFv/4t14L2//8ph9eGRqZOwVcasA2en1wcBCJRMJF1nJvW8HYCsjq7tB9A7S7cMj8bHUdi3tWuNPx6X2dLEjvGz6omZSgkoRet5KpblJeZ1sqWehCaT4YQRkqfY6sfKAMz2eiUAnZqvY+Kc5HeOz4fSYsHwJYYmXbC9NaSbyVgOp5h1poW8G2TQajc+DT6O08hd1nhQQrTNi54e96pI4SHs6xak2qiYbNuU8aV3+Y5k355kc1h/e9eZUA+oK/tG8+DVj7HcYwOffWN0yhSyOimUjNgLTh4eG2Ys5aBIE1Sbu7uzE7O4vx8XGMjo62MSLgzPLBMdI02tPT4zQSmjk5ZjW78X8yQ90XKrjofFnmw3fTbZJKpdosJBTOtESjNVP6hFa7lmFrbPul1yyz0b2vWp3iBJ+nIKVpC75IWmtx8PnwObdcK6UXSq87MXg7L77fbwo+eG1SDppIFKZBEME0JyWMsRCZqWGoM1+RlUSVUtZFwDI1QidCqIz+IhqDzzR2WSJr+6hSlo/4Ww1BP5wvNXd0eqdufkuk7Bg7jYnmRyvMqNWgq6vLESVuch+z7tRvoH1d2W9qRtoO+0VzmJoqw5jPZcE3Nz5tz0dkroI7loiR8VthQu8jY2B6AAtxkxlSQ2BULq0w9XrdldtKpVJte8+nDSg+2WhDZUI6VjtnurZqJVIBWp/n2mvCvrZt+2vffZG1DxOs7Lfibxio6VOfCXuvxS+dB58lQdu0c6oMVWm5zrllyj76o3//UhjijdQmBc6kMf5tGZyNylJCxXuA9igtBoVY9d63ycOQwELYvbqRfb/5/j4POiHNRfoZ1pavnU4b3jKTTv3QteE6dvKfnTcmNf3pM9oXBmbofWEM/yIQhhf6N3FKTUWXGVcn4Ph87w679q7wTomemhTJSPi/+t+LxSImJibail1oYYtms4m1tTVUq1XE43F36K5WhNH32/52wl2lG/b/rq6ut1KmaPrrJLxa3A/rg2Us5zEU3zv0/7D3+Zi2Xduw/dEJwvrrm2O9Zhmzj16r9S5MCNf7f4lwo8ywE2Ja7cJ3v72mdm77+2UQ9yJw0fbehcZwFbjIezsh62X6bef5Ov22JnEFXrO+YPbBd+95EEZ47fMWH98VHrGtywhn/O6kDZwHYcRZfaG03ARB4Aqw7+7uolqtYnx8HJFIpK3KC7Ww/f19d2ZhOp12B3LboKSL9s3+ZglxJxpgi16cJ9hdFK6y/r45v+i7fALmRYSfq9Afn5UhzBev93zscGPM8EPCdRfqqs/f1HtvEj7GPt803NSc2UhDAq9pnt7x8bFLt2FUYTQadelLDGjb3NzE9va2iyDN5/MYGxvz5pN+jHATtOA8s+n7gv8VJndR+CSYIXBzDO1dahAfC3xKG+hdwE1YD6xZVE3cWlCAmuHR0RHq9TqCIHDVZgYHB10UKau9FAoFbG9vIwgCxGIxTExMIJFIhGrwHxPcZN+vwww/RRp0FfgkmOGnuAFvcgN8zPP9scF15trnsw+CoK0qDJnh3t4eCoUCBgYGMDIygq6uLpf2wsIILKgeBAEWFxeRyWRcNLLmKp5ndvslw+1+/N+FD69738KF4WNE4o+xz58ihJks6b8k8WaBBE2TSKVSrtA2mSVPMTg6OsLw8DCmp6eRzWbbKpGwvY8VrmvqvIlnb+Hi8ElohjcJN4XItxvoFs4DX24YI7LJLG0h90gkgrGxMZdisbW1he3tbZTLZZycnCCXy2FiYgIDAwNtBSeA9mPJPsV9cbsnf9lwywxv4RY+QegUfagl5vQAXxaoCIIAh4eHaDabKBaL2N7exuHhIWKxGDKZDDKZzFtRnISbCAS5hVu4CNwywwvAVe39t5LgLVwE3ncKTafnfKkljB5lcex6vY56vY69vT1sbW0BgAucabVOT465c+cOxsbGMDIy4g5mVlDz68ceUXoTcEuD3j/cMsNbuIVPFCwjVGbFawBcKbR4PI6uri5X1Pr4+NiVLsvn80in067Aha/d26jGDw8XTci/hVtmeCG4RaZbeJ9wU/hlq6loreCenh5XxzYWi7mjk6jVse4tTzSgj9BXrcT6JW/30+Xhds7eP9wyw1u4hVtwYPMPqekFwelZoixczZQKljqj5sdAGwbKAO2lx26Z4S38UuH/AcdPVLHZuR5YAAAAAElFTkSuQmCC;rotation=-180;" parent="lljOV04hM253Ap9FNTPz-65" vertex="1">
          <mxGeometry x="24.643478260869564" y="89.7795" width="164.59947826086955" height="78.11034782608695" as="geometry" />
        </mxCell>
        <mxCell id="lljOV04hM253Ap9FNTPz-63" value="SBM" style="rounded=1;whiteSpace=wrap;html=1;shadow=0;strokeWidth=2;fillColor=#7DBAFF;fontSize=12;fontColor=#FFFFFF;align=center;strokeColor=#FF4112;" parent="lljOV04hM253Ap9FNTPz-65" vertex="1">
          <mxGeometry x="131.70833333333334" y="43.452" width="32.382083333333334" height="17.04" as="geometry" />
        </mxCell>
        <mxCell id="lljOV04hM253Ap9FNTPz-64" value="SBM" style="rounded=1;whiteSpace=wrap;html=1;shadow=0;strokeWidth=2;fillColor=#7DBAFF;fontSize=12;fontColor=#FFFFFF;align=center;strokeColor=#FF4112;" parent="lljOV04hM253Ap9FNTPz-65" vertex="1">
          <mxGeometry x="134.43333333333334" y="121.836" width="32.382083333333334" height="17.04" as="geometry" />
        </mxCell>
        <mxCell id="lljOV04hM253Ap9FNTPz-81" value="" style="group" parent="1" vertex="1" connectable="0">
          <mxGeometry x="591" y="246" width="59" height="331" as="geometry" />
        </mxCell>
        <mxCell id="lljOV04hM253Ap9FNTPz-73" value="TSP" style="rounded=1;whiteSpace=wrap;html=1;shadow=0;strokeWidth=2;fillColor=#0072BC;fontSize=12;fontColor=#FFFFFF;align=center;strokeColor=none;arcSize=3;verticalAlign=top;" parent="lljOV04hM253Ap9FNTPz-81" vertex="1">
          <mxGeometry width="59" height="331" as="geometry" />
        </mxCell>
        <mxCell id="lljOV04hM253Ap9FNTPz-76" value="&lt;p&gt;&lt;br&gt;&lt;/p&gt;&lt;p&gt;&lt;br&gt;&lt;/p&gt;&lt;p&gt;&lt;br&gt;&lt;/p&gt;&lt;p&gt;&lt;br&gt;&lt;/p&gt;&lt;p&gt;&lt;br&gt;&lt;/p&gt;&lt;p&gt;透传&lt;/p&gt;" style="rounded=1;whiteSpace=wrap;html=1;shadow=0;strokeWidth=2;fillColor=none;fontSize=11;fontColor=#FFFFFF;align=center;strokeColor=#FFFFFF;dashed=1;verticalAlign=top;" parent="lljOV04hM253Ap9FNTPz-81" vertex="1">
          <mxGeometry x="7.375" y="27.178885630498534" width="44.25" height="294.1143695014663" as="geometry" />
        </mxCell>
        <mxCell id="lljOV04hM253Ap9FNTPz-82" value="" style="shape=flexArrow;endArrow=classic;startArrow=classic;html=1;rounded=0;fontSize=7;fontColor=#FFFFFF;strokeColor=#FFFFFF;strokeWidth=2;entryX=0.419;entryY=0.706;entryDx=0;entryDy=0;entryPerimeter=0;startWidth=5.5;startSize=4.13;endWidth=5.5;endSize=4.13;width=4;" parent="1" edge="1">
          <mxGeometry width="100" height="100" relative="1" as="geometry">
            <mxPoint x="514" y="632" as="sourcePoint" />
            <mxPoint x="721.4499999999998" y="631.8399999999999" as="targetPoint" />
            <Array as="points" />
          </mxGeometry>
        </mxCell>
        <mxCell id="lljOV04hM253Ap9FNTPz-83" value="&lt;font style=&quot;font-size: 11px&quot;&gt;HTTP/2&lt;/font&gt;" style="edgeLabel;html=1;align=center;verticalAlign=bottom;resizable=0;points=[];fontSize=10;fontColor=#FFFFFF;labelPosition=center;verticalLabelPosition=top;labelBackgroundColor=none;" parent="lljOV04hM253Ap9FNTPz-82" vertex="1" connectable="0">
          <mxGeometry x="-0.181" y="-2" relative="1" as="geometry">
            <mxPoint x="5" y="-3" as="offset" />
          </mxGeometry>
        </mxCell>
        <mxCell id="lljOV04hM253Ap9FNTPz-85" value="" style="shape=flexArrow;endArrow=classic;startArrow=classic;html=1;rounded=0;fontSize=7;fontColor=#FFFFFF;strokeColor=#FFFFFF;strokeWidth=2;exitX=1.007;exitY=0.213;exitDx=0;exitDy=0;exitPerimeter=0;startWidth=5.5;startSize=4.13;endWidth=5.5;endSize=4.13;width=4;entryX=-0.002;entryY=0.239;entryDx=0;entryDy=0;entryPerimeter=0;" parent="1" edge="1">
          <mxGeometry width="100" height="100" relative="1" as="geometry">
            <mxPoint x="651.15" y="370.48999999999995" as="sourcePoint" />
            <mxPoint x="726.0020000000001" y="369.999" as="targetPoint" />
            <Array as="points">
              <mxPoint x="699.5399999999998" y="370.45000000000005" />
            </Array>
          </mxGeometry>
        </mxCell>
        <mxCell id="lljOV04hM253Ap9FNTPz-86" value="&lt;font style=&quot;font-size: 11px&quot;&gt;HTTPS&lt;/font&gt;" style="edgeLabel;html=1;align=center;verticalAlign=bottom;resizable=0;points=[];fontSize=10;fontColor=#FFFFFF;labelPosition=center;verticalLabelPosition=top;labelBackgroundColor=none;" parent="lljOV04hM253Ap9FNTPz-85" vertex="1" connectable="0">
          <mxGeometry x="-0.181" y="-2" relative="1" as="geometry">
            <mxPoint x="5" y="-3" as="offset" />
          </mxGeometry>
        </mxCell>
        <mxCell id="lljOV04hM253Ap9FNTPz-87" value="" style="shape=flexArrow;endArrow=classic;startArrow=classic;html=1;rounded=0;fontSize=7;fontColor=#FFFFFF;strokeColor=#FFFFFF;strokeWidth=2;exitX=1.007;exitY=0.213;exitDx=0;exitDy=0;exitPerimeter=0;startWidth=5.5;startSize=4.13;endWidth=5.5;endSize=4.13;width=4;entryX=-0.002;entryY=0.239;entryDx=0;entryDy=0;entryPerimeter=0;" parent="1" edge="1">
          <mxGeometry width="100" height="100" relative="1" as="geometry">
            <mxPoint x="651.1500000000001" y="452.49" as="sourcePoint" />
            <mxPoint x="726.002" y="451.999" as="targetPoint" />
            <Array as="points">
              <mxPoint x="699.5399999999998" y="452.45000000000005" />
            </Array>
          </mxGeometry>
        </mxCell>
        <mxCell id="lljOV04hM253Ap9FNTPz-88" value="&lt;span style=&quot;font-size: 11px&quot;&gt;MQ&lt;/span&gt;" style="edgeLabel;html=1;align=center;verticalAlign=bottom;resizable=0;points=[];fontSize=10;fontColor=#FFFFFF;labelPosition=center;verticalLabelPosition=top;labelBackgroundColor=none;" parent="lljOV04hM253Ap9FNTPz-87" vertex="1" connectable="0">
          <mxGeometry x="-0.181" y="-2" relative="1" as="geometry">
            <mxPoint x="5" y="-3" as="offset" />
          </mxGeometry>
        </mxCell>
        <mxCell id="OjVr_0bqtpeIBgxC1Dfs-3" value="" style="shape=flexArrow;endArrow=classic;startArrow=classic;html=1;rounded=0;fontSize=7;fontColor=#FFFFFF;strokeColor=#FFFFFF;strokeWidth=2;startWidth=5.5;startSize=4.13;endWidth=5.5;endSize=4.13;width=4;shadow=0;sketch=0;exitX=0.5;exitY=0;exitDx=0;exitDy=0;entryX=0.5;entryY=1;entryDx=0;entryDy=0;" edge="1" parent="1">
          <mxGeometry width="100" height="100" relative="1" as="geometry">
            <mxPoint x="1012" y="700" as="sourcePoint" />
            <mxPoint x="1013" y="655" as="targetPoint" />
            <Array as="points" />
          </mxGeometry>
        </mxCell>
      </root>
    </mxGraphModel>
  </diagram>
</mxfile>
